<?xml version="1.0" encoding="UTF-8" standalone="no"?>
<!-- Created with Inkscape (http://www.inkscape.org/) -->

<svg
   version="1.1"
   id="svg1"
   width="584.32501"
   height="330.78391"
   viewBox="0 0 584.32502 330.7839"
   sodipodi:docname="lab1_task2_diagram.pdf"
   xmlns:inkscape="http://www.inkscape.org/namespaces/inkscape"
   xmlns:sodipodi="http://sodipodi.sourceforge.net/DTD/sodipodi-0.dtd"
   xmlns="http://www.w3.org/2000/svg"
   xmlns:svg="http://www.w3.org/2000/svg">
  <defs
     id="defs1">
    <clipPath
       clipPathUnits="userSpaceOnUse"
       id="clipPath3">
      <path
         d="M 984.83919,876.75 H 2231.1608 v 712.5 H 984.83919 Z"
         transform="matrix(0.24000001,0,0,0.24000001,-247.4786,-212.42001)"
         clip-rule="evenodd"
         id="path3" />
    </clipPath>
    <clipPath
       clipPathUnits="userSpaceOnUse"
       id="clipPath6">
      <path
         d="M 984.83919,876.75 H 2231.1608 v 712.5 H 984.83919 Z"
         transform="matrix(0.24000001,0,0,0.24000001,-72.978594,-64.920001)"
         clip-rule="evenodd"
         id="path6" />
    </clipPath>
    <clipPath
       clipPathUnits="userSpaceOnUse"
       id="clipPath8">
      <path
         d="M 984.83919,876.75 H 2231.1608 v 712.5 H 984.83919 Z"
         transform="matrix(0.24000001,0,0,0.24000001,-72.978594,-64.920001)"
         clip-rule="evenodd"
         id="path8" />
    </clipPath>
    <clipPath
       clipPathUnits="userSpaceOnUse"
       id="clipPath10">
      <path
         d="M 984.83919,876.75 H 2231.1608 v 712.5 H 984.83919 Z"
         transform="matrix(0.24000001,0,0,0.24000001,-72.978594,-64.920001)"
         clip-rule="evenodd"
         id="path10" />
    </clipPath>
    <clipPath
       clipPathUnits="userSpaceOnUse"
       id="clipPath12">
      <path
         d="M 984.83919,876.75 H 2231.1608 v 712.5 H 984.83919 Z"
         transform="matrix(0.24000001,0,0,0.24000001,-72.978594,-64.920001)"
         clip-rule="evenodd"
         id="path12" />
    </clipPath>
    <clipPath
       clipPathUnits="userSpaceOnUse"
       id="clipPath14">
      <path
         d="M 984.83919,876.75 H 2231.1608 v 712.5 H 984.83919 Z"
         transform="matrix(0.24000001,0,0,0.24000001,-72.978594,-64.920001)"
         clip-rule="evenodd"
         id="path14" />
    </clipPath>
    <clipPath
       clipPathUnits="userSpaceOnUse"
       id="clipPath16">
      <path
         d="M 984.83919,876.75 H 2231.1608 v 712.5 H 984.83919 Z"
         transform="matrix(0.24000001,0,0,0.24000001,-72.978594,-64.920001)"
         clip-rule="evenodd"
         id="path16" />
    </clipPath>
    <clipPath
       clipPathUnits="userSpaceOnUse"
       id="clipPath18">
      <path
         d="M 984.83919,876.75 H 2231.1608 v 712.5 H 984.83919 Z"
         transform="matrix(0.24000001,0,0,0.24000001,-72.978594,-64.920001)"
         clip-rule="evenodd"
         id="path18" />
    </clipPath>
    <clipPath
       clipPathUnits="userSpaceOnUse"
       id="clipPath20">
      <path
         d="M 984.83919,876.75 H 2231.1608 v 712.5 H 984.83919 Z"
         transform="matrix(0.24000001,0,0,0.24000001,-72.978594,-64.920001)"
         clip-rule="evenodd"
         id="path20" />
    </clipPath>
    <clipPath
       clipPathUnits="userSpaceOnUse"
       id="clipPath22">
      <path
         d="M 984.83919,876.75 H 2231.1608 v 712.5 H 984.83919 Z"
         transform="matrix(0.24000001,0,0,0.24000001,-72.978594,-64.920001)"
         clip-rule="evenodd"
         id="path22" />
    </clipPath>
    <clipPath
       clipPathUnits="userSpaceOnUse"
       id="clipPath24">
      <path
         d="M 984.83919,876.75 H 2231.1608 v 712.5 H 984.83919 Z"
         transform="matrix(0.24000001,0,0,0.24000001,-72.978594,-64.920001)"
         clip-rule="evenodd"
         id="path24" />
    </clipPath>
    <clipPath
       clipPathUnits="userSpaceOnUse"
       id="clipPath26">
      <path
         d="M 984.83919,876.75 H 2231.1608 v 712.5 H 984.83919 Z"
         transform="matrix(0.24000001,0,0,0.24000001,-72.978594,-64.920001)"
         clip-rule="evenodd"
         id="path26" />
    </clipPath>
    <clipPath
       clipPathUnits="userSpaceOnUse"
       id="clipPath28">
      <path
         d="M 984.83919,876.75 H 2231.1608 v 712.5 H 984.83919 Z"
         transform="matrix(0.24000001,0,0,0.24000001,-72.978594,-64.920001)"
         clip-rule="evenodd"
         id="path28" />
    </clipPath>
    <clipPath
       clipPathUnits="userSpaceOnUse"
       id="clipPath30">
      <path
         d="M 984.83919,876.75 H 2231.1608 v 712.5 H 984.83919 Z"
         transform="matrix(0.24000001,0,0,0.24000001,-72.978594,-64.920001)"
         clip-rule="evenodd"
         id="path30" />
    </clipPath>
    <clipPath
       clipPathUnits="userSpaceOnUse"
       id="clipPath32">
      <path
         d="M 984.83919,876.75 H 2231.1608 v 712.5 H 984.83919 Z"
         transform="matrix(0.24000001,0,0,0.24000001,-72.978594,-64.920001)"
         clip-rule="evenodd"
         id="path32" />
    </clipPath>
    <clipPath
       clipPathUnits="userSpaceOnUse"
       id="clipPath34">
      <path
         d="M 984.83919,876.75 H 2231.1608 v 712.5 H 984.83919 Z"
         transform="matrix(0.24000001,0,0,0.24000001,-72.978594,-64.920001)"
         clip-rule="evenodd"
         id="path34" />
    </clipPath>
    <clipPath
       clipPathUnits="userSpaceOnUse"
       id="clipPath36">
      <path
         d="M 984.83919,876.75 H 2231.1608 v 712.5 H 984.83919 Z"
         transform="matrix(0.24000001,0,0,0.24000001,-72.978594,-64.920001)"
         clip-rule="evenodd"
         id="path36" />
    </clipPath>
    <clipPath
       clipPathUnits="userSpaceOnUse"
       id="clipPath38">
      <path
         d="M 984.83919,876.75 H 2231.1608 v 712.5 H 984.83919 Z"
         transform="matrix(0.24000001,0,0,0.24000001,-72.978594,-64.920001)"
         clip-rule="evenodd"
         id="path38" />
    </clipPath>
    <clipPath
       clipPathUnits="userSpaceOnUse"
       id="clipPath40">
      <path
         d="M 984.83919,876.75 H 2231.1608 v 712.5 H 984.83919 Z"
         transform="matrix(0.24000001,0,0,0.24000001,-72.978594,-64.920001)"
         clip-rule="evenodd"
         id="path40" />
    </clipPath>
    <clipPath
       clipPathUnits="userSpaceOnUse"
       id="clipPath42">
      <path
         d="M 984.83919,876.75 H 2231.1608 v 712.5 H 984.83919 Z"
         transform="matrix(0.24000001,0,0,0.24000001,-72.978594,-64.920001)"
         clip-rule="evenodd"
         id="path42" />
    </clipPath>
    <clipPath
       clipPathUnits="userSpaceOnUse"
       id="clipPath44">
      <path
         d="M 984.83919,876.75 H 2231.1608 v 712.5 H 984.83919 Z"
         transform="matrix(0.24000001,0,0,0.24000001,-72.978594,-64.920001)"
         clip-rule="evenodd"
         id="path44" />
    </clipPath>
    <clipPath
       clipPathUnits="userSpaceOnUse"
       id="clipPath46">
      <path
         d="M 984.83919,876.75 H 2231.1608 v 712.5 H 984.83919 Z"
         transform="matrix(0.24000001,0,0,0.24000001,-269.4786,-222.92001)"
         clip-rule="evenodd"
         id="path46" />
    </clipPath>
    <clipPath
       clipPathUnits="userSpaceOnUse"
       id="clipPath48">
      <path
         d="M 984.83919,876.75 H 2231.1608 v 712.5 H 984.83919 Z"
         transform="matrix(0.24000001,0,0,0.24000001,-247.4786,-212.42001)"
         clip-rule="evenodd"
         id="path48" />
    </clipPath>
    <clipPath
       clipPathUnits="userSpaceOnUse"
       id="clipPath49">
      <path
         d="m 1020.972,1076.75 h 207.8776 v 62.5 H 1020.972 Z"
         transform="matrix(0.24000001,0,0,0.24000001,-246.03328,-269.42001)"
         clip-rule="evenodd"
         id="path49" />
    </clipPath>
    <clipPath
       clipPathUnits="userSpaceOnUse"
       id="clipPath51">
      <path
         d="m 1020.972,1076.75 h 207.8776 v 62.5 H 1020.972 Z"
         transform="matrix(0.32,0,0,0.32,13.44,13.440001)"
         clip-rule="evenodd"
         id="path51" />
    </clipPath>
    <clipPath
       clipPathUnits="userSpaceOnUse"
       id="clipPath53">
      <path
         d="M 984.83919,876.75 H 2231.1608 v 712.5 H 984.83919 Z"
         transform="matrix(0.24000001,0,0,0.24000001,-372.4786,-225.42)"
         clip-rule="evenodd"
         id="path53" />
    </clipPath>
    <clipPath
       clipPathUnits="userSpaceOnUse"
       id="clipPath56">
      <path
         d="M 984.83919,876.75 H 2231.1608 v 712.5 H 984.83919 Z"
         transform="matrix(0.24000001,0,0,0.24000001,-386.9786,-252.92)"
         clip-rule="evenodd"
         id="path56" />
    </clipPath>
    <clipPath
       clipPathUnits="userSpaceOnUse"
       id="clipPath58">
      <path
         d="M 984.83919,876.75 H 2231.1608 v 712.5 H 984.83919 Z"
         transform="matrix(0.24000001,0,0,0.24000001,-372.4786,-225.42)"
         clip-rule="evenodd"
         id="path58" />
    </clipPath>
    <clipPath
       clipPathUnits="userSpaceOnUse"
       id="clipPath59">
      <path
         d="m 1549.097,1147.5833 h 151.6276 v 62.5 H 1549.097 Z"
         transform="matrix(0.24000001,0,0,0.24000001,-372.78329,-286.42)"
         clip-rule="evenodd"
         id="path59" />
    </clipPath>
    <clipPath
       clipPathUnits="userSpaceOnUse"
       id="clipPath61">
      <path
         d="m 1549.097,1147.5833 h 151.6276 v 62.5 H 1549.097 Z"
         transform="matrix(0.32,0,0,0.32,13.44,13.440001)"
         clip-rule="evenodd"
         id="path61" />
    </clipPath>
    <clipPath
       clipPathUnits="userSpaceOnUse"
       id="clipPath63">
      <path
         d="M 984.83919,876.75 H 2231.1608 v 712.5 H 984.83919 Z"
         transform="matrix(0.24000001,0,0,0.24000001,-487.47861,-233.42001)"
         clip-rule="evenodd"
         id="path63" />
    </clipPath>
    <clipPath
       clipPathUnits="userSpaceOnUse"
       id="clipPath72">
      <path
         d="m 2006.1608,939.25 h 175 v 200 h -175 z"
         transform="matrix(0.24000001,0,0,0.24000001,-486.27852,-232.01992)"
         clip-rule="evenodd"
         id="path72" />
    </clipPath>
    <clipPath
       clipPathUnits="userSpaceOnUse"
       id="clipPath77">
      <path
         d="M 984.83919,876.75 H 2231.1608 v 712.5 H 984.83919 Z"
         transform="matrix(0.24000001,0,0,0.24000001,-487.47861,-233.42001)"
         clip-rule="evenodd"
         id="path77" />
    </clipPath>
    <clipPath
       clipPathUnits="userSpaceOnUse"
       id="clipPath78">
      <path
         d="m 2030.5423,1114.25 h 126.237 v 62.5 h -126.237 z"
         transform="matrix(0.24000001,0,0,0.24000001,-488.33016,-278.42001)"
         clip-rule="evenodd"
         id="path78" />
    </clipPath>
    <clipPath
       clipPathUnits="userSpaceOnUse"
       id="clipPath80">
      <path
         d="m 2030.5423,1114.25 h 126.237 v 62.5 h -126.237 z"
         transform="matrix(0.32,0,0,0.32,13.44,13.440001)"
         clip-rule="evenodd"
         id="path80" />
    </clipPath>
    <clipPath
       clipPathUnits="userSpaceOnUse"
       id="clipPath82">
      <path
         d="M 984.83919,876.75 H 2231.1608 v 712.5 H 984.83919 Z"
         transform="matrix(0.24000001,0,0,0.24000001,-487.47861,-299.42001)"
         clip-rule="evenodd"
         id="path82" />
    </clipPath>
    <clipPath
       clipPathUnits="userSpaceOnUse"
       id="clipPath91">
      <path
         d="m 1997.8275,1210.0833 h 254.1666 v 283.3334 h -254.1666 z"
         clip-rule="evenodd"
         id="path91" />
    </clipPath>
    <clipPath
       clipPathUnits="userSpaceOnUse"
       id="clipPath93">
      <path
         d="m 1997.8275,1210.0833 h 254.1666 v 283.3334 h -254.1666 z"
         transform="matrix(0.53333333,0,0,0.48,-1083.2858,-598.84)"
         clip-rule="evenodd"
         id="path93" />
    </clipPath>
    <clipPath
       clipPathUnits="userSpaceOnUse"
       id="clipPath95">
      <path
         d="m 1997.8275,1210.0833 h 254.1666 v 283.3334 h -254.1666 z"
         clip-rule="evenodd"
         id="path95" />
    </clipPath>
    <clipPath
       clipPathUnits="userSpaceOnUse"
       id="clipPath97">
      <path
         d="m 1997.8275,1210.0833 h 254.1666 v 283.3334 h -254.1666 z"
         transform="matrix(0.53333333,0,0,0.48,-1083.2858,-598.84)"
         clip-rule="evenodd"
         id="path97" />
    </clipPath>
    <clipPath
       clipPathUnits="userSpaceOnUse"
       id="clipPath99">
      <path
         d="m 1997.8275,1210.0833 h 254.1666 v 283.3334 h -254.1666 z"
         clip-rule="evenodd"
         id="path99" />
    </clipPath>
    <clipPath
       clipPathUnits="userSpaceOnUse"
       id="clipPath101">
      <path
         d="m 1997.8275,1210.0833 h 254.1666 v 283.3334 h -254.1666 z"
         transform="matrix(0.53333333,0,0,0.48,-1083.2858,-598.84)"
         clip-rule="evenodd"
         id="path101" />
    </clipPath>
    <clipPath
       clipPathUnits="userSpaceOnUse"
       id="clipPath103">
      <path
         d="m 1997.8275,1210.0833 h 254.1666 v 283.3334 h -254.1666 z"
         clip-rule="evenodd"
         id="path103" />
    </clipPath>
    <clipPath
       clipPathUnits="userSpaceOnUse"
       id="clipPath105">
      <path
         d="m 1997.8275,1210.0833 h 254.1666 v 283.3334 h -254.1666 z"
         clip-rule="evenodd"
         id="path105" />
    </clipPath>
    <clipPath
       clipPathUnits="userSpaceOnUse"
       id="clipPath107">
      <path
         d="m 1997.8275,1210.0833 h 254.1666 v 283.3334 h -254.1666 z"
         clip-rule="evenodd"
         id="path107" />
    </clipPath>
    <clipPath
       clipPathUnits="userSpaceOnUse"
       id="clipPath109">
      <path
         d="m 1997.8275,1210.0833 h 254.1666 v 283.3334 h -254.1666 z"
         clip-rule="evenodd"
         id="path109" />
    </clipPath>
    <clipPath
       clipPathUnits="userSpaceOnUse"
       id="clipPath111">
      <path
         d="m 1997.8275,1210.0833 h 254.1666 v 283.3334 h -254.1666 z"
         clip-rule="evenodd"
         id="path111" />
    </clipPath>
    <clipPath
       clipPathUnits="userSpaceOnUse"
       id="clipPath113">
      <path
         d="m 1997.8275,1210.0833 h 254.1666 v 283.3334 h -254.1666 z"
         clip-rule="evenodd"
         id="path113" />
    </clipPath>
    <clipPath
       clipPathUnits="userSpaceOnUse"
       id="clipPath115">
      <path
         d="m 1997.8275,1210.0833 h 254.1666 v 283.3334 h -254.1666 z"
         clip-rule="evenodd"
         id="path115" />
    </clipPath>
    <clipPath
       clipPathUnits="userSpaceOnUse"
       id="clipPath120">
      <path
         d="M 984.83919,876.75 H 2231.1608 v 712.5 H 984.83919 Z"
         transform="matrix(0.24000001,0,0,0.24000001,-487.47861,-299.42001)"
         clip-rule="evenodd"
         id="path120" />
    </clipPath>
    <clipPath
       clipPathUnits="userSpaceOnUse"
       id="clipPath121">
      <path
         d="m 2031.7467,1464.25 h 186.3282 v 116.6667 h -186.3282 z"
         transform="matrix(0.24000001,0,0,0.24000001,-488.61923,-362.42001)"
         clip-rule="evenodd"
         id="path121" />
    </clipPath>
    <clipPath
       clipPathUnits="userSpaceOnUse"
       id="clipPath123">
      <path
         d="m 2031.7467,1464.25 h 186.3282 v 116.6667 h -186.3282 z"
         transform="matrix(0.32,0,0,0.32,13.44,13.440001)"
         clip-rule="evenodd"
         id="path123" />
    </clipPath>
    <clipPath
       clipPathUnits="userSpaceOnUse"
       id="clipPath125">
      <path
         d="m 2031.7467,1464.25 h 186.3282 v 116.6667 h -186.3282 z"
         transform="matrix(0.24000001,0,0,0.24000001,-490.55673,-375.42001)"
         clip-rule="evenodd"
         id="path125" />
    </clipPath>
    <clipPath
       clipPathUnits="userSpaceOnUse"
       id="clipPath127">
      <path
         d="M 984.83919,876.75 H 2231.1608 v 712.5 H 984.83919 Z"
         transform="matrix(0.24000001,0,0,0.24000001,-262.4786,-299.42001)"
         clip-rule="evenodd"
         id="path127" />
    </clipPath>
    <clipPath
       clipPathUnits="userSpaceOnUse"
       id="clipPath136">
      <path
         d="m 1068.6608,1222.5833 h 175 v 175 h -175 z"
         clip-rule="evenodd"
         id="path136" />
    </clipPath>
    <clipPath
       clipPathUnits="userSpaceOnUse"
       id="clipPath141">
      <path
         d="M 984.83919,876.75 H 2231.1608 v 712.5 H 984.83919 Z"
         transform="matrix(0.24000001,0,0,0.24000001,-262.4786,-299.42001)"
         clip-rule="evenodd"
         id="path141" />
    </clipPath>
    <clipPath
       clipPathUnits="userSpaceOnUse"
       id="clipPath142">
      <path
         d="m 993.17253,1380.9167 h 325.97657 v 62.5 H 993.17253 Z"
         transform="matrix(0.24000001,0,0,0.24000001,-239.86141,-342.42001)"
         clip-rule="evenodd"
         id="path142" />
    </clipPath>
    <clipPath
       clipPathUnits="userSpaceOnUse"
       id="clipPath144">
      <path
         d="m 993.17253,1380.9167 h 325.97657 v 62.5 H 993.17253 Z"
         transform="matrix(0.32,0,0,0.32,13.44,13.440001)"
         clip-rule="evenodd"
         id="path144" />
    </clipPath>
    <clipPath
       clipPathUnits="userSpaceOnUse"
       id="clipPath146">
      <path
         d="M 984.83919,876.75 H 2231.1608 v 712.5 H 984.83919 Z"
         clip-rule="evenodd"
         id="path146" />
    </clipPath>
    <clipPath
       clipPathUnits="userSpaceOnUse"
       id="clipPath148">
      <path
         d="M 984.83919,876.75 H 2231.1608 v 712.5 H 984.83919 Z"
         transform="matrix(0.24000001,0,0,0.24000001,-72.478592,-64.420001)"
         clip-rule="evenodd"
         id="path148" />
    </clipPath>
    <clipPath
       clipPathUnits="userSpaceOnUse"
       id="clipPath150">
      <path
         d="M 984.83919,876.75 H 2231.1608 v 712.5 H 984.83919 Z"
         transform="matrix(0.24000001,0,0,0.24000001,-72.478592,-64.420001)"
         clip-rule="evenodd"
         id="path150" />
    </clipPath>
    <clipPath
       clipPathUnits="userSpaceOnUse"
       id="clipPath152">
      <path
         d="M 984.83919,876.75 H 2231.1608 v 712.5 H 984.83919 Z"
         clip-rule="evenodd"
         id="path152" />
    </clipPath>
    <clipPath
       clipPathUnits="userSpaceOnUse"
       id="clipPath154">
      <path
         d="M 984.83919,876.75 H 2231.1608 v 712.5 H 984.83919 Z"
         transform="matrix(0.24000001,0,0,0.24000001,-72.478592,-64.420001)"
         clip-rule="evenodd"
         id="path154" />
    </clipPath>
    <clipPath
       clipPathUnits="userSpaceOnUse"
       id="clipPath156">
      <path
         d="M 984.83919,876.75 H 2231.1608 v 712.5 H 984.83919 Z"
         clip-rule="evenodd"
         id="path156" />
    </clipPath>
    <clipPath
       clipPathUnits="userSpaceOnUse"
       id="clipPath158">
      <path
         d="M 984.83919,876.75 H 2231.1608 v 712.5 H 984.83919 Z"
         transform="matrix(0.24000001,0,0,0.24000001,-72.478592,-64.420001)"
         clip-rule="evenodd"
         id="path158" />
    </clipPath>
    <clipPath
       clipPathUnits="userSpaceOnUse"
       id="clipPath160">
      <path
         d="M 984.83919,876.75 H 2231.1608 v 712.5 H 984.83919 Z"
         clip-rule="evenodd"
         id="path160" />
    </clipPath>
    <clipPath
       clipPathUnits="userSpaceOnUse"
       id="clipPath162">
      <path
         d="M 984.83919,876.75 H 2231.1608 v 712.5 H 984.83919 Z"
         transform="matrix(0.24000001,0,0,0.24000001,-72.478592,-64.420001)"
         clip-rule="evenodd"
         id="path162" />
    </clipPath>
    <clipPath
       clipPathUnits="userSpaceOnUse"
       id="clipPath164">
      <path
         d="M 984.83919,876.75 H 2231.1608 v 712.5 H 984.83919 Z"
         clip-rule="evenodd"
         id="path164" />
    </clipPath>
    <clipPath
       clipPathUnits="userSpaceOnUse"
       id="clipPath166">
      <path
         d="M 984.83919,876.75 H 2231.1608 v 712.5 H 984.83919 Z"
         transform="matrix(0.24000001,0,0,0.24000001,-72.478592,-64.420001)"
         clip-rule="evenodd"
         id="path166" />
    </clipPath>
    <clipPath
       clipPathUnits="userSpaceOnUse"
       id="clipPath168">
      <path
         d="M 984.83919,876.75 H 2231.1608 v 712.5 H 984.83919 Z"
         clip-rule="evenodd"
         id="path168" />
    </clipPath>
    <clipPath
       clipPathUnits="userSpaceOnUse"
       id="clipPath170">
      <path
         d="M 984.83919,876.75 H 2231.1608 v 712.5 H 984.83919 Z"
         transform="matrix(0.24000001,0,0,0.24000001,-72.478592,-64.420001)"
         clip-rule="evenodd"
         id="path170" />
    </clipPath>
    <clipPath
       clipPathUnits="userSpaceOnUse"
       id="clipPath172">
      <path
         d="M 984.83919,876.75 H 2231.1608 v 712.5 H 984.83919 Z"
         clip-rule="evenodd"
         id="path172" />
    </clipPath>
  </defs>
  <sodipodi:namedview
     id="namedview1"
     pagecolor="#ffffff"
     bordercolor="#000000"
     borderopacity="0.25"
     inkscape:showpageshadow="2"
     inkscape:pageopacity="0.0"
     inkscape:pagecheckerboard="0"
     inkscape:deskcolor="#d1d1d1"
     inkscape:export-bgcolor="#ffffffff">
    <inkscape:page
       x="0"
       y="0"
       inkscape:label="1"
       id="page1"
       width="584.32501"
       height="330.78391"
       margin="0"
       bleed="0"
       inkscape:export-filename="lab1_task2_diagram.svg"
       inkscape:export-xdpi="96"
       inkscape:export-ydpi="96" />
  </sodipodi:namedview>
  <rect
     style="fill:#ffffff;stroke-width:1.53401"
     id="rect172"
     width="584.32501"
     height="330.78391"
     x="236.85072"
     y="241.15929"
     transform="translate(-236.85072,-241.15928)" />
  <g
     id="g1"
     inkscape:groupmode="layer"
     inkscape:label="1"
     transform="translate(-236.85072,-241.15928)">
    <path
       id="path2"
       d="M 0,0 H 45 V 44 H 0 Z"
       style="fill:#ffffff;fill-opacity:1;fill-rule:nonzero;stroke:none"
       transform="matrix(1.3333333,0,0,1.3333333,343.41146,296.66667)"
       clip-path="url(#clipPath3)" />
    <path
       id="path5"
       d="m 175,170 h 4"
       style="fill:none;stroke:#000000;stroke-width:0.24;stroke-linecap:butt;stroke-linejoin:miter;stroke-miterlimit:2;stroke-dasharray:none;stroke-opacity:1"
       transform="matrix(1.3333333,0,0,1.3333333,110.74479,100)"
       clip-path="url(#clipPath6)" />
    <path
       id="path7"
       d="M 179,170 V 157"
       style="fill:none;stroke:#000000;stroke-width:0.24;stroke-linecap:butt;stroke-linejoin:miter;stroke-miterlimit:2;stroke-dasharray:none;stroke-opacity:1"
       transform="matrix(1.3333333,0,0,1.3333333,110.74479,100)"
       clip-path="url(#clipPath8)" />
    <path
       id="path9"
       d="m 179,157 h 5"
       style="fill:none;stroke:#000000;stroke-width:0.24;stroke-linecap:butt;stroke-linejoin:miter;stroke-miterlimit:2;stroke-dasharray:none;stroke-opacity:1"
       transform="matrix(1.3333333,0,0,1.3333333,110.74479,100)"
       clip-path="url(#clipPath10)" />
    <path
       id="path11"
       d="m 184,157 v -8"
       style="fill:none;stroke:#000000;stroke-width:0.24;stroke-linecap:butt;stroke-linejoin:miter;stroke-miterlimit:2;stroke-dasharray:none;stroke-opacity:1"
       transform="matrix(1.3333333,0,0,1.3333333,110.74479,100)"
       clip-path="url(#clipPath12)" />
    <path
       id="path13"
       d="m 184,149 h 4"
       style="fill:none;stroke:#000000;stroke-width:0.24;stroke-linecap:butt;stroke-linejoin:miter;stroke-miterlimit:2;stroke-dasharray:none;stroke-opacity:1"
       transform="matrix(1.3333333,0,0,1.3333333,110.74479,100)"
       clip-path="url(#clipPath14)" />
    <path
       id="path15"
       d="m 188,149 h 5"
       style="fill:none;stroke:#000000;stroke-width:0.24;stroke-linecap:butt;stroke-linejoin:miter;stroke-miterlimit:2;stroke-dasharray:none;stroke-opacity:1"
       transform="matrix(1.3333333,0,0,1.3333333,110.74479,100)"
       clip-path="url(#clipPath16)" />
    <path
       id="path17"
       d="m 193,149 v 8"
       style="fill:none;stroke:#000000;stroke-width:0.24;stroke-linecap:butt;stroke-linejoin:miter;stroke-miterlimit:2;stroke-dasharray:none;stroke-opacity:1"
       transform="matrix(1.3333333,0,0,1.3333333,110.74479,100)"
       clip-path="url(#clipPath18)" />
    <path
       id="path19"
       d="m 193,157 h 4"
       style="fill:none;stroke:#000000;stroke-width:0.24;stroke-linecap:butt;stroke-linejoin:miter;stroke-miterlimit:2;stroke-dasharray:none;stroke-opacity:1"
       transform="matrix(1.3333333,0,0,1.3333333,110.74479,100)"
       clip-path="url(#clipPath20)" />
    <path
       id="path21"
       d="m 197,157 v 13"
       style="fill:none;stroke:#000000;stroke-width:0.24;stroke-linecap:butt;stroke-linejoin:miter;stroke-miterlimit:2;stroke-dasharray:none;stroke-opacity:1"
       transform="matrix(1.3333333,0,0,1.3333333,110.74479,100)"
       clip-path="url(#clipPath22)" />
    <path
       id="path23"
       d="m 197,170 h 4"
       style="fill:none;stroke:#000000;stroke-width:0.24;stroke-linecap:butt;stroke-linejoin:miter;stroke-miterlimit:2;stroke-dasharray:none;stroke-opacity:1"
       transform="matrix(1.3333333,0,0,1.3333333,110.74479,100)"
       clip-path="url(#clipPath24)" />
    <path
       id="path25"
       d="m 201,170 v 12"
       style="fill:none;stroke:#000000;stroke-width:0.24;stroke-linecap:butt;stroke-linejoin:miter;stroke-miterlimit:2;stroke-dasharray:none;stroke-opacity:1"
       transform="matrix(1.3333333,0,0,1.3333333,110.74479,100)"
       clip-path="url(#clipPath26)" />
    <path
       id="path27"
       d="m 201,182 h 5"
       style="fill:none;stroke:#000000;stroke-width:0.24;stroke-linecap:butt;stroke-linejoin:miter;stroke-miterlimit:2;stroke-dasharray:none;stroke-opacity:1"
       transform="matrix(1.3333333,0,0,1.3333333,110.74479,100)"
       clip-path="url(#clipPath28)" />
    <path
       id="path29"
       d="m 206,182 v 8"
       style="fill:none;stroke:#000000;stroke-width:0.24;stroke-linecap:butt;stroke-linejoin:miter;stroke-miterlimit:2;stroke-dasharray:none;stroke-opacity:1"
       transform="matrix(1.3333333,0,0,1.3333333,110.74479,100)"
       clip-path="url(#clipPath30)" />
    <path
       id="path31"
       d="m 206,190 h 4"
       style="fill:none;stroke:#000000;stroke-width:0.24;stroke-linecap:butt;stroke-linejoin:miter;stroke-miterlimit:2;stroke-dasharray:none;stroke-opacity:1"
       transform="matrix(1.3333333,0,0,1.3333333,110.74479,100)"
       clip-path="url(#clipPath32)" />
    <path
       id="path33"
       d="m 210,190 h 5"
       style="fill:none;stroke:#000000;stroke-width:0.24;stroke-linecap:butt;stroke-linejoin:miter;stroke-miterlimit:2;stroke-dasharray:none;stroke-opacity:1"
       transform="matrix(1.3333333,0,0,1.3333333,110.74479,100)"
       clip-path="url(#clipPath34)" />
    <path
       id="path35"
       d="m 215,190 v -8"
       style="fill:none;stroke:#000000;stroke-width:0.24;stroke-linecap:butt;stroke-linejoin:miter;stroke-miterlimit:2;stroke-dasharray:none;stroke-opacity:1"
       transform="matrix(1.3333333,0,0,1.3333333,110.74479,100)"
       clip-path="url(#clipPath36)" />
    <path
       id="path37"
       d="m 215,182 h 4"
       style="fill:none;stroke:#000000;stroke-width:0.24;stroke-linecap:butt;stroke-linejoin:miter;stroke-miterlimit:2;stroke-dasharray:none;stroke-opacity:1"
       transform="matrix(1.3333333,0,0,1.3333333,110.74479,100)"
       clip-path="url(#clipPath38)" />
    <path
       id="path39"
       d="M 219,182 V 170"
       style="fill:none;stroke:#000000;stroke-width:0.24;stroke-linecap:butt;stroke-linejoin:miter;stroke-miterlimit:2;stroke-dasharray:none;stroke-opacity:1"
       transform="matrix(1.3333333,0,0,1.3333333,110.74479,100)"
       clip-path="url(#clipPath40)" />
    <path
       id="path41"
       d="m 175,148 v 43"
       style="fill:none;stroke:#000000;stroke-width:0.24;stroke-linecap:butt;stroke-linejoin:miter;stroke-miterlimit:2;stroke-dasharray:none;stroke-opacity:1"
       transform="matrix(1.3333333,0,0,1.3333333,110.74479,100)"
       clip-path="url(#clipPath42)" />
    <path
       id="path43"
       d="m 175,170 h 44"
       style="fill:none;stroke:#000000;stroke-width:0.24;stroke-linecap:butt;stroke-linejoin:miter;stroke-miterlimit:2;stroke-dasharray:none;stroke-opacity:1"
       transform="matrix(1.3333333,0,0,1.3333333,110.74479,100)"
       clip-path="url(#clipPath44)" />
    <path
       id="path45"
       d="M 0.77441501,9.758081e-4 V -7.1591805 H 3.2353525 c 0.553711,0 1.0078125,0.043945 1.359375,0.1289063 0.3515625,0.079102 0.6708985,0.2431641 0.9609375,0.4921875 0.375,0.3222656 0.6591797,0.7265625 0.8554688,1.21875 0.1875,0.5009766 0.28125,1.0664063 0.28125,1.6992188 0,0.5478515 -0.067383,1.03125 -0.1992188,1.453125 -0.1259765,0.4160156 -0.2871094,0.758789 -0.4804687,1.03125 -0.2050782,0.28124996 -0.421875,0.50097652 -0.65625,0.65624996 -0.234375,0.1640625 -0.5214844,0.28710937 -0.8554688,0.36328125 C 4.1640635,-0.03711013 3.7802744,9.758081e-4 3.35254,9.758081e-4 Z M 1.7236338,-0.84277419 h 1.5234375 c 0.46875,0 0.8378906,-0.0410156 1.1132812,-0.12890625 C 4.6240244,-1.0566414 4.85254,-1.1972664 5.04004,-1.3935554 c 0.1933594,-0.1933594 0.3544922,-0.4804688 0.4804688,-0.8554688 0.1230468,-0.375 0.1875,-0.8349609 0.1875,-1.3828125 0,-0.7412109 -0.1230469,-1.3154297 -0.3632813,-1.7226563 -0.2519531,-0.4042968 -0.5507812,-0.6738281 -0.9023437,-0.8085937 -0.2519532,-0.099609 -0.65625,-0.1523438 -1.21875,-0.1523438 h -1.5 z M 7.66504,-2.2958992 8.5673838,-2.3779304 c 0.038086,0.3603515 0.1347656,0.6533203 0.2929687,0.8789062 0.1464844,0.234375 0.3867188,0.421875 0.7148438,0.56250001 0.328125,0.140625 0.6943357,0.2109375 1.1015627,0.2109375 0.357422,0 0.679687,-0.0527344 0.960937,-0.1640625 0.272461,-0.0996094 0.47461,-0.24902341 0.609375,-0.44531251 0.131836,-0.1787109 0.199219,-0.3808594 0.199219,-0.609375 0,-0.2167969 -0.06445,-0.4130859 -0.1875,-0.5859375 -0.134766,-0.1640625 -0.348633,-0.3046875 -0.644531,-0.421875 -0.196289,-0.070312 -0.621094,-0.1875 -1.277344,-0.3515625 C 9.680665,-3.4589851 9.2177744,-3.6083992 8.9541025,-3.7490242 8.6171885,-3.9189461 8.3623057,-4.1416023 8.1923838,-4.4169929 8.0195322,-4.6806648 7.937501,-4.9794929 7.94629,-5.307618 c 0,-0.3574218 0.099609,-0.6943359 0.3046875,-1.0078125 0.2021485,-0.3105468 0.5039063,-0.5507812 0.9023438,-0.7148437 0.3808594,-0.1640625 0.8203125,-0.2460938 1.3124997,-0.2460938 0.521485,0 0.990235,0.087891 1.40625,0.2578125 0.398438,0.1728516 0.706055,0.421875 0.925782,0.75 0.216796,0.3369141 0.333984,0.7119141 0.351562,1.125 l -0.902344,0.070312 c -0.05566,-0.4511718 -0.219726,-0.7910156 -0.492187,-1.0195312 -0.290039,-0.2255859 -0.708985,-0.3427734 -1.253906,-0.3515625 -0.5800786,0 -0.9960942,0.1054687 -1.2539067,0.3164062 -0.2578125,0.2109375 -0.3867188,0.4658204 -0.3867188,0.7617188 0,0.2578125 0.087891,0.46875 0.2695313,0.6328125 0.1787109,0.1728516 0.65625,0.3398438 1.4296872,0.5039063 0.764649,0.1816406 1.324219,0.3515625 1.675782,0.515625 0.351562,0.1582031 0.626953,0.383789 0.832031,0.6796875 0.193359,0.2988281 0.292969,0.6386718 0.292969,1.0195312 0,0.375 -0.111329,0.7324219 -0.328125,1.06640626 -0.219727,0.34570312 -0.527344,0.60644531 -0.925782,0.78515625 -0.416015,0.19335937 -0.875976,0.28710937 -1.382812,0.28125 -0.65625,0.005859 -1.2011721,-0.08789063 -1.6289065,-0.28125 -0.4394531,-0.1875 -0.7822265,-0.47167969 -1.03125,-0.85546871 -0.2519531,-0.375 -0.383789,-0.7998047 -0.3984375,-1.2773433 z M 14.649415,9.758081e-4 V -7.1591805 h 2.695313 c 0.474609,0.00879 0.861328,0.041016 1.160156,0.09375 0.304687,0.046875 0.574219,0.1523438 0.808594,0.3164063 0.240234,0.1640625 0.436523,0.3955078 0.585937,0.6914062 0.131836,0.2988282 0.202148,0.6210938 0.210938,0.9726563 -0.0088,0.609375 -0.205079,1.125 -0.585938,1.546875 -0.392578,0.421875 -1.089844,0.6328125 -2.097656,0.6328125 H 15.598634 V 9.758081e-4 Z M 15.598634,-3.7490242 h 1.839844 c 0.609375,0 1.045898,-0.1113281 1.3125,-0.3398437 0.257812,-0.225586 0.386718,-0.5449219 0.386718,-0.9609375 0,-0.2958985 -0.0791,-0.553711 -0.234375,-0.7734376 -0.149414,-0.2109375 -0.348633,-0.3515625 -0.597656,-0.421875 -0.164062,-0.046875 -0.457031,-0.070312 -0.878906,-0.070312 h -1.828125 z m 0,0"
       style="fill:#000000;fill-opacity:1;fill-rule:nonzero;stroke:none"
       aria-label="DSP"
       transform="matrix(1.3333333,0,0,1.3333333,372.74479,310.66667)"
       clip-path="url(#clipPath46)" />
    <path
       id="path47"
       d="M 0,0 H 45 V 44 H 0 Z"
       style="fill:none;stroke:#000000;stroke-width:0.565047;stroke-linecap:butt;stroke-linejoin:miter;stroke-miterlimit:2;stroke-dasharray:none;stroke-opacity:1"
       transform="matrix(1.3333333,0,0,1.3333333,343.41146,296.66667)"
       clip-path="url(#clipPath48)" />
    <g
       id="g50"
       clip-path="url(#clipPath51)">
      <path
         d="m 0.44531375,-2.2958994 0.90234375,-0.082031 c 0.038086,0.3603516 0.1347656,0.6533203 0.2929688,0.8789063 0.1464843,0.234375 0.3867187,0.421875 0.7148437,0.56249998 0.328125,0.140625 0.6943359,0.2109375 1.1015625,0.2109375 0.3574219,0 0.6796875,-0.0527344 0.9609375,-0.1640625 0.2724609,-0.0996094 0.4746094,-0.24902348 0.609375,-0.44531248 0.1318359,-0.178711 0.1992188,-0.3808594 0.1992188,-0.609375 0,-0.2167969 -0.064453,-0.413086 -0.1875,-0.5859375 C 4.9042981,-2.6943369 4.6904309,-2.8349619 4.3945325,-2.9521494 4.1982434,-3.0224619 3.7734388,-3.1396494 3.1171888,-3.3037119 2.4609388,-3.4589854 1.9980481,-3.6083994 1.7343763,-3.7490244 1.3974622,-3.9189463 1.1425794,-4.1416026 0.9726575,-4.4169932 c -0.17285156,-0.2636719 -0.25488281,-0.5625 -0.24609375,-0.890625 0,-0.3574219 0.0996094,-0.6943359 0.30468755,-1.0078125 0.2021484,-0.3105469 0.5039062,-0.5507812 0.9023437,-0.7148437 0.3808594,-0.1640625 0.8203125,-0.2460938 1.3125,-0.2460938 0.5214844,0 0.9902344,0.087891 1.40625,0.2578125 0.3984375,0.1728516 0.7060547,0.421875 0.9257813,0.75 0.2167968,0.3369141 0.3339843,0.7119141 0.3515625,1.125 L 5.027345,-5.0732432 C 4.9716809,-5.5244151 4.8076184,-5.8642588 4.5351575,-6.0927744 4.2451184,-6.3183604 3.8261731,-6.4355479 3.2812513,-6.4443369 c -0.5800782,0 -0.9960938,0.1054687 -1.2539063,0.3164062 -0.2578125,0.2109375 -0.3867187,0.4658203 -0.3867187,0.7617188 0,0.2578125 0.087891,0.46875 0.2695312,0.6328125 0.1787109,0.1728515 0.65625,0.3398437 1.4296875,0.5039062 0.7646484,0.1816406 1.3242188,0.3515625 1.6757813,0.515625 0.3515625,0.1582031 0.6269531,0.3837891 0.8320312,0.6796875 0.1933594,0.2988282 0.2929688,0.6386719 0.2929688,1.0195313 0,0.375 -0.1113282,0.7324219 -0.328125,1.06640623 -0.2197266,0.34570312 -0.5273438,0.60644531 -0.9257813,0.78515625 -0.4160156,0.19335938 -0.8759766,0.28710938 -1.3828125,0.28125 -0.65625,0.005859 -1.2011719,-0.08789062 -1.6289062,-0.28125 -0.4394532,-0.1875 -0.7822266,-0.47167969 -1.03125005,-0.85546878 -0.25195312,-0.375 -0.38378906,-0.7998047 -0.3984375,-1.2773437 z M 7.32422,-6.1396494 v -1.0195313 h 0.8789063 v 1.0195313 z m 0,6.1406249801 V -5.1787119 H 8.2031263 V 9.755801e-4 Z m 2.2060547,0 V -5.1787119 H 10.32715 v 0.7382812 c 0.375,-0.5683594 0.919922,-0.8554687 1.640625,-0.8554687 0.310547,0 0.600586,0.055664 0.867187,0.1640625 0.257813,0.1171875 0.451172,0.2666015 0.585938,0.4453125 0.123047,0.1816406 0.216797,0.3955078 0.28125,0.6445312 0.0293,0.1640625 0.04687,0.4511719 0.04687,0.8554688 V 9.755801e-4 H 12.870118 V -3.1513682 c 0,-0.3515625 -0.03516,-0.6210937 -0.105468,-0.8085937 -0.07031,-0.1699219 -0.19336,-0.3105469 -0.363282,-0.421875 -0.172851,-0.099609 -0.416015,-0.1523438 -0.726562,-0.1523438 -0.304688,0 -0.591797,0.1171875 -0.855469,0.3515625 -0.27539,0.2431641 -0.410156,0.6914063 -0.410156,1.3476563 V 9.755801e-4 Z M 18.629884,-1.6630869 l 0.902344,0.1054687 c -0.140625,0.5332032 -0.404297,0.94628909 -0.785156,1.24218753 -0.392579,0.29003906 -0.887696,0.43359375 -1.488282,0.43359375 -0.758789,0 -1.359375,-0.234375 -1.804687,-0.703125 -0.445313,-0.45996098 -0.667969,-1.11328128 -0.667969,-1.95703128 0,-0.8730469 0.225586,-1.5527344 0.679688,-2.0390625 0.445312,-0.4746094 1.02539,-0.7148437 1.746093,-0.7148437 0.694336,0 1.259766,0.234375 1.699219,0.703125 0.436524,0.477539 0.65625,1.1425781 0.65625,1.9921875 0,0.055664 0,0.1347656 0,0.234375 h -3.867187 c 0.0293,0.571289 0.190429,1.0078125 0.480468,1.3125 0.28711,0.2988281 0.647461,0.44531248 1.078125,0.44531248 0.319336,0.008789 0.597657,-0.0732422 0.832032,-0.24609375 0.225586,-0.16992183 0.404296,-0.43945313 0.539062,-0.80859373 z m -2.882812,-1.4296875 h 2.894531 c -0.04687,-0.4277344 -0.1875,-0.7792969 -0.421875,-1.0546875 -0.228516,-0.28125 -0.55957,-0.4248047 -0.996094,-0.4335938 -0.407226,0.00879 -0.74707,0.1464844 -1.019531,0.4101563 -0.28125,0.2666015 -0.433594,0.6269531 -0.457031,1.078125 z M 24.750001,9.755801e-4 22.851564,-7.1591807 h 0.972656 l 1.089844,4.6992188 c 0.117187,0.4921875 0.216797,0.9814453 0.304687,1.46484373 0.178711,-0.76464843 0.28418,-1.20703123 0.316407,-1.32421873 l 1.371093,-4.8398438 h 1.136719 l 1.03125,3.6210938 c 0.257813,0.899414 0.439453,1.7460937 0.550781,2.54296873 0.09375,-0.45117183 0.213867,-0.97265623 0.363282,-1.55859373 l 1.113281,-4.6054688 h 0.960937 l -1.96875,7.1601562801 h -0.914062 l -1.5,-5.4492187801 c -0.134766,-0.4511719 -0.210938,-0.7324219 -0.234375,-0.84375 -0.0791,0.3369141 -0.149414,0.6181641 -0.210938,0.84375 L 25.722658,9.755801e-4 Z M 35.838868,-0.64355567 c -0.328125,0.28125 -0.641601,0.47753906 -0.9375,0.5859375 -0.304687,0.1171875 -0.629882,0.17578125 -0.972656,0.17578125 -0.571289,0 -1.007812,-0.140625 -1.3125,-0.421875 -0.313476,-0.27246094 -0.46582,-0.62695313 -0.457031,-1.06640628 0,-0.2490234 0.05859,-0.4804687 0.175781,-0.6914062 0.108399,-0.2109375 0.260742,-0.3779297 0.457031,-0.5039063 0.178711,-0.1230468 0.386719,-0.2226562 0.621094,-0.2929687 0.169922,-0.038086 0.433594,-0.082031 0.785156,-0.1289063 0.703125,-0.076172 1.22461,-0.1787109 1.570313,-0.3046875 0,-0.1171875 0,-0.1904297 0,-0.2226562 0,-0.3574219 -0.09961,-0.6240235 -0.292969,-0.796875 -0.196289,-0.1699219 -0.515625,-0.2578125 -0.960937,-0.2578125 -0.416016,0 -0.714844,0.070312 -0.902344,0.2109375 -0.205078,0.149414 -0.351563,0.4072265 -0.445313,0.7734375 l -0.855468,-0.1171875 c 0.07031,-0.366211 0.199218,-0.6621094 0.386718,-0.890625 0.178711,-0.225586 0.436524,-0.4013672 0.773438,-0.5273438 0.333984,-0.1171875 0.726562,-0.1757812 1.171875,-0.1757812 0.436523,0 0.796875,0.052734 1.078125,0.1523437 0.272461,0.1025391 0.474609,0.2314453 0.609375,0.3867188 0.131836,0.1640625 0.225586,0.3691406 0.28125,0.609375 0.02344,0.149414 0.03516,0.4189453 0.03516,0.8085937 v 1.171875 c 0,0.8144532 0.01758,1.33007815 0.05859,1.54687503 0.03809,0.21972656 0.111328,0.42773437 0.222656,0.6210937501 H 36.01465 C 35.9209,-0.17773536 35.862306,-0.39160255 35.838868,-0.64355567 Z m -0.07031,-1.95703123 c -0.322266,0.1347656 -0.802734,0.243164 -1.441406,0.328125 -0.360352,0.055664 -0.615235,0.1142578 -0.761719,0.1757812 -0.158203,0.070312 -0.275391,0.1640625 -0.351563,0.28125 -0.08789,0.1347657 -0.128906,0.2988282 -0.128906,0.4921875 0,0.1875 0.09375,0.36035159 0.28125,0.51562503 0.169922,0.15820312 0.427735,0.234375 0.773438,0.234375 0.333984,0.008789 0.635742,-0.0644531 0.902343,-0.22265625 0.263672,-0.140625 0.459961,-0.34277348 0.585938,-0.60937498 0.08496,-0.1933594 0.131836,-0.4863281 0.140625,-0.8789063 z M 39.442384,9.755801e-4 37.473634,-5.1787119 h 0.925781 l 1.113282,3.1054687 c 0.117187,0.3369141 0.225586,0.6855469 0.328125,1.0429688 0.07617,-0.272461 0.1875,-0.600586 0.328125,-0.984375 l 1.148437,-3.1640625 h 0.914063 L 40.262697,9.755801e-4 Z M 46.549806,-1.6630869 47.45215,-1.5576182 c -0.140625,0.5332032 -0.404297,0.94628909 -0.785156,1.24218753 -0.392579,0.29003906 -0.887696,0.43359375 -1.488282,0.43359375 -0.758789,0 -1.359375,-0.234375 -1.804687,-0.703125 -0.445313,-0.45996098 -0.667969,-1.11328128 -0.667969,-1.95703128 0,-0.8730469 0.225586,-1.5527344 0.679688,-2.0390625 0.445312,-0.4746094 1.02539,-0.7148437 1.746093,-0.7148437 0.694336,0 1.259766,0.234375 1.699219,0.703125 0.436523,0.477539 0.65625,1.1425781 0.65625,1.9921875 0,0.055664 0,0.1347656 0,0.234375 h -3.867187 c 0.0293,0.571289 0.190429,1.0078125 0.480468,1.3125 0.28711,0.2988281 0.647461,0.44531248 1.078125,0.44531248 0.319336,0.008789 0.597657,-0.0732422 0.832032,-0.24609375 0.225585,-0.16992183 0.404296,-0.43945313 0.539062,-0.80859373 z m -2.882812,-1.4296875 h 2.894531 c -0.04687,-0.4277344 -0.1875,-0.7792969 -0.421875,-1.0546875 -0.228516,-0.28125 -0.559571,-0.4248047 -0.996094,-0.4335938 -0.407227,0.00879 -0.74707,0.1464844 -1.019531,0.4101563 -0.28125,0.2666015 -0.433594,0.6269531 -0.457031,1.078125 z m 0,0"
         style="fill:#000000;fill-opacity:1;fill-rule:nonzero;stroke:none"
         aria-label="Sine	Wave"
         transform="matrix(1.3333333,0,0,1.3333333,341.48437,372.66667)"
         clip-path="url(#clipPath49)"
         id="path50" />
    </g>
    <path
       id="path52"
       d="M 0,0 H 35 V 48 H 0 Z"
       style="fill:#ffffff;fill-opacity:1;fill-rule:nonzero;stroke:none"
       transform="matrix(1.3333333,0,0,1.3333333,510.07812,314)"
       clip-path="url(#clipPath53)" />
    <path
       id="path55"
       d="M 0.06933688,9.779681e-4 1.9677744,-2.6943345 0.20996188,-5.1787095 H 1.3115244 l 0.796875,1.2070312 c 0.1464844,0.234375 0.2695312,0.4306641 0.3632812,0.5859375 0.140625,-0.2167969 0.2695313,-0.4101562 0.3867188,-0.5742187 l 0.8789062,-1.21875 h 1.0546875 l -1.7929687,2.4375 1.921875,2.7421874681 H 3.8427744 L 2.7763681,-1.6044908 2.4951181,-2.0498033 1.1357431,9.779681e-4 Z m 0,0"
       style="fill:#000000;fill-opacity:1;fill-rule:nonzero;stroke:none"
       aria-label="x"
       transform="matrix(1.3333333,0,0,1.3333333,529.41146,350.66666)"
       clip-path="url(#clipPath56)" />
    <path
       id="path57"
       d="M 0,0 H 35 V 48 H 0 Z"
       style="fill:none;stroke:#000000;stroke-width:0.565047;stroke-linecap:butt;stroke-linejoin:miter;stroke-miterlimit:2;stroke-dasharray:none;stroke-opacity:1"
       transform="matrix(1.3333333,0,0,1.3333333,510.07812,314)"
       clip-path="url(#clipPath58)" />
    <g
       id="g60"
       clip-path="url(#clipPath61)">
      <path
         d="M 0.77343875,-9.767449e-4 V -7.161133 H 3.4687513 c 0.4746093,0.00879 0.8613281,0.041016 1.1601562,0.09375 0.3046875,0.046875 0.5742188,0.1523437 0.8085938,0.3164062 0.2402343,0.1640625 0.4365234,0.3955079 0.5859375,0.6914063 0.1318359,0.2988281 0.2021484,0.6210937 0.2109375,0.9726562 -0.00879,0.609375 -0.2050782,1.125 -0.5859375,1.546875 -0.3925782,0.4218751 -1.0898438,0.6328126 -2.0976563,0.6328126 H 1.7226575 V -9.767449e-4 Z M 1.7226575,-3.7509768 h 1.8398438 c 0.609375,0 1.0458984,-0.1113281 1.3125,-0.3398437 C 5.1328138,-4.3164064 5.26172,-4.6357424 5.26172,-5.051758 5.26172,-5.3476564 5.182618,-5.6054689 5.027345,-5.8251955 4.8779309,-6.036133 4.6787122,-6.176758 4.4296888,-6.2470705 4.2656263,-6.2939455 3.9726575,-6.317383 3.5507825,-6.317383 h -1.828125 z m 5.578125,3.7500000551 V -5.1806643 h 0.796875 v 0.7851563 c 0.1933594,-0.3662109 0.3808594,-0.609375 0.5625,-0.7265625 0.1640625,-0.1171875 0.3691406,-0.1757813 0.6210938,-0.1757813 0.2490234,0 0.5302734,0.09375 0.8437497,0.28125 L 9.8203138,-4.208008 c -0.2197266,-0.1230469 -0.4335938,-0.1875 -0.6445313,-0.1875 -0.196289,0.00879 -0.3691406,0.067383 -0.515625,0.1757812 -0.1582031,0.1171875 -0.2783203,0.3046875 -0.3632812,0.5625 -0.079102,0.2578125 -0.1171875,0.5712891 -0.1171875,0.9375001 V -9.767449e-4 Z M 10.312501,-2.5908205 c 0,-0.9609375 0.269532,-1.6699219 0.808594,-2.1328125 0.436523,-0.3808594 0.978516,-0.5742188 1.628906,-0.5742188 0.708985,0 1.291992,0.2314454 1.746094,0.6914063 0.451172,0.46875 0.679688,1.1191406 0.679688,1.9453125 0,0.6650391 -0.10254,1.1894531 -0.304688,1.5703125 -0.196289,0.38378907 -0.486328,0.6796875 -0.867187,0.890625 -0.392579,0.21093751 -0.808594,0.31640626 -1.253907,0.31640626 -0.735351,0 -1.321289,-0.23437501 -1.757812,-0.70312501 C 10.538087,-1.0468752 10.312501,-1.7148439 10.312501,-2.5908205 Z m 0.902344,0 c 0,0.6650391 0.143555,1.1601563 0.433594,1.4882813 0.287109,0.32812495 0.65625,0.49218745 1.101562,0.49218745 0.427735,0 0.791016,-0.1640625 1.089844,-0.49218745 0.28125,-0.3339844 0.424805,-0.84375 0.433594,-1.5234375 -0.0088,-0.6328126 -0.152344,-1.116211 -0.433594,-1.4531251 -0.298828,-0.328125 -0.662109,-0.4921875 -1.089844,-0.4921875 -0.445312,0 -0.814453,0.1640625 -1.101562,0.4921875 -0.290039,0.328125 -0.433594,0.8261719 -0.433594,1.4882813 z m 8.334961,2.5898437551 V -0.65722675 c -0.328125,0.515625 -0.814453,0.77343751 -1.453125,0.77343751 -0.416016,0 -0.793945,-0.11425782 -1.136719,-0.33984376 -0.345703,-0.22558593 -0.609375,-0.54492187 -0.796875,-0.9609375 -0.196289,-0.3984375 -0.292969,-0.8671875 -0.292969,-1.40625 0,-0.515625 0.08496,-0.984375 0.257813,-1.40625 0.169922,-0.421875 0.427734,-0.7441406 0.773437,-0.9726563 0.351563,-0.2167968 0.738282,-0.328125 1.160157,-0.328125 0.310547,0 0.588867,0.064453 0.832031,0.1875 0.249023,0.140625 0.448242,0.3134766 0.597656,0.515625 V -7.161133 h 0.878906 V -9.767449e-4 Z M 16.772462,-2.5908205 c 0,0.6738281 0.140625,1.1689453 0.421875,1.4882813 0.272461,0.32812495 0.603516,0.49218745 0.996094,0.49218745 0.380859,0.008789 0.706055,-0.14648437 0.972656,-0.46874995 0.263672,-0.3105469 0.398438,-0.788086 0.398438,-1.4296875 0,-0.7089844 -0.137696,-1.2333985 -0.410157,-1.5703126 -0.27539,-0.328125 -0.609375,-0.4921875 -1.007812,-0.4921875 -0.392578,0 -0.714844,0.1611329 -0.972656,0.4804688 -0.266602,0.3134766 -0.398438,0.8144531 -0.398438,1.5 z M 25.13379,-9.767449e-4 V -0.7626955 c -0.407226,0.5859375 -0.955078,0.87890626 -1.640625,0.87890626 -0.313476,0 -0.597656,-0.05859375 -0.855468,-0.17578125 -0.275391,-0.11718751 -0.47461,-0.26367188 -0.597657,-0.44531251 -0.134765,-0.16992187 -0.222656,-0.38671875 -0.269531,-0.6445312 -0.03223,-0.1699219 -0.04687,-0.4453125 -0.04687,-0.8203125 v -3.2109376 h 0.878906 v 2.8710938 c 0,0.4628906 0.01758,0.7910156 0.05859,0.984375 0.04687,0.1962891 0.158203,0.35742188 0.339844,0.48046875 0.178711,0.13476563 0.401367,0.19921875 0.667969,0.19921875 0.257812,0 0.503906,-0.0644531 0.738281,-0.19921875 0.225586,-0.13183593 0.389648,-0.31640625 0.492187,-0.55078125 0.09375,-0.2255859 0.140625,-0.5625 0.140625,-1.0078125 v -2.7773438 h 0.878907 v 5.1796875551 z m 5.53418,-1.8984374551 0.867188,0.1171875 c -0.10254,0.5947265 -0.345704,1.06054683 -0.726563,1.3945312 -0.392578,0.33691407 -0.873047,0.50390626 -1.441406,0.50390626 -0.703125,0 -1.271485,-0.23437501 -1.699219,-0.70312501 -0.439453,-0.45996095 -0.65625,-1.11914065 -0.65625,-1.98046875 0,-0.5625 0.09375,-1.0546875 0.28125,-1.4765625 0.1875,-0.421875 0.47168,-0.7382813 0.855469,-0.9492188 0.366211,-0.2021484 0.776367,-0.3046875 1.230469,-0.3046875 0.5625,0 1.02246,0.140625 1.382812,0.421875 0.351563,0.2900391 0.580078,0.6972657 0.691406,1.21875 l -0.855468,0.1289063 c -0.08789,-0.3427734 -0.231446,-0.6035156 -0.433594,-0.7851563 -0.210938,-0.1787109 -0.500977,-0.2695312 -0.867188,-0.2695312 -0.36914,0 -0.688476,0.1611328 -0.960937,0.4804687 -0.28125,0.3222657 -0.421875,0.8203125 -0.421875,1.5000001 0,0.703125 0.134765,1.2128906 0.410156,1.5234375 0.263672,0.32226558 0.612305,0.47753902 1.042969,0.46874995 0.342773,0 0.626953,-0.10546875 0.855469,-0.31640625 0.234375,-0.2021484 0.380859,-0.5273437 0.445312,-0.9726562 z m 3.536133,1.1132812 0.128906,0.77343751 c -0.251953,0.05273437 -0.503906,0.08203125 -0.761719,0.08203125 -0.257812,0 -0.474609,-0.05273438 -0.644531,-0.15234376 -0.181641,-0.09960937 -0.304687,-0.234375 -0.375,-0.3984375 -0.07031,-0.1640625 -0.105469,-0.50976562 -0.105469,-1.0429687 v -2.9765626 h -0.644531 v -0.6796875 h 0.644531 v -1.2890625 l 0.878907,-0.5273437 v 1.8164062 h 0.878906 v 0.6796875 h -0.878906 v 3.0351563 c -0.0088,0.2519531 0.0029,0.4101563 0.03516,0.48046875 0.0293,0.0703125 0.08496,0.12597657 0.164062,0.1640625 0.06152,0.046875 0.158203,0.0703125 0.292969,0.0703125 0.09375,0 0.222656,-0.0117188 0.386719,-0.0351563 z m 0,0"
         style="fill:#000000;fill-opacity:1;fill-rule:nonzero;stroke:none"
         aria-label="Product"
         transform="matrix(1.3333333,0,0,1.3333333,510.48437,395.33333)"
         clip-path="url(#clipPath59)"
         id="path60" />
    </g>
    <path
       id="path62"
       d="M 0,0 H 30 V 32 H 0 Z"
       style="fill:#ffffff;fill-opacity:1;fill-rule:nonzero;stroke:none"
       transform="matrix(1.3333333,0,0,1.3333333,663.41146,324.66667)"
       clip-path="url(#clipPath63)" />
    <path
       id="path71"
       d="M 7.1999999,5.9999945 H 25.599999 c 1.104571,0 2,0.9551255 2,2.1333334 v 9.3333331 c 0,1.178209 -0.895429,2.133333 -2,2.133333 H 7.1999999 c -1.1045699,0 -2,-0.955124 -2,-2.133333 V 8.1333279 c 0,-1.1782079 0.8954301,-2.1333334 2,-2.1333334 z"
       style="fill:none;stroke:#000000;stroke-width:1.3;stroke-linecap:round;stroke-linejoin:round;stroke-miterlimit:10;stroke-dasharray:none;stroke-opacity:1"
       transform="matrix(1.3333333,0,0,1.3333333,661.81135,322.79989)"
       clip-path="url(#clipPath72)" />
    <path
       id="path76"
       d="M 0,0 H 30 V 32 H 0 Z"
       style="fill:none;stroke:#000000;stroke-width:0.565047;stroke-linecap:butt;stroke-linejoin:miter;stroke-miterlimit:2;stroke-dasharray:none;stroke-opacity:1"
       transform="matrix(1.3333333,0,0,1.3333333,663.41146,324.66667)"
       clip-path="url(#clipPath77)" />
    <g
       id="g79"
       clip-path="url(#clipPath80)">
      <path
         d="m 0.44531435,-2.2958994 0.90234375,-0.082031 c 0.038086,0.3603516 0.1347656,0.6533203 0.2929688,0.8789063 0.1464843,0.234375 0.3867187,0.421875 0.7148437,0.56249998 0.328125,0.140625 0.6943359,0.2109375 1.1015625,0.2109375 0.3574219,0 0.6796875,-0.0527344 0.9609375,-0.1640625 0.2724609,-0.0996094 0.4746094,-0.24902348 0.609375,-0.44531248 0.1318359,-0.178711 0.1992188,-0.3808594 0.1992188,-0.609375 0,-0.2167969 -0.064453,-0.413086 -0.1875,-0.5859375 C 4.9042987,-2.6943369 4.6904315,-2.8349619 4.3945331,-2.9521494 4.198244,-3.0224619 3.7734394,-3.1396494 3.1171894,-3.3037119 2.4609394,-3.4589854 1.9980487,-3.6083994 1.7343769,-3.7490244 1.3974628,-3.9189463 1.14258,-4.1416026 0.9726581,-4.4169932 c -0.17285156,-0.2636719 -0.25488281,-0.5625 -0.24609375,-0.890625 0,-0.3574219 0.0996094,-0.6943359 0.30468755,-1.0078125 0.2021484,-0.3105469 0.5039062,-0.5507812 0.9023437,-0.7148437 0.3808594,-0.1640625 0.8203125,-0.2460938 1.3125,-0.2460938 0.5214844,0 0.9902344,0.087891 1.40625,0.2578125 0.3984375,0.1728516 0.7060547,0.421875 0.9257813,0.75 0.2167968,0.3369141 0.3339843,0.7119141 0.3515625,1.125 l -0.9023438,0.070312 C 4.9716815,-5.5244151 4.807619,-5.8642588 4.5351581,-6.0927744 4.245119,-6.3183604 3.8261737,-6.4355479 3.2812519,-6.4443369 c -0.5800782,0 -0.9960938,0.1054687 -1.2539063,0.3164062 -0.2578125,0.2109375 -0.3867187,0.4658203 -0.3867187,0.7617188 0,0.2578125 0.087891,0.46875 0.2695312,0.6328125 0.1787109,0.1728515 0.65625,0.3398437 1.4296875,0.5039062 0.7646484,0.1816406 1.3242188,0.3515625 1.6757813,0.515625 0.3515625,0.1582031 0.6269531,0.3837891 0.8320312,0.6796875 0.1933594,0.2988282 0.2929688,0.6386719 0.2929688,1.0195313 0,0.375 -0.1113282,0.7324219 -0.328125,1.06640623 -0.2197266,0.34570312 -0.5273438,0.60644531 -0.9257813,0.78515625 -0.4160156,0.19335938 -0.8759766,0.28710938 -1.3828125,0.28125 -0.65625,0.005859 -1.2011719,-0.08789062 -1.6289062,-0.28125 -0.4394532,-0.1875 -0.7822266,-0.47167969 -1.03125005,-0.85546878 -0.25195312,-0.375 -0.38378906,-0.7998047 -0.3984375,-1.2773437 z m 10.25390665,0.3984375 0.867187,0.1171875 c -0.102539,0.5947265 -0.345703,1.06054685 -0.726562,1.39453123 -0.392579,0.33691406 -0.8730473,0.50390625 -1.4414066,0.50390625 -0.703125,0 -1.2714844,-0.234375 -1.6992188,-0.703125 -0.4394531,-0.45996098 -0.65625,-1.11914058 -0.65625,-1.98046878 0,-0.5625 0.09375,-1.0546875 0.28125,-1.4765625 0.1875,-0.421875 0.4716797,-0.7382812 0.8554688,-0.9492187 0.3662109,-0.2021485 0.7763672,-0.3046875 1.2304687,-0.3046875 0.5625,0 1.0224609,0.140625 1.3828129,0.421875 0.351562,0.290039 0.580078,0.6972656 0.691406,1.21875 l -0.855469,0.1289062 c -0.08789,-0.3427734 -0.231445,-0.6035156 -0.433594,-0.7851562 -0.2109371,-0.178711 -0.5009762,-0.2695313 -0.8671871,-0.2695313 -0.3691407,0 -0.6884766,0.1611328 -0.9609375,0.4804688 -0.28125,0.3222656 -0.421875,0.8203125 -0.421875,1.5 0,0.703125 0.1347656,1.2128906 0.4101562,1.5234375 0.2636719,0.3222656 0.6123047,0.47753904 1.0429688,0.46874998 0.3427734,0 0.6269526,-0.10546875 0.8554686,-0.31640625 0.234375,-0.20214843 0.380859,-0.52734373 0.445313,-0.97265623 z m 1.286132,-0.6914063 c 0,-0.9609375 0.269532,-1.6699219 0.808594,-2.1328125 0.436524,-0.3808594 0.978516,-0.5742187 1.628906,-0.5742187 0.708985,0 1.291993,0.2314453 1.746094,0.6914062 0.451172,0.46875 0.679688,1.1191406 0.679688,1.9453125 0,0.6650391 -0.102539,1.1894532 -0.304688,1.5703125 -0.196289,0.38378909 -0.486328,0.67968753 -0.867187,0.89062503 -0.392578,0.2109375 -0.808594,0.31640625 -1.253907,0.31640625 -0.735351,0 -1.321289,-0.234375 -1.757812,-0.703125 C 12.210939,-1.0449229 11.985353,-1.7128916 11.985353,-2.5888682 Z m 0.902344,0 c 0,0.6650391 0.143555,1.1601563 0.433594,1.4882813 0.287109,0.32812498 0.65625,0.49218748 1.101562,0.49218748 0.427735,0 0.791016,-0.1640625 1.089844,-0.49218748 0.28125,-0.3339844 0.424805,-0.84375 0.433594,-1.5234375 -0.0088,-0.6328125 -0.152344,-1.116211 -0.433594,-1.453125 -0.298828,-0.328125 -0.662109,-0.4921875 -1.089844,-0.4921875 -0.445312,0 -0.814453,0.1640625 -1.101562,0.4921875 -0.290039,0.328125 -0.433594,0.8261718 -0.433594,1.4882812 z m 4.97168,4.5820313 v -7.171875 h 0.808594 v 0.6679687 c 0.178711,-0.2636719 0.389648,-0.4628906 0.632812,-0.5976562 0.240235,-0.1230469 0.530274,-0.1875 0.867188,-0.1875 0.436523,0 0.826172,0.1142578 1.171875,0.3398437 0.333984,0.2285156 0.588867,0.5478516 0.761718,0.9609375 0.169922,0.421875 0.257813,0.8789063 0.257813,1.3710938 0,0.5332031 -0.09375,1.0078125 -0.28125,1.4296875 -0.1875,0.42187498 -0.46582,0.74707029 -0.832031,0.97265623 -0.369141,0.22558594 -0.75,0.33984375 -1.148438,0.33984375 -0.290039,0 -0.550781,-0.06445312 -0.785156,-0.1875 -0.234375,-0.1171875 -0.427734,-0.27246094 -0.574219,-0.46875 V 1.9931631 Z m 0.796875,-4.5585938 c 0,0.6738282 0.134766,1.1689453 0.410156,1.4882813 0.263672,0.31347654 0.588867,0.46874998 0.972656,0.46874998 0.389649,0 0.726563,-0.1640625 1.007813,-0.49218748 0.28125,-0.328125 0.421875,-0.8378906 0.421875,-1.5351563 -0.0088,-0.65625 -0.146484,-1.1513672 -0.410156,-1.4882812 -0.275391,-0.319336 -0.597657,-0.4833985 -0.972657,-0.4921875 -0.383789,0.00879 -0.714843,0.1845703 -0.996093,0.5273437 -0.290039,0.3515625 -0.433594,0.8613281 -0.433594,1.5234375 z m 8.299805,0.9023438 0.902343,0.1054687 c -0.140625,0.5332032 -0.404297,0.94628909 -0.785156,1.24218753 -0.392578,0.29003906 -0.887695,0.43359375 -1.488281,0.43359375 -0.758789,0 -1.359375,-0.234375 -1.804688,-0.703125 -0.445312,-0.45996098 -0.667968,-1.11328128 -0.667968,-1.95703128 0,-0.8730469 0.225586,-1.5527344 0.679687,-2.0390625 0.445313,-0.4746094 1.025391,-0.7148437 1.746094,-0.7148437 0.694336,0 1.259765,0.234375 1.699219,0.703125 0.436523,0.477539 0.65625,1.1425781 0.65625,1.9921875 0,0.055664 0,0.1347656 0,0.234375 h -3.867188 c 0.0293,0.571289 0.19043,1.0078125 0.480469,1.3125 0.287109,0.2988281 0.647461,0.44531248 1.078125,0.44531248 0.319336,0.008789 0.597656,-0.0732422 0.832031,-0.24609375 0.225586,-0.16992183 0.404297,-0.43945313 0.539063,-0.80859373 z m -2.882813,-1.4296875 h 2.894531 c -0.04687,-0.4277344 -0.1875,-0.7792969 -0.421875,-1.0546875 -0.228515,-0.28125 -0.55957,-0.4248047 -0.996093,-0.4335938 -0.407227,0.00879 -0.747071,0.1464844 -1.019532,0.4101563 -0.28125,0.2666015 -0.433593,0.6269531 -0.457031,1.078125 z m 0,0"
         style="fill:#000000;fill-opacity:1;fill-rule:nonzero;stroke:none"
         aria-label="Scope"
         transform="matrix(1.3333333,0,0,1.3333333,664.54687,384.66667)"
         clip-path="url(#clipPath78)"
         id="path79" />
    </g>
    <path
       id="path81"
       d="M 0,0 H 45 V 50 H 0 Z"
       style="fill:#ffffff;fill-opacity:1;fill-rule:nonzero;stroke:none"
       transform="matrix(1.3333333,0,0,1.3333333,663.41146,412.66667)"
       clip-path="url(#clipPath82)" />
    <path
       id="path90"
       d="m 2049.9108,1268.4167 h 150 v 125 h -150 z"
       style="fill:#bebebe;fill-opacity:1;fill-rule:evenodd;stroke:none"
       transform="matrix(0.32,0,0,0.32,13.44,13.440001)"
       clip-path="url(#clipPath91)" />
    <path
       id="path92"
       d="M 10,10 H 90 V 70 H 10 Z"
       style="fill:none;stroke:#000000;stroke-width:3;stroke-linecap:butt;stroke-linejoin:miter;stroke-miterlimit:4;stroke-dasharray:none;stroke-opacity:1"
       transform="matrix(0.6,0,0,0.66666667,663.41146,412.66667)"
       clip-path="url(#clipPath93)" />
    <path
       id="path94"
       d="m 2068.6608,1372.5833 h 112.5"
       style="fill:#000000;fill-opacity:1;fill-rule:nonzero;stroke:none"
       transform="matrix(0.32,0,0,0.32,13.44,13.440001)"
       clip-path="url(#clipPath95)" />
    <path
       id="path96"
       d="M 20,60 H 80"
       style="fill:none;stroke:#000000;stroke-width:2;stroke-linecap:butt;stroke-linejoin:miter;stroke-miterlimit:4;stroke-dasharray:none;stroke-opacity:1"
       transform="matrix(0.6,0,0,0.66666667,663.41146,412.66667)"
       clip-path="url(#clipPath97)" />
    <path
       id="path98"
       d="m 2070.5358,1291.3333 v 81.25"
       style="fill:#000000;fill-opacity:1;fill-rule:nonzero;stroke:none"
       transform="matrix(0.32,0,0,0.32,13.44,13.440001)"
       clip-path="url(#clipPath99)" />
    <path
       id="path100"
       d="M 21,21 V 60"
       style="fill:none;stroke:#000000;stroke-width:2;stroke-linecap:butt;stroke-linejoin:miter;stroke-miterlimit:4;stroke-dasharray:none;stroke-opacity:1"
       transform="matrix(0.6,0,0,0.66666667,663.41146,412.66667)"
       clip-path="url(#clipPath101)" />
    <path
       id="path102"
       d="m 2079.9108,1305.9167 -1.875,2.0833 v 62.5 h 11.25 V 1308 l -1.875,-2.0833 z"
       style="fill:#ffff00;fill-opacity:1;fill-rule:nonzero;stroke:none"
       transform="matrix(0.32,0,0,0.32,13.44,13.440001)"
       clip-path="url(#clipPath103)" />
    <path
       id="path104"
       d="m 2091.1608,1326.75 -1.875,2.0833 V 1370.5 h 11.25 v -41.6667 l -1.875,-2.0833 z"
       style="fill:#ffff00;fill-opacity:1;fill-rule:nonzero;stroke:none"
       transform="matrix(0.32,0,0,0.32,13.44,13.440001)"
       clip-path="url(#clipPath105)" />
    <path
       id="path106"
       d="m 2102.4108,1289.25 -1.875,2.0833 V 1370.5 h 11.25 v -79.1667 l -1.875,-2.0833 z"
       style="fill:#ffff00;fill-opacity:1;fill-rule:nonzero;stroke:none"
       transform="matrix(0.32,0,0,0.32,13.44,13.440001)"
       clip-path="url(#clipPath107)" />
    <path
       id="path108"
       d="m 2113.6608,1312.1667 -1.875,2.0833 v 56.25 h 11.25 v -56.25 l -1.875,-2.0833 z"
       style="fill:#ffff00;fill-opacity:1;fill-rule:nonzero;stroke:none"
       transform="matrix(0.32,0,0,0.32,13.44,13.440001)"
       clip-path="url(#clipPath109)" />
    <path
       id="path110"
       d="m 2124.9108,1312.1667 -1.875,2.0833 v 56.25 h 11.25 v -56.25 l -1.875,-2.0833 z"
       style="fill:#ffff00;fill-opacity:1;fill-rule:nonzero;stroke:none"
       transform="matrix(0.32,0,0,0.32,13.44,13.440001)"
       clip-path="url(#clipPath111)" />
    <path
       id="path112"
       d="m 2136.1608,1297.5833 -1.875,2.0834 V 1370.5 h 11.25 v -70.8333 l -1.875,-2.0834 z"
       style="fill:#ffff00;fill-opacity:1;fill-rule:nonzero;stroke:none"
       transform="matrix(0.32,0,0,0.32,13.44,13.440001)"
       clip-path="url(#clipPath113)" />
    <path
       id="path114"
       d="m 2147.4108,1345.5 -1.875,2.0833 V 1370.5 h 11.25 v -22.9167 l -1.875,-2.0833 z"
       style="fill:#ffff00;fill-opacity:1;fill-rule:nonzero;stroke:none"
       transform="matrix(0.32,0,0,0.32,13.44,13.440001)"
       clip-path="url(#clipPath115)" />
    <path
       id="path119"
       d="M 0,0 H 45 V 50 H 0 Z"
       style="fill:none;stroke:#000000;stroke-width:0.565047;stroke-linecap:butt;stroke-linejoin:miter;stroke-miterlimit:2;stroke-dasharray:none;stroke-opacity:1"
       transform="matrix(1.3333333,0,0,1.3333333,663.41146,412.66667)"
       clip-path="url(#clipPath120)" />
    <g
       id="g122"
       clip-path="url(#clipPath123)">
      <path
         d="M 0.44629021,-2.2958994 1.348634,-2.3779307 c 0.038086,0.3603516 0.1347656,0.6533203 0.2929687,0.8789063 0.1464844,0.234375 0.3867188,0.421875 0.7148438,0.56249998 0.328125,0.140625 0.6943359,0.2109375 1.1015625,0.2109375 0.3574218,0 0.6796875,-0.0527344 0.9609375,-0.1640625 0.2724609,-0.0996094 0.4746093,-0.24902348 0.609375,-0.44531248 0.1318359,-0.178711 0.1992187,-0.3808594 0.1992187,-0.609375 0,-0.2167969 -0.064453,-0.413086 -0.1875,-0.5859375 C 4.9052746,-2.6943369 4.6914074,-2.8349619 4.395509,-2.9521494 4.1992199,-3.0224619 3.7744152,-3.1396494 3.1181652,-3.3037119 2.4619152,-3.4589854 1.9990246,-3.6083994 1.7353527,-3.7490244 1.3984387,-3.9189463 1.1435558,-4.1416026 0.97363397,-4.4169932 c -0.17285157,-0.2636719 -0.25488282,-0.5625 -0.24609375,-0.890625 0,-0.3574219 0.0996094,-0.6943359 0.30468748,-1.0078125 0.2021485,-0.3105469 0.5039063,-0.5507812 0.9023438,-0.7148437 0.3808593,-0.1640625 0.8203125,-0.2460938 1.3125,-0.2460938 0.5214843,0 0.9902343,0.087891 1.40625,0.2578125 0.3984375,0.1728516 0.7060547,0.421875 0.9257812,0.75 0.2167969,0.3369141 0.3339844,0.7119141 0.3515625,1.125 l -0.9023437,0.070312 C 4.9726574,-5.5244151 4.8085949,-5.8642588 4.536134,-6.0927744 4.2460949,-6.3183604 3.8271496,-6.4355479 3.2822277,-6.4443369 c -0.5800781,0 -0.9960937,0.1054687 -1.2539062,0.3164062 -0.2578125,0.2109375 -0.3867188,0.4658203 -0.3867188,0.7617188 0,0.2578125 0.087891,0.46875 0.2695313,0.6328125 0.1787109,0.1728515 0.65625,0.3398437 1.4296875,0.5039062 0.7646484,0.1816406 1.3242187,0.3515625 1.6757812,0.515625 0.3515625,0.1582031 0.6269531,0.3837891 0.8320313,0.6796875 0.1933593,0.2988282 0.2929687,0.6386719 0.2929687,1.0195313 0,0.375 -0.1113281,0.7324219 -0.328125,1.06640623 -0.2197265,0.34570312 -0.5273437,0.60644531 -0.9257812,0.78515625 -0.4160157,0.19335938 -0.8759766,0.28710938 -1.3828125,0.28125 -0.65625,0.005859 -1.2011719,-0.08789062 -1.6289063,-0.28125 -0.4394531,-0.1875 -0.7822265,-0.47167969 -1.03124998,-0.85546878 -0.25195313,-0.375 -0.38378907,-0.7998047 -0.39843751,-1.2773437 z M 7.3134777,1.9931631 v -7.171875 h 0.8085938 v 0.6679687 c 0.1787109,-0.2636719 0.3896484,-0.4628906 0.6328125,-0.5976562 0.2402344,-0.1230469 0.5302734,-0.1875 0.8671875,-0.1875 0.4365235,0 0.8261715,0.1142578 1.1718745,0.3398437 0.333985,0.2285156 0.588868,0.5478516 0.761719,0.9609375 0.169922,0.421875 0.257813,0.8789063 0.257813,1.3710938 0,0.5332031 -0.09375,1.0078125 -0.28125,1.4296875 -0.1875,0.42187498 -0.465821,0.74707029 -0.832032,0.97265623 -0.36914,0.22558594 -0.7499995,0.33984375 -1.148437,0.33984375 -0.2900391,0 -0.5507813,-0.06445312 -0.7851563,-0.1875 -0.234375,-0.1171875 -0.4277343,-0.27246094 -0.5742187,-0.46875 V 1.9931631 Z m 0.796875,-4.5585938 c 0,0.6738282 0.1347657,1.1689453 0.4101563,1.4882813 0.2636719,0.31347654 0.5888672,0.46874998 0.9726562,0.46874998 0.3896485,0 0.7265628,-0.1640625 1.0078128,-0.49218748 0.28125,-0.328125 0.421875,-0.8378906 0.421875,-1.5351563 -0.0088,-0.65625 -0.146485,-1.1513672 -0.410157,-1.4882812 -0.27539,-0.319336 -0.5976558,-0.4833985 -0.9726558,-0.4921875 -0.383789,0.00879 -0.7148437,0.1845703 -0.9960937,0.5273437 -0.2900391,0.3515625 -0.4335938,0.8613281 -0.4335938,1.5234375 z m 8.2998043,0.9023438 0.902344,0.1054687 c -0.140625,0.5332032 -0.404297,0.94628909 -0.785156,1.24218753 -0.392578,0.29003906 -0.887695,0.43359375 -1.488281,0.43359375 -0.758789,0 -1.359375,-0.234375 -1.804688,-0.703125 -0.445312,-0.45996098 -0.667969,-1.11328128 -0.667969,-1.95703128 0,-0.8730469 0.225586,-1.5527344 0.679688,-2.0390625 0.445312,-0.4746094 1.025391,-0.7148437 1.746094,-0.7148437 0.694336,0 1.259765,0.234375 1.699218,0.703125 0.436524,0.477539 0.65625,1.1425781 0.65625,1.9921875 0,0.055664 0,0.1347656 0,0.234375 H 13.48047 c 0.0293,0.571289 0.19043,1.0078125 0.480469,1.3125 0.287109,0.2988281 0.647461,0.44531248 1.078125,0.44531248 0.319336,0.008789 0.597656,-0.0732422 0.832031,-0.24609375 0.225586,-0.16992183 0.404297,-0.43945313 0.539062,-0.80859373 z m -2.882812,-1.4296875 h 2.894531 c -0.04687,-0.4277344 -0.1875,-0.7792969 -0.421875,-1.0546875 -0.228515,-0.28125 -0.55957,-0.4248047 -0.996094,-0.4335938 -0.407226,0.00879 -0.74707,0.1464844 -1.019531,0.4101563 -0.28125,0.2666015 -0.433594,0.6269531 -0.457031,1.078125 z m 8.264648,1.1953125 0.867188,0.1171875 c -0.102539,0.5947265 -0.345703,1.06054685 -0.726563,1.39453123 -0.392578,0.33691406 -0.873047,0.50390625 -1.441406,0.50390625 -0.703125,0 -1.271484,-0.234375 -1.699219,-0.703125 -0.439453,-0.45996098 -0.65625,-1.11914058 -0.65625,-1.98046878 0,-0.5625 0.09375,-1.0546875 0.28125,-1.4765625 0.1875,-0.421875 0.47168,-0.7382812 0.855469,-0.9492187 0.366211,-0.2021485 0.776367,-0.3046875 1.230469,-0.3046875 0.5625,0 1.022461,0.140625 1.382812,0.421875 0.351563,0.290039 0.580079,0.6972656 0.691407,1.21875 l -0.855469,0.1289062 c -0.08789,-0.3427734 -0.231445,-0.6035156 -0.433594,-0.7851562 -0.210937,-0.178711 -0.500976,-0.2695313 -0.867187,-0.2695313 -0.369141,0 -0.688477,0.1611328 -0.960938,0.4804688 -0.28125,0.3222656 -0.421875,0.8203125 -0.421875,1.5 0,0.703125 0.134766,1.2128906 0.410156,1.5234375 0.263672,0.3222656 0.612305,0.47753904 1.042969,0.46874998 0.342774,0 0.626953,-0.10546875 0.855469,-0.31640625 0.234375,-0.20214843 0.380859,-0.52734373 0.445312,-0.97265623 z m 3.536133,1.11328123 0.128906,0.7734375 c -0.251953,0.05273438 -0.503906,0.08203125 -0.761718,0.08203125 -0.257813,0 -0.47461,-0.05273437 -0.644532,-0.15234375 -0.18164,-0.09960938 -0.304687,-0.234375 -0.375,-0.3984375 -0.07031,-0.1640625 -0.105468,-0.50976563 -0.105468,-1.04296873 v -2.9765625 h -0.644532 v -0.6796875 h 0.644532 v -1.2890625 l 0.878906,-0.5273438 v 1.8164063 h 0.878906 v 0.6796875 H 24.44922 v 3.0351562 c -0.0088,0.2519532 0.0029,0.4101563 0.03516,0.48046878 0.0293,0.0703125 0.08496,0.12597656 0.164063,0.1640625 0.06152,0.046875 0.158203,0.0703125 0.292968,0.0703125 0.09375,0 0.222657,-0.0117188 0.386719,-0.0351563 z M 26.160157,9.755801e-4 V -5.1787119 h 0.796875 v 0.7851562 c 0.19336,-0.3662109 0.38086,-0.609375 0.5625,-0.7265625 0.164063,-0.1171875 0.369141,-0.1757812 0.621094,-0.1757812 0.249024,0 0.530274,0.09375 0.84375,0.28125 l -0.304687,0.8085937 c -0.219727,-0.1230469 -0.433594,-0.1875 -0.644532,-0.1875 -0.196289,0.00879 -0.36914,0.067383 -0.515625,0.1757813 -0.158203,0.1171875 -0.27832,0.3046875 -0.363281,0.5625 -0.0791,0.2578125 -0.117187,0.571289 -0.117187,0.9375 V 9.755801e-4 Z m 6.738282,0 V -0.76074317 c -0.407227,0.5859375 -0.955078,0.87890625 -1.640625,0.87890625 -0.313477,0 -0.597657,-0.05859375 -0.855469,-0.17578125 -0.275391,-0.1171875 -0.474609,-0.26367188 -0.597656,-0.4453125 -0.134766,-0.16992188 -0.222657,-0.38671875 -0.269532,-0.64453123 -0.03223,-0.1699219 -0.04687,-0.4453125 -0.04687,-0.8203125 v -3.2109375 h 0.878907 v 2.8710937 c 0,0.4628907 0.01758,0.7910157 0.05859,0.984375 0.04687,0.1962891 0.158204,0.3574219 0.339844,0.48046878 0.178711,0.13476562 0.401367,0.19921875 0.667969,0.19921875 0.257812,0 0.503906,-0.0644531 0.738281,-0.19921875 0.225586,-0.13183594 0.389649,-0.31640628 0.492188,-0.55078128 0.09375,-0.2255859 0.140625,-0.5625 0.140625,-1.0078125 v -2.7773437 h 0.878906 V 9.755801e-4 Z m 2.147461,0 V -5.1787119 h 0.785156 v 0.7265625 c 0.164062,-0.2578125 0.380859,-0.4628907 0.65625,-0.6210938 0.263672,-0.1464844 0.568359,-0.2226562 0.914062,-0.2226562 0.38086,0 0.697266,0.079101 0.949219,0.234375 0.240235,0.1640625 0.413086,0.3867187 0.515625,0.6679687 0.404297,-0.6005859 0.94043,-0.9023437 1.605469,-0.9023437 0.506836,0 0.902344,0.140625 1.183594,0.421875 0.28125,0.290039 0.421875,0.7265625 0.421875,1.3125 V 9.755801e-4 H 41.198243 V -3.2685557 c 0,-0.3515625 -0.0293,-0.6035156 -0.08203,-0.7617187 -0.06445,-0.1464844 -0.169922,-0.2695313 -0.316406,-0.3632813 -0.149414,-0.09375 -0.325195,-0.140625 -0.527344,-0.140625 -0.36914,0 -0.667969,0.1171875 -0.902344,0.3515625 -0.243164,0.2519531 -0.363281,0.6416016 -0.363281,1.171875 V 9.755801e-4 H 38.127931 V -3.3623057 c 0,-0.3896484 -0.07031,-0.6826172 -0.210938,-0.8789062 -0.149414,-0.1933594 -0.383789,-0.2929688 -0.703125,-0.2929688 -0.251953,0 -0.480468,0.064453 -0.691406,0.1875 -0.210937,0.1347656 -0.363281,0.3251953 -0.457031,0.5742188 -0.09375,0.2519531 -0.140625,0.6152344 -0.140625,1.0898437 V 9.755801e-4 Z m 0,0"
         style="fill:#000000;fill-opacity:1;fill-rule:nonzero;stroke:none"
         aria-label="Spectrum"
         transform="matrix(1.3333333,0,0,1.3333333,664.93229,496.66667)"
         clip-path="url(#clipPath121)"
         id="path122" />
    </g>
    <path
       id="path124"
       d="M -0.0117176,-9.6160011e-7 2.7304699,-7.1601572 H 3.7500012 L 6.6796887,-9.6160011e-7 H 5.6015637 L 4.7695324,-2.1679697 H 1.7812512 L 0.99609491,-9.6160011e-7 Z M 2.0507824,-2.9414072 h 2.4257813 l -0.75,-1.9804688 C 3.498048,-5.5136728 3.3310558,-6.0058603 3.2226574,-6.3984385 c -0.09375,0.4541016 -0.2226562,0.9082032 -0.3867187,1.359375 z M 7.3125012,-9.6160011e-7 V -5.1796885 h 0.796875 v 0.7382813 c 0.375,-0.5683594 0.9199218,-0.8554688 1.640625,-0.8554688 0.3105468,0 0.6005858,0.055664 0.8671878,0.1640625 0.257812,0.1171875 0.451172,0.2666016 0.585937,0.4453125 0.123047,0.1816407 0.216797,0.3955078 0.28125,0.6445313 0.0293,0.1640625 0.04687,0.4511719 0.04687,0.8554687 V -9.6160011e-7 H 10.652345 V -3.1523447 c 0,-0.3515625 -0.03516,-0.6210938 -0.105469,-0.8085938 -0.07031,-0.1699218 -0.193359,-0.3105468 -0.363281,-0.421875 -0.172852,-0.099609 -0.4160157,-0.1523437 -0.7265626,-0.1523437 -0.3046875,0 -0.5917969,0.1171875 -0.8554687,0.3515625 -0.2753907,0.243164 -0.4101563,0.6914062 -0.4101563,1.3476562 V -9.6160011e-7 Z M 16.245118,-0.64453221 c -0.328125,0.28125 -0.641601,0.47753906 -0.9375,0.5859375 -0.304687,0.1171875 -0.629882,0.17578125 -0.972656,0.17578125 -0.571289,0 -1.007812,-0.140625 -1.3125,-0.421875 -0.313476,-0.27246094 -0.46582,-0.62695313 -0.457031,-1.06640624 0,-0.2490235 0.05859,-0.4804688 0.175781,-0.6914063 0.108399,-0.2109375 0.260742,-0.3779297 0.457031,-0.5039062 0.178711,-0.1230469 0.386719,-0.2226563 0.621094,-0.2929688 0.169922,-0.038086 0.433594,-0.082031 0.785156,-0.1289062 0.703125,-0.076172 1.22461,-0.178711 1.570313,-0.3046875 0,-0.1171875 0,-0.1904297 0,-0.2226563 0,-0.3574218 -0.09961,-0.6240234 -0.292969,-0.796875 -0.196289,-0.1699218 -0.515625,-0.2578125 -0.960937,-0.2578125 -0.416016,0 -0.714844,0.070312 -0.902344,0.2109375 -0.205078,0.1494141 -0.351563,0.4072266 -0.445313,0.7734375 L 12.717775,-3.703126 c 0.07031,-0.3662109 0.199218,-0.6621093 0.386718,-0.890625 0.178711,-0.2255859 0.436524,-0.4013672 0.773438,-0.5273437 0.333984,-0.1171875 0.726562,-0.1757813 1.171875,-0.1757813 0.436523,0 0.796875,0.052734 1.078125,0.1523438 0.272461,0.102539 0.474609,0.2314453 0.609375,0.3867187 0.131836,0.1640625 0.225586,0.3691407 0.28125,0.609375 0.02344,0.1494141 0.03516,0.4189453 0.03516,0.8085938 v 1.171875 c 0,0.8144531 0.01758,1.33007811 0.05859,1.54687499 0.03809,0.21972656 0.111328,0.42773437 0.222656,0.62109374839989 H 16.4209 C 16.32715,-0.1787119 16.268556,-0.39257909 16.245118,-0.64453221 Z m -0.07031,-1.95703129 c -0.322266,0.1347657 -0.802735,0.2431641 -1.441406,0.328125 -0.360352,0.055664 -0.615235,0.1142578 -0.761719,0.1757813 -0.158203,0.070312 -0.275391,0.1640625 -0.351563,0.28125 -0.08789,0.1347656 -0.128906,0.2988281 -0.128906,0.4921875 0,0.1875 0.09375,0.36035155 0.28125,0.51562499 0.169922,0.15820312 0.427734,0.234375 0.773438,0.234375 0.333984,0.008789 0.635742,-0.0644531 0.902343,-0.22265625 0.263672,-0.140625 0.459961,-0.34277344 0.585938,-0.60937504 0.08496,-0.1933593 0.131836,-0.4863281 0.140625,-0.8789062 z M 18.395509,-9.6160011e-7 V -7.1601572 h 0.878906 V -9.6160011e-7 Z M 20.589845,1.9921865 20.496095,1.171874 c 0.1875,0.052734 0.363281,0.082031 0.527344,0.082031 0.169922,0 0.316406,-0.035156 0.433593,-0.1054688 0.117188,-0.064453 0.213868,-0.15234371 0.292969,-0.26953121 0.05273,-0.0878906 0.143555,-0.3046875 0.269531,-0.65625 0.01465,-0.046875 0.04102,-0.1171875 0.08203,-0.2109375 l -1.96875,-5.19140629 h 0.949218 l 1.078125,3 c 0.131836,0.3837891 0.257813,0.7822266 0.375,1.19531254 0.09375,-0.39843754 0.210938,-0.79101564 0.351563,-1.18359374 l 1.113281,-3.0117188 h 0.878906 l -1.96875,5.26171879 C 22.69922,0.65917873 22.523439,1.0722647 22.382814,1.3242178 22.242189,1.5732412 22.072267,1.7636709 21.878907,1.8984365 21.673829,2.0390615 21.433595,2.109374 21.152345,2.109374 c -0.172852,0 -0.360352,-0.041016 -0.5625,-0.1171875 z M 25.168947,-9.6160011e-7 V -0.71484471 L 28.461915,-4.500001 c -0.375,0.017578 -0.703125,0.023437 -0.984375,0.023437 h -2.121093 v -0.703125 h 4.242187 v 0.5742188 l -2.8125,3.2929687 -0.539062,0.59765629 c 0.389648,-0.0292969 0.761718,-0.046875 1.113281,-0.046875 h 2.390625 V -9.6160011e-7 Z M 34.174806,-1.6640635 35.07715,-1.5585947 c -0.140625,0.5332031 -0.404297,0.94628905 -0.785157,1.24218749 -0.392578,0.29003906 -0.887695,0.43359375 -1.488281,0.43359375 -0.758789,0 -1.359375,-0.234375 -1.804687,-0.703125 -0.445313,-0.45996094 -0.667969,-1.11328124 -0.667969,-1.95703124 0,-0.8730469 0.225586,-1.5527344 0.679687,-2.0390625 0.445313,-0.4746094 1.025391,-0.7148438 1.746094,-0.7148438 0.694336,0 1.259766,0.234375 1.699219,0.703125 0.436523,0.4775391 0.65625,1.1425782 0.65625,1.9921875 0,0.055664 0,0.1347657 0,0.234375 h -3.867188 c 0.0293,0.5712891 0.19043,1.0078125 0.480469,1.3125 0.28711,0.29882816 0.647461,0.44531254 1.078125,0.44531254 0.319336,0.008789 0.597656,-0.0732422 0.832031,-0.24609375 0.225586,-0.16992189 0.404297,-0.43945309 0.539063,-0.80859379 z M 31.291993,-3.093751 h 2.894532 c -0.04687,-0.4277343 -0.1875,-0.7792968 -0.421875,-1.0546875 -0.228516,-0.28125 -0.559571,-0.4248047 -0.996094,-0.4335937 -0.407227,0.00879 -0.74707,0.1464844 -1.019531,0.4101562 -0.28125,0.2666016 -0.433594,0.6269532 -0.457032,1.078125 z M 36.161134,-9.6160011e-7 V -5.1796885 h 0.796875 v 0.7851563 c 0.193359,-0.366211 0.380859,-0.609375 0.5625,-0.7265625 0.164063,-0.1171875 0.369141,-0.1757813 0.621094,-0.1757813 0.249023,0 0.530273,0.09375 0.84375,0.28125 l -0.304688,0.8085938 c -0.219726,-0.1230469 -0.433593,-0.1875 -0.644531,-0.1875 -0.196289,0.00879 -0.369141,0.067383 -0.515625,0.1757812 -0.158203,0.1171875 -0.27832,0.3046875 -0.363281,0.5625 -0.0791,0.2578125 -0.117188,0.5712891 -0.117188,0.9375 V -9.6160011e-7 Z m 0,0"
       style="fill:#000000;fill-opacity:1;fill-rule:nonzero;stroke:none"
       aria-label="Analyzer"
       transform="matrix(1.3333333,0,0,1.3333333,667.51562,514)"
       clip-path="url(#clipPath125)" />
    <path
       id="path126"
       d="M 0,0 H 30 V 30 H 0 Z"
       style="fill:#ffffff;fill-opacity:1;fill-rule:nonzero;stroke:none"
       transform="matrix(1.3333333,0,0,1.3333333,363.41146,412.66667)"
       clip-path="url(#clipPath127)" />
    <path
       id="path135"
       d="m 1164.6243,1317.375 v 3.5156 h -19.7265 c 0,-0.868 0.1519,-1.7144 0.4557,-2.539 0.5208,-1.3455 1.3238,-2.6693 2.4089,-3.9714 1.085,-1.3021 2.6909,-2.7995 4.8177,-4.4922 3.2118,-2.691 5.3928,-4.8068 6.5429,-6.3476 1.1502,-1.5408 1.7253,-3.0057 1.7253,-4.3946 0,-1.4757 -0.5208,-2.7018 -1.5625,-3.6784 -1.0417,-0.9765 -2.3871,-1.4648 -4.0365,-1.4648 -1.7795,0 -3.2009,0.5208 -4.2643,1.5625 -1.0633,1.0417 -1.595,2.4957 -1.595,4.362 l -3.7761,-0.3906 c 0.2604,-2.7778 1.2262,-4.9046 2.8972,-6.3803 1.671,-1.4756 3.9388,-2.2135 6.8033,-2.2135 2.8646,0 5.1324,0.7921 6.8034,2.3763 1.671,1.5842 2.5065,3.5482 2.5065,5.8919 0,1.2153 -0.2495,2.398 -0.7486,3.5482 -0.4992,1.1502 -1.313,2.3655 -2.4415,3.6458 -1.1284,1.2804 -3.0164,3.0274 -5.664,5.2409 -2.1702,1.8229 -3.5699,3.0708 -4.1992,3.7435 -0.6294,0.6728 -1.1394,1.3347 -1.53,1.9857 z"
       style="fill:#000000;fill-opacity:1;fill-rule:nonzero;stroke:none"
       transform="matrix(0.32,0,0,0.32,13.44,13.440001)"
       clip-path="url(#clipPath136)" />
    <path
       id="path140"
       d="M 0,0 H 30 V 30 H 0 Z"
       style="fill:none;stroke:#000000;stroke-width:0.565047;stroke-linecap:butt;stroke-linejoin:miter;stroke-miterlimit:2;stroke-dasharray:none;stroke-opacity:1"
       transform="matrix(1.3333333,0,0,1.3333333,363.41146,412.66667)"
       clip-path="url(#clipPath141)" />
    <g
       id="g143"
       clip-path="url(#clipPath144)">
      <path
         d="M 0.7373047,6.1759988e-7 V -7.1601556 h 1.4296875 l 1.6875,5.0742187 c 0.1552734,0.4775391 0.2724609,0.8291016 0.3515625,1.0546875 0.076172,-0.2578125 0.2021484,-0.6386719 0.375,-1.1484375 L 6.2919922,-7.1601556 H 7.569336 V 6.1759988e-7 H 6.6552735 V -5.9882806 L 4.5810547,6.1759988e-7 H 3.725586 L 1.6513672,-6.0937494 V 6.1759988e-7 Z M 8.65625,-2.5898431 c 0,-0.9609375 0.2695313,-1.6699219 0.8085938,-2.1328125 0.4365234,-0.3808594 0.9785152,-0.5742188 1.6289062,-0.5742188 0.708984,0 1.291992,0.2314453 1.746094,0.6914063 0.451172,0.46875 0.679687,1.1191406 0.679687,1.9453125 0,0.665039 -0.102539,1.1894531 -0.304687,1.5703125 -0.196289,0.38378903 -0.486328,0.67968747 -0.867188,0.89062497 -0.392578,0.2109375 -0.808593,0.31640625 -1.253906,0.31640625 -0.735352,0 -1.321289,-0.234375 -1.7578125,-0.703125 C 8.881836,-1.0458978 8.65625,-1.7138666 8.65625,-2.5898431 Z m 0.9023438,0 c 0,0.665039 0.1435547,1.1601562 0.4335937,1.4882812 0.2871095,0.32812502 0.6562505,0.49218752 1.1015625,0.49218752 0.427734,0 0.791016,-0.1640625 1.089844,-0.49218752 0.28125,-0.3339844 0.424804,-0.84375 0.433594,-1.5234375 -0.0088,-0.6328125 -0.152344,-1.1162109 -0.433594,-1.453125 -0.298828,-0.328125 -0.66211,-0.4921875 -1.089844,-0.4921875 -0.445312,0 -0.814453,0.1640625 -1.1015625,0.4921875 -0.290039,0.328125 -0.4335937,0.8261719 -0.4335937,1.4882813 z M 17.893555,6.1759988e-7 V -0.65624938 c -0.328125,0.515625 -0.814453,0.7734375 -1.453125,0.7734375 -0.416016,0 -0.793946,-0.11425781 -1.136719,-0.33984375 -0.345703,-0.22558594 -0.609375,-0.54492188 -0.796875,-0.96093747 -0.196289,-0.3984375 -0.292969,-0.8671875 -0.292969,-1.40625 0,-0.515625 0.08496,-0.984375 0.257813,-1.40625 0.169922,-0.421875 0.427734,-0.7441407 0.773437,-0.9726563 0.351563,-0.2167969 0.738281,-0.328125 1.160156,-0.328125 0.310547,0 0.588868,0.064453 0.832032,0.1875 0.249023,0.140625 0.448242,0.3134766 0.597656,0.515625 v -2.5664062 h 0.878906 V 6.1759988e-7 Z M 15.116211,-2.5898431 c 0,0.6738281 0.140625,1.1689453 0.421875,1.4882812 0.272461,0.32812502 0.603516,0.49218752 0.996094,0.49218752 0.380859,0.008789 0.706054,-0.14648438 0.972656,-0.46875002 0.263672,-0.3105469 0.398437,-0.7880859 0.398437,-1.4296875 0,-0.7089844 -0.137695,-1.2333984 -0.410156,-1.5703125 -0.27539,-0.328125 -0.609375,-0.4921875 -1.007812,-0.4921875 -0.392578,0 -0.714844,0.1611328 -0.972657,0.4804688 -0.266601,0.3134765 -0.398437,0.8144531 -0.398437,1.5 z M 23.477539,6.1759988e-7 V -0.76171813 c -0.407226,0.5859375 -0.955078,0.87890625 -1.640625,0.87890625 -0.313476,0 -0.597656,-0.05859375 -0.855469,-0.17578125 -0.27539,-0.1171875 -0.474609,-0.26367188 -0.597656,-0.4453125 -0.134766,-0.16992188 -0.222656,-0.38671875 -0.269531,-0.64453127 -0.03223,-0.1699219 -0.04687,-0.4453125 -0.04687,-0.8203125 v -3.2109375 h 0.878906 v 2.8710938 c 0,0.4628906 0.01758,0.7910156 0.05859,0.984375 0.04687,0.196289 0.158203,0.35742184 0.339844,0.48046872 0.178711,0.13476562 0.401367,0.19921875 0.667968,0.19921875 0.257813,0 0.503907,-0.0644531 0.738282,-0.19921875 0.225586,-0.13183594 0.389648,-0.31640622 0.492187,-0.55078122 0.09375,-0.225586 0.140625,-0.5625 0.140625,-1.0078125 v -2.7773438 h 0.878906 V 6.1759988e-7 Z m 2.135742,0 V -7.1601556 h 0.878907 V 6.1759988e-7 Z M 31.229492,-0.64453063 c -0.328125,0.28125 -0.641601,0.47753906 -0.9375,0.5859375 -0.304687,0.1171875 -0.629883,0.17578125 -0.972656,0.17578125 -0.571289,0 -1.007813,-0.140625 -1.3125,-0.421875 -0.313477,-0.27246094 -0.46582,-0.62695313 -0.457031,-1.06640622 0,-0.2490235 0.05859,-0.4804688 0.175781,-0.6914063 0.108398,-0.2109375 0.260742,-0.3779297 0.457031,-0.5039062 0.178711,-0.1230469 0.386719,-0.2226563 0.621094,-0.2929688 0.169922,-0.038086 0.433594,-0.082031 0.785156,-0.1289062 0.703125,-0.076172 1.22461,-0.178711 1.570313,-0.3046875 0,-0.1171875 0,-0.1904297 0,-0.2226563 0,-0.3574219 -0.09961,-0.6240234 -0.292969,-0.796875 -0.196289,-0.1699219 -0.515625,-0.2578125 -0.960938,-0.2578125 -0.416015,0 -0.714843,0.070312 -0.902343,0.2109375 -0.205078,0.1494141 -0.351563,0.4072266 -0.445313,0.7734375 l -0.855469,-0.1171875 c 0.07031,-0.3662109 0.199219,-0.6621094 0.386719,-0.890625 0.178711,-0.2255859 0.436524,-0.4013672 0.773438,-0.5273437 0.333984,-0.1171875 0.726562,-0.1757813 1.171875,-0.1757813 0.436523,0 0.796875,0.052734 1.078125,0.1523438 0.272461,0.102539 0.474609,0.2314453 0.609375,0.3867187 0.131836,0.1640625 0.225586,0.3691406 0.28125,0.609375 0.02344,0.1494141 0.03516,0.4189453 0.03516,0.8085938 v 1.171875 c 0,0.8144531 0.01758,1.33007809 0.05859,1.54687497 0.03809,0.21972656 0.111328,0.42773437 0.222656,0.62109374759988 H 31.405274 C 31.311523,-0.17871032 31.25293,-0.39257751 31.229492,-0.64453063 Z M 31.15918,-2.6015619 c -0.322266,0.1347656 -0.802735,0.2431641 -1.441407,0.328125 -0.360351,0.055664 -0.615234,0.1142578 -0.761718,0.1757813 -0.158203,0.070312 -0.275391,0.1640625 -0.351563,0.28125 -0.08789,0.1347656 -0.128906,0.2988281 -0.128906,0.4921875 0,0.1875 0.09375,0.36035153 0.28125,0.51562497 0.169922,0.15820312 0.427734,0.234375 0.773437,0.234375 0.333985,0.008789 0.635743,-0.0644531 0.902344,-0.22265625 0.263672,-0.140625 0.459961,-0.34277342 0.585938,-0.60937502 0.08496,-0.1933594 0.131836,-0.4863281 0.140625,-0.8789062 z m 4.154297,1.81640627 0.128906,0.7734375 c -0.251953,0.05273437 -0.503906,0.08203125 -0.761719,0.08203125 -0.257812,0 -0.474609,-0.05273438 -0.644531,-0.15234375 -0.181641,-0.09960938 -0.304688,-0.234375 -0.375,-0.3984375 -0.07031,-0.1640625 -0.105469,-0.50976563 -0.105469,-1.04296877 v -2.9765625 h -0.644531 v -0.6796875 h 0.644531 v -1.2890625 l 0.878906,-0.5273437 v 1.8164062 h 0.878907 v 0.6796875 H 34.43457 v 3.0351563 c -0.0088,0.2519531 0.0029,0.4101562 0.03516,0.48046872 0.0293,0.0703125 0.08496,0.12597656 0.164062,0.1640625 0.06152,0.046875 0.158203,0.0703125 0.292969,0.0703125 0.09375,0 0.222656,-0.0117188 0.386719,-0.0351563 z m 0.855468,-5.35546877 v -1.0195312 h 0.878907 v 1.0195312 z m 0,6.14062501759988 V -5.1796869 h 0.878907 V 6.1759988e-7 Z M 38.046875,-2.5898431 c 0,-0.9609375 0.269531,-1.6699219 0.808594,-2.1328125 0.436523,-0.3808594 0.978515,-0.5742188 1.628906,-0.5742188 0.708984,0 1.291992,0.2314453 1.746094,0.6914063 0.451172,0.46875 0.679687,1.1191406 0.679687,1.9453125 0,0.665039 -0.102539,1.1894531 -0.304687,1.5703125 -0.196289,0.38378903 -0.486328,0.67968747 -0.867188,0.89062497 -0.392578,0.2109375 -0.808593,0.31640625 -1.253906,0.31640625 -0.735351,0 -1.321289,-0.234375 -1.757812,-0.703125 C 38.272461,-1.0458978 38.046875,-1.7138666 38.046875,-2.5898431 Z m 0.902344,0 c 0,0.665039 0.143555,1.1601562 0.433594,1.4882812 0.287109,0.32812502 0.65625,0.49218752 1.101562,0.49218752 0.427734,0 0.791016,-0.1640625 1.089844,-0.49218752 0.28125,-0.3339844 0.424805,-0.84375 0.433594,-1.5234375 -0.0088,-0.6328125 -0.152344,-1.1162109 -0.433594,-1.453125 -0.298828,-0.328125 -0.66211,-0.4921875 -1.089844,-0.4921875 -0.445312,0 -0.814453,0.1640625 -1.101562,0.4921875 -0.290039,0.328125 -0.433594,0.8261719 -0.433594,1.4882813 z M 43.920899,6.1759988e-7 V -5.1796869 h 0.796875 v 0.7382813 c 0.375,-0.5683594 0.919921,-0.8554688 1.640625,-0.8554688 0.310546,0 0.600585,0.055664 0.867187,0.1640625 0.257813,0.1171875 0.451172,0.2666016 0.585938,0.4453125 0.123046,0.1816406 0.216796,0.3955078 0.28125,0.6445313 0.0293,0.1640625 0.04687,0.4511718 0.04687,0.8554687 V 6.1759988e-7 H 47.260742 V -3.1523431 c 0,-0.3515625 -0.03516,-0.6210938 -0.105468,-0.8085938 -0.07031,-0.1699219 -0.19336,-0.3105469 -0.363282,-0.421875 -0.172851,-0.099609 -0.416015,-0.1523437 -0.726562,-0.1523437 -0.304688,0 -0.591797,0.1171875 -0.855469,0.3515625 -0.275391,0.243164 -0.410156,0.6914062 -0.410156,1.3476562 V 6.1759988e-7 Z M 57.450195,-2.5078119 l 0.949219,0.234375 c -0.205078,0.7822266 -0.55957,1.37695314 -1.066406,1.78125002 -0.515625,0.40722656 -1.148438,0.609375 -1.898438,0.609375 -0.767578,0.005859 -1.391601,-0.14648438 -1.875,-0.46875 -0.486328,-0.31054688 -0.852539,-0.76464842 -1.101562,-1.35937502 -0.257813,-0.5917969 -0.386719,-1.2333984 -0.386719,-1.921875 0,-0.7412109 0.143555,-1.3886719 0.433594,-1.9453125 0.28125,-0.5537109 0.685547,-0.9755859 1.21875,-1.265625 0.515625,-0.2871094 1.092773,-0.4335937 1.734375,-0.4335937 0.708984,0 1.3125,0.1845703 1.804687,0.5507812 0.483399,0.3691406 0.823243,0.8789063 1.019532,1.5351563 l -0.9375,0.2226562 C 57.180664,-5.4902338 56.94043,-5.8710931 56.629883,-6.1054681 56.307617,-6.3457025 55.90918,-6.4687494 55.43457,-6.4687494 c -0.55664,0 -1.013671,0.1347656 -1.371093,0.3984375 -0.375,0.2666016 -0.638672,0.6181641 -0.785157,1.0546875 -0.158203,0.4453125 -0.231445,0.9082031 -0.222656,1.3828125 -0.0088,0.609375 0.08203,1.1367188 0.269531,1.5820313 0.169922,0.4628906 0.445313,0.805664 0.820313,1.03125 0.375,0.21972653 0.779297,0.32812497 1.21875,0.32812497 0.530273,0.008789 0.978516,-0.14355469 1.347656,-0.45703127 0.357422,-0.3046875 0.603516,-0.7558594 0.738281,-1.359375 z m 1.675782,-0.082031 c 0,-0.9609375 0.269531,-1.6699219 0.808593,-2.1328125 0.436524,-0.3808594 0.978516,-0.5742188 1.628907,-0.5742188 0.708984,0 1.291992,0.2314453 1.746093,0.6914063 0.451172,0.46875 0.679688,1.1191406 0.679688,1.9453125 0,0.665039 -0.102539,1.1894531 -0.304688,1.5703125 -0.196289,0.38378903 -0.486328,0.67968747 -0.867187,0.89062497 -0.392578,0.2109375 -0.808594,0.31640625 -1.253906,0.31640625 -0.735352,0 -1.321289,-0.234375 -1.757813,-0.703125 C 59.351563,-1.0458978 59.125977,-1.7138666 59.125977,-2.5898429 Z m 0.902343,0 c 0,0.665039 0.143555,1.1601562 0.433594,1.4882812 0.28711,0.32812502 0.65625,0.49218752 1.101563,0.49218752 0.427734,0 0.791015,-0.1640625 1.089843,-0.49218752 0.28125,-0.3339844 0.424805,-0.84375 0.433594,-1.5234375 -0.0088,-0.6328125 -0.152344,-1.1162109 -0.433594,-1.453125 -0.298828,-0.328125 -0.662109,-0.4921875 -1.089843,-0.4921875 -0.445313,0 -0.814453,0.1640625 -1.101563,0.4921875 -0.290039,0.328125 -0.433594,0.8261719 -0.433594,1.4882813 z m 8.522461,0.9257812 0.902344,0.1054688 c -0.140625,0.5332031 -0.404297,0.94628903 -0.785156,1.24218747 -0.392578,0.29003906 -0.887695,0.43359375 -1.488281,0.43359375 -0.758789,0 -1.359375,-0.234375 -1.804688,-0.703125 -0.445312,-0.45996092 -0.667969,-1.11328122 -0.667969,-1.95703122 0,-0.8730469 0.225586,-1.5527344 0.679688,-2.0390625 0.445312,-0.4746094 1.02539,-0.7148438 1.746094,-0.7148438 0.694336,0 1.259765,0.234375 1.699218,0.703125 0.436524,0.4775391 0.65625,1.1425781 0.65625,1.9921875 0,0.055664 0,0.1347656 0,0.234375 h -3.867187 c 0.0293,0.5712891 0.19043,1.0078125 0.480469,1.3125 0.287109,0.29882814 0.647461,0.44531252 1.078125,0.44531252 0.319336,0.008789 0.597656,-0.0732422 0.832031,-0.24609375 C 68.237305,-1.02539 68.416016,-1.2949213 68.550781,-1.6640617 Z M 65.667969,-3.0937494 H 68.5625 c -0.04687,-0.4277344 -0.1875,-0.7792969 -0.421875,-1.0546875 -0.228516,-0.28125 -0.55957,-0.4248047 -0.996094,-0.4335937 -0.407226,0.00879 -0.74707,0.1464843 -1.019531,0.4101562 -0.28125,0.2666016 -0.433594,0.6269531 -0.457031,1.078125 z M 70.756836,6.1759988e-7 V -4.4999994 h -0.773437 v -0.6796875 h 0.773437 v -0.5507812 c 0,-0.3515625 0.03516,-0.6240235 0.105469,-0.8203125 0.07031,-0.2021485 0.213867,-0.375 0.433594,-0.515625 0.210937,-0.140625 0.509765,-0.2109375 0.902343,-0.2109375 0.240235,0 0.515625,0.029297 0.820313,0.082031 l -0.140625,0.7734375 c -0.181641,-0.029297 -0.38086,-0.046875 -0.597656,-0.046875 -0.210938,0 -0.372071,0.055664 -0.480469,0.1640625 -0.117188,0.1171875 -0.172852,0.3339844 -0.164063,0.6445313 v 0.4804687 h 1.007813 v 0.6796875 H 71.635742 V 6.1759988e-7 Z m 2.578125,0 V -4.4999994 h -0.773437 v -0.6796875 h 0.773437 v -0.5507812 c 0,-0.3515625 0.03516,-0.6240235 0.105469,-0.8203125 0.07031,-0.2021485 0.213867,-0.375 0.433594,-0.515625 0.210937,-0.140625 0.509765,-0.2109375 0.902343,-0.2109375 0.240235,0 0.515625,0.029297 0.820313,0.082031 l -0.140625,0.7734375 c -0.181641,-0.029297 -0.38086,-0.046875 -0.597656,-0.046875 -0.210938,0 -0.372071,0.055664 -0.480469,0.1640625 -0.117188,0.1171875 -0.172852,0.3339844 -0.164063,0.6445313 v 0.4804687 h 1.007813 v 0.6796875 H 74.213867 V 6.1759988e-7 Z m 0,0"
         style="fill:#000000;fill-opacity:1;fill-rule:nonzero;stroke:none"
         aria-label="Modulation	Coeff"
         transform="matrix(1.3333333,0,0,1.3333333,333.25521,470)"
         clip-path="url(#clipPath142)"
         id="path143" />
    </g>
    <path
       id="path145"
       d="m 1551.9941,1101.75 -33.3333,-16.6667 v 33.3334 z"
       style="fill:#000000;fill-opacity:1;fill-rule:nonzero;stroke:none"
       transform="matrix(0.32,0,0,0.32,13.44,13.440001)"
       clip-path="url(#clipPath146)" />
    <path
       id="path147"
       d="m 219.96141,249.86 h 40.08 v -49.92 h 32.08"
       style="fill:none;stroke:#000000;stroke-width:0.24;stroke-linecap:butt;stroke-linejoin:miter;stroke-miterlimit:2;stroke-dasharray:none;stroke-opacity:1"
       transform="matrix(1.3333333,0,0,1.3333333,110.07812,99.333334)"
       clip-path="url(#clipPath148)" />
    <path
       id="path149"
       d="m 219.96141,169.94 h 50.16"
       style="fill:none;stroke:#000000;stroke-width:0.24;stroke-linecap:butt;stroke-linejoin:miter;stroke-miterlimit:2;stroke-dasharray:none;stroke-opacity:1"
       transform="matrix(1.3333333,0,0,1.3333333,110.07812,99.333334)"
       clip-path="url(#clipPath150)" />
    <path
       id="path151"
       d="m 1551.9941,976.75 -33.3333,-16.66667 v 33.33334 z"
       style="fill:#000000;fill-opacity:1;fill-rule:nonzero;stroke:none"
       transform="matrix(0.32,0,0,0.32,13.44,13.440001)"
       clip-path="url(#clipPath152)" />
    <path
       id="path153"
       d="m 270.12141,169.94 h 22"
       style="fill:none;stroke:#000000;stroke-width:0.24;stroke-linecap:butt;stroke-linejoin:miter;stroke-miterlimit:2;stroke-dasharray:none;stroke-opacity:1"
       transform="matrix(1.3333333,0,0,1.3333333,110.07812,99.333334)"
       clip-path="url(#clipPath154)" />
    <path
       id="path155"
       d="m 1551.9941,1039.25 -33.3333,-16.6667 v 33.3334 z"
       style="fill:#000000;fill-opacity:1;fill-rule:nonzero;stroke:none"
       transform="matrix(0.32,0,0,0.32,13.44,13.440001)"
       clip-path="url(#clipPath156)" />
    <path
       id="path157"
       d="m 270.12141,169.94 v 14.88 h 22"
       style="fill:none;stroke:#000000;stroke-width:0.24;stroke-linecap:butt;stroke-linejoin:miter;stroke-miterlimit:2;stroke-dasharray:none;stroke-opacity:1"
       transform="matrix(1.3333333,0,0,1.3333333,110.07812,99.333334)"
       clip-path="url(#clipPath158)" />
    <path
       id="path159"
       d="m 1433.75,976.5 c 0,3.45178 -2.7982,6.25 -6.25,6.25 -3.4518,0 -6.25,-2.79822 -6.25,-6.25 0,-3.45178 2.7982,-6.25 6.25,-6.25 3.4518,0 6.25,2.79822 6.25,6.25 z"
       style="fill:#000000;fill-opacity:1;fill-rule:evenodd;stroke:none"
       transform="matrix(0.32,0,0,0.32,13.44,13.440001)"
       clip-path="url(#clipPath160)" />
    <path
       id="path161"
       d="m 334.92141,184.82 h 38.16"
       style="fill:none;stroke:#000000;stroke-width:0.24;stroke-linecap:butt;stroke-linejoin:miter;stroke-miterlimit:2;stroke-dasharray:none;stroke-opacity:1"
       transform="matrix(1.3333333,0,0,1.3333333,110.07812,99.333334)"
       clip-path="url(#clipPath162)" />
    <path
       id="path163"
       d="m 2031.1608,1039.25 -33.3333,-16.6667 v 33.3334 z"
       style="fill:#000000;fill-opacity:1;fill-rule:nonzero;stroke:none"
       transform="matrix(0.32,0,0,0.32,13.44,13.440001)"
       clip-path="url(#clipPath164)" />
    <path
       id="path165"
       d="m 373.08141,184.82 h 34"
       style="fill:none;stroke:#000000;stroke-width:0.24;stroke-linecap:butt;stroke-linejoin:miter;stroke-miterlimit:2;stroke-dasharray:none;stroke-opacity:1"
       transform="matrix(1.3333333,0,0,1.3333333,110.07812,99.333334)"
       clip-path="url(#clipPath166)" />
    <path
       id="path167"
       d="m 2031.1608,1351.75 -33.3333,-16.6667 v 33.3334 z"
       style="fill:#000000;fill-opacity:1;fill-rule:nonzero;stroke:none"
       transform="matrix(0.32,0,0,0.32,13.44,13.440001)"
       clip-path="url(#clipPath168)" />
    <path
       id="path169"
       d="m 373.08141,184.82 v 75.12 h 34"
       style="fill:none;stroke:#000000;stroke-width:0.24;stroke-linecap:butt;stroke-linejoin:miter;stroke-miterlimit:2;stroke-dasharray:none;stroke-opacity:1"
       transform="matrix(1.3333333,0,0,1.3333333,110.07812,99.333334)"
       clip-path="url(#clipPath170)" />
    <path
       id="path171"
       d="m 1862.75,1038.5 c 0,3.4518 -2.7982,6.25 -6.25,6.25 -3.4518,0 -6.25,-2.7982 -6.25,-6.25 0,-3.4518 2.7982,-6.25 6.25,-6.25 3.4518,0 6.25,2.7982 6.25,6.25 z"
       style="fill:#000000;fill-opacity:1;fill-rule:evenodd;stroke:none"
       transform="matrix(0.32,0,0,0.32,13.44,13.440001)"
       clip-path="url(#clipPath172)" />
  </g>
</svg>
