<?xml version="1.0" encoding="UTF-8" standalone="no"?>
<!-- Created with Inkscape (http://www.inkscape.org/) -->

<svg
   version="1.1"
   id="svg1"
   width="270"
   height="270"
   viewBox="0 0 270 270"
   sodipodi:docname="task3_sheme.pdf"
   xmlns:inkscape="http://www.inkscape.org/namespaces/inkscape"
   xmlns:sodipodi="http://sodipodi.sourceforge.net/DTD/sodipodi-0.dtd"
   xmlns="http://www.w3.org/2000/svg"
   xmlns:svg="http://www.w3.org/2000/svg">
  <defs
     id="defs1">
    <clipPath
       clipPathUnits="userSpaceOnUse"
       id="clipPath3">
      <path
         d="m 1250.692,891.33333 h 714.6159 V 1574.6667 H 1250.692 Z"
         transform="matrix(0.24000001,0,0,0.24000001,-365.31454,-215.92)"
         clip-rule="evenodd"
         id="path3" />
    </clipPath>
    <clipPath
       clipPathUnits="userSpaceOnUse"
       id="clipPath6">
      <path
         d="m 1250.692,891.33333 h 714.6159 V 1574.6667 H 1250.692 Z"
         transform="matrix(0.24000001,0,0,0.24000001,-222.81454,-81.420001)"
         clip-rule="evenodd"
         id="path6" />
    </clipPath>
    <clipPath
       clipPathUnits="userSpaceOnUse"
       id="clipPath8">
      <path
         d="m 1250.692,891.33333 h 714.6159 V 1574.6667 H 1250.692 Z"
         transform="matrix(0.24000001,0,0,0.24000001,-222.81454,-81.420001)"
         clip-rule="evenodd"
         id="path8" />
    </clipPath>
    <clipPath
       clipPathUnits="userSpaceOnUse"
       id="clipPath10">
      <path
         d="m 1250.692,891.33333 h 714.6159 V 1574.6667 H 1250.692 Z"
         transform="matrix(0.24000001,0,0,0.24000001,-222.81454,-81.420001)"
         clip-rule="evenodd"
         id="path10" />
    </clipPath>
    <clipPath
       clipPathUnits="userSpaceOnUse"
       id="clipPath12">
      <path
         d="m 1250.692,891.33333 h 714.6159 V 1574.6667 H 1250.692 Z"
         transform="matrix(0.24000001,0,0,0.24000001,-222.81454,-81.420001)"
         clip-rule="evenodd"
         id="path12" />
    </clipPath>
    <clipPath
       clipPathUnits="userSpaceOnUse"
       id="clipPath14">
      <path
         d="m 1250.692,891.33333 h 714.6159 V 1574.6667 H 1250.692 Z"
         transform="matrix(0.24000001,0,0,0.24000001,-222.81454,-81.420001)"
         clip-rule="evenodd"
         id="path14" />
    </clipPath>
    <clipPath
       clipPathUnits="userSpaceOnUse"
       id="clipPath16">
      <path
         d="m 1250.692,891.33333 h 714.6159 V 1574.6667 H 1250.692 Z"
         transform="matrix(0.24000001,0,0,0.24000001,-222.81454,-81.420001)"
         clip-rule="evenodd"
         id="path16" />
    </clipPath>
    <clipPath
       clipPathUnits="userSpaceOnUse"
       id="clipPath18">
      <path
         d="m 1250.692,891.33333 h 714.6159 V 1574.6667 H 1250.692 Z"
         transform="matrix(0.24000001,0,0,0.24000001,-222.81454,-81.420001)"
         clip-rule="evenodd"
         id="path18" />
    </clipPath>
    <clipPath
       clipPathUnits="userSpaceOnUse"
       id="clipPath20">
      <path
         d="m 1250.692,891.33333 h 714.6159 V 1574.6667 H 1250.692 Z"
         transform="matrix(0.24000001,0,0,0.24000001,-222.81454,-81.420001)"
         clip-rule="evenodd"
         id="path20" />
    </clipPath>
    <clipPath
       clipPathUnits="userSpaceOnUse"
       id="clipPath22">
      <path
         d="m 1250.692,891.33333 h 714.6159 V 1574.6667 H 1250.692 Z"
         transform="matrix(0.24000001,0,0,0.24000001,-222.81454,-81.420001)"
         clip-rule="evenodd"
         id="path22" />
    </clipPath>
    <clipPath
       clipPathUnits="userSpaceOnUse"
       id="clipPath24">
      <path
         d="m 1250.692,891.33333 h 714.6159 V 1574.6667 H 1250.692 Z"
         transform="matrix(0.24000001,0,0,0.24000001,-222.81454,-81.420001)"
         clip-rule="evenodd"
         id="path24" />
    </clipPath>
    <clipPath
       clipPathUnits="userSpaceOnUse"
       id="clipPath26">
      <path
         d="m 1250.692,891.33333 h 714.6159 V 1574.6667 H 1250.692 Z"
         transform="matrix(0.24000001,0,0,0.24000001,-222.81454,-81.420001)"
         clip-rule="evenodd"
         id="path26" />
    </clipPath>
    <clipPath
       clipPathUnits="userSpaceOnUse"
       id="clipPath28">
      <path
         d="m 1250.692,891.33333 h 714.6159 V 1574.6667 H 1250.692 Z"
         transform="matrix(0.24000001,0,0,0.24000001,-222.81454,-81.420001)"
         clip-rule="evenodd"
         id="path28" />
    </clipPath>
    <clipPath
       clipPathUnits="userSpaceOnUse"
       id="clipPath30">
      <path
         d="m 1250.692,891.33333 h 714.6159 V 1574.6667 H 1250.692 Z"
         transform="matrix(0.24000001,0,0,0.24000001,-222.81454,-81.420001)"
         clip-rule="evenodd"
         id="path30" />
    </clipPath>
    <clipPath
       clipPathUnits="userSpaceOnUse"
       id="clipPath32">
      <path
         d="m 1250.692,891.33333 h 714.6159 V 1574.6667 H 1250.692 Z"
         transform="matrix(0.24000001,0,0,0.24000001,-222.81454,-81.420001)"
         clip-rule="evenodd"
         id="path32" />
    </clipPath>
    <clipPath
       clipPathUnits="userSpaceOnUse"
       id="clipPath34">
      <path
         d="m 1250.692,891.33333 h 714.6159 V 1574.6667 H 1250.692 Z"
         transform="matrix(0.24000001,0,0,0.24000001,-222.81454,-81.420001)"
         clip-rule="evenodd"
         id="path34" />
    </clipPath>
    <clipPath
       clipPathUnits="userSpaceOnUse"
       id="clipPath36">
      <path
         d="m 1250.692,891.33333 h 714.6159 V 1574.6667 H 1250.692 Z"
         transform="matrix(0.24000001,0,0,0.24000001,-222.81454,-81.420001)"
         clip-rule="evenodd"
         id="path36" />
    </clipPath>
    <clipPath
       clipPathUnits="userSpaceOnUse"
       id="clipPath38">
      <path
         d="m 1250.692,891.33333 h 714.6159 V 1574.6667 H 1250.692 Z"
         transform="matrix(0.24000001,0,0,0.24000001,-222.81454,-81.420001)"
         clip-rule="evenodd"
         id="path38" />
    </clipPath>
    <clipPath
       clipPathUnits="userSpaceOnUse"
       id="clipPath40">
      <path
         d="m 1250.692,891.33333 h 714.6159 V 1574.6667 H 1250.692 Z"
         transform="matrix(0.24000001,0,0,0.24000001,-222.81454,-81.420001)"
         clip-rule="evenodd"
         id="path40" />
    </clipPath>
    <clipPath
       clipPathUnits="userSpaceOnUse"
       id="clipPath42">
      <path
         d="m 1250.692,891.33333 h 714.6159 V 1574.6667 H 1250.692 Z"
         transform="matrix(0.24000001,0,0,0.24000001,-222.81454,-81.420001)"
         clip-rule="evenodd"
         id="path42" />
    </clipPath>
    <clipPath
       clipPathUnits="userSpaceOnUse"
       id="clipPath44">
      <path
         d="m 1250.692,891.33333 h 714.6159 V 1574.6667 H 1250.692 Z"
         transform="matrix(0.24000001,0,0,0.24000001,-222.81454,-81.420001)"
         clip-rule="evenodd"
         id="path44" />
    </clipPath>
    <clipPath
       clipPathUnits="userSpaceOnUse"
       id="clipPath46">
      <path
         d="m 1250.692,891.33333 h 714.6159 V 1574.6667 H 1250.692 Z"
         transform="matrix(0.24000001,0,0,0.24000001,-222.81454,-81.420001)"
         clip-rule="evenodd"
         id="path46" />
    </clipPath>
    <clipPath
       clipPathUnits="userSpaceOnUse"
       id="clipPath48">
      <path
         d="m 1250.692,891.33333 h 714.6159 V 1574.6667 H 1250.692 Z"
         transform="matrix(0.24000001,0,0,0.24000001,-222.81454,-81.420001)"
         clip-rule="evenodd"
         id="path48" />
    </clipPath>
    <clipPath
       clipPathUnits="userSpaceOnUse"
       id="clipPath50">
      <path
         d="m 1250.692,891.33333 h 714.6159 V 1574.6667 H 1250.692 Z"
         transform="matrix(0.24000001,0,0,0.24000001,-222.81454,-81.420001)"
         clip-rule="evenodd"
         id="path50" />
    </clipPath>
    <clipPath
       clipPathUnits="userSpaceOnUse"
       id="clipPath52">
      <path
         d="m 1250.692,891.33333 h 714.6159 V 1574.6667 H 1250.692 Z"
         transform="matrix(0.24000001,0,0,0.24000001,-222.81454,-81.420001)"
         clip-rule="evenodd"
         id="path52" />
    </clipPath>
    <clipPath
       clipPathUnits="userSpaceOnUse"
       id="clipPath54">
      <path
         d="m 1250.692,891.33333 h 714.6159 V 1574.6667 H 1250.692 Z"
         transform="matrix(0.24000001,0,0,0.24000001,-222.81454,-81.420001)"
         clip-rule="evenodd"
         id="path54" />
    </clipPath>
    <clipPath
       clipPathUnits="userSpaceOnUse"
       id="clipPath56">
      <path
         d="m 1250.692,891.33333 h 714.6159 V 1574.6667 H 1250.692 Z"
         transform="matrix(0.24000001,0,0,0.24000001,-222.81454,-81.420001)"
         clip-rule="evenodd"
         id="path56" />
    </clipPath>
    <clipPath
       clipPathUnits="userSpaceOnUse"
       id="clipPath58">
      <path
         d="m 1250.692,891.33333 h 714.6159 V 1574.6667 H 1250.692 Z"
         transform="matrix(0.24000001,0,0,0.24000001,-222.81454,-81.420001)"
         clip-rule="evenodd"
         id="path58" />
    </clipPath>
    <clipPath
       clipPathUnits="userSpaceOnUse"
       id="clipPath60">
      <path
         d="m 1250.692,891.33333 h 714.6159 V 1574.6667 H 1250.692 Z"
         transform="matrix(0.24000001,0,0,0.24000001,-222.81454,-81.420001)"
         clip-rule="evenodd"
         id="path60" />
    </clipPath>
    <clipPath
       clipPathUnits="userSpaceOnUse"
       id="clipPath62">
      <path
         d="m 1250.692,891.33333 h 714.6159 V 1574.6667 H 1250.692 Z"
         transform="matrix(0.24000001,0,0,0.24000001,-222.81454,-81.420001)"
         clip-rule="evenodd"
         id="path62" />
    </clipPath>
    <clipPath
       clipPathUnits="userSpaceOnUse"
       id="clipPath64">
      <path
         d="m 1250.692,891.33333 h 714.6159 V 1574.6667 H 1250.692 Z"
         transform="matrix(0.24000001,0,0,0.24000001,-222.81454,-81.420001)"
         clip-rule="evenodd"
         id="path64" />
    </clipPath>
    <clipPath
       clipPathUnits="userSpaceOnUse"
       id="clipPath66">
      <path
         d="m 1250.692,891.33333 h 714.6159 V 1574.6667 H 1250.692 Z"
         transform="matrix(0.24000001,0,0,0.24000001,-365.31454,-215.92)"
         clip-rule="evenodd"
         id="path66" />
    </clipPath>
    <clipPath
       clipPathUnits="userSpaceOnUse"
       id="clipPath67">
      <path
         d="m 1684.6439,914.25 h 199.6745 v 116.6667 h -199.6745 z"
         transform="matrix(0.24000001,0,0,0.24000001,-405.31454,-230.42001)"
         clip-rule="evenodd"
         id="path67" />
    </clipPath>
    <clipPath
       clipPathUnits="userSpaceOnUse"
       id="clipPath69">
      <path
         d="m 1684.6439,914.25 h 199.6745 v 116.6667 h -199.6745 z"
         transform="matrix(0.32,0,0,0.32,13.44,13.440001)"
         clip-rule="evenodd"
         id="path69" />
    </clipPath>
    <clipPath
       clipPathUnits="userSpaceOnUse"
       id="clipPath71">
      <path
         d="m 1684.6439,914.25 h 199.6745 v 116.6667 h -199.6745 z"
         transform="matrix(0.24000001,0,0,0.24000001,-405.31454,-243.42001)"
         clip-rule="evenodd"
         id="path71" />
    </clipPath>
    <clipPath
       clipPathUnits="userSpaceOnUse"
       id="clipPath73">
      <path
         d="m 1250.692,891.33333 h 714.6159 V 1574.6667 H 1250.692 Z"
         transform="matrix(0.24000001,0,0,0.24000001,-365.31454,-340.92001)"
         clip-rule="evenodd"
         id="path73" />
    </clipPath>
    <clipPath
       clipPathUnits="userSpaceOnUse"
       id="clipPath76">
      <path
         d="m 1250.692,891.33333 h 714.6159 V 1574.6667 H 1250.692 Z"
         transform="matrix(0.24000001,0,0,0.24000001,-222.81454,-81.420001)"
         clip-rule="evenodd"
         id="path76" />
    </clipPath>
    <clipPath
       clipPathUnits="userSpaceOnUse"
       id="clipPath78">
      <path
         d="m 1250.692,891.33333 h 714.6159 V 1574.6667 H 1250.692 Z"
         transform="matrix(0.24000001,0,0,0.24000001,-222.81454,-81.420001)"
         clip-rule="evenodd"
         id="path78" />
    </clipPath>
    <clipPath
       clipPathUnits="userSpaceOnUse"
       id="clipPath80">
      <path
         d="m 1250.692,891.33333 h 714.6159 V 1574.6667 H 1250.692 Z"
         transform="matrix(0.24000001,0,0,0.24000001,-222.81454,-81.420001)"
         clip-rule="evenodd"
         id="path80" />
    </clipPath>
    <clipPath
       clipPathUnits="userSpaceOnUse"
       id="clipPath82">
      <path
         d="m 1250.692,891.33333 h 714.6159 V 1574.6667 H 1250.692 Z"
         transform="matrix(0.24000001,0,0,0.24000001,-222.81454,-81.420001)"
         clip-rule="evenodd"
         id="path82" />
    </clipPath>
    <clipPath
       clipPathUnits="userSpaceOnUse"
       id="clipPath84">
      <path
         d="m 1250.692,891.33333 h 714.6159 V 1574.6667 H 1250.692 Z"
         transform="matrix(0.24000001,0,0,0.24000001,-222.81454,-81.420001)"
         clip-rule="evenodd"
         id="path84" />
    </clipPath>
    <clipPath
       clipPathUnits="userSpaceOnUse"
       id="clipPath86">
      <path
         d="m 1250.692,891.33333 h 714.6159 V 1574.6667 H 1250.692 Z"
         transform="matrix(0.24000001,0,0,0.24000001,-222.81454,-81.420001)"
         clip-rule="evenodd"
         id="path86" />
    </clipPath>
    <clipPath
       clipPathUnits="userSpaceOnUse"
       id="clipPath88">
      <path
         d="m 1250.692,891.33333 h 714.6159 V 1574.6667 H 1250.692 Z"
         transform="matrix(0.24000001,0,0,0.24000001,-365.31454,-340.92001)"
         clip-rule="evenodd"
         id="path88" />
    </clipPath>
    <clipPath
       clipPathUnits="userSpaceOnUse"
       id="clipPath89">
      <path
         d="m 1301.6361,1435.0833 h 199.6744 V 1551.75 h -199.6744 z"
         transform="matrix(0.24000001,0,0,0.24000001,-323.64266,-355.42001)"
         clip-rule="evenodd"
         id="path89" />
    </clipPath>
    <clipPath
       clipPathUnits="userSpaceOnUse"
       id="clipPath91">
      <path
         d="m 1301.6361,1435.0833 h 199.6744 V 1551.75 h -199.6744 z"
         transform="matrix(0.32,0,0,0.32,13.44,13.440001)"
         clip-rule="evenodd"
         id="path91" />
    </clipPath>
    <clipPath
       clipPathUnits="userSpaceOnUse"
       id="clipPath93">
      <path
         d="m 1301.6361,1435.0833 h 199.6744 V 1551.75 h -199.6744 z"
         transform="matrix(0.24000001,0,0,0.24000001,-314.39267,-368.42001)"
         clip-rule="evenodd"
         id="path93" />
    </clipPath>
    <clipPath
       clipPathUnits="userSpaceOnUse"
       id="clipPath95">
      <path
         d="m 1250.692,891.33333 h 714.6159 V 1574.6667 H 1250.692 Z"
         transform="matrix(0.24000001,0,0,0.24000001,-302.31454,-281.92)"
         clip-rule="evenodd"
         id="path95" />
    </clipPath>
    <clipPath
       clipPathUnits="userSpaceOnUse"
       id="clipPath104">
      <path
         d="m 1232.5605,1138 h 179.1667 v 210.8333 h -179.1667 z"
         transform="matrix(0.24000001,0,0,0.24000001,-300.71446,-280.91992)"
         clip-rule="evenodd"
         id="path104" />
    </clipPath>
    <clipPath
       clipPathUnits="userSpaceOnUse"
       id="clipPath109">
      <path
         d="m 1250.692,891.33333 h 714.6159 V 1574.6667 H 1250.692 Z"
         transform="matrix(0.24000001,0,0,0.24000001,-302.31454,-281.92)"
         clip-rule="evenodd"
         id="path109" />
    </clipPath>
    <clipPath
       clipPathUnits="userSpaceOnUse"
       id="clipPath110">
      <path
         d="m 1259.0254,1103.8333 h 126.237 v 62.5 h -126.237 z"
         transform="matrix(0.24000001,0,0,0.24000001,-303.1661,-275.92)"
         clip-rule="evenodd"
         id="path110" />
    </clipPath>
    <clipPath
       clipPathUnits="userSpaceOnUse"
       id="clipPath112">
      <path
         d="m 1259.0254,1103.8333 h 126.237 v 62.5 h -126.237 z"
         transform="matrix(0.32,0,0,0.32,13.44,13.440001)"
         clip-rule="evenodd"
         id="path112" />
    </clipPath>
    <clipPath
       clipPathUnits="userSpaceOnUse"
       id="clipPath114">
      <path
         d="m 1250.692,891.33333 h 714.6159 V 1574.6667 H 1250.692 Z"
         transform="matrix(0.24000001,0,0,0.24000001,-432.31454,-281.92)"
         clip-rule="evenodd"
         id="path114" />
    </clipPath>
    <clipPath
       clipPathUnits="userSpaceOnUse"
       id="clipPath123">
      <path
         d="m 1776.3105,1147.5833 h 175 V 1339.25 h -175 z"
         clip-rule="evenodd"
         id="path123" />
    </clipPath>
    <clipPath
       clipPathUnits="userSpaceOnUse"
       id="clipPath125">
      <path
         d="m 1776.3105,1147.5833 h 175 V 1339.25 h -175 z"
         transform="matrix(0.8,0,0,0.72727273,-1441.0484,-854.30302)"
         clip-rule="evenodd"
         id="path125" />
    </clipPath>
    <clipPath
       clipPathUnits="userSpaceOnUse"
       id="clipPath127">
      <path
         d="m 1776.3105,1147.5833 h 175 V 1339.25 h -175 z"
         clip-rule="evenodd"
         id="path127" />
    </clipPath>
    <clipPath
       clipPathUnits="userSpaceOnUse"
       id="clipPath129">
      <path
         d="m 1776.3105,1147.5833 h 175 V 1339.25 h -175 z"
         transform="matrix(0.8,0,0,0.72727273,-1441.0484,-854.30302)"
         clip-rule="evenodd"
         id="path129" />
    </clipPath>
    <clipPath
       clipPathUnits="userSpaceOnUse"
       id="clipPath131">
      <path
         d="m 1776.3105,1147.5833 h 175 V 1339.25 h -175 z"
         clip-rule="evenodd"
         id="path131" />
    </clipPath>
    <clipPath
       clipPathUnits="userSpaceOnUse"
       id="clipPath133">
      <path
         d="m 1776.3105,1147.5833 h 175 V 1339.25 h -175 z"
         transform="matrix(0.8,0,0,0.72727273,-1441.0484,-854.30302)"
         clip-rule="evenodd"
         id="path133" />
    </clipPath>
    <clipPath
       clipPathUnits="userSpaceOnUse"
       id="clipPath135">
      <path
         d="m 1776.3105,1147.5833 h 175 V 1339.25 h -175 z"
         clip-rule="evenodd"
         id="path135" />
    </clipPath>
    <clipPath
       clipPathUnits="userSpaceOnUse"
       id="clipPath137">
      <path
         d="m 1776.3105,1147.5833 h 175 V 1339.25 h -175 z"
         clip-rule="evenodd"
         id="path137" />
    </clipPath>
    <clipPath
       clipPathUnits="userSpaceOnUse"
       id="clipPath139">
      <path
         d="m 1776.3105,1147.5833 h 175 V 1339.25 h -175 z"
         clip-rule="evenodd"
         id="path139" />
    </clipPath>
    <clipPath
       clipPathUnits="userSpaceOnUse"
       id="clipPath141">
      <path
         d="m 1776.3105,1147.5833 h 175 V 1339.25 h -175 z"
         clip-rule="evenodd"
         id="path141" />
    </clipPath>
    <clipPath
       clipPathUnits="userSpaceOnUse"
       id="clipPath143">
      <path
         d="m 1776.3105,1147.5833 h 175 V 1339.25 h -175 z"
         clip-rule="evenodd"
         id="path143" />
    </clipPath>
    <clipPath
       clipPathUnits="userSpaceOnUse"
       id="clipPath145">
      <path
         d="m 1776.3105,1147.5833 h 175 V 1339.25 h -175 z"
         clip-rule="evenodd"
         id="path145" />
    </clipPath>
    <clipPath
       clipPathUnits="userSpaceOnUse"
       id="clipPath147">
      <path
         d="m 1776.3105,1147.5833 h 175 V 1339.25 h -175 z"
         clip-rule="evenodd"
         id="path147" />
    </clipPath>
    <clipPath
       clipPathUnits="userSpaceOnUse"
       id="clipPath152">
      <path
         d="m 1250.692,891.33333 h 714.6159 V 1574.6667 H 1250.692 Z"
         transform="matrix(0.24000001,0,0,0.24000001,-432.31454,-281.92)"
         clip-rule="evenodd"
         id="path152" />
    </clipPath>
    <clipPath
       clipPathUnits="userSpaceOnUse"
       id="clipPath153">
      <path
         d="m 1770.6465,1320.5 h 186.3281 v 116.6667 h -186.3281 z"
         transform="matrix(0.24000001,0,0,0.24000001,-425.95517,-327.92)"
         clip-rule="evenodd"
         id="path153" />
    </clipPath>
    <clipPath
       clipPathUnits="userSpaceOnUse"
       id="clipPath155">
      <path
         d="m 1770.6465,1320.5 h 186.3281 v 116.6667 h -186.3281 z"
         transform="matrix(0.32,0,0,0.32,13.44,13.440001)"
         clip-rule="evenodd"
         id="path155" />
    </clipPath>
    <clipPath
       clipPathUnits="userSpaceOnUse"
       id="clipPath157">
      <path
         d="m 1770.6465,1320.5 h 186.3281 v 116.6667 h -186.3281 z"
         transform="matrix(0.24000001,0,0,0.24000001,-427.89267,-340.92001)"
         clip-rule="evenodd"
         id="path157" />
    </clipPath>
    <clipPath
       clipPathUnits="userSpaceOnUse"
       id="clipPath159">
      <path
         d="m 1250.692,891.33333 h 714.6159 V 1574.6667 H 1250.692 Z"
         transform="matrix(0.24000001,0,0,0.24000001,-222.31453,-80.919999)"
         clip-rule="evenodd"
         id="path159" />
    </clipPath>
    <clipPath
       clipPathUnits="userSpaceOnUse"
       id="clipPath161">
      <path
         d="m 1250.692,891.33333 h 714.6159 V 1574.6667 H 1250.692 Z"
         clip-rule="evenodd"
         id="path161" />
    </clipPath>
    <clipPath
       clipPathUnits="userSpaceOnUse"
       id="clipPath163">
      <path
         d="m 1250.692,891.33333 h 714.6159 V 1574.6667 H 1250.692 Z"
         transform="matrix(0.24000001,0,0,0.24000001,-222.31453,-80.919999)"
         clip-rule="evenodd"
         id="path163" />
    </clipPath>
    <clipPath
       clipPathUnits="userSpaceOnUse"
       id="clipPath165">
      <path
         d="m 1250.692,891.33333 h 714.6159 V 1574.6667 H 1250.692 Z"
         clip-rule="evenodd"
         id="path165" />
    </clipPath>
    <clipPath
       clipPathUnits="userSpaceOnUse"
       id="clipPath167">
      <path
         d="m 1250.692,891.33333 h 714.6159 V 1574.6667 H 1250.692 Z"
         transform="matrix(0.24000001,0,0,0.24000001,-222.31453,-80.919999)"
         clip-rule="evenodd"
         id="path167" />
    </clipPath>
    <clipPath
       clipPathUnits="userSpaceOnUse"
       id="clipPath169">
      <path
         d="m 1250.692,891.33333 h 714.6159 V 1574.6667 H 1250.692 Z"
         clip-rule="evenodd"
         id="path169" />
    </clipPath>
    <clipPath
       clipPathUnits="userSpaceOnUse"
       id="clipPath171">
      <path
         d="m 1250.692,891.33333 h 714.6159 V 1574.6667 H 1250.692 Z"
         transform="matrix(0.24000001,0,0,0.24000001,-222.31453,-80.919999)"
         clip-rule="evenodd"
         id="path171" />
    </clipPath>
    <clipPath
       clipPathUnits="userSpaceOnUse"
       id="clipPath173">
      <path
         d="m 1250.692,891.33333 h 714.6159 V 1574.6667 H 1250.692 Z"
         clip-rule="evenodd"
         id="path173" />
    </clipPath>
    <clipPath
       clipPathUnits="userSpaceOnUse"
       id="clipPath175">
      <path
         d="m 1250.692,891.33333 h 714.6159 V 1574.6667 H 1250.692 Z"
         transform="matrix(0.24000001,0,0,0.24000001,-222.31453,-80.919999)"
         clip-rule="evenodd"
         id="path175" />
    </clipPath>
    <clipPath
       clipPathUnits="userSpaceOnUse"
       id="clipPath177">
      <path
         d="m 1250.692,891.33333 h 714.6159 V 1574.6667 H 1250.692 Z"
         clip-rule="evenodd"
         id="path177" />
    </clipPath>
    <clipPath
       clipPathUnits="userSpaceOnUse"
       id="clipPath179">
      <path
         d="m 1250.692,891.33333 h 714.6159 V 1574.6667 H 1250.692 Z"
         transform="matrix(0.24000001,0,0,0.24000001,-222.31453,-80.919999)"
         clip-rule="evenodd"
         id="path179" />
    </clipPath>
    <clipPath
       clipPathUnits="userSpaceOnUse"
       id="clipPath181">
      <path
         d="m 1250.692,891.33333 h 714.6159 V 1574.6667 H 1250.692 Z"
         clip-rule="evenodd"
         id="path181" />
    </clipPath>
  </defs>
  <sodipodi:namedview
     id="namedview1"
     pagecolor="#ffffff"
     bordercolor="#000000"
     borderopacity="0.25"
     inkscape:showpageshadow="2"
     inkscape:pageopacity="0.0"
     inkscape:pagecheckerboard="0"
     inkscape:deskcolor="#d1d1d1">
    <inkscape:page
       x="0"
       y="0"
       inkscape:label="1"
       id="page1"
       width="270"
       height="270"
       margin="0"
       bleed="0" />
  </sodipodi:namedview>
  <rect
     style="fill:#ffffff;stroke-width:1.05527"
     id="rect181"
     width="270"
     height="270"
     x="391.81686"
     y="273"
     ry="0"
     transform="translate(-391.81686,-273)" />
  <g
     id="g1"
     inkscape:groupmode="layer"
     inkscape:label="1"
     transform="translate(-391.81686,-273)">
    <path
       id="path2"
       d="M 0,0 H 34 V 35 H 0 Z"
       style="fill:#ffffff;fill-opacity:1;fill-rule:nonzero;stroke:none"
       transform="matrix(1.3333333,0,0,1.3333333,500.52604,301.33333)"
       clip-path="url(#clipPath3)" />
    <path
       id="path5"
       d="m 144,163 h 4"
       style="fill:none;stroke:#000000;stroke-width:0.24;stroke-linecap:butt;stroke-linejoin:miter;stroke-miterlimit:2;stroke-dasharray:none;stroke-opacity:1"
       transform="matrix(1.3333333,0,0,1.3333333,310.52604,122)"
       clip-path="url(#clipPath6)" />
    <path
       id="path7"
       d="m 146,161 v 4"
       style="fill:none;stroke:#000000;stroke-width:0.24;stroke-linecap:butt;stroke-linejoin:miter;stroke-miterlimit:2;stroke-dasharray:none;stroke-opacity:1"
       transform="matrix(1.3333333,0,0,1.3333333,310.52604,122)"
       clip-path="url(#clipPath8)" />
    <path
       id="path9"
       d="m 147,163 h 4"
       style="fill:none;stroke:#000000;stroke-width:0.24;stroke-linecap:butt;stroke-linejoin:miter;stroke-miterlimit:2;stroke-dasharray:none;stroke-opacity:1"
       transform="matrix(1.3333333,0,0,1.3333333,310.52604,122)"
       clip-path="url(#clipPath10)" />
    <path
       id="path11"
       d="m 149,161 v 4"
       style="fill:none;stroke:#000000;stroke-width:0.24;stroke-linecap:butt;stroke-linejoin:miter;stroke-miterlimit:2;stroke-dasharray:none;stroke-opacity:1"
       transform="matrix(1.3333333,0,0,1.3333333,310.52604,122)"
       clip-path="url(#clipPath12)" />
    <path
       id="path13"
       d="m 147,142 h 4"
       style="fill:none;stroke:#000000;stroke-width:0.24;stroke-linecap:butt;stroke-linejoin:miter;stroke-miterlimit:2;stroke-dasharray:none;stroke-opacity:1"
       transform="matrix(1.3333333,0,0,1.3333333,310.52604,122)"
       clip-path="url(#clipPath14)" />
    <path
       id="path15"
       d="m 149,140 v 4"
       style="fill:none;stroke:#000000;stroke-width:0.24;stroke-linecap:butt;stroke-linejoin:miter;stroke-miterlimit:2;stroke-dasharray:none;stroke-opacity:1"
       transform="matrix(1.3333333,0,0,1.3333333,310.52604,122)"
       clip-path="url(#clipPath16)" />
    <path
       id="path17"
       d="m 150,142 h 4"
       style="fill:none;stroke:#000000;stroke-width:0.24;stroke-linecap:butt;stroke-linejoin:miter;stroke-miterlimit:2;stroke-dasharray:none;stroke-opacity:1"
       transform="matrix(1.3333333,0,0,1.3333333,310.52604,122)"
       clip-path="url(#clipPath18)" />
    <path
       id="path19"
       d="m 152,140 v 4"
       style="fill:none;stroke:#000000;stroke-width:0.24;stroke-linecap:butt;stroke-linejoin:miter;stroke-miterlimit:2;stroke-dasharray:none;stroke-opacity:1"
       transform="matrix(1.3333333,0,0,1.3333333,310.52604,122)"
       clip-path="url(#clipPath20)" />
    <path
       id="path21"
       d="m 153,142 h 4"
       style="fill:none;stroke:#000000;stroke-width:0.24;stroke-linecap:butt;stroke-linejoin:miter;stroke-miterlimit:2;stroke-dasharray:none;stroke-opacity:1"
       transform="matrix(1.3333333,0,0,1.3333333,310.52604,122)"
       clip-path="url(#clipPath22)" />
    <path
       id="path23"
       d="m 155,140 v 4"
       style="fill:none;stroke:#000000;stroke-width:0.24;stroke-linecap:butt;stroke-linejoin:miter;stroke-miterlimit:2;stroke-dasharray:none;stroke-opacity:1"
       transform="matrix(1.3333333,0,0,1.3333333,310.52604,122)"
       clip-path="url(#clipPath24)" />
    <path
       id="path25"
       d="m 153,163 h 4"
       style="fill:none;stroke:#000000;stroke-width:0.24;stroke-linecap:butt;stroke-linejoin:miter;stroke-miterlimit:2;stroke-dasharray:none;stroke-opacity:1"
       transform="matrix(1.3333333,0,0,1.3333333,310.52604,122)"
       clip-path="url(#clipPath26)" />
    <path
       id="path27"
       d="m 155,161 v 4"
       style="fill:none;stroke:#000000;stroke-width:0.24;stroke-linecap:butt;stroke-linejoin:miter;stroke-miterlimit:2;stroke-dasharray:none;stroke-opacity:1"
       transform="matrix(1.3333333,0,0,1.3333333,310.52604,122)"
       clip-path="url(#clipPath28)" />
    <path
       id="path29"
       d="m 156,163 h 4"
       style="fill:none;stroke:#000000;stroke-width:0.24;stroke-linecap:butt;stroke-linejoin:miter;stroke-miterlimit:2;stroke-dasharray:none;stroke-opacity:1"
       transform="matrix(1.3333333,0,0,1.3333333,310.52604,122)"
       clip-path="url(#clipPath30)" />
    <path
       id="path31"
       d="m 158,161 v 4"
       style="fill:none;stroke:#000000;stroke-width:0.24;stroke-linecap:butt;stroke-linejoin:miter;stroke-miterlimit:2;stroke-dasharray:none;stroke-opacity:1"
       transform="matrix(1.3333333,0,0,1.3333333,310.52604,122)"
       clip-path="url(#clipPath32)" />
    <path
       id="path33"
       d="m 159,163 h 4"
       style="fill:none;stroke:#000000;stroke-width:0.24;stroke-linecap:butt;stroke-linejoin:miter;stroke-miterlimit:2;stroke-dasharray:none;stroke-opacity:1"
       transform="matrix(1.3333333,0,0,1.3333333,310.52604,122)"
       clip-path="url(#clipPath34)" />
    <path
       id="path35"
       d="m 161,161 v 4"
       style="fill:none;stroke:#000000;stroke-width:0.24;stroke-linecap:butt;stroke-linejoin:miter;stroke-miterlimit:2;stroke-dasharray:none;stroke-opacity:1"
       transform="matrix(1.3333333,0,0,1.3333333,310.52604,122)"
       clip-path="url(#clipPath36)" />
    <path
       id="path37"
       d="m 159,142 h 4"
       style="fill:none;stroke:#000000;stroke-width:0.24;stroke-linecap:butt;stroke-linejoin:miter;stroke-miterlimit:2;stroke-dasharray:none;stroke-opacity:1"
       transform="matrix(1.3333333,0,0,1.3333333,310.52604,122)"
       clip-path="url(#clipPath38)" />
    <path
       id="path39"
       d="m 161,140 v 4"
       style="fill:none;stroke:#000000;stroke-width:0.24;stroke-linecap:butt;stroke-linejoin:miter;stroke-miterlimit:2;stroke-dasharray:none;stroke-opacity:1"
       transform="matrix(1.3333333,0,0,1.3333333,310.52604,122)"
       clip-path="url(#clipPath40)" />
    <path
       id="path41"
       d="m 162,142 h 4"
       style="fill:none;stroke:#000000;stroke-width:0.24;stroke-linecap:butt;stroke-linejoin:miter;stroke-miterlimit:2;stroke-dasharray:none;stroke-opacity:1"
       transform="matrix(1.3333333,0,0,1.3333333,310.52604,122)"
       clip-path="url(#clipPath42)" />
    <path
       id="path43"
       d="m 164,140 v 4"
       style="fill:none;stroke:#000000;stroke-width:0.24;stroke-linecap:butt;stroke-linejoin:miter;stroke-miterlimit:2;stroke-dasharray:none;stroke-opacity:1"
       transform="matrix(1.3333333,0,0,1.3333333,310.52604,122)"
       clip-path="url(#clipPath44)" />
    <path
       id="path45"
       d="m 165,142 h 4"
       style="fill:none;stroke:#000000;stroke-width:0.24;stroke-linecap:butt;stroke-linejoin:miter;stroke-miterlimit:2;stroke-dasharray:none;stroke-opacity:1"
       transform="matrix(1.3333333,0,0,1.3333333,310.52604,122)"
       clip-path="url(#clipPath46)" />
    <path
       id="path47"
       d="m 167,140 v 4"
       style="fill:none;stroke:#000000;stroke-width:0.24;stroke-linecap:butt;stroke-linejoin:miter;stroke-miterlimit:2;stroke-dasharray:none;stroke-opacity:1"
       transform="matrix(1.3333333,0,0,1.3333333,310.52604,122)"
       clip-path="url(#clipPath48)" />
    <path
       id="path49"
       d="m 165,163 h 4"
       style="fill:none;stroke:#000000;stroke-width:0.24;stroke-linecap:butt;stroke-linejoin:miter;stroke-miterlimit:2;stroke-dasharray:none;stroke-opacity:1"
       transform="matrix(1.3333333,0,0,1.3333333,310.52604,122)"
       clip-path="url(#clipPath50)" />
    <path
       id="path51"
       d="m 167,161 v 4"
       style="fill:none;stroke:#000000;stroke-width:0.24;stroke-linecap:butt;stroke-linejoin:miter;stroke-miterlimit:2;stroke-dasharray:none;stroke-opacity:1"
       transform="matrix(1.3333333,0,0,1.3333333,310.52604,122)"
       clip-path="url(#clipPath52)" />
    <path
       id="path53"
       d="m 168,163 h 4"
       style="fill:none;stroke:#000000;stroke-width:0.24;stroke-linecap:butt;stroke-linejoin:miter;stroke-miterlimit:2;stroke-dasharray:none;stroke-opacity:1"
       transform="matrix(1.3333333,0,0,1.3333333,310.52604,122)"
       clip-path="url(#clipPath54)" />
    <path
       id="path55"
       d="m 170,161 v 4"
       style="fill:none;stroke:#000000;stroke-width:0.24;stroke-linecap:butt;stroke-linejoin:miter;stroke-miterlimit:2;stroke-dasharray:none;stroke-opacity:1"
       transform="matrix(1.3333333,0,0,1.3333333,310.52604,122)"
       clip-path="url(#clipPath56)" />
    <path
       id="path57"
       d="M 149,163 V 142"
       style="fill:none;stroke:#000000;stroke-width:1;stroke-linecap:square;stroke-linejoin:bevel;stroke-miterlimit:10;stroke-dasharray:4, 2;stroke-dashoffset:0;stroke-opacity:1"
       transform="matrix(1.3333333,0,0,1.3333333,310.52604,122)"
       clip-path="url(#clipPath58)" />
    <path
       id="path59"
       d="M 155,163 V 142"
       style="fill:none;stroke:#000000;stroke-width:1;stroke-linecap:square;stroke-linejoin:bevel;stroke-miterlimit:10;stroke-dasharray:4, 2;stroke-dashoffset:0;stroke-opacity:1"
       transform="matrix(1.3333333,0,0,1.3333333,310.52604,122)"
       clip-path="url(#clipPath60)" />
    <path
       id="path61"
       d="M 161,163 V 142"
       style="fill:none;stroke:#000000;stroke-width:1;stroke-linecap:square;stroke-linejoin:bevel;stroke-miterlimit:10;stroke-dasharray:4, 2;stroke-dashoffset:0;stroke-opacity:1"
       transform="matrix(1.3333333,0,0,1.3333333,310.52604,122)"
       clip-path="url(#clipPath62)" />
    <path
       id="path63"
       d="M 167,163 V 142"
       style="fill:none;stroke:#000000;stroke-width:1;stroke-linecap:square;stroke-linejoin:bevel;stroke-miterlimit:10;stroke-dasharray:4, 2;stroke-dashoffset:0;stroke-opacity:1"
       transform="matrix(1.3333333,0,0,1.3333333,310.52604,122)"
       clip-path="url(#clipPath64)" />
    <path
       id="path65"
       d="M 0,0 H 34 V 35 H 0 Z"
       style="fill:none;stroke:#000000;stroke-width:0.565047;stroke-linecap:butt;stroke-linejoin:miter;stroke-miterlimit:2;stroke-dasharray:none;stroke-opacity:1"
       transform="matrix(1.3333333,0,0,1.3333333,500.52604,301.33333)"
       clip-path="url(#clipPath66)" />
    <g
       id="g68"
       clip-path="url(#clipPath69)">
      <path
         d="M 0.77343755,9.758201e-4 V -7.1591804 H 3.4687501 c 0.4746093,0.00879 0.8613281,0.041016 1.1601562,0.09375 0.3046875,0.046875 0.5742188,0.1523437 0.8085938,0.3164062 0.2402343,0.1640625 0.4365234,0.3955078 0.5859375,0.6914063 0.1318359,0.2988281 0.2021484,0.6210937 0.2109375,0.9726562 -0.00879,0.609375 -0.2050782,1.125 -0.5859375,1.546875 -0.3925782,0.421875 -1.0898438,0.6328125 -2.0976563,0.6328125 H 1.7226563 V 9.758201e-4 Z M 1.7226563,-3.7490242 h 1.8398438 c 0.609375,0 1.0458984,-0.1113281 1.3125,-0.3398437 0.2578125,-0.225586 0.3867187,-0.5449219 0.3867187,-0.9609375 0,-0.2958985 -0.079102,-0.553711 -0.234375,-0.7734375 C 4.8779297,-6.0341804 4.678711,-6.1748054 4.4296876,-6.2451179 4.2656251,-6.2919929 3.9726563,-6.3154304 3.5507813,-6.3154304 H 1.7226563 Z M 10.710938,9.758201e-4 V -0.76074293 c -0.407227,0.5859375 -0.9550786,0.87890625 -1.6406254,0.87890625 -0.3134766,0 -0.5976563,-0.05859375 -0.8554688,-0.17578125 C 7.9394532,-0.17480543 7.7402344,-0.32128981 7.6171876,-0.50293043 7.4824219,-0.67285231 7.3945313,-0.88964918 7.3476563,-1.1474617 7.3154298,-1.3173836 7.3007813,-1.5927742 7.3007813,-1.9677742 v -3.2109375 h 0.8789063 v 2.8710938 c 0,0.4628906 0.017578,0.7910156 0.058594,0.984375 0.046875,0.196289 0.1582031,0.35742184 0.3398438,0.48046872 0.1787109,0.13476562 0.4013672,0.19921875 0.6679687,0.19921875 0.2578125,0 0.5039063,-0.0644531 0.7382813,-0.19921875 0.2255856,-0.13183594 0.3896486,-0.31640622 0.4921876,-0.55078122 0.09375,-0.225586 0.140625,-0.5625 0.140625,-1.0078125 v -2.7773438 h 0.878906 V 9.758201e-4 Z m 2.135742,0 V -7.1591804 h 0.878906 V 9.758201e-4 Z m 1.880859,-1.5468750201 0.867188,-0.140625 c 0.05273,0.3515625 0.190429,0.6210938 0.410156,0.80859377 0.216797,0.18164062 0.530273,0.26953125 0.9375,0.26953125 0.404297,0 0.706055,-0.0820313 0.902344,-0.24609375 0.193359,-0.15527347 0.292968,-0.34570317 0.292968,-0.57421877 -0.0088,-0.1933594 -0.09961,-0.3515625 -0.269531,-0.46875 -0.117187,-0.076172 -0.416015,-0.1757812 -0.890625,-0.2929687 -0.65039,-0.1640625 -1.095703,-0.3076172 -1.335937,-0.4335938 -0.251953,-0.1171875 -0.442383,-0.28125 -0.574219,-0.4921875 -0.134766,-0.2021484 -0.196289,-0.4335937 -0.1875,-0.6914062 0,-0.225586 0.04981,-0.4394532 0.152344,-0.6445313 0.09961,-0.1875 0.246093,-0.3515625 0.433593,-0.4921875 0.131836,-0.09375 0.319336,-0.1787109 0.5625,-0.2578125 0.234375,-0.061523 0.518555,-0.09375 0.855469,-0.09375 0.333985,0 0.65918,0.058594 0.972656,0.1757813 0.304688,0.1171875 0.530274,0.2753906 0.679688,0.46875 0.146484,0.2050781 0.249023,0.4746093 0.304687,0.8085937 l -0.855468,0.1171875 c -0.04102,-0.2636719 -0.152344,-0.4746094 -0.339844,-0.6328125 -0.196289,-0.1464844 -0.462891,-0.2226562 -0.796875,-0.2226562 -0.407227,0.00879 -0.697266,0.076172 -0.867188,0.1992187 -0.172851,0.1347656 -0.257812,0.2900391 -0.257812,0.46875 0,0.1171875 0.03516,0.2226563 0.105469,0.3164063 0.07617,0.09375 0.190429,0.1728515 0.339843,0.234375 0.08496,0.032226 0.389649,0.1171875 0.914063,0.2578125 0.521484,0.140625 0.914062,0.2636718 1.171875,0.3632812 0.234375,0.1171875 0.424805,0.2753906 0.574219,0.46875 0.140625,0.2050781 0.210937,0.4541016 0.210937,0.75 0,0.2988281 -0.08789,0.57128908 -0.257812,0.82031252 -0.172852,0.26660156 -0.418946,0.46875 -0.738282,0.609375 -0.328125,0.140625 -0.697265,0.2109375 -1.101562,0.2109375 -0.673828,0 -1.183594,-0.140625 -1.535156,-0.421875 -0.360352,-0.27246094 -0.585938,-0.68554688 -0.679688,-1.24218752 z m 8.900391,-0.1171875 0.902344,0.1054688 c -0.140625,0.5332031 -0.404297,0.94628903 -0.785157,1.24218747 -0.392578,0.29003906 -0.887695,0.43359375 -1.488281,0.43359375 -0.758789,0 -1.359375,-0.234375 -1.804687,-0.703125 C 20.006836,-1.0449226 19.78418,-1.6982429 19.78418,-2.5419929 c 0,-0.8730469 0.225586,-1.5527344 0.679687,-2.0390625 0.445313,-0.4746094 1.025391,-0.7148438 1.746094,-0.7148438 0.694336,0 1.259766,0.234375 1.699219,0.703125 0.436523,0.4775391 0.65625,1.1425781 0.65625,1.9921875 0,0.055664 0,0.1347656 0,0.234375 h -3.867188 c 0.0293,0.5712891 0.19043,1.0078125 0.480469,1.3125 0.287109,0.29882814 0.647461,0.44531252 1.078125,0.44531252 0.319336,0.008789 0.597656,-0.0732422 0.832031,-0.24609375 0.225586,-0.16992187 0.404297,-0.43945317 0.539063,-0.80859377 z m -2.882813,-1.4296875 h 2.894532 c -0.04687,-0.4277344 -0.1875,-0.7792969 -0.421875,-1.0546875 -0.228516,-0.28125 -0.559571,-0.4248047 -0.996094,-0.4335937 -0.407227,0.00879 -0.747071,0.1464843 -1.019531,0.4101562 -0.28125,0.2666016 -0.433594,0.6269531 -0.457032,1.078125 z m 0,0"
         style="fill:#000000;fill-opacity:1;fill-rule:nonzero;stroke:none"
         aria-label="Pulse"
         transform="matrix(1.3333333,0,0,1.3333333,553.85937,320.66667)"
         clip-path="url(#clipPath67)"
         id="path68" />
    </g>
    <path
       id="path70"
       d="m 4.1250001,-2.800782 v -0.84375 l 3.0234375,-0.011719 v 2.66015623 c -0.46875,0.375 -0.9492188,0.65332031 -1.4414063,0.83203125 -0.4921875,0.19335937 -1.0019531,0.28710937 -1.5234375,0.28125 -0.703125,0 -1.3417969,-0.14648438 -1.9101562,-0.4453125 C 1.6933594,-0.62402416 1.2597657,-1.0605476 0.9726563,-1.6406257 c -0.29882812,-0.5625 -0.4453125,-1.1953125 -0.4453125,-1.8984375 0,-0.703125 0.14648438,-1.3535157 0.4453125,-1.9570313 0.2871094,-0.6005859 0.7060547,-1.0488281 1.2539063,-1.3476562 0.5449218,-0.2871094 1.1748046,-0.4335938 1.8867187,-0.4335938 0.515625,0 0.984375,0.082031 1.40625,0.2460938 0.4130859,0.1728515 0.7412109,0.4072265 0.984375,0.703125 0.234375,0.3046875 0.413086,0.6972656 0.5390625,1.171875 l -0.8554687,0.234375 C 6.0761719,-5.2792976 5.944336,-5.566407 5.7890626,-5.7773445 5.6250001,-5.988282 5.3964844,-6.1552742 5.1093751,-6.2812507 c -0.3046875,-0.1171875 -0.6328125,-0.178711 -0.984375,-0.1875 -0.4394532,0 -0.8144532,0.067383 -1.125,0.1992187 -0.3222657,0.1347656 -0.5742188,0.3046875 -0.7617188,0.515625 -0.1962891,0.2197266 -0.3486328,0.4570313 -0.4570312,0.7148438 -0.1816407,0.4453125 -0.2695313,0.9257812 -0.2695313,1.4414062 0,0.6416016 0.1083984,1.171875 0.328125,1.59375 0.2167969,0.4306641 0.5390625,0.75 0.9609375,0.9609375 0.4130859,0.21093753 0.8583984,0.31640628 1.3359375,0.31640628 0.4042969,0 0.8027344,-0.0820313 1.1953125,-0.24609375 C 5.7216797,-1.1191413 6.0175782,-1.2890632 6.2226563,-1.4765632 V -2.800782 Z m 7.8486329,1.1367188 0.902344,0.1054687 c -0.140625,0.5332032 -0.404297,0.94628909 -0.785157,1.24218753 -0.392578,0.29003906 -0.887695,0.43359375 -1.488281,0.43359375 -0.7587889,0 -1.3593749,-0.234375 -1.8046874,-0.703125 C 8.3525391,-1.0458992 8.1298829,-1.6992195 8.1298829,-2.5429695 c 0,-0.8730469 0.2255859,-1.5527344 0.6796875,-2.0390625 0.4453125,-0.4746094 1.0253906,-0.7148437 1.7460936,-0.7148437 0.694336,0 1.259766,0.234375 1.699219,0.703125 0.436523,0.477539 0.65625,1.1425781 0.65625,1.9921875 0,0.055664 0,0.1347656 0,0.234375 H 9.0439454 c 0.029297,0.571289 0.1904297,1.0078125 0.4804687,1.3125 0.2871094,0.2988281 0.6474609,0.44531248 1.0781249,0.44531248 0.319336,0.008789 0.597656,-0.0732422 0.832031,-0.24609375 0.225586,-0.16992183 0.404297,-0.43945313 0.539063,-0.80859373 z M 9.0908204,-3.0937507 h 2.8945316 c -0.04687,-0.4277344 -0.1875,-0.7792969 -0.421875,-1.0546875 -0.228516,-0.28125 -0.559571,-0.4248047 -0.996094,-0.4335938 -0.407227,0.00879 -0.7470704,0.1464844 -1.0195314,0.4101563 -0.28125,0.2666015 -0.4335937,0.6269531 -0.4570312,1.078125 z M 13.96875,-7.2160006e-7 V -5.1796882 h 0.796875 v 0.7382812 c 0.375,-0.5683594 0.919922,-0.8554687 1.640625,-0.8554687 0.310547,0 0.600586,0.055664 0.867188,0.1640625 0.257812,0.1171875 0.451171,0.2666015 0.585937,0.4453125 0.123047,0.1816406 0.216797,0.3955078 0.28125,0.6445312 0.0293,0.1640625 0.04687,0.4511719 0.04687,0.8554688 V -7.2160006e-7 H 17.308594 V -3.1523445 c 0,-0.3515625 -0.03516,-0.6210937 -0.105469,-0.8085937 -0.07031,-0.1699219 -0.193359,-0.3105469 -0.363281,-0.421875 -0.172852,-0.099609 -0.416016,-0.1523438 -0.726563,-0.1523438 -0.304687,0 -0.591797,0.1171875 -0.855468,0.3515625 -0.275391,0.2431641 -0.410157,0.6914063 -0.410157,1.3476563 V -7.2160006e-7 Z M 23.06543,-1.6640632 l 0.902344,0.1054687 c -0.140625,0.5332032 -0.404297,0.94628909 -0.785157,1.24218753 -0.392578,0.29003906 -0.887695,0.43359375 -1.488281,0.43359375 -0.758789,0 -1.359375,-0.234375 -1.804687,-0.703125 C 19.444336,-1.0458992 19.22168,-1.6992195 19.22168,-2.5429695 c 0,-0.8730469 0.225586,-1.5527344 0.679687,-2.0390625 0.445313,-0.4746094 1.025391,-0.7148437 1.746094,-0.7148437 0.694336,0 1.259766,0.234375 1.699219,0.703125 0.436523,0.477539 0.65625,1.1425781 0.65625,1.9921875 0,0.055664 0,0.1347656 0,0.234375 h -3.867188 c 0.0293,0.571289 0.19043,1.0078125 0.480469,1.3125 0.287109,0.2988281 0.647461,0.44531248 1.078125,0.44531248 0.319336,0.008789 0.597656,-0.0732422 0.832031,-0.24609375 0.225586,-0.16992183 0.404297,-0.43945313 0.539063,-0.80859373 z m -2.882813,-1.4296875 h 2.894532 c -0.04687,-0.4277344 -0.1875,-0.7792969 -0.421875,-1.0546875 -0.228516,-0.28125 -0.559571,-0.4248047 -0.996094,-0.4335938 -0.407227,0.00879 -0.747071,0.1464844 -1.019531,0.4101563 -0.28125,0.2666015 -0.433594,0.6269531 -0.457032,1.078125 z M 25.051758,-7.2160006e-7 V -5.1796882 h 0.796875 v 0.7851562 c 0.193359,-0.3662109 0.380859,-0.609375 0.5625,-0.7265625 0.164062,-0.1171875 0.369141,-0.1757812 0.621094,-0.1757812 0.249023,0 0.530273,0.09375 0.84375,0.28125 l -0.304688,0.8085937 c -0.219726,-0.1230469 -0.433594,-0.1875 -0.644531,-0.1875 -0.196289,0.00879 -0.369141,0.067383 -0.515625,0.1757813 -0.158203,0.1171875 -0.27832,0.3046875 -0.363281,0.5625 -0.0791,0.2578125 -0.117188,0.571289 -0.117188,0.9375 V -7.2160006e-7 Z M 31.77832,-0.64453197 c -0.328125,0.28125 -0.641601,0.47753906 -0.9375,0.5859375 -0.304687,0.1171875 -0.629882,0.17578125 -0.972656,0.17578125 -0.571289,0 -1.007812,-0.140625 -1.3125,-0.421875 -0.313476,-0.27246094 -0.46582,-0.62695313 -0.457031,-1.06640628 0,-0.2490234 0.05859,-0.4804687 0.175781,-0.6914062 0.108399,-0.2109375 0.260742,-0.3779297 0.457031,-0.5039063 0.178711,-0.1230469 0.386719,-0.2226562 0.621094,-0.2929687 0.169922,-0.038086 0.433594,-0.082031 0.785156,-0.1289063 0.703125,-0.076172 1.22461,-0.1787109 1.570313,-0.3046875 0,-0.1171875 0,-0.1904297 0,-0.2226562 0,-0.3574219 -0.09961,-0.6240235 -0.292969,-0.796875 -0.196289,-0.1699219 -0.515625,-0.2578125 -0.960937,-0.2578125 -0.416016,0 -0.714844,0.070312 -0.902344,0.2109375 -0.205078,0.149414 -0.351563,0.4072265 -0.445313,0.7734375 l -0.855468,-0.1171875 c 0.07031,-0.366211 0.199218,-0.6621094 0.386718,-0.890625 0.178711,-0.225586 0.436524,-0.4013672 0.773438,-0.5273438 0.333984,-0.1171875 0.726562,-0.1757812 1.171875,-0.1757812 0.436523,0 0.796875,0.052734 1.078125,0.1523437 0.272461,0.1025391 0.474609,0.2314453 0.609375,0.3867188 0.131836,0.1640625 0.225586,0.3691406 0.28125,0.609375 0.02344,0.149414 0.03516,0.4189453 0.03516,0.8085937 v 1.171875 c 0,0.8144532 0.01758,1.33007815 0.05859,1.54687503 0.03809,0.21972656 0.111328,0.42773437 0.222656,0.62109374839994 H 31.954102 C 31.860352,-0.17871166 31.801758,-0.39257885 31.77832,-0.64453197 Z M 31.70801,-2.6015632 c -0.322266,0.1347656 -0.802734,0.243164 -1.441406,0.328125 -0.360352,0.055664 -0.615235,0.1142578 -0.761719,0.1757812 -0.158203,0.070312 -0.275391,0.1640625 -0.351563,0.28125 -0.08789,0.1347657 -0.128906,0.2988282 -0.128906,0.4921875 0,0.1875 0.09375,0.36035159 0.28125,0.51562503 0.169922,0.15820312 0.427735,0.234375 0.773438,0.234375 0.333984,0.008789 0.635742,-0.0644531 0.902343,-0.22265625 0.263672,-0.140625 0.459961,-0.34277348 0.585938,-0.60937498 0.08496,-0.1933594 0.131836,-0.4863281 0.140625,-0.8789063 z m 4.151367,1.81640623 0.128906,0.7734375 c -0.251953,0.05273437 -0.503906,0.08203125 -0.761718,0.08203125 -0.257813,0 -0.47461,-0.05273438 -0.644532,-0.15234375 -0.18164,-0.09960938 -0.304687,-0.234375 -0.375,-0.3984375 -0.07031,-0.1640625 -0.105468,-0.50976563 -0.105468,-1.04296873 v -2.9765625 h -0.644532 v -0.6796875 h 0.644532 v -1.2890625 l 0.878906,-0.5273438 v 1.8164063 h 0.878906 v 0.6796875 h -0.878906 v 3.0351562 c -0.0088,0.2519532 0.0029,0.4101563 0.03516,0.48046878 0.0293,0.0703125 0.08496,0.12597656 0.164063,0.1640625 0.06152,0.046875 0.158203,0.0703125 0.292968,0.0703125 0.09375,0 0.222657,-0.0117188 0.386719,-0.0351563 z M 36.375,-2.5898445 c 0,-0.9609375 0.269531,-1.6699219 0.808594,-2.1328125 0.436523,-0.3808594 0.978515,-0.5742187 1.628906,-0.5742187 0.708984,0 1.291992,0.2314453 1.746094,0.6914062 0.451172,0.46875 0.679687,1.1191406 0.679687,1.9453125 0,0.6650391 -0.102539,1.1894532 -0.304687,1.5703125 -0.196289,0.38378909 -0.486328,0.67968753 -0.867188,0.89062503 -0.392578,0.2109375 -0.808593,0.31640625 -1.253906,0.31640625 -0.735351,0 -1.321289,-0.234375 -1.757812,-0.703125 C 36.600586,-1.0458992 36.375,-1.7138679 36.375,-2.5898445 Z m 0.902344,0 c 0,0.6650391 0.143555,1.1601563 0.433594,1.4882813 0.287109,0.32812498 0.65625,0.49218748 1.101562,0.49218748 0.427734,0 0.791016,-0.1640625 1.089844,-0.49218748 0.28125,-0.3339844 0.424805,-0.84375 0.433594,-1.5234375 -0.0088,-0.6328125 -0.152344,-1.116211 -0.433594,-1.453125 -0.298828,-0.328125 -0.66211,-0.4921875 -1.089844,-0.4921875 -0.445312,0 -0.814453,0.1640625 -1.101562,0.4921875 -0.290039,0.328125 -0.433594,0.8261718 -0.433594,1.4882812 z M 42.237305,-7.2160006e-7 V -5.1796882 h 0.796875 v 0.7851562 c 0.193359,-0.3662109 0.380859,-0.609375 0.5625,-0.7265625 0.164062,-0.1171875 0.36914,-0.1757812 0.621094,-0.1757812 0.249023,0 0.530273,0.09375 0.84375,0.28125 l -0.304688,0.8085937 c -0.219727,-0.1230469 -0.433594,-0.1875 -0.644531,-0.1875 -0.196289,0.00879 -0.369141,0.067383 -0.515625,0.1757813 -0.158203,0.1171875 -0.278321,0.3046875 -0.363281,0.5625 -0.0791,0.2578125 -0.117188,0.571289 -0.117188,0.9375 V -7.2160006e-7 Z m 0,0"
       style="fill:#000000;fill-opacity:1;fill-rule:nonzero;stroke:none"
       aria-label="Generator"
       transform="matrix(1.3333333,0,0,1.3333333,553.85937,338)"
       clip-path="url(#clipPath71)" />
    <path
       id="path72"
       d="M 0,0 H 34 V 35 H 0 Z"
       style="fill:#ffffff;fill-opacity:1;fill-rule:nonzero;stroke:none"
       transform="matrix(1.3333333,0,0,1.3333333,500.52604,468)"
       clip-path="url(#clipPath73)" />
    <path
       id="path75"
       d="m 160,294 -17,-4"
       style="fill:none;stroke:#000000;stroke-width:0.24;stroke-linecap:butt;stroke-linejoin:miter;stroke-miterlimit:2;stroke-dasharray:none;stroke-opacity:1"
       transform="matrix(1.3333333,0,0,1.3333333,310.52604,122)"
       clip-path="url(#clipPath76)" />
    <path
       id="path77"
       d="m 143,290 33,-9"
       style="fill:none;stroke:#000000;stroke-width:0.24;stroke-linecap:butt;stroke-linejoin:miter;stroke-miterlimit:2;stroke-dasharray:none;stroke-opacity:1"
       transform="matrix(1.3333333,0,0,1.3333333,310.52604,122)"
       clip-path="url(#clipPath78)" />
    <path
       id="path79"
       d="m 176,281 -16,-4"
       style="fill:none;stroke:#000000;stroke-width:0.24;stroke-linecap:butt;stroke-linejoin:miter;stroke-miterlimit:2;stroke-dasharray:none;stroke-opacity:1"
       transform="matrix(1.3333333,0,0,1.3333333,310.52604,122)"
       clip-path="url(#clipPath80)" />
    <path
       id="path81"
       d="m 160,277 -17,-4"
       style="fill:none;stroke:#000000;stroke-width:0.24;stroke-linecap:butt;stroke-linejoin:miter;stroke-miterlimit:2;stroke-dasharray:none;stroke-opacity:1"
       transform="matrix(1.3333333,0,0,1.3333333,310.52604,122)"
       clip-path="url(#clipPath82)" />
    <path
       id="path83"
       d="m 143,273 33,-9"
       style="fill:none;stroke:#000000;stroke-width:0.24;stroke-linecap:butt;stroke-linejoin:miter;stroke-miterlimit:2;stroke-dasharray:none;stroke-opacity:1"
       transform="matrix(1.3333333,0,0,1.3333333,310.52604,122)"
       clip-path="url(#clipPath84)" />
    <path
       id="path85"
       d="m 176,264 -16,-4"
       style="fill:none;stroke:#000000;stroke-width:0.24;stroke-linecap:butt;stroke-linejoin:miter;stroke-miterlimit:2;stroke-dasharray:none;stroke-opacity:1"
       transform="matrix(1.3333333,0,0,1.3333333,310.52604,122)"
       clip-path="url(#clipPath86)" />
    <path
       id="path87"
       d="M 0,0 H 34 V 35 H 0 Z"
       style="fill:none;stroke:#000000;stroke-width:0.565047;stroke-linecap:butt;stroke-linejoin:miter;stroke-miterlimit:2;stroke-dasharray:none;stroke-opacity:1"
       transform="matrix(1.3333333,0,0,1.3333333,500.52604,468)"
       clip-path="url(#clipPath88)" />
    <g
       id="g90"
       clip-path="url(#clipPath91)">
      <path
         d="M 2.5908222,-9.767449e-4 V -6.317383 H 0.23535343 v -0.84375 H 5.9072284 v 0.84375 H 3.5400409 v 6.3164062551 z m 3.7734375,0 V -5.1806643 h 0.796875 v 0.7851563 c 0.1933594,-0.3662109 0.3808594,-0.609375 0.5625,-0.7265625 0.1640625,-0.1171875 0.3691406,-0.1757813 0.6210937,-0.1757813 0.2490235,0 0.5302735,0.09375 0.84375,0.28125 L 8.8837909,-4.208008 c -0.2197265,-0.1230469 -0.4335937,-0.1875 -0.6445312,-0.1875 -0.1962891,0.00879 -0.3691406,0.067383 -0.515625,0.1757812 -0.1582031,0.1171875 -0.2783203,0.3046875 -0.3632813,0.5625 -0.079102,0.2578125 -0.1171875,0.5712891 -0.1171875,0.9375001 V -9.767449e-4 Z M 9.7158222,-6.1416018 V -7.161133 h 0.8789058 v 1.0195312 z m 0,6.1406250551 V -5.1806643 H 10.594728 V -9.767449e-4 Z M 15.308596,-0.645508 c -0.328125,0.28125 -0.641602,0.47753907 -0.9375,0.58593751 -0.304688,0.1171875 -0.629883,0.17578125 -0.972657,0.17578125 -0.571289,0 -1.007812,-0.140625 -1.3125,-0.42187501 -0.313476,-0.27246093 -0.46582,-0.62695312 -0.457031,-1.06640625 0,-0.2490234 0.05859,-0.4804687 0.175781,-0.6914062 0.108399,-0.2109375 0.260743,-0.3779297 0.457032,-0.5039063 0.178711,-0.1230469 0.386718,-0.2226562 0.621093,-0.2929687 0.169922,-0.038086 0.433594,-0.082031 0.785157,-0.1289063 0.703125,-0.076172 1.224609,-0.1787109 1.570312,-0.3046875 0,-0.1171875 0,-0.1904297 0,-0.2226563 0,-0.3574218 -0.09961,-0.6240234 -0.292969,-0.796875 -0.196289,-0.1699218 -0.515625,-0.2578125 -0.960937,-0.2578125 -0.416016,0 -0.714844,0.070312 -0.902344,0.2109375 -0.205078,0.1494141 -0.351562,0.4072266 -0.445312,0.7734375 l -0.855469,-0.1171875 c 0.07031,-0.3662109 0.199219,-0.6621093 0.386719,-0.890625 0.178711,-0.2255859 0.436523,-0.4013671 0.773437,-0.5273437 0.333985,-0.1171875 0.726563,-0.1757813 1.171875,-0.1757813 0.436524,0 0.796875,0.052734 1.078125,0.1523438 0.272461,0.1025391 0.47461,0.2314453 0.609375,0.3867187 0.131836,0.1640625 0.225586,0.3691407 0.28125,0.609375 0.02344,0.1494141 0.03516,0.4189454 0.03516,0.8085938 v 1.171875 c 0,0.8144531 0.01758,1.33007813 0.05859,1.546875 0.03809,0.21972657 0.111328,0.42773438 0.222656,0.6210937551 H 15.484377 C 15.390627,-0.17968768 15.332033,-0.39355487 15.308596,-0.645508 Z m -0.07031,-1.9570312 c -0.322265,0.1347656 -0.802734,0.243164 -1.441406,0.328125 -0.360352,0.055664 -0.615234,0.1142578 -0.761719,0.1757812 -0.158203,0.070312 -0.27539,0.1640625 -0.351562,0.28125 -0.08789,0.1347656 -0.128907,0.2988281 -0.128907,0.4921875 0,0.1875 0.09375,0.36035157 0.28125,0.515625 0.169922,0.15820313 0.427735,0.234375 0.773438,0.234375 0.333984,0.008789 0.635742,-0.0644531 0.902344,-0.22265625 0.263672,-0.140625 0.459961,-0.34277345 0.585937,-0.60937495 0.08496,-0.1933594 0.131836,-0.4863282 0.140625,-0.8789063 z m 2.229492,2.6015624551 V -5.1806643 h 0.796875 v 0.7382813 c 0.375,-0.5683594 0.919922,-0.8554688 1.640625,-0.8554688 0.310547,0 0.600586,0.055664 0.867188,0.1640625 0.257812,0.1171875 0.451172,0.2666016 0.585937,0.4453125 0.123047,0.1816407 0.216797,0.3955079 0.28125,0.6445313 0.0293,0.1640625 0.04687,0.4511719 0.04687,0.8554687 V -9.767449e-4 H 20.807619 V -3.1533205 c 0,-0.3515625 -0.03516,-0.6210938 -0.105469,-0.8085938 -0.07031,-0.1699218 -0.193359,-0.3105468 -0.363281,-0.421875 -0.172851,-0.099609 -0.416016,-0.1523437 -0.726562,-0.1523437 -0.304688,0 -0.591797,0.1171875 -0.855469,0.3515625 -0.275391,0.2431641 -0.410156,0.6914062 -0.410156,1.3476563 v 2.8359374551 z m 5.384766,0.4335937549 0.855469,0.1171875 c 0.03809,0.26367187 0.152343,0.46874999 0.339843,0.60937499 0.19336,0.140625 0.480469,0.2109375 0.855469,0.2109375 0.404297,0 0.717774,-0.079102 0.9375,-0.234375 0.216797,-0.16406249 0.369141,-0.39550781 0.457031,-0.69140624 0.03809,-0.18164063 0.05859,-0.55371094 0.05859,-1.12500001 -0.383789,0.45410157 -0.861328,0.6796875051 -1.429687,0.6796875051 -0.720703,0 -1.274414,-0.2578125051 -1.664063,-0.7734375051 C 22.870119,-1.2812502 22.67676,-1.8994142 22.67676,-2.6259767 c 0,-0.4921875 0.08789,-0.9492188 0.269531,-1.3710938 0.178711,-0.4130859 0.439453,-0.7324219 0.785156,-0.9609375 0.333985,-0.2255859 0.732422,-0.3398438 1.195313,-0.3398438 0.609375,0 1.113281,0.2460938 1.511718,0.7382813 v -0.6210938 h 0.808594 v 4.47656255 c 0,0.80273438 -0.0791,1.37402344 -0.234375,1.71093755 -0.172851,0.3427734 -0.433594,0.6123046 -0.785156,0.8085937 -0.360352,0.1933594 -0.802734,0.2929688 -1.324219,0.2929688 -0.618164,0 -1.113281,-0.140625 -1.488281,-0.421875 -0.392578,-0.2753907 -0.580078,-0.69140629 -0.5625,-1.25390629 z m 0.738281,-3.11718751 c 0,0.6796875 0.131836,1.1777344 0.398438,1.4882813 0.263672,0.31347652 0.603515,0.46874995 1.019531,0.46874995 0.398437,0 0.732422,-0.15527343 1.007812,-0.46874995 0.272461,-0.3046875 0.410157,-0.7910157 0.410157,-1.4648438 0,-0.6328125 -0.137696,-1.1074219 -0.410157,-1.4296875 -0.290039,-0.3193359 -0.632812,-0.4804688 -1.03125,-0.4804688 -0.383789,0 -0.711914,0.1582032 -0.984375,0.46875 -0.27539,0.3222657 -0.410156,0.7939454 -0.410156,1.4179688 z m 4.959961,2.6835937551 V -7.161133 h 0.878906 V -9.767449e-4 Z M 34.331057,-1.6650392 35.2334,-1.5595705 c -0.140625,0.5332031 -0.404297,0.94628907 -0.785156,1.2421875 -0.392578,0.29003907 -0.887695,0.43359376 -1.488281,0.43359376 -0.758789,0 -1.359375,-0.23437501 -1.804688,-0.70312501 -0.445312,-0.45996095 -0.667968,-1.11328125 -0.667968,-1.95703125 0,-0.8730469 0.225586,-1.5527344 0.679687,-2.0390625 0.445313,-0.4746094 1.025391,-0.7148438 1.746094,-0.7148438 0.694336,0 1.259765,0.234375 1.699219,0.703125 0.436523,0.4775391 0.65625,1.1425782 0.65625,1.9921876 0,0.055664 0,0.1347656 0,0.234375 h -3.867188 c 0.0293,0.571289 0.19043,1.0078125 0.480469,1.3125 0.287109,0.29882808 0.647461,0.44531245 1.078125,0.44531245 0.319336,0.008789 0.597656,-0.0732422 0.832031,-0.24609375 0.225586,-0.1699219 0.404297,-0.4394531 0.539063,-0.8085937 z m -2.882813,-1.4296875 h 2.894531 c -0.04687,-0.4277344 -0.1875,-0.7792969 -0.421875,-1.0546876 -0.228515,-0.28125 -0.55957,-0.4248046 -0.996093,-0.4335937 -0.407227,0.00879 -0.747071,0.1464844 -1.019532,0.4101562 -0.28125,0.2666016 -0.433593,0.6269532 -0.457031,1.0781251 z m 0,0"
         style="fill:#000000;fill-opacity:1;fill-rule:nonzero;stroke:none"
         aria-label="Triangle"
         transform="matrix(1.3333333,0,0,1.3333333,444.96354,487.33333)"
         clip-path="url(#clipPath89)"
         id="path90" />
    </g>
    <path
       id="path92"
       d="m 4.1240253,-2.7998049 v -0.84375 l 3.0234375,-0.011719 v 2.66015625 c -0.46875,0.375 -0.9492187,0.65332031 -1.4414063,0.83203125 -0.4921875,0.19335938 -1.0019531,0.28710938 -1.5234375,0.28125 -0.703125,0 -1.3417968,-0.14648437 -1.9101562,-0.4453125 -0.5800781,-0.29589844 -1.0136719,-0.7324219 -1.30078126,-1.3125 -0.29882812,-0.5625 -0.4453125,-1.1953125 -0.4453125,-1.8984375 0,-0.703125 0.14648438,-1.3535156 0.4453125,-1.9570313 0.28710936,-0.6005859 0.70605466,-1.0488281 1.25390626,-1.3476562 0.5449219,-0.2871094 1.1748047,-0.4335938 1.8867187,-0.4335938 0.515625,0 0.984375,0.082031 1.40625,0.2460938 0.413086,0.1728516 0.741211,0.4072266 0.9843751,0.703125 0.234375,0.3046875 0.4130859,0.6972656 0.5390625,1.171875 l -0.8554688,0.234375 C 6.0751972,-5.2783205 5.9433612,-5.5654299 5.7880878,-5.7763674 5.6240253,-5.9873049 5.3955097,-6.154297 5.1084003,-6.2802736 c -0.3046875,-0.1171875 -0.6328125,-0.1787109 -0.984375,-0.1875 -0.4394531,0 -0.8144531,0.067383 -1.125,0.1992187 -0.3222656,0.1347657 -0.5742188,0.3046875 -0.7617188,0.515625 -0.196289,0.2197266 -0.3486328,0.4570313 -0.4570312,0.7148438 -0.1816406,0.4453125 -0.2695313,0.9257812 -0.2695313,1.4414062 0,0.6416016 0.1083985,1.171875 0.328125,1.59375 0.2167969,0.4306641 0.5390625,0.75 0.9609375,0.9609375 0.413086,0.21093755 0.8583985,0.3164063 1.3359375,0.3164063 0.4042969,0 0.8027344,-0.0820313 1.1953125,-0.24609375 C 5.720705,-1.1181642 6.0166034,-1.2880861 6.2216816,-1.4755861 v -1.3242188 z m 7.8486327,1.1367188 0.902344,0.1054687 c -0.140625,0.5332032 -0.404297,0.94628911 -0.785156,1.24218755 -0.392579,0.29003906 -0.887696,0.43359375 -1.488282,0.43359375 -0.7587887,0 -1.3593746,-0.234375 -1.8046871,-0.703125 -0.4453125,-0.4599609 -0.6679688,-1.1132813 -0.6679688,-1.9570313 0,-0.8730468 0.225586,-1.5527343 0.6796875,-2.0390625 0.4453125,-0.4746093 1.0253906,-0.7148437 1.7460934,-0.7148437 0.694336,0 1.259766,0.234375 1.699219,0.703125 0.436524,0.4775391 0.65625,1.1425781 0.65625,1.9921875 0,0.055664 0,0.1347656 0,0.234375 H 9.0429706 c 0.029297,0.5712891 0.1904297,1.0078125 0.4804688,1.3125 0.2871093,0.29882812 0.6474606,0.4453125 1.0781246,0.4453125 0.319336,0.008789 0.597657,-0.0732422 0.832032,-0.24609375 0.225586,-0.16992185 0.404296,-0.43945315 0.539062,-0.80859375 z M 9.0898456,-3.0927736 h 2.8945314 c -0.04687,-0.4277344 -0.1875,-0.7792969 -0.421875,-1.0546875 -0.228516,-0.28125 -0.55957,-0.4248047 -0.996094,-0.4335938 -0.407226,0.00879 -0.7470702,0.1464844 -1.0195311,0.4101563 -0.28125,0.2666016 -0.4335938,0.6269531 -0.4570313,1.078125 z M 13.967775,9.764009e-4 V -5.1787111 h 0.796875 v 0.7382812 c 0.375,-0.5683593 0.919922,-0.8554687 1.640625,-0.8554687 0.310547,0 0.600586,0.055664 0.867188,0.1640625 0.257812,0.1171875 0.451172,0.2666016 0.585937,0.4453125 0.123047,0.1816406 0.216797,0.3955078 0.28125,0.6445312 0.0293,0.1640625 0.04687,0.4511719 0.04687,0.8554688 V 9.764009e-4 H 17.307619 V -3.1513674 c 0,-0.3515625 -0.03516,-0.6210937 -0.105469,-0.8085937 -0.07031,-0.1699219 -0.193359,-0.3105469 -0.363281,-0.421875 -0.172851,-0.099609 -0.416016,-0.1523438 -0.726562,-0.1523438 -0.304688,0 -0.591797,0.1171875 -0.855469,0.3515625 -0.275391,0.2431641 -0.410156,0.6914063 -0.410156,1.3476563 V 9.764009e-4 Z m 9.09961,-1.6640625009 0.902343,0.1054687 c -0.140625,0.5332032 -0.404296,0.94628911 -0.785156,1.24218755 -0.392578,0.29003906 -0.887695,0.43359375 -1.488281,0.43359375 -0.758789,0 -1.359375,-0.234375 -1.804688,-0.703125 -0.445312,-0.4599609 -0.667968,-1.1132813 -0.667968,-1.9570313 0,-0.8730468 0.225586,-1.5527343 0.679687,-2.0390625 0.445313,-0.4746093 1.025391,-0.7148437 1.746094,-0.7148437 0.694336,0 1.259766,0.234375 1.699219,0.703125 0.436523,0.4775391 0.65625,1.1425781 0.65625,1.9921875 0,0.055664 0,0.1347656 0,0.234375 h -3.867188 c 0.0293,0.5712891 0.19043,1.0078125 0.480469,1.3125 0.287109,0.29882812 0.647461,0.4453125 1.078125,0.4453125 0.319336,0.008789 0.597656,-0.0732422 0.832031,-0.24609375 0.225586,-0.16992185 0.404297,-0.43945315 0.539063,-0.80859375 z m -2.882813,-1.4296875 h 2.894531 c -0.04687,-0.4277344 -0.1875,-0.7792969 -0.421875,-1.0546875 -0.228515,-0.28125 -0.55957,-0.4248047 -0.996093,-0.4335938 -0.407227,0.00879 -0.747071,0.1464844 -1.019532,0.4101563 -0.28125,0.2666016 -0.433593,0.6269531 -0.457031,1.078125 z M 25.050783,9.764009e-4 V -5.1787111 h 0.796875 v 0.7851562 c 0.19336,-0.3662109 0.38086,-0.609375 0.5625,-0.7265625 0.164063,-0.1171875 0.369141,-0.1757812 0.621094,-0.1757812 0.249023,0 0.530273,0.09375 0.84375,0.28125 l -0.304688,0.8085937 c -0.219726,-0.1230468 -0.433593,-0.1875 -0.644531,-0.1875 -0.196289,0.00879 -0.36914,0.067383 -0.515625,0.1757813 -0.158203,0.1171875 -0.27832,0.3046875 -0.363281,0.5625 -0.0791,0.2578125 -0.117188,0.5712891 -0.117188,0.9375 V 9.764009e-4 Z M 31.777346,-0.64355485 c -0.328125,0.28125 -0.641602,0.47753906 -0.9375,0.5859375 -0.304688,0.1171875 -0.629883,0.17578125 -0.972657,0.17578125 -0.571289,0 -1.007812,-0.140625 -1.3125,-0.421875 -0.313476,-0.27246094 -0.46582,-0.62695313 -0.457031,-1.0664063 0,-0.2490234 0.05859,-0.4804687 0.175781,-0.6914062 0.108399,-0.2109375 0.260743,-0.3779297 0.457032,-0.5039063 0.178711,-0.1230468 0.386718,-0.2226562 0.621093,-0.2929687 0.169922,-0.038086 0.433594,-0.082031 0.785157,-0.1289063 0.703125,-0.076172 1.224609,-0.1787109 1.570312,-0.3046875 0,-0.1171875 0,-0.1904296 0,-0.2226562 0,-0.3574219 -0.09961,-0.6240234 -0.292969,-0.796875 -0.196289,-0.1699219 -0.515625,-0.2578125 -0.960937,-0.2578125 -0.416016,0 -0.714844,0.070312 -0.902344,0.2109375 -0.205078,0.1494141 -0.351562,0.4072266 -0.445312,0.7734375 l -0.855469,-0.1171875 c 0.07031,-0.3662109 0.199219,-0.6621094 0.386719,-0.890625 0.178711,-0.2255859 0.436523,-0.4013672 0.773437,-0.5273438 0.333985,-0.1171875 0.726563,-0.1757812 1.171875,-0.1757812 0.436524,0 0.796875,0.052734 1.078125,0.1523437 0.272461,0.1025391 0.47461,0.2314454 0.609375,0.3867188 0.131836,0.1640625 0.225586,0.3691406 0.28125,0.609375 0.02344,0.1494141 0.03516,0.4189453 0.03516,0.8085937 v 1.171875 c 0,0.8144532 0.01758,1.33007817 0.05859,1.54687505 0.03809,0.21972656 0.111328,0.42773438 0.222656,0.6210937509 H 31.953127 C 31.859377,-0.17773454 31.800783,-0.39160172 31.777346,-0.64355485 Z m -0.07031,-1.95703125 c -0.322265,0.1347656 -0.802734,0.2431641 -1.441406,0.328125 -0.360352,0.055664 -0.615234,0.1142578 -0.761719,0.1757812 -0.158203,0.070312 -0.27539,0.1640625 -0.351562,0.28125 -0.08789,0.1347657 -0.128907,0.2988282 -0.128907,0.4921875 0,0.1875 0.09375,0.36035161 0.28125,0.51562505 0.169922,0.15820312 0.427735,0.234375 0.773438,0.234375 0.333984,0.008789 0.635742,-0.0644531 0.902344,-0.22265625 0.263672,-0.140625 0.459961,-0.3427734 0.585937,-0.609375 0.08496,-0.1933594 0.131836,-0.4863281 0.140625,-0.8789063 z m 4.151367,1.81640625 0.128907,0.7734375 C 35.735353,0.04199203 35.4834,0.0712889 35.225588,0.0712889 c -0.257813,0 -0.47461,-0.05273437 -0.644531,-0.15234375 -0.181641,-0.09960937 -0.304688,-0.234375 -0.375,-0.3984375 -0.07031,-0.1640625 -0.105469,-0.50976563 -0.105469,-1.04296875 v -2.9765625 h -0.644531 v -0.6796875 h 0.644531 v -1.2890625 l 0.878906,-0.5273438 v 1.8164063 H 35.8584 v 0.6796875 h -0.878906 v 3.0351562 c -0.0088,0.2519532 0.0029,0.4101563 0.03516,0.4804688 0.0293,0.0703125 0.08496,0.12597656 0.164063,0.1640625 0.06152,0.046875 0.158203,0.0703125 0.292969,0.0703125 0.09375,0 0.222656,-0.0117188 0.386718,-0.0351563 z m 0.515625,-1.80468755 c 0,-0.9609375 0.269532,-1.6699218 0.808594,-2.1328125 0.436524,-0.3808593 0.978516,-0.5742187 1.628906,-0.5742187 0.708985,0 1.291993,0.2314453 1.746094,0.6914062 0.451172,0.46875 0.679688,1.1191407 0.679688,1.9453125 0,0.6650391 -0.102539,1.1894532 -0.304688,1.5703125 -0.196289,0.38378911 -0.486328,0.67968755 -0.867187,0.89062505 -0.392579,0.2109375 -0.808594,0.31640625 -1.253907,0.31640625 -0.735351,0 -1.321289,-0.234375 -1.757812,-0.703125 -0.454102,-0.4599609 -0.679688,-1.1279297 -0.679688,-2.0039063 z m 0.902344,0 c 0,0.6650391 0.143555,1.1601563 0.433594,1.4882813 0.287109,0.328125 0.65625,0.4921875 1.101562,0.4921875 0.427735,0 0.791016,-0.1640625 1.089844,-0.4921875 0.28125,-0.3339844 0.424805,-0.84375 0.433594,-1.5234375 -0.0088,-0.6328125 -0.152344,-1.1162109 -0.433594,-1.453125 -0.298828,-0.328125 -0.662109,-0.4921875 -1.089844,-0.4921875 -0.445312,0 -0.814453,0.1640625 -1.101562,0.4921875 -0.290039,0.328125 -0.433594,0.8261719 -0.433594,1.4882812 z M 42.23926,9.764009e-4 V -5.1787111 h 0.796875 v 0.7851562 c 0.193359,-0.3662109 0.380859,-0.609375 0.5625,-0.7265625 0.164062,-0.1171875 0.36914,-0.1757812 0.621093,-0.1757812 0.249024,0 0.530274,0.09375 0.84375,0.28125 l -0.304687,0.8085937 c -0.219727,-0.1230468 -0.433594,-0.1875 -0.644531,-0.1875 -0.196289,0.00879 -0.369141,0.067383 -0.515625,0.1757813 -0.158203,0.1171875 -0.278321,0.3046875 -0.363282,0.5625 -0.0791,0.2578125 -0.117187,0.5712891 -0.117187,0.9375 V 9.764009e-4 Z m 0,0"
       style="fill:#000000;fill-opacity:1;fill-rule:nonzero;stroke:none"
       aria-label="Generator"
       transform="matrix(1.3333333,0,0,1.3333333,432.63021,504.66667)"
       clip-path="url(#clipPath93)" />
    <path
       id="path94"
       d="M 0,0 H 30 V 33 H 0 Z"
       style="fill:#ffffff;fill-opacity:1;fill-rule:nonzero;stroke:none"
       transform="matrix(1.3333333,0,0,1.3333333,416.52604,389.33333)"
       clip-path="url(#clipPath95)" />
    <path
       id="path103"
       d="m 8,5.200001 h 17.6 c 1.10457,0 2,0.9849731 2,2.2 v 9.99999 c 0,1.215027 -0.89543,2.2 -2,2.2 H 8 c -1.1045699,0 -2,-0.984973 -2,-2.2 v -9.99999 c 0,-1.2150269 0.8954301,-2.2 2,-2.2 z"
       style="fill:none;stroke:#000000;stroke-width:1.3;stroke-linecap:round;stroke-linejoin:round;stroke-miterlimit:10;stroke-dasharray:none;stroke-opacity:1"
       transform="matrix(1.3333333,0,0,1.3333333,414.3926,387.99989)"
       clip-path="url(#clipPath104)" />
    <path
       id="path108"
       d="M 0,0 H 30 V 33 H 0 Z"
       style="fill:none;stroke:#000000;stroke-width:0.565047;stroke-linecap:butt;stroke-linejoin:miter;stroke-miterlimit:2;stroke-dasharray:none;stroke-opacity:1"
       transform="matrix(1.3333333,0,0,1.3333333,416.52604,389.33333)"
       clip-path="url(#clipPath109)" />
    <g
       id="g111"
       clip-path="url(#clipPath112)">
      <path
         d="M 0.44433609,-2.2978517 1.3466798,-2.379883 c 0.038086,0.3603516 0.1347657,0.6533203 0.2929688,0.8789063 0.1464844,0.234375 0.3867187,0.421875 0.7148437,0.56249995 0.328125,0.140625 0.694336,0.2109375 1.1015625,0.2109375 0.3574219,0 0.6796875,-0.0527344 0.9609375,-0.1640625 0.272461,-0.0996094 0.4746094,-0.24902345 0.609375,-0.44531245 0.131836,-0.178711 0.1992188,-0.3808594 0.1992188,-0.609375 0,-0.2167969 -0.064453,-0.413086 -0.1875,-0.5859375 -0.1347656,-0.1640625 -0.3486328,-0.3046875 -0.6445313,-0.421875 -0.196289,-0.070312 -0.6210937,-0.1875 -1.2773437,-0.3515626 -0.65625,-0.1552734 -1.1191406,-0.3046875 -1.3828125,-0.4453125 -0.3369141,-0.1699218 -0.5917969,-0.3925781 -0.76171876,-0.6679687 -0.17285156,-0.2636719 -0.25488281,-0.5625 -0.24609375,-0.890625 0,-0.3574219 0.0996094,-0.6943359 0.30468751,-1.0078125 0.2021484,-0.3105469 0.5039062,-0.5507813 0.9023437,-0.7148438 0.3808594,-0.1640625 0.8203125,-0.2460937 1.3125,-0.2460937 0.5214844,0 0.9902344,0.087891 1.40625,0.2578125 0.3984375,0.1728516 0.7060547,0.421875 0.9257813,0.75 0.2167969,0.3369141 0.3339844,0.7119141 0.3515625,1.125 L 5.0263673,-5.075196 C 4.9707033,-5.5263674 4.8066408,-5.8662111 4.5341798,-6.0947268 4.2441408,-6.3203127 3.8251955,-6.4375002 3.2802736,-6.4462893 c -0.5800781,0 -0.9960938,0.1054688 -1.2539063,0.3164063 -0.2578125,0.2109375 -0.3867187,0.4658203 -0.3867187,0.7617187 0,0.2578125 0.087891,0.46875 0.2695312,0.6328125 0.178711,0.1728516 0.65625,0.3398438 1.4296875,0.5039063 0.7646485,0.1816406 1.3242188,0.3515625 1.6757813,0.515625 0.3515625,0.1582031 0.6269531,0.3837891 0.8320312,0.6796875 0.1933594,0.2988281 0.2929688,0.6386719 0.2929688,1.0195313 0,0.375 -0.1113281,0.7324218 -0.328125,1.0664062 C 5.591797,-0.60449237 5.2841798,-0.34375018 4.8857423,-0.16503925 4.4697267,0.02832013 4.0097658,0.12207013 3.5029298,0.11621076 2.8466798,0.12207013 2.301758,0.02832013 1.8740236,-0.16503925 1.4345705,-0.35253925 1.091797,-0.63671893 0.84277359,-1.020508 0.59082047,-1.395508 0.45898453,-1.8203127 0.44433609,-2.2978517 Z m 10.25390591,0.3984375 0.867188,0.1171875 c -0.102539,0.5947265 -0.345703,1.06054683 -0.726563,1.3945312 -0.392578,0.33691407 -0.8730465,0.50390626 -1.4414059,0.50390626 -0.703125,0 -1.2714844,-0.23437501 -1.6992187,-0.70312501 -0.4394532,-0.45996095 -0.65625,-1.11914065 -0.65625,-1.98046875 0,-0.5625 0.09375,-1.0546875 0.28125,-1.4765625 0.1875,-0.421875 0.4716796,-0.7382813 0.8554687,-0.9492188 0.3662109,-0.2021484 0.7763672,-0.3046875 1.2304688,-0.3046875 0.5625,0 1.0224611,0.140625 1.3828121,0.421875 0.351563,0.2900391 0.580078,0.6972657 0.691407,1.21875 L 10.62793,-3.5283205 C 10.540039,-3.8710939 10.396485,-4.1318361 10.194336,-4.3134768 9.9833986,-4.4921877 9.6933595,-4.583008 9.3271486,-4.583008 c -0.3691406,0 -0.6884766,0.1611328 -0.9609375,0.4804687 -0.28125,0.3222657 -0.421875,0.8203125 -0.421875,1.5000001 0,0.703125 0.1347656,1.2128906 0.4101563,1.5234375 0.2636718,0.32226558 0.6123046,0.47753902 1.0429687,0.46874995 0.3427734,0 0.6269529,-0.10546875 0.8554689,-0.31640625 0.234375,-0.2021484 0.380859,-0.5273437 0.445312,-0.9726562 z m 1.286133,-0.6914063 c 0,-0.9609375 0.269531,-1.6699219 0.808594,-2.1328125 0.436523,-0.3808594 0.978516,-0.5742188 1.628906,-0.5742188 0.708985,0 1.291992,0.2314454 1.746094,0.6914063 0.451172,0.46875 0.679687,1.1191406 0.679687,1.9453125 0,0.6650391 -0.102539,1.1894531 -0.304687,1.5703125 -0.196289,0.38378907 -0.486328,0.6796875 -0.867188,0.890625 -0.392578,0.21093751 -0.808593,0.31640626 -1.253906,0.31640626 -0.735351,0 -1.321289,-0.23437501 -1.757812,-0.70312501 C 12.209961,-1.0468752 11.984375,-1.7148439 11.984375,-2.5908205 Z m 0.902344,0 c 0,0.6650391 0.143555,1.1601563 0.433594,1.4882813 0.287109,0.32812495 0.65625,0.49218745 1.101562,0.49218745 0.427735,0 0.791016,-0.1640625 1.089844,-0.49218745 0.28125,-0.3339844 0.424805,-0.84375 0.433594,-1.5234375 -0.0088,-0.6328126 -0.152344,-1.116211 -0.433594,-1.4531251 -0.298828,-0.328125 -0.662109,-0.4921875 -1.089844,-0.4921875 -0.445312,0 -0.814453,0.1640625 -1.101562,0.4921875 -0.290039,0.328125 -0.433594,0.8261719 -0.433594,1.4882813 z m 4.97168,4.5820313 v -7.1718751 h 0.808593 v 0.6679688 c 0.178711,-0.2636719 0.389649,-0.4628906 0.632813,-0.5976563 0.240234,-0.1230468 0.530273,-0.1875 0.867187,-0.1875 0.436524,0 0.826172,0.1142579 1.171875,0.3398438 0.333985,0.2285156 0.588868,0.5478516 0.761719,0.9609375 0.169922,0.421875 0.257813,0.8789063 0.257813,1.3710938 0,0.5332031 -0.09375,1.0078125 -0.28125,1.4296875 -0.1875,0.42187495 -0.465821,0.74707027 -0.832032,0.9726562 -0.36914,0.22558594 -0.75,0.33984376 -1.148437,0.33984376 -0.290039,0 -0.550781,-0.06445313 -0.785156,-0.18750001 -0.234375,-0.1171875 -0.427735,-0.27246093 -0.574219,-0.46875 V 1.9912108 Z m 0.796875,-4.5585938 c 0,0.6738281 0.134765,1.1689453 0.410156,1.4882813 0.263672,0.31347652 0.588867,0.46874995 0.972656,0.46874995 0.389649,0 0.726563,-0.1640625 1.007813,-0.49218745 0.28125,-0.328125 0.421875,-0.8378907 0.421875,-1.5351563 -0.0088,-0.65625 -0.146485,-1.1513672 -0.410157,-1.4882813 -0.27539,-0.3193359 -0.597656,-0.4833984 -0.972656,-0.4921875 -0.383789,0.00879 -0.714844,0.1845704 -0.996094,0.5273438 -0.290039,0.3515625 -0.433593,0.8613281 -0.433593,1.5234375 z m 8.302734,0.9023438 0.902344,0.1054687 c -0.140625,0.5332031 -0.404297,0.94628907 -0.785156,1.2421875 -0.392579,0.29003907 -0.887696,0.43359376 -1.488282,0.43359376 -0.758789,0 -1.359375,-0.23437501 -1.804687,-0.70312501 -0.445313,-0.45996095 -0.667969,-1.11328125 -0.667969,-1.95703125 0,-0.8730469 0.225586,-1.5527344 0.679688,-2.0390625 0.445312,-0.4746094 1.02539,-0.7148438 1.746093,-0.7148438 0.694336,0 1.259766,0.234375 1.699219,0.703125 0.436523,0.4775391 0.65625,1.1425782 0.65625,1.9921876 0,0.055664 0,0.1347656 0,0.234375 h -3.867187 c 0.0293,0.571289 0.190429,1.0078125 0.480468,1.3125 0.28711,0.29882808 0.647461,0.44531245 1.078125,0.44531245 0.319336,0.008789 0.597657,-0.0732422 0.832032,-0.24609375 0.225585,-0.1699219 0.404296,-0.4394531 0.539062,-0.8085937 z m -2.882812,-1.4296875 h 2.894531 c -0.04687,-0.4277344 -0.1875,-0.7792969 -0.421875,-1.0546876 -0.228516,-0.28125 -0.559571,-0.4248046 -0.996094,-0.4335937 -0.407227,0.00879 -0.74707,0.1464844 -1.019531,0.4101562 -0.28125,0.2666016 -0.433594,0.6269532 -0.457031,1.0781251 z m 0,0"
         style="fill:#000000;fill-opacity:1;fill-rule:nonzero;stroke:none"
         aria-label="Scope"
         transform="matrix(1.3333333,0,0,1.3333333,417.66146,381.33333)"
         clip-path="url(#clipPath110)"
         id="path111" />
    </g>
    <path
       id="path113"
       d="M 0,0 H 30 V 33 H 0 Z"
       style="fill:#ffffff;fill-opacity:1;fill-rule:nonzero;stroke:none"
       transform="matrix(1.3333333,0,0,1.3333333,589.85937,389.33333)"
       clip-path="url(#clipPath114)" />
    <path
       id="path122"
       d="m 1813.8105,1188.4167 h 100 v 82.5 h -100 z"
       style="fill:#bebebe;fill-opacity:1;fill-rule:evenodd;stroke:none"
       transform="matrix(0.32,0,0,0.32,13.44,13.440001)"
       clip-path="url(#clipPath123)" />
    <path
       id="path124"
       d="M 10,10 H 90 V 70 H 10 Z"
       style="fill:none;stroke:#000000;stroke-width:3;stroke-linecap:butt;stroke-linejoin:miter;stroke-miterlimit:4;stroke-dasharray:none;stroke-opacity:1"
       transform="matrix(0.4,0,0,0.44,589.85937,389.33333)"
       clip-path="url(#clipPath125)" />
    <path
       id="path126"
       d="m 1826.3105,1257.1667 h 75"
       style="fill:#000000;fill-opacity:1;fill-rule:nonzero;stroke:none"
       transform="matrix(0.32,0,0,0.32,13.44,13.440001)"
       clip-path="url(#clipPath127)" />
    <path
       id="path128"
       d="M 20,60 H 80"
       style="fill:none;stroke:#000000;stroke-width:2;stroke-linecap:butt;stroke-linejoin:miter;stroke-miterlimit:4;stroke-dasharray:none;stroke-opacity:1"
       transform="matrix(0.4,0,0,0.44,589.85937,389.33333)"
       clip-path="url(#clipPath129)" />
    <path
       id="path130"
       d="m 1827.5605,1203.5417 v 53.625"
       style="fill:#000000;fill-opacity:1;fill-rule:nonzero;stroke:none"
       transform="matrix(0.32,0,0,0.32,13.44,13.440001)"
       clip-path="url(#clipPath131)" />
    <path
       id="path132"
       d="M 21,21 V 60"
       style="fill:none;stroke:#000000;stroke-width:2;stroke-linecap:butt;stroke-linejoin:miter;stroke-miterlimit:4;stroke-dasharray:none;stroke-opacity:1"
       transform="matrix(0.4,0,0,0.44,589.85937,389.33333)"
       clip-path="url(#clipPath133)" />
    <path
       id="path134"
       d="m 1833.8105,1213.1667 -1.25,1.375 v 41.25 h 7.5 v -41.25 l -1.25,-1.375 z"
       style="fill:#ffff00;fill-opacity:1;fill-rule:nonzero;stroke:none"
       transform="matrix(0.32,0,0,0.32,13.44,13.440001)"
       clip-path="url(#clipPath135)" />
    <path
       id="path136"
       d="m 1841.3105,1226.9167 -1.25,1.375 v 27.5 h 7.5 v -27.5 l -1.25,-1.375 z"
       style="fill:#ffff00;fill-opacity:1;fill-rule:nonzero;stroke:none"
       transform="matrix(0.32,0,0,0.32,13.44,13.440001)"
       clip-path="url(#clipPath137)" />
    <path
       id="path138"
       d="m 1848.8105,1202.1667 -1.25,1.375 v 52.25 h 7.5 v -52.25 l -1.25,-1.375 z"
       style="fill:#ffff00;fill-opacity:1;fill-rule:nonzero;stroke:none"
       transform="matrix(0.32,0,0,0.32,13.44,13.440001)"
       clip-path="url(#clipPath139)" />
    <path
       id="path140"
       d="m 1856.3105,1217.2917 -1.25,1.375 v 37.125 h 7.5 v -37.125 l -1.25,-1.375 z"
       style="fill:#ffff00;fill-opacity:1;fill-rule:nonzero;stroke:none"
       transform="matrix(0.32,0,0,0.32,13.44,13.440001)"
       clip-path="url(#clipPath141)" />
    <path
       id="path142"
       d="m 1863.8105,1217.2917 -1.25,1.375 v 37.125 h 7.5 v -37.125 l -1.25,-1.375 z"
       style="fill:#ffff00;fill-opacity:1;fill-rule:nonzero;stroke:none"
       transform="matrix(0.32,0,0,0.32,13.44,13.440001)"
       clip-path="url(#clipPath143)" />
    <path
       id="path144"
       d="m 1871.3105,1207.6667 -1.25,1.375 v 46.75 h 7.5 v -46.75 l -1.25,-1.375 z"
       style="fill:#ffff00;fill-opacity:1;fill-rule:nonzero;stroke:none"
       transform="matrix(0.32,0,0,0.32,13.44,13.440001)"
       clip-path="url(#clipPath145)" />
    <path
       id="path146"
       d="m 1878.8105,1239.2917 -1.25,1.375 v 15.125 h 7.5 v -15.125 l -1.25,-1.375 z"
       style="fill:#ffff00;fill-opacity:1;fill-rule:nonzero;stroke:none"
       transform="matrix(0.32,0,0,0.32,13.44,13.440001)"
       clip-path="url(#clipPath147)" />
    <path
       id="path151"
       d="M 0,0 H 30 V 33 H 0 Z"
       style="fill:none;stroke:#000000;stroke-width:0.565047;stroke-linecap:butt;stroke-linejoin:miter;stroke-miterlimit:2;stroke-dasharray:none;stroke-opacity:1"
       transform="matrix(1.3333333,0,0,1.3333333,589.85937,389.33333)"
       clip-path="url(#clipPath152)" />
    <g
       id="g154"
       clip-path="url(#clipPath155)">
      <path
         d="M 0.44433699,-2.295897 1.3466807,-2.377928 c 0.038086,0.3603516 0.1347657,0.6533203 0.2929688,0.8789063 0.1464844,0.234375 0.3867187,0.421875 0.7148437,0.56249998 0.328125,0.140625 0.694336,0.2109375 1.1015625,0.2109375 0.3574219,0 0.6796875,-0.0527344 0.9609375,-0.1640625 0.272461,-0.0996094 0.4746094,-0.24902348 0.609375,-0.44531248 0.131836,-0.178711 0.1992188,-0.3808594 0.1992188,-0.609375 0,-0.2167969 -0.064453,-0.413086 -0.1875,-0.5859375 C 4.9033214,-2.6943345 4.6894542,-2.8349595 4.3935557,-2.952147 4.1972667,-3.0224595 3.772462,-3.139647 3.116212,-3.3037095 2.459962,-3.458983 1.9970714,-3.608397 1.7333995,-3.749022 1.3964854,-3.9189439 1.1416026,-4.1416002 0.97168074,-4.4169908 c -0.17285156,-0.2636719 -0.25488281,-0.5625 -0.24609375,-0.890625 0,-0.3574219 0.0996094,-0.6943359 0.30468751,-1.0078125 0.2021484,-0.3105469 0.5039062,-0.5507812 0.9023437,-0.7148437 0.3808594,-0.1640625 0.8203125,-0.2460938 1.3125,-0.2460938 0.5214844,0 0.9902344,0.087891 1.40625,0.2578125 0.3984375,0.1728516 0.7060547,0.421875 0.9257813,0.75 0.2167969,0.3369141 0.3339844,0.7119141 0.3515625,1.125 l -0.9023438,0.070312 C 4.9707042,-5.5244127 4.8066417,-5.8642564 4.5341807,-6.092772 4.2441417,-6.318358 3.8251964,-6.4355455 3.2802745,-6.4443345 c -0.5800781,0 -0.9960938,0.1054687 -1.2539063,0.3164062 -0.2578125,0.2109375 -0.3867187,0.4658203 -0.3867187,0.7617188 0,0.2578125 0.087891,0.46875 0.2695312,0.6328125 0.178711,0.1728515 0.65625,0.3398437 1.4296875,0.5039062 0.7646485,0.1816406 1.3242188,0.3515625 1.6757813,0.515625 0.3515625,0.1582031 0.6269531,0.3837891 0.8320312,0.6796875 0.1933594,0.2988282 0.2929688,0.6386719 0.2929688,1.0195313 0,0.375 -0.1113281,0.7324219 -0.328125,1.06640623 -0.2197266,0.34570312 -0.5273438,0.60644531 -0.9257813,0.78515625 -0.4160156,0.19335938 -0.8759765,0.28710938 -1.3828125,0.28125 -0.65625,0.005859 -1.2011718,-0.08789062 -1.6289062,-0.28125 -0.4394531,-0.1875 -0.7822266,-0.47167969 -1.03125001,-0.85546878 -0.25195312,-0.375 -0.38378906,-0.7998047 -0.3984375,-1.2773437 z M 7.3115245,1.9931655 v -7.171875 h 0.8085938 v 0.6679687 c 0.1787109,-0.2636719 0.3896484,-0.4628906 0.6328125,-0.5976562 0.2402343,-0.1230469 0.5302734,-0.1875 0.8671875,-0.1875 0.4365237,0 0.8261717,0.1142578 1.1718747,0.3398437 0.333985,0.2285156 0.588867,0.5478516 0.761719,0.9609375 0.169922,0.421875 0.257813,0.8789063 0.257813,1.3710938 0,0.5332031 -0.09375,1.0078125 -0.28125,1.4296875 -0.1875,0.42187498 -0.465821,0.74707029 -0.832032,0.97265623 -0.36914,0.22558594 -0.7499997,0.33984375 -1.1484372,0.33984375 -0.2900391,0 -0.5507813,-0.06445312 -0.7851563,-0.1875 -0.234375,-0.1171875 -0.4277344,-0.27246094 -0.5742187,-0.46875 V 1.9931655 Z m 0.796875,-4.5585938 c 0,0.6738282 0.1347656,1.1689453 0.4101563,1.4882813 0.2636718,0.31347654 0.5888671,0.46874998 0.9726562,0.46874998 0.3896484,0 0.726563,-0.1640625 1.007813,-0.49218748 0.28125,-0.328125 0.421875,-0.8378906 0.421875,-1.5351563 -0.0088,-0.65625 -0.146485,-1.1513672 -0.410157,-1.4882812 -0.27539,-0.319336 -0.597656,-0.4833985 -0.972656,-0.4921875 -0.3837891,0.00879 -0.7148437,0.1845703 -0.9960937,0.5273437 -0.2900391,0.3515625 -0.4335938,0.8613281 -0.4335938,1.5234375 z m 8.3027345,0.9023438 0.902344,0.1054687 c -0.140625,0.5332032 -0.404297,0.94628909 -0.785157,1.24218753 -0.392578,0.29003906 -0.887695,0.43359375 -1.488281,0.43359375 -0.758789,0 -1.359375,-0.234375 -1.804687,-0.703125 -0.445313,-0.45996098 -0.667969,-1.11328128 -0.667969,-1.95703128 0,-0.8730469 0.225586,-1.5527344 0.679687,-2.0390625 0.445313,-0.4746094 1.025391,-0.7148437 1.746094,-0.7148437 0.694336,0 1.259766,0.234375 1.699219,0.703125 0.436523,0.477539 0.65625,1.1425781 0.65625,1.9921875 0,0.055664 0,0.1347656 0,0.234375 h -3.867188 c 0.0293,0.571289 0.19043,1.0078125 0.480469,1.3125 0.28711,0.2988281 0.647461,0.44531248 1.078125,0.44531248 0.319336,0.008789 0.597656,-0.0732422 0.832031,-0.24609375 0.225586,-0.16992183 0.404297,-0.43945313 0.539063,-0.80859373 z M 13.528321,-3.092772 h 2.894532 c -0.04687,-0.4277344 -0.1875,-0.7792969 -0.421875,-1.0546875 -0.228516,-0.28125 -0.559571,-0.4248047 -0.996094,-0.4335938 -0.407227,0.00879 -0.74707,0.1464844 -1.019531,0.4101563 -0.28125,0.2666015 -0.433594,0.6269531 -0.457032,1.078125 z m 8.264649,1.1953125 0.867187,0.1171875 c -0.102539,0.5947265 -0.345703,1.06054685 -0.726562,1.39453123 -0.392578,0.33691406 -0.873047,0.50390625 -1.441406,0.50390625 -0.703125,0 -1.271485,-0.234375 -1.699219,-0.703125 -0.439453,-0.45996098 -0.65625,-1.11914058 -0.65625,-1.98046878 0,-0.5625 0.09375,-1.0546875 0.28125,-1.4765625 0.1875,-0.421875 0.47168,-0.7382812 0.855469,-0.9492187 0.366211,-0.2021485 0.776367,-0.3046875 1.230468,-0.3046875 0.5625,0 1.022461,0.140625 1.382813,0.421875 0.351562,0.290039 0.580078,0.6972656 0.691406,1.21875 l -0.855469,0.1289062 c -0.08789,-0.3427734 -0.231445,-0.6035156 -0.433593,-0.7851562 -0.210938,-0.178711 -0.500977,-0.2695313 -0.867188,-0.2695313 -0.369141,0 -0.688476,0.1611328 -0.960937,0.4804688 -0.28125,0.3222656 -0.421875,0.8203125 -0.421875,1.5 0,0.703125 0.134765,1.2128906 0.410156,1.5234375 0.263672,0.3222656 0.612305,0.47753904 1.042969,0.46874998 0.342773,0 0.626953,-0.10546875 0.855468,-0.31640625 0.234375,-0.20214843 0.38086,-0.52734373 0.445313,-0.97265623 z m 3.536133,1.11328123 0.128906,0.7734375 c -0.251953,0.05273438 -0.503906,0.08203125 -0.761719,0.08203125 -0.257812,0 -0.474609,-0.05273437 -0.644531,-0.15234375 -0.181641,-0.09960938 -0.304688,-0.234375 -0.375,-0.3984375 C 23.606446,-0.64355327 23.57129,-0.9892564 23.57129,-1.5224595 V -4.499022 H 22.926759 V -5.1787095 H 23.57129 V -6.467772 l 0.878906,-0.5273438 v 1.8164063 h 0.878907 v 0.6796875 h -0.878907 v 3.0351562 c -0.0088,0.2519532 0.0029,0.4101563 0.03516,0.48046878 0.0293,0.0703125 0.08496,0.12597656 0.164062,0.1640625 0.06152,0.046875 0.158203,0.0703125 0.292969,0.0703125 0.09375,0 0.222656,-0.0117188 0.386719,-0.0351563 z M 26.161134,9.779801e-4 V -5.1787095 h 0.796875 v 0.7851562 c 0.193359,-0.3662109 0.380859,-0.609375 0.5625,-0.7265625 0.164062,-0.1171875 0.369141,-0.1757812 0.621094,-0.1757812 0.249023,0 0.530273,0.09375 0.84375,0.28125 l -0.304688,0.8085937 c -0.219726,-0.1230469 -0.433594,-0.1875 -0.644531,-0.1875 -0.196289,0.00879 -0.369141,0.067383 -0.515625,0.1757813 -0.158203,0.1171875 -0.27832,0.3046875 -0.363281,0.5625 -0.0791,0.2578125 -0.117188,0.571289 -0.117188,0.9375 V 9.779801e-4 Z m 6.738281,0 V -0.76074077 c -0.407226,0.5859375 -0.955078,0.87890625 -1.640625,0.87890625 -0.313476,0 -0.597656,-0.05859375 -0.855469,-0.17578125 -0.27539,-0.1171875 -0.474609,-0.26367188 -0.597656,-0.4453125 -0.134765,-0.16992188 -0.222656,-0.38671875 -0.269531,-0.64453123 -0.03223,-0.1699219 -0.04687,-0.4453125 -0.04687,-0.8203125 v -3.2109375 h 0.878906 v 2.8710937 c 0,0.4628907 0.01758,0.7910157 0.05859,0.984375 0.04687,0.1962891 0.158203,0.3574219 0.339844,0.48046878 0.178711,0.13476562 0.401367,0.19921875 0.667968,0.19921875 0.257813,0 0.503907,-0.0644531 0.738282,-0.19921875 0.225586,-0.13183594 0.389648,-0.31640628 0.492187,-0.55078128 0.09375,-0.2255859 0.140625,-0.5625 0.140625,-1.0078125 v -2.7773437 h 0.878906 V 9.779801e-4 Z m 2.147461,0 V -5.1787095 h 0.785156 v 0.7265625 c 0.164063,-0.2578125 0.38086,-0.4628907 0.65625,-0.6210938 0.263672,-0.1464844 0.56836,-0.2226562 0.914063,-0.2226562 0.380859,0 0.697265,0.079102 0.949219,0.234375 0.240234,0.1640625 0.413086,0.3867187 0.515625,0.6679687 0.404296,-0.6005859 0.940429,-0.9023437 1.605468,-0.9023437 0.506836,0 0.902344,0.140625 1.183594,0.421875 0.28125,0.290039 0.421875,0.7265625 0.421875,1.3125 V 9.779801e-4 H 41.19922 V -3.2685533 c 0,-0.3515625 -0.0293,-0.6035156 -0.08203,-0.7617187 -0.06445,-0.1464844 -0.169922,-0.2695313 -0.316407,-0.3632813 -0.149414,-0.09375 -0.325195,-0.140625 -0.527343,-0.140625 -0.369141,0 -0.667969,0.1171875 -0.902344,0.3515625 -0.243164,0.2519531 -0.363281,0.6416016 -0.363281,1.171875 V 9.779801e-4 H 38.128907 V -3.3623033 c 0,-0.3896484 -0.07031,-0.6826172 -0.210937,-0.8789062 -0.149414,-0.1933594 -0.383789,-0.2929688 -0.703125,-0.2929688 -0.251953,0 -0.480469,0.064453 -0.691406,0.1875 -0.210938,0.1347656 -0.363282,0.3251953 -0.457032,0.5742188 -0.09375,0.2519531 -0.140625,0.6152344 -0.140625,1.0898437 V 9.779801e-4 Z m 0,0"
         style="fill:#000000;fill-opacity:1;fill-rule:nonzero;stroke:none"
         aria-label="Spectrum"
         transform="matrix(1.3333333,0,0,1.3333333,581.38021,450.66666)"
         clip-path="url(#clipPath153)"
         id="path154" />
    </g>
    <path
       id="path156"
       d="M -0.01074113,1.4384e-6 2.7314464,-7.1601548 H 3.7509776 L 6.6806651,1.4384e-6 H 5.6025401 L 4.7705089,-2.1679673 H 1.7822276 L 0.99707137,1.4384e-6 Z M 2.0517589,-2.9414048 h 2.4257812 l -0.75,-1.9804688 C 3.4990245,-5.5136704 3.3320323,-6.0058579 3.2236339,-6.3984361 c -0.09375,0.4541016 -0.2226563,0.9082032 -0.3867188,1.359375 z M 7.3134776,1.4384e-6 V -5.1796861 h 0.796875 v 0.7382813 c 0.375,-0.5683594 0.9199219,-0.8554688 1.640625,-0.8554688 0.3105474,0 0.6005864,0.055664 0.8671874,0.1640625 0.257813,0.1171875 0.451172,0.2666016 0.585938,0.4453125 0.123047,0.1816407 0.216797,0.3955078 0.28125,0.6445313 0.0293,0.1640625 0.04687,0.4511719 0.04687,0.8554687 V 1.4384e-6 H 10.653321 V -3.1523423 c 0,-0.3515625 -0.03516,-0.6210938 -0.105468,-0.8085938 -0.07031,-0.1699218 -0.19336,-0.3105468 -0.363282,-0.421875 -0.172851,-0.099609 -0.4160152,-0.1523437 -0.7265621,-0.1523437 -0.3046875,0 -0.5917969,0.1171875 -0.8554688,0.3515625 -0.2753906,0.243164 -0.4101562,0.6914062 -0.4101562,1.3476562 V 1.4384e-6 Z M 16.246095,-0.64452981 c -0.328125,0.28125 -0.641602,0.47753906 -0.9375,0.5859375 -0.304688,0.1171875 -0.629883,0.17578125 -0.972656,0.17578125 -0.571289,0 -1.007813,-0.140625 -1.3125,-0.421875 -0.313477,-0.27246094 -0.465821,-0.62695313 -0.457032,-1.06640624 0,-0.2490235 0.05859,-0.4804688 0.175782,-0.6914063 0.108398,-0.2109375 0.260742,-0.3779297 0.457031,-0.5039062 0.178711,-0.1230469 0.386719,-0.2226563 0.621094,-0.2929688 0.169921,-0.038086 0.433593,-0.082031 0.785156,-0.1289062 0.703125,-0.076172 1.224609,-0.178711 1.570312,-0.3046875 0,-0.1171875 0,-0.1904297 0,-0.2226563 0,-0.3574218 -0.09961,-0.6240234 -0.292968,-0.796875 -0.196289,-0.1699218 -0.515625,-0.2578125 -0.960938,-0.2578125 -0.416016,0 -0.714844,0.070312 -0.902344,0.2109375 -0.205078,0.1494141 -0.351562,0.4072266 -0.445312,0.7734375 l -0.855469,-0.1171875 c 0.07031,-0.3662109 0.199219,-0.6621093 0.386719,-0.890625 0.178711,-0.2255859 0.436523,-0.4013672 0.773437,-0.5273437 0.333985,-0.1171875 0.726563,-0.1757813 1.171875,-0.1757813 0.436524,0 0.796875,0.052734 1.078125,0.1523438 0.272461,0.102539 0.47461,0.2314453 0.609375,0.3867187 0.131836,0.1640625 0.225586,0.3691407 0.28125,0.609375 0.02344,0.1494141 0.03516,0.4189453 0.03516,0.8085938 v 1.171875 c 0,0.8144531 0.01758,1.33007811 0.05859,1.54687499 0.03809,0.21972656 0.111328,0.42773437 0.222657,0.6210937484 H 16.421876 C 16.328126,-0.1787095 16.269532,-0.39257669 16.246095,-0.64452981 Z m -0.07031,-1.95703129 c -0.322265,0.1347657 -0.802734,0.2431641 -1.441406,0.328125 -0.360351,0.055664 -0.615234,0.1142578 -0.761719,0.1757813 -0.158203,0.070312 -0.27539,0.1640625 -0.351562,0.28125 -0.08789,0.1347656 -0.128906,0.2988281 -0.128906,0.4921875 0,0.1875 0.09375,0.36035155 0.28125,0.51562499 0.169921,0.15820312 0.427734,0.234375 0.773437,0.234375 0.333984,0.008789 0.635742,-0.0644531 0.902344,-0.22265625 0.263672,-0.140625 0.459961,-0.34277344 0.585937,-0.60937504 0.08496,-0.1933593 0.131836,-0.4863281 0.140625,-0.8789062 z M 18.393556,1.4384e-6 V -7.1601548 h 0.878906 V 1.4384e-6 Z M 20.590821,1.9921889 20.497071,1.1718764 c 0.1875,0.052734 0.363282,0.082031 0.527344,0.082031 0.169922,0 0.316406,-0.035156 0.433594,-0.1054688 0.117187,-0.064453 0.213867,-0.15234371 0.292969,-0.26953121 0.05273,-0.0878906 0.143554,-0.3046875 0.269531,-0.65625 0.01465,-0.046875 0.04102,-0.1171875 0.08203,-0.2109375 L 20.13379,-5.1796861 h 0.949219 l 1.078125,3 c 0.131836,0.3837891 0.257812,0.7822266 0.375,1.19531254 0.09375,-0.39843754 0.210937,-0.79101564 0.351562,-1.18359374 l 1.113282,-3.0117188 h 0.878906 l -1.96875,5.26171879 C 22.700196,0.65918113 22.524415,1.0722671 22.38379,1.3242202 c -0.140625,0.2490234 -0.310547,0.4394531 -0.503906,0.5742187 -0.205078,0.140625 -0.445313,0.2109375 -0.726563,0.2109375 -0.172851,0 -0.360351,-0.041016 -0.5625,-0.1171875 z M 25.166993,1.4384e-6 V -0.71484231 l 3.292969,-3.78515629 c -0.375,0.017578 -0.703125,0.023437 -0.984375,0.023437 h -2.121094 v -0.703125 h 4.242188 v 0.5742188 l -2.8125,3.2929687 -0.539063,0.59765629 c 0.389649,-0.0292969 0.761719,-0.046875 1.113282,-0.046875 h 2.390625 V 1.4384e-6 Z m 9.008789,-1.6640625384 0.902344,0.1054688 c -0.140625,0.5332031 -0.404297,0.94628905 -0.785156,1.24218749 -0.392578,0.29003906 -0.887695,0.43359375 -1.488281,0.43359375 -0.758789,0 -1.359375,-0.234375 -1.804688,-0.703125 -0.445312,-0.45996094 -0.667969,-1.11328124 -0.667969,-1.95703124 0,-0.8730469 0.225586,-1.5527344 0.679688,-2.0390625 0.445312,-0.4746094 1.02539,-0.7148438 1.746094,-0.7148438 0.694336,0 1.259765,0.234375 1.699218,0.703125 0.436524,0.4775391 0.65625,1.1425782 0.65625,1.9921875 0,0.055664 0,0.1347657 0,0.234375 h -3.867187 c 0.0293,0.5712891 0.19043,1.0078125 0.480469,1.3125 0.287109,0.29882816 0.647461,0.44531254 1.078125,0.44531254 0.319336,0.008789 0.597656,-0.0732422 0.832031,-0.24609375 0.225586,-0.16992189 0.404297,-0.43945309 0.539062,-0.80859379 z M 31.29297,-3.0937486 h 2.894531 c -0.04687,-0.4277343 -0.1875,-0.7792968 -0.421875,-1.0546875 -0.228516,-0.28125 -0.55957,-0.4248047 -0.996094,-0.4335937 -0.407226,0.00879 -0.74707,0.1464844 -1.019531,0.4101562 -0.28125,0.2666016 -0.433594,0.6269532 -0.457031,1.078125 z M 36.159181,1.4384e-6 V -5.1796861 h 0.796875 v 0.7851563 c 0.193359,-0.366211 0.380859,-0.609375 0.5625,-0.7265625 0.164062,-0.1171875 0.36914,-0.1757813 0.621094,-0.1757813 0.249023,0 0.530273,0.09375 0.84375,0.28125 l -0.304688,0.8085938 c -0.219727,-0.1230469 -0.433594,-0.1875 -0.644531,-0.1875 -0.196289,0.00879 -0.369141,0.067383 -0.515625,0.1757812 -0.158203,0.1171875 -0.278321,0.3046875 -0.363281,0.5625 -0.0791,0.2578125 -0.117188,0.5712891 -0.117188,0.9375 V 1.4384e-6 Z m 0,0"
       style="fill:#000000;fill-opacity:1;fill-rule:nonzero;stroke:none"
       aria-label="Analyzer"
       transform="matrix(1.3333333,0,0,1.3333333,583.96354,468)"
       clip-path="url(#clipPath157)" />
    <path
       id="path158"
       d="M 159.88547,260 V 224.96"
       style="fill:none;stroke:#000000;stroke-width:0.24;stroke-linecap:butt;stroke-linejoin:miter;stroke-miterlimit:2;stroke-dasharray:none;stroke-opacity:1"
       transform="matrix(1.3333333,0,0,1.3333333,309.85937,121.33333)"
       clip-path="url(#clipPath159)" />
    <path
       id="path160"
       d="m 1384.6439,1274.6667 33.3333,16.6666 V 1258 Z"
       style="fill:#000000;fill-opacity:1;fill-rule:nonzero;stroke:none"
       transform="matrix(0.32,0,0,0.32,13.44,13.440001)"
       clip-path="url(#clipPath161)" />
    <path
       id="path162"
       d="m 159.88547,224.96 h -41.92"
       style="fill:none;stroke:#000000;stroke-width:0.24;stroke-linecap:butt;stroke-linejoin:miter;stroke-miterlimit:2;stroke-dasharray:none;stroke-opacity:1"
       transform="matrix(1.3333333,0,0,1.3333333,309.85937,121.33333)"
       clip-path="url(#clipPath163)" />
    <path
       id="path164"
       d="M 1801.3105,1274.6667 1767.9772,1258 v 33.3333 z"
       style="fill:#000000;fill-opacity:1;fill-rule:nonzero;stroke:none"
       transform="matrix(0.32,0,0,0.32,13.44,13.440001)"
       clip-path="url(#clipPath165)" />
    <path
       id="path166"
       d="m 159.88547,224.96 h 42.16"
       style="fill:none;stroke:#000000;stroke-width:0.24;stroke-linecap:butt;stroke-linejoin:miter;stroke-miterlimit:2;stroke-dasharray:none;stroke-opacity:1"
       transform="matrix(1.3333333,0,0,1.3333333,309.85937,121.33333)"
       clip-path="url(#clipPath167)" />
    <path
       id="path168"
       d="m 1598.75,1274.5 c 0,3.4518 -2.7982,6.25 -6.25,6.25 -3.4518,0 -6.25,-2.7982 -6.25,-6.25 0,-3.4518 2.7982,-6.25 6.25,-6.25 3.4518,0 6.25,2.7982 6.25,6.25 z"
       style="fill:#000000;fill-opacity:1;fill-rule:evenodd;stroke:none"
       transform="matrix(0.32,0,0,0.32,13.44,13.440001)"
       clip-path="url(#clipPath169)" />
    <path
       id="path170"
       d="m 159.88547,170 v 40.08"
       style="fill:none;stroke:#000000;stroke-width:0.24;stroke-linecap:butt;stroke-linejoin:miter;stroke-miterlimit:2;stroke-dasharray:none;stroke-opacity:1"
       transform="matrix(1.3333333,0,0,1.3333333,309.85937,121.33333)"
       clip-path="url(#clipPath171)" />
    <path
       id="path172"
       d="M 1801.3105,1212.1667 1767.9772,1195.5 v 33.3333 z"
       style="fill:#000000;fill-opacity:1;fill-rule:nonzero;stroke:none"
       transform="matrix(0.32,0,0,0.32,13.44,13.440001)"
       clip-path="url(#clipPath173)" />
    <path
       id="path174"
       d="m 159.88547,210.08 h 42.16"
       style="fill:none;stroke:#000000;stroke-width:0.24;stroke-linecap:butt;stroke-linejoin:miter;stroke-miterlimit:2;stroke-dasharray:none;stroke-opacity:1"
       transform="matrix(1.3333333,0,0,1.3333333,309.85937,121.33333)"
       clip-path="url(#clipPath175)" />
    <path
       id="path176"
       d="m 1384.6439,1212.1667 33.3333,16.6666 V 1195.5 Z"
       style="fill:#000000;fill-opacity:1;fill-rule:nonzero;stroke:none"
       transform="matrix(0.32,0,0,0.32,13.44,13.440001)"
       clip-path="url(#clipPath177)" />
    <path
       id="path178"
       d="m 159.88547,210.08 h -41.92"
       style="fill:none;stroke:#000000;stroke-width:0.24;stroke-linecap:butt;stroke-linejoin:miter;stroke-miterlimit:2;stroke-dasharray:none;stroke-opacity:1"
       transform="matrix(1.3333333,0,0,1.3333333,309.85937,121.33333)"
       clip-path="url(#clipPath179)" />
    <path
       id="path180"
       d="m 1598.75,1212.5 c 0,3.4518 -2.7982,6.25 -6.25,6.25 -3.4518,0 -6.25,-2.7982 -6.25,-6.25 0,-3.4518 2.7982,-6.25 6.25,-6.25 3.4518,0 6.25,2.7982 6.25,6.25 z"
       style="fill:#000000;fill-opacity:1;fill-rule:evenodd;stroke:none"
       transform="matrix(0.32,0,0,0.32,13.44,13.440001)"
       clip-path="url(#clipPath181)" />
  </g>
</svg>
