<?xml version="1.0" encoding="UTF-8" standalone="no"?>
<!-- Created with Inkscape (http://www.inkscape.org/) -->

<svg
   version="1.1"
   id="svg1"
   width="350"
   height="260"
   viewBox="0 0 350.00001 260"
   sodipodi:docname="demux_scheme.pdf"
   inkscape:version="0.0"
   xmlns:inkscape="http://www.inkscape.org/namespaces/inkscape"
   xmlns:sodipodi="http://sodipodi.sourceforge.net/DTD/sodipodi-0.dtd"
   xmlns="http://www.w3.org/2000/svg"
   xmlns:svg="http://www.w3.org/2000/svg">
  <defs
     id="defs1">
    <clipPath
       clipPathUnits="userSpaceOnUse"
       id="clipPath3">
      <path
         d="m 1145.0931,893.41667 h 925.8138 v 679.16663 h -925.8138 z"
         transform="matrix(0.24000001,0,0,0.24000001,-346.82235,-267.42001)"
         clip-rule="evenodd"
         id="path3" />
    </clipPath>
    <clipPath
       clipPathUnits="userSpaceOnUse"
       id="clipPath6">
      <path
         d="m 1145.0931,893.41667 h 925.8138 v 679.16663 h -925.8138 z"
         clip-rule="evenodd"
         id="path6" />
    </clipPath>
    <clipPath
       clipPathUnits="userSpaceOnUse"
       id="clipPath8">
      <path
         d="m 1145.0931,893.41667 h 925.8138 v 679.16663 h -925.8138 z"
         transform="matrix(0.24000001,0,0,0.24000001,-346.82235,-267.42001)"
         clip-rule="evenodd"
         id="path8" />
    </clipPath>
    <clipPath
       clipPathUnits="userSpaceOnUse"
       id="clipPath10">
      <path
         d="m 1145.0931,893.41667 h 925.8138 v 679.16663 h -925.8138 z"
         transform="matrix(0.24000001,0,0,0.24000001,-386.82235,-220.42)"
         clip-rule="evenodd"
         id="path10" />
    </clipPath>
    <clipPath
       clipPathUnits="userSpaceOnUse"
       id="clipPath13">
      <path
         d="m 1145.0931,893.41667 h 925.8138 v 679.16663 h -925.8138 z"
         transform="matrix(0.24000001,0,0,0.24000001,-392.11922,-235.92)"
         clip-rule="evenodd"
         id="path13" />
    </clipPath>
    <clipPath
       clipPathUnits="userSpaceOnUse"
       id="clipPath15">
      <path
         d="m 1145.0931,893.41667 h 925.8138 v 679.16663 h -925.8138 z"
         transform="matrix(0.24000001,0,0,0.24000001,-386.82235,-220.42)"
         clip-rule="evenodd"
         id="path15" />
    </clipPath>
    <clipPath
       clipPathUnits="userSpaceOnUse"
       id="clipPath17">
      <path
         d="m 1145.0931,893.41667 h 925.8138 v 679.16663 h -925.8138 z"
         transform="matrix(0.24000001,0,0,0.24000001,-312.82235,-227.42001)"
         clip-rule="evenodd"
         id="path17" />
    </clipPath>
    <clipPath
       clipPathUnits="userSpaceOnUse"
       id="clipPath26">
      <path
         d="m 1278.4264,922.58333 h 166.6667 v 174.99997 h -166.6667 z"
         transform="matrix(0.24000001,0,0,0.24000001,-311.22227,-226.41993)"
         clip-rule="evenodd"
         id="path26" />
    </clipPath>
    <clipPath
       clipPathUnits="userSpaceOnUse"
       id="clipPath31">
      <path
         d="m 1145.0931,893.41667 h 925.8138 v 679.16663 h -925.8138 z"
         transform="matrix(0.24000001,0,0,0.24000001,-312.82235,-227.42001)"
         clip-rule="evenodd"
         id="path31" />
    </clipPath>
    <clipPath
       clipPathUnits="userSpaceOnUse"
       id="clipPath32">
      <path
         d="m 1165.6009,951.75 h 116.9922 v 116.6667 h -116.9922 z"
         transform="matrix(0.24000001,0,0,0.24000001,-281.30672,-239.42001)"
         clip-rule="evenodd"
         id="path32" />
    </clipPath>
    <clipPath
       clipPathUnits="userSpaceOnUse"
       id="clipPath34">
      <path
         d="m 1165.6009,951.75 h 116.9922 v 116.6667 h -116.9922 z"
         transform="matrix(0.32,0,0,0.32,13.44,13.440001)"
         clip-rule="evenodd"
         id="path34" />
    </clipPath>
    <clipPath
       clipPathUnits="userSpaceOnUse"
       id="clipPath36">
      <path
         d="m 1165.6009,951.75 h 116.9922 v 116.6667 h -116.9922 z"
         transform="matrix(0.24000001,0,0,0.24000001,-280.74422,-252.42001)"
         clip-rule="evenodd"
         id="path36" />
    </clipPath>
    <clipPath
       clipPathUnits="userSpaceOnUse"
       id="clipPath38">
      <path
         d="m 1145.0931,893.41667 h 925.8138 v 679.16663 h -925.8138 z"
         transform="matrix(0.24000001,0,0,0.24000001,-386.82235,-275.42001)"
         clip-rule="evenodd"
         id="path38" />
    </clipPath>
    <clipPath
       clipPathUnits="userSpaceOnUse"
       id="clipPath41">
      <path
         d="m 1145.0931,893.41667 h 925.8138 v 679.16663 h -925.8138 z"
         transform="matrix(0.24000001,0,0,0.24000001,-392.11922,-290.92)"
         clip-rule="evenodd"
         id="path41" />
    </clipPath>
    <clipPath
       clipPathUnits="userSpaceOnUse"
       id="clipPath43">
      <path
         d="m 1145.0931,893.41667 h 925.8138 v 679.16663 h -925.8138 z"
         transform="matrix(0.24000001,0,0,0.24000001,-386.82235,-275.42001)"
         clip-rule="evenodd"
         id="path43" />
    </clipPath>
    <clipPath
       clipPathUnits="userSpaceOnUse"
       id="clipPath46">
      <path
         d="m 1145.0931,893.41667 h 925.8138 v 679.16663 h -925.8138 z"
         transform="matrix(0.24000001,0,0,0.24000001,-392.11922,-345.92)"
         clip-rule="evenodd"
         id="path46" />
    </clipPath>
    <clipPath
       clipPathUnits="userSpaceOnUse"
       id="clipPath48">
      <path
         d="m 1145.0931,893.41667 h 925.8138 v 679.16663 h -925.8138 z"
         transform="matrix(0.24000001,0,0,0.24000001,-386.82235,-330.42001)"
         clip-rule="evenodd"
         id="path48" />
    </clipPath>
    <clipPath
       clipPathUnits="userSpaceOnUse"
       id="clipPath50">
      <path
         d="m 1145.0931,893.41667 h 925.8138 v 679.16663 h -925.8138 z"
         transform="matrix(0.24000001,0,0,0.24000001,-461.82235,-216.42)"
         clip-rule="evenodd"
         id="path50" />
    </clipPath>
    <clipPath
       clipPathUnits="userSpaceOnUse"
       id="clipPath59">
      <path
         d="m 1899.2598,868.41667 h 175 v 200.00003 h -175 z"
         transform="matrix(0.24000001,0,0,0.24000001,-460.62228,-215.01993)"
         clip-rule="evenodd"
         id="path59" />
    </clipPath>
    <clipPath
       clipPathUnits="userSpaceOnUse"
       id="clipPath64">
      <path
         d="m 1145.0931,893.41667 h 925.8138 v 679.16663 h -925.8138 z"
         transform="matrix(0.24000001,0,0,0.24000001,-461.82235,-216.42)"
         clip-rule="evenodd"
         id="path64" />
    </clipPath>
    <clipPath
       clipPathUnits="userSpaceOnUse"
       id="clipPath65">
      <path
         d="m 1910.946,1043.4167 h 151.6276 v 62.5 H 1910.946 Z"
         transform="matrix(0.24000001,0,0,0.24000001,-459.62704,-261.42001)"
         clip-rule="evenodd"
         id="path65" />
    </clipPath>
    <clipPath
       clipPathUnits="userSpaceOnUse"
       id="clipPath67">
      <path
         d="m 1910.946,1043.4167 h 151.6276 v 62.5 H 1910.946 Z"
         transform="matrix(0.32,0,0,0.32,13.44,13.440001)"
         clip-rule="evenodd"
         id="path67" />
    </clipPath>
    <clipPath
       clipPathUnits="userSpaceOnUse"
       id="clipPath69">
      <path
         d="m 1145.0931,893.41667 h 925.8138 v 679.16663 h -925.8138 z"
         transform="matrix(0.24000001,0,0,0.24000001,-461.82235,-326.42001)"
         clip-rule="evenodd"
         id="path69" />
    </clipPath>
    <clipPath
       clipPathUnits="userSpaceOnUse"
       id="clipPath78">
      <path
         d="m 1899.2598,1326.75 h 175 v 200 h -175 z"
         transform="matrix(0.24000001,0,0,0.24000001,-460.62228,-325.01992)"
         clip-rule="evenodd"
         id="path78" />
    </clipPath>
    <clipPath
       clipPathUnits="userSpaceOnUse"
       id="clipPath83">
      <path
         d="m 1145.0931,893.41667 h 925.8138 v 679.16663 h -925.8138 z"
         transform="matrix(0.24000001,0,0,0.24000001,-461.82235,-326.42001)"
         clip-rule="evenodd"
         id="path83" />
    </clipPath>
    <clipPath
       clipPathUnits="userSpaceOnUse"
       id="clipPath84">
      <path
         d="m 1910.946,1501.75 h 151.6276 v 62.5 H 1910.946 Z"
         transform="matrix(0.24000001,0,0,0.24000001,-459.62704,-371.42)"
         clip-rule="evenodd"
         id="path84" />
    </clipPath>
    <clipPath
       clipPathUnits="userSpaceOnUse"
       id="clipPath86">
      <path
         d="m 1910.946,1501.75 h 151.6276 v 62.5 H 1910.946 Z"
         transform="matrix(0.32,0,0,0.32,13.44,13.440001)"
         clip-rule="evenodd"
         id="path86" />
    </clipPath>
    <clipPath
       clipPathUnits="userSpaceOnUse"
       id="clipPath88">
      <path
         d="m 1145.0931,893.41667 h 925.8138 v 679.16663 h -925.8138 z"
         transform="matrix(0.24000001,0,0,0.24000001,-461.82235,-271.42)"
         clip-rule="evenodd"
         id="path88" />
    </clipPath>
    <clipPath
       clipPathUnits="userSpaceOnUse"
       id="clipPath97">
      <path
         d="m 1899.2598,1097.5833 h 175 v 200 h -175 z"
         transform="matrix(0.24000001,0,0,0.24000001,-460.62228,-270.01993)"
         clip-rule="evenodd"
         id="path97" />
    </clipPath>
    <clipPath
       clipPathUnits="userSpaceOnUse"
       id="clipPath102">
      <path
         d="m 1145.0931,893.41667 h 925.8138 v 679.16663 h -925.8138 z"
         transform="matrix(0.24000001,0,0,0.24000001,-461.82235,-271.42)"
         clip-rule="evenodd"
         id="path102" />
    </clipPath>
    <clipPath
       clipPathUnits="userSpaceOnUse"
       id="clipPath103">
      <path
         d="m 1910.946,1272.5833 h 151.6276 v 62.5 H 1910.946 Z"
         transform="matrix(0.24000001,0,0,0.24000001,-459.62704,-316.42)"
         clip-rule="evenodd"
         id="path103" />
    </clipPath>
    <clipPath
       clipPathUnits="userSpaceOnUse"
       id="clipPath105">
      <path
         d="m 1910.946,1272.5833 h 151.6276 v 62.5 H 1910.946 Z"
         transform="matrix(0.32,0,0,0.32,13.44,13.440001)"
         clip-rule="evenodd"
         id="path105" />
    </clipPath>
    <clipPath
       clipPathUnits="userSpaceOnUse"
       id="clipPath107">
      <path
         d="m 1145.0931,893.41667 h 925.8138 v 679.16663 h -925.8138 z"
         clip-rule="evenodd"
         id="path107" />
    </clipPath>
    <clipPath
       clipPathUnits="userSpaceOnUse"
       id="clipPath110">
      <path
         d="m 1145.0931,893.41667 h 925.8138 v 679.16663 h -925.8138 z"
         transform="matrix(0.24000001,0,0,0.24000001,-289.05673,-290.92)"
         clip-rule="evenodd"
         id="path110" />
    </clipPath>
    <clipPath
       clipPathUnits="userSpaceOnUse"
       id="clipPath112">
      <path
         d="m 1145.0931,893.41667 h 925.8138 v 679.16663 h -925.8138 z"
         transform="matrix(0.24000001,0,0,0.24000001,-276.82235,-280.42)"
         clip-rule="evenodd"
         id="path112" />
    </clipPath>
    <clipPath
       clipPathUnits="userSpaceOnUse"
       id="clipPath113">
      <path
         d="m 1195.5814,1235.0833 h 40.6901 v 62.5 h -40.6901 z"
         transform="matrix(0.24000001,0,0,0.24000001,-287.93953,-307.42)"
         clip-rule="evenodd"
         id="path113" />
    </clipPath>
    <clipPath
       clipPathUnits="userSpaceOnUse"
       id="clipPath115">
      <path
         d="m 1195.5814,1235.0833 h 40.6901 v 62.5 h -40.6901 z"
         transform="matrix(0.32,0,0,0.32,13.44,13.440001)"
         clip-rule="evenodd"
         id="path115" />
    </clipPath>
    <clipPath
       clipPathUnits="userSpaceOnUse"
       id="clipPath117">
      <path
         d="m 1145.0931,893.41667 h 925.8138 v 679.16663 h -925.8138 z"
         clip-rule="evenodd"
         id="path117" />
    </clipPath>
    <clipPath
       clipPathUnits="userSpaceOnUse"
       id="clipPath119">
      <path
         d="m 1145.0931,893.41667 h 925.8138 v 679.16663 h -925.8138 z"
         transform="matrix(0.24000001,0,0,0.24000001,-256.82235,-197.42001)"
         clip-rule="evenodd"
         id="path119" />
    </clipPath>
    <clipPath
       clipPathUnits="userSpaceOnUse"
       id="clipPath121">
      <path
         d="m 1145.0931,893.41667 h 925.8138 v 679.16663 h -925.8138 z"
         clip-rule="evenodd"
         id="path121" />
    </clipPath>
    <clipPath
       clipPathUnits="userSpaceOnUse"
       id="clipPath123">
      <path
         d="m 1145.0931,893.41667 h 925.8138 v 679.16663 h -925.8138 z"
         transform="matrix(0.24000001,0,0,0.24000001,-256.82235,-197.42001)"
         clip-rule="evenodd"
         id="path123" />
    </clipPath>
    <clipPath
       clipPathUnits="userSpaceOnUse"
       id="clipPath125">
      <path
         d="m 1145.0931,893.41667 h 925.8138 v 679.16663 h -925.8138 z"
         transform="matrix(0.24000001,0,0,0.24000001,-256.82235,-197.42001)"
         clip-rule="evenodd"
         id="path125" />
    </clipPath>
    <clipPath
       clipPathUnits="userSpaceOnUse"
       id="clipPath127">
      <path
         d="m 1145.0931,893.41667 h 925.8138 v 679.16663 h -925.8138 z"
         clip-rule="evenodd"
         id="path127" />
    </clipPath>
    <clipPath
       clipPathUnits="userSpaceOnUse"
       id="clipPath129">
      <path
         d="m 1145.0931,893.41667 h 925.8138 v 679.16663 h -925.8138 z"
         clip-rule="evenodd"
         id="path129" />
    </clipPath>
    <clipPath
       clipPathUnits="userSpaceOnUse"
       id="clipPath131">
      <path
         d="m 1145.0931,893.41667 h 925.8138 v 679.16663 h -925.8138 z"
         transform="matrix(0.24000001,0,0,0.24000001,-256.82235,-197.42001)"
         clip-rule="evenodd"
         id="path131" />
    </clipPath>
    <clipPath
       clipPathUnits="userSpaceOnUse"
       id="clipPath133">
      <path
         d="m 1145.0931,893.41667 h 925.8138 v 679.16663 h -925.8138 z"
         clip-rule="evenodd"
         id="path133" />
    </clipPath>
    <clipPath
       clipPathUnits="userSpaceOnUse"
       id="clipPath135">
      <path
         d="m 1145.0931,893.41667 h 925.8138 v 679.16663 h -925.8138 z"
         transform="matrix(0.24000001,0,0,0.24000001,-256.82235,-197.42001)"
         clip-rule="evenodd"
         id="path135" />
    </clipPath>
    <clipPath
       clipPathUnits="userSpaceOnUse"
       id="clipPath137">
      <path
         d="m 1145.0931,893.41667 h 925.8138 v 679.16663 h -925.8138 z"
         clip-rule="evenodd"
         id="path137" />
    </clipPath>
    <clipPath
       clipPathUnits="userSpaceOnUse"
       id="clipPath139">
      <path
         d="m 1145.0931,893.41667 h 925.8138 v 679.16663 h -925.8138 z"
         transform="matrix(0.24000001,0,0,0.24000001,-256.82235,-197.42001)"
         clip-rule="evenodd"
         id="path139" />
    </clipPath>
    <clipPath
       clipPathUnits="userSpaceOnUse"
       id="clipPath141">
      <path
         d="m 1145.0931,893.41667 h 925.8138 v 679.16663 h -925.8138 z"
         clip-rule="evenodd"
         id="path141" />
    </clipPath>
    <clipPath
       clipPathUnits="userSpaceOnUse"
       id="clipPath143">
      <path
         d="m 1145.0931,893.41667 h 925.8138 v 679.16663 h -925.8138 z"
         transform="matrix(0.24000001,0,0,0.24000001,-256.82235,-197.42001)"
         clip-rule="evenodd"
         id="path143" />
    </clipPath>
    <clipPath
       clipPathUnits="userSpaceOnUse"
       id="clipPath145">
      <path
         d="m 1145.0931,893.41667 h 925.8138 v 679.16663 h -925.8138 z"
         clip-rule="evenodd"
         id="path145" />
    </clipPath>
    <clipPath
       clipPathUnits="userSpaceOnUse"
       id="clipPath147">
      <path
         d="m 1145.0931,893.41667 h 925.8138 v 679.16663 h -925.8138 z"
         transform="matrix(0.24000001,0,0,0.24000001,-256.82235,-197.42001)"
         clip-rule="evenodd"
         id="path147" />
    </clipPath>
    <clipPath
       clipPathUnits="userSpaceOnUse"
       id="clipPath149">
      <path
         d="m 1145.0931,893.41667 h 925.8138 v 679.16663 h -925.8138 z"
         clip-rule="evenodd"
         id="path149" />
    </clipPath>
    <clipPath
       clipPathUnits="userSpaceOnUse"
       id="clipPath151">
      <path
         d="m 1145.0931,893.41667 h 925.8138 v 679.16663 h -925.8138 z"
         transform="matrix(0.24000001,0,0,0.24000001,-256.82235,-197.42001)"
         clip-rule="evenodd"
         id="path151" />
    </clipPath>
  </defs>
  <sodipodi:namedview
     id="namedview1"
     pagecolor="#ffffff"
     bordercolor="#000000"
     borderopacity="0.25"
     inkscape:showpageshadow="2"
     inkscape:pageopacity="0.0"
     inkscape:pagecheckerboard="0"
     inkscape:deskcolor="#d1d1d1"
     inkscape:zoom="0.8567632"
     inkscape:cx="101.54498"
     inkscape:cy="162.82212"
     inkscape:window-width="1920"
     inkscape:window-height="1121"
     inkscape:window-x="-9"
     inkscape:window-y="-9"
     inkscape:window-maximized="1"
     inkscape:current-layer="svg1">
    <inkscape:page
       x="0"
       y="0"
       inkscape:label="1"
       id="page1"
       width="350"
       height="260"
       margin="0"
       bleed="0" />
  </sodipodi:namedview>
  <rect
     style="fill:#ffffff;stroke-width:1.10162"
     id="rect151"
     width="350"
     height="260"
     x="351.85333"
     y="276.55188"
     transform="translate(-351.85332,-276.55188)" />
  <g
     id="g1"
     inkscape:groupmode="layer"
     inkscape:label="1"
     transform="translate(-351.85332,-276.55188)">
    <path
       id="path2"
       d="M 0,0 H 5 V 40 H 0 Z"
       style="fill:#ffffff;fill-opacity:1;fill-rule:nonzero;stroke:none"
       transform="matrix(1.3333333,0,0,1.3333333,475.86979,370)"
       clip-path="url(#clipPath3)" />
    <path
       id="path5"
       d="m 1445.0931,1114.25 h 20.8333 v 166.6667 h -20.8333 z"
       style="fill:#000000;fill-opacity:1;fill-rule:evenodd;stroke:none"
       transform="matrix(0.32,0,0,0.32,13.44,13.440001)"
       clip-path="url(#clipPath6)" />
    <path
       id="path7"
       d="M 0,0 H 5 V 40 H 0 Z"
       style="fill:none;stroke:#000000;stroke-width:0.565047;stroke-linecap:butt;stroke-linejoin:miter;stroke-miterlimit:2;stroke-dasharray:none;stroke-opacity:1"
       transform="matrix(1.3333333,0,0,1.3333333,475.86979,370)"
       clip-path="url(#clipPath8)" />
    <path
       id="path9"
       d="M 0,0 H 50 V 24 H 0 Z"
       style="fill:#ffffff;fill-opacity:1;fill-rule:nonzero;stroke:none"
       transform="matrix(1.3333333,0,0,1.3333333,529.20312,307.33333)"
       clip-path="url(#clipPath10)" />
    <path
       id="path12"
       d="M 0.72656302,-8.3440003e-7 V -7.1601571 H 1.6757818 v 6.31640626 H 5.2031255 V -8.3440003e-7 Z M 5.874024,-2.5898446 c 0,-0.9609375 0.2695312,-1.6699219 0.8085937,-2.1328125 0.4365235,-0.3808594 0.9785156,-0.5742187 1.6289063,-0.5742187 0.7089843,0 1.2919922,0.2314453 1.746094,0.6914062 0.451172,0.46875 0.679687,1.1191406 0.679687,1.9453125 0,0.6650391 -0.102539,1.1894531 -0.304687,1.5703125 -0.196289,0.38378908 -0.4863284,0.67968751 -0.8671878,0.89062502 -0.3925781,0.2109375 -0.8085937,0.31640625 -1.2539062,0.31640625 -0.7353516,0 -1.3212891,-0.234375 -1.7578125,-0.70312501 C 6.0996099,-1.0458993 5.874024,-1.713868 5.874024,-2.5898446 Z m 0.9023437,0 c 0,0.6650391 0.1435547,1.1601563 0.4335938,1.4882813 0.2871093,0.32812496 0.65625,0.49218746 1.1015625,0.49218746 0.4277343,0 0.7910156,-0.1640625 1.0898437,-0.49218746 0.28125,-0.3339844 0.4248047,-0.84375 0.4335938,-1.5234375 -0.00879,-0.6328125 -0.1523438,-1.116211 -0.4335938,-1.453125 -0.2988281,-0.328125 -0.6621094,-0.4921875 -1.0898437,-0.4921875 -0.4453125,0 -0.8144532,0.1640625 -1.1015625,0.4921875 -0.2900391,0.328125 -0.4335938,0.8261718 -0.4335938,1.4882812 z M 12.711915,-8.3440003e-7 11.118165,-5.1796883 h 0.914062 l 0.820313,2.9882812 0.316406,1.1132813 c 0.0059,-0.052734 0.09668,-0.4101563 0.269531,-1.0664063 l 0.820313,-3.0351562 h 0.902343 l 0.773438,3 0.257812,0.9960937 0.304688,-1.0078125 0.878906,-2.9882812 h 0.855469 L 16.614258,-8.3440003e-7 H 15.700196 L 14.879883,-3.1054696 14.680665,-3.9843758 13.625977,-8.3440003e-7 Z M 18.969727,1.9921867 v -7.171875 h 0.808594 v 0.6679687 c 0.178711,-0.2636719 0.389648,-0.4628906 0.632812,-0.5976562 0.240235,-0.1230469 0.530274,-0.1875 0.867188,-0.1875 0.436523,0 0.826172,0.1142578 1.171875,0.3398437 0.333984,0.2285156 0.588867,0.5478516 0.761719,0.9609375 0.169921,0.421875 0.257812,0.8789063 0.257812,1.3710938 0,0.5332031 -0.09375,1.0078125 -0.28125,1.4296875 -0.1875,0.42187496 -0.46582,0.74707028 -0.832031,0.97265622 -0.369141,0.22558593 -0.75,0.33984375 -1.148438,0.33984375 -0.290039,0 -0.550781,-0.06445313 -0.785156,-0.1875 -0.234375,-0.1171875 -0.427734,-0.27246094 -0.574219,-0.46875001 V 1.9921867 Z m 0.796875,-4.5585938 c 0,0.6738281 0.134766,1.1689453 0.410156,1.4882813 0.263672,0.31347653 0.588868,0.46874996 0.972657,0.46874996 0.389648,0 0.726562,-0.1640625 1.007812,-0.49218746 0.28125,-0.328125 0.421875,-0.8378907 0.421875,-1.5351563 -0.0088,-0.65625 -0.146484,-1.1513672 -0.410156,-1.4882812 -0.275391,-0.319336 -0.597656,-0.4833985 -0.972656,-0.4921875 -0.383789,0.00879 -0.714844,0.1845703 -0.996094,0.5273437 -0.290039,0.3515625 -0.433594,0.8613281 -0.433594,1.5234375 z m 8.135742,1.92187501 c -0.328125,0.28125001 -0.641601,0.47753907 -0.9375,0.58593751 -0.304687,0.1171875 -0.629883,0.17578125 -0.972656,0.17578125 -0.571289,0 -1.007812,-0.140625 -1.3125,-0.421875 -0.313477,-0.27246094 -0.46582,-0.62695313 -0.457031,-1.06640627 0,-0.2490234 0.05859,-0.4804687 0.175781,-0.6914062 0.108398,-0.2109375 0.260742,-0.3779297 0.457031,-0.5039063 0.178711,-0.1230469 0.386719,-0.2226562 0.621094,-0.2929687 0.169922,-0.038086 0.433594,-0.082031 0.785156,-0.1289063 0.703125,-0.076172 1.22461,-0.1787109 1.570313,-0.3046875 0,-0.1171875 0,-0.1904297 0,-0.2226562 0,-0.3574219 -0.09961,-0.6240235 -0.292969,-0.796875 -0.196289,-0.1699219 -0.515625,-0.2578125 -0.960937,-0.2578125 -0.416016,0 -0.714844,0.070312 -0.902344,0.2109375 -0.205078,0.149414 -0.351563,0.4072265 -0.445313,0.7734375 l -0.855468,-0.1171875 c 0.07031,-0.366211 0.199218,-0.6621094 0.386718,-0.890625 0.178711,-0.225586 0.436524,-0.4013672 0.773438,-0.5273438 0.333984,-0.1171875 0.726562,-0.1757812 1.171875,-0.1757812 0.436523,0 0.796875,0.052734 1.078125,0.1523437 0.272461,0.1025391 0.474609,0.2314453 0.609375,0.3867188 0.131836,0.1640625 0.225586,0.3691406 0.28125,0.609375 0.02344,0.149414 0.03516,0.4189453 0.03516,0.8085937 v 1.171875 c 0,0.8144531 0.01758,1.33007814 0.05859,1.54687501 0.03809,0.21972657 0.111328,0.42773438 0.222656,0.62109375559997 H 28.078126 C 27.984376,-0.17871177 27.925782,-0.39257896 27.902344,-0.64453209 Z m -0.07031,-1.95703121 c -0.322266,0.1347656 -0.802735,0.243164 -1.441406,0.328125 -0.360352,0.055664 -0.615235,0.1142578 -0.761719,0.1757812 -0.158203,0.070312 -0.275391,0.1640625 -0.351563,0.28125 -0.08789,0.1347656 -0.128906,0.2988281 -0.128906,0.4921875 0,0.1875 0.09375,0.36035158 0.28125,0.51562501 0.169922,0.15820313 0.427734,0.234375 0.773438,0.234375 0.333984,0.008789 0.635742,-0.0644531 0.902343,-0.22265625 0.263672,-0.140625 0.459961,-0.34277346 0.585938,-0.60937496 0.08496,-0.1933594 0.131836,-0.4863282 0.140625,-0.8789063 z m 1.87793,1.0546875 0.867187,-0.140625 c 0.05273,0.3515625 0.19043,0.6210937 0.410156,0.80859371 0.216797,0.18164063 0.530274,0.26953125 0.9375,0.26953125 0.404297,0 0.706055,-0.0820313 0.902344,-0.24609375 0.193359,-0.15527341 0.292969,-0.34570311 0.292969,-0.57421871 -0.0088,-0.1933594 -0.09961,-0.3515625 -0.269531,-0.46875 -0.117188,-0.076172 -0.416016,-0.1757813 -0.890625,-0.2929688 -0.650391,-0.1640625 -1.095704,-0.3076172 -1.335938,-0.4335937 -0.251953,-0.1171875 -0.442383,-0.28125 -0.574219,-0.4921875 -0.134765,-0.2021485 -0.196289,-0.4335938 -0.1875,-0.6914063 0,-0.2255859 0.0498,-0.4394531 0.152344,-0.6445312 0.09961,-0.1875 0.246094,-0.3515625 0.433594,-0.4921875 0.131836,-0.09375 0.319336,-0.178711 0.5625,-0.2578125 0.234375,-0.061524 0.518554,-0.09375 0.855469,-0.09375 0.333984,0 0.659179,0.058594 0.972656,0.1757812 0.304687,0.1171875 0.530273,0.2753906 0.679687,0.46875 0.146485,0.2050781 0.249024,0.4746094 0.304688,0.8085938 l -0.855469,0.1171875 c -0.04102,-0.2636719 -0.152344,-0.4746094 -0.339844,-0.6328125 -0.196289,-0.1464844 -0.46289,-0.2226563 -0.796875,-0.2226563 -0.407226,0.00879 -0.697265,0.076172 -0.867187,0.1992188 -0.172852,0.1347656 -0.257813,0.290039 -0.257813,0.46875 0,0.1171875 0.03516,0.2226562 0.105469,0.3164062 0.07617,0.09375 0.19043,0.1728516 0.339844,0.234375 0.08496,0.032227 0.389648,0.1171875 0.914062,0.2578125 0.521485,0.140625 0.914063,0.2636719 1.171875,0.3632813 0.234375,0.1171875 0.424805,0.2753906 0.574219,0.46875 0.140625,0.2050781 0.210938,0.4541015 0.210938,0.75 0,0.2988281 -0.08789,0.57128903 -0.257813,0.82031246 -0.172852,0.26660157 -0.418945,0.46875001 -0.738281,0.60937501 -0.328125,0.140625 -0.697266,0.2109375 -1.101563,0.2109375 -0.673828,0 -1.183593,-0.140625 -1.535156,-0.421875 -0.360352,-0.27246094 -0.585937,-0.68554688 -0.679687,-1.24218747 z m 5.000976,0 0.867188,-0.140625 c 0.05273,0.3515625 0.190429,0.6210937 0.410156,0.80859371 0.216797,0.18164063 0.530273,0.26953125 0.9375,0.26953125 0.404297,0 0.706055,-0.0820313 0.902344,-0.24609375 0.193359,-0.15527341 0.292968,-0.34570311 0.292968,-0.57421871 -0.0088,-0.1933594 -0.09961,-0.3515625 -0.269531,-0.46875 -0.117187,-0.076172 -0.416016,-0.1757813 -0.890625,-0.2929688 -0.650391,-0.1640625 -1.095703,-0.3076172 -1.335937,-0.4335937 -0.251954,-0.1171875 -0.442383,-0.28125 -0.574219,-0.4921875 -0.134766,-0.2021485 -0.196289,-0.4335938 -0.1875,-0.6914063 0,-0.2255859 0.0498,-0.4394531 0.152344,-0.6445312 0.09961,-0.1875 0.246093,-0.3515625 0.433593,-0.4921875 0.131836,-0.09375 0.319336,-0.178711 0.5625,-0.2578125 0.234375,-0.061524 0.518555,-0.09375 0.855469,-0.09375 0.333984,0 0.65918,0.058594 0.972656,0.1757812 0.304688,0.1171875 0.530274,0.2753906 0.679688,0.46875 0.146484,0.2050781 0.249023,0.4746094 0.304687,0.8085938 l -0.855468,0.1171875 c -0.04102,-0.2636719 -0.152344,-0.4746094 -0.339844,-0.6328125 -0.196289,-0.1464844 -0.462891,-0.2226563 -0.796875,-0.2226563 -0.407227,0.00879 -0.697266,0.076172 -0.867188,0.1992188 -0.172851,0.1347656 -0.257812,0.290039 -0.257812,0.46875 0,0.1171875 0.03516,0.2226562 0.105469,0.3164062 0.07617,0.09375 0.190429,0.1728516 0.339843,0.234375 0.08496,0.032227 0.389649,0.1171875 0.914063,0.2578125 0.521484,0.140625 0.914062,0.2636719 1.171875,0.3632813 0.234375,0.1171875 0.424805,0.2753906 0.574219,0.46875 0.140625,0.2050781 0.210937,0.4541015 0.210937,0.75 0,0.2988281 -0.08789,0.57128903 -0.257812,0.82031246 -0.172852,0.26660157 -0.418946,0.46875001 -0.738282,0.60937501 -0.328125,0.140625 -0.697265,0.2109375 -1.101562,0.2109375 -0.673828,0 -1.183594,-0.140625 -1.535156,-0.421875 C 35.030276,-0.57714927 34.80469,-0.99023521 34.71094,-1.5468758 Z m 0,0"
       style="fill:#000000;fill-opacity:1;fill-rule:nonzero;stroke:none"
       aria-label="Lowpass"
       transform="matrix(1.3333333,0,0,1.3333333,536.26562,328)"
       clip-path="url(#clipPath13)" />
    <path
       id="path14"
       d="M 0,0 H 50 V 24 H 0 Z"
       style="fill:none;stroke:#000000;stroke-width:0.565047;stroke-linecap:butt;stroke-linejoin:miter;stroke-miterlimit:2;stroke-dasharray:none;stroke-opacity:1"
       transform="matrix(1.3333333,0,0,1.3333333,529.20312,307.33333)"
       clip-path="url(#clipPath15)" />
    <path
       id="path16"
       d="M 0,0 H 28 V 30 H 0 Z"
       style="fill:#ffffff;fill-opacity:1;fill-rule:nonzero;stroke:none"
       transform="matrix(1.3333333,0,0,1.3333333,430.53646,316.66667)"
       clip-path="url(#clipPath17)" />
    <path
       id="path25"
       d="M 7.0666693,5.2000002 H 24.133322 c 1.030932,0 1.866667,0.8954301 1.866667,2 V 16 c 0,1.10457 -0.835735,2 -1.866667,2 H 7.0666693 C 6.0357374,18 5.2000026,17.10457 5.2000026,16 V 7.2000002 c 0,-1.1045699 0.8357348,-2 1.8666667,-2 z"
       style="fill:none;stroke:#000000;stroke-width:1.3;stroke-linecap:round;stroke-linejoin:round;stroke-miterlimit:10;stroke-dasharray:none;stroke-opacity:1"
       transform="matrix(1.3333333,0,0,1.3333333,428.40302,315.33323)"
       clip-path="url(#clipPath26)" />
    <path
       id="path30"
       d="M 0,0 H 28 V 30 H 0 Z"
       style="fill:none;stroke:#000000;stroke-width:0.565047;stroke-linecap:butt;stroke-linejoin:miter;stroke-miterlimit:2;stroke-dasharray:none;stroke-opacity:1"
       transform="matrix(1.3333333,0,0,1.3333333,430.53646,316.66667)"
       clip-path="url(#clipPath31)" />
    <g
       id="g33"
       clip-path="url(#clipPath34)">
      <path
         d="m 0.49218785,0.43456957 0.85546875,0.1171875 c 0.038086,0.26367188 0.1523438,0.46875003 0.3398438,0.60937503 0.1933593,0.140625 0.4804687,0.2109375 0.8554687,0.2109375 0.4042969,0 0.7177734,-0.079102 0.9375,-0.234375 0.2167969,-0.16406253 0.3691406,-0.39550784 0.4570313,-0.69140628 0.038086,-0.18164062 0.058594,-0.55371094 0.058594,-1.125 C 3.612305,-0.22461012 3.134766,9.758201e-4 2.5664066,9.758201e-4 1.8457035,9.758201e-4 1.2919925,-0.25683668 0.9023441,-0.77246168 0.50976598,-1.2792976 0.3164066,-1.8974617 0.3164066,-2.6240242 c 0,-0.4921875 0.0878906,-0.9492187 0.26953125,-1.3710937 0.17871094,-0.413086 0.43945315,-0.7324219 0.78515625,-0.9609375 0.3339844,-0.225586 0.7324219,-0.3398438 1.1953125,-0.3398438 0.609375,0 1.1132813,0.2460938 1.5117188,0.7382813 v -0.6210938 h 0.8085937 v 4.47656252 c 0,0.80273438 -0.079102,1.37402344 -0.234375,1.71093748 C 4.4794925,1.3515618 4.2187504,1.621093 3.8671879,1.8173821 3.5068363,2.0107414 3.0644535,2.1103508 2.5429691,2.1103508 1.924805,2.1103508 1.4296879,1.9697258 1.0546879,1.6884758 0.66210973,1.4130852 0.47460973,0.99706957 0.49218785,0.43456957 Z M 1.2304691,-2.6826179 c 0,0.6796875 0.1318359,1.1777343 0.3984375,1.4882812 0.2636719,0.31347658 0.6035156,0.46875002 1.0195313,0.46875002 0.3984375,0 0.7324218,-0.15527344 1.0078125,-0.46875002 0.2724609,-0.3046875 0.4101562,-0.7910156 0.4101562,-1.4648437 0,-0.6328125 -0.1376953,-1.1074219 -0.4101562,-1.4296875 -0.2900391,-0.319336 -0.6328125,-0.4804688 -1.03125,-0.4804688 -0.3837891,0 -0.7119141,0.1582031 -0.984375,0.46875 -0.2753907,0.3222656 -0.4101563,0.7939453 -0.4101563,1.4179688 z M 6.19043,9.758201e-4 V -5.1787117 h 0.7968751 v 0.7851563 c 0.1933593,-0.366211 0.3808593,-0.609375 0.5625,-0.7265625 0.1640625,-0.1171875 0.3691406,-0.1757813 0.6210937,-0.1757813 0.2490234,0 0.5302734,0.09375 0.84375,0.28125 l -0.3046875,0.8085938 c -0.2197266,-0.1230469 -0.4335937,-0.1875 -0.6445312,-0.1875 -0.1962891,0.00879 -0.3691407,0.067383 -0.515625,0.1757812 -0.1582032,0.1171875 -0.2783204,0.3046875 -0.3632813,0.5625 -0.079102,0.2578125 -0.1171875,0.5712891 -0.1171875,0.9375 V 9.758201e-4 Z M 9.2021488,-2.5888679 c 0,-0.9609375 0.2695313,-1.6699219 0.8085942,-2.1328125 0.436523,-0.3808594 0.978515,-0.5742188 1.628906,-0.5742188 0.708984,0 1.291992,0.2314453 1.746094,0.6914063 0.451171,0.46875 0.679687,1.1191406 0.679687,1.9453125 0,0.665039 -0.102539,1.1894531 -0.304687,1.5703125 -0.19629,0.38378903 -0.486329,0.67968747 -0.867188,0.89062497 -0.392578,0.2109375 -0.808594,0.31640625 -1.253906,0.31640625 -0.735352,0 -1.321289,-0.234375 -1.7578127,-0.703125 C 9.4277347,-1.0449226 9.2021488,-1.7128914 9.2021488,-2.5888679 Z m 0.9023442,0 c 0,0.665039 0.143554,1.1601562 0.433593,1.4882812 0.28711,0.32812502 0.65625,0.49218752 1.101563,0.49218752 0.427734,0 0.791015,-0.1640625 1.089844,-0.49218752 0.28125,-0.3339844 0.424804,-0.84375 0.433593,-1.5234375 -0.0088,-0.6328125 -0.152343,-1.1162109 -0.433593,-1.453125 -0.298829,-0.328125 -0.66211,-0.4921875 -1.089844,-0.4921875 -0.445313,0 -0.814453,0.1640625 -1.101563,0.4921875 -0.290039,0.328125 -0.433593,0.8261719 -0.433593,1.4882813 z M 18.477539,9.758201e-4 V -0.76074293 c -0.407226,0.5859375 -0.955078,0.87890625 -1.640625,0.87890625 -0.313476,0 -0.597656,-0.05859375 -0.855468,-0.17578125 -0.275391,-0.1171875 -0.47461,-0.26367188 -0.597657,-0.4453125 -0.134765,-0.16992188 -0.222656,-0.38671875 -0.269531,-0.64453127 -0.03223,-0.1699219 -0.04687,-0.4453125 -0.04687,-0.8203125 v -3.2109375 h 0.878906 v 2.8710938 c 0,0.4628906 0.01758,0.7910156 0.05859,0.984375 0.04687,0.196289 0.158203,0.35742184 0.339844,0.48046872 0.178711,0.13476562 0.401367,0.19921875 0.667969,0.19921875 0.257812,0 0.503906,-0.0644531 0.738281,-0.19921875 0.225586,-0.13183594 0.389648,-0.31640622 0.492187,-0.55078122 0.09375,-0.225586 0.140625,-0.5625 0.140625,-1.0078125 v -2.7773438 h 0.878907 V 9.758201e-4 Z M 20.625,1.9931633 v -7.171875 h 0.808594 v 0.6679688 c 0.178711,-0.2636719 0.389649,-0.4628907 0.632813,-0.5976563 0.240234,-0.1230469 0.530273,-0.1875 0.867187,-0.1875 0.436524,0 0.826172,0.1142578 1.171875,0.3398438 0.333985,0.2285156 0.588867,0.5478515 0.761719,0.9609375 0.169922,0.421875 0.257812,0.8789062 0.257812,1.3710937 0,0.5332031 -0.09375,1.0078125 -0.28125,1.4296875 -0.1875,0.42187502 -0.46582,0.74707033 -0.832031,0.97265627 -0.36914,0.22558594 -0.75,0.33984375 -1.148437,0.33984375 -0.290039,0 -0.550782,-0.06445312 -0.785157,-0.1875 -0.234375,-0.1171875 -0.427734,-0.27246094 -0.574218,-0.46875 V 1.9931633 Z m 0.796875,-4.5585937 c 0,0.6738281 0.134766,1.1689453 0.410157,1.4882812 0.263672,0.31347658 0.588867,0.46875002 0.972656,0.46875002 0.389648,0 0.726562,-0.1640625 1.007812,-0.49218752 0.28125,-0.328125 0.421875,-0.8378906 0.421875,-1.5351562 -0.0088,-0.65625 -0.146484,-1.1513672 -0.410156,-1.4882813 -0.27539,-0.3193359 -0.597656,-0.4833984 -0.972656,-0.4921875 -0.383789,0.00879 -0.714844,0.1845703 -0.996094,0.5273438 -0.290039,0.3515625 -0.433594,0.8613281 -0.433594,1.5234375 z m 0,0"
         style="fill:#000000;fill-opacity:1;fill-rule:nonzero;stroke:none"
         aria-label="group"
         transform="matrix(1.3333333,0,0,1.3333333,388.51562,332.66667)"
         clip-path="url(#clipPath32)"
         id="path33" />
    </g>
    <path
       id="path35"
       d="m 0.30468785,-1.5468757 0.86718755,-0.140625 c 0.052734,0.3515625 0.1904296,0.6210937 0.4101562,0.80859373 0.2167969,0.18164062 0.5302734,0.26953125 0.9375,0.26953125 0.4042969,0 0.7060547,-0.0820313 0.9023438,-0.24609375 C 3.6152347,-1.0107429 3.7148441,-1.2011726 3.7148441,-1.4296882 3.706055,-1.6230476 3.6152347,-1.7812507 3.4453129,-1.8984382 3.3281254,-1.9746101 3.0292972,-2.0742195 2.5546879,-2.191407 1.9042972,-2.3554695 1.4589847,-2.4990242 1.2187504,-2.6250007 0.96679723,-2.7421882 0.77636754,-2.9062507 0.6445316,-3.1171882 0.50976598,-3.3193367 0.44824254,-3.550782 0.4570316,-3.8085945 c 0,-0.2255859 0.0498047,-0.4394531 0.15234375,-0.6445312 0.0996094,-0.1875 0.24609375,-0.3515625 0.43359375,-0.4921875 0.1318359,-0.09375 0.3193359,-0.178711 0.5625,-0.2578125 0.234375,-0.061523 0.5185547,-0.09375 0.8554688,-0.09375 0.3339843,0 0.6591796,0.058594 0.9726562,0.1757812 0.3046875,0.1171875 0.5302734,0.2753906 0.6796875,0.46875 0.1464844,0.2050781 0.2490234,0.4746094 0.3046875,0.8085938 L 3.5625004,-3.7265632 C 3.5214847,-3.9902351 3.4101566,-4.2011726 3.2226566,-4.3593757 3.0263675,-4.5058601 2.759766,-4.582032 2.4257816,-4.582032 2.018555,-4.573242 1.728516,-4.50586 1.5585941,-4.3828132 c -0.1728516,0.1347656 -0.2578125,0.290039 -0.2578125,0.46875 0,0.1171875 0.035156,0.2226562 0.1054688,0.3164062 0.076172,0.09375 0.1904296,0.1728516 0.3398437,0.234375 0.084961,0.032227 0.3896484,0.1171875 0.9140625,0.2578125 0.5214844,0.140625 0.9140625,0.2636719 1.171875,0.3632813 0.234375,0.1171875 0.4248047,0.2753906 0.5742188,0.46875 0.140625,0.2050781 0.2109375,0.4541015 0.2109375,0.75 0,0.2988281 -0.087891,0.57128904 -0.2578125,0.82031248 -0.1728516,0.26660156 -0.4189454,0.46875 -0.7382813,0.609375 -0.328125,0.140625 -0.6972656,0.2109375 -1.1015625,0.2109375 -0.6738281,0 -1.1835937,-0.140625 -1.53515625,-0.421875 C 0.62402379,-0.57714916 0.39843785,-0.9902351 0.30468785,-1.5468757 Z m 5.36425785,-4.59375 V -7.160157 h 0.8789062 v 1.0195313 z m 0,6.14062497839991 V -5.1796882 H 6.5478519 V -7.2160009e-7 Z M 7.7109379,0.43359303 8.5664066,0.55078053 C 8.6044926,0.8144524 8.7187504,1.0195305 8.9062504,1.1601555 9.0996097,1.3007805 9.3867191,1.371093 9.7617191,1.371093 c 0.4042969,0 0.7177739,-0.079101 0.9374999,-0.234375 0.216797,-0.16406247 0.369141,-0.39550778 0.457031,-0.69140622 0.03809,-0.18164063 0.05859,-0.55371094 0.05859,-1.125 C 10.831055,-0.22558666 10.353516,-7.2160009e-7 9.7851566,-7.2160009e-7 9.0644535,-7.2160009e-7 8.5107426,-0.25781322 8.1210941,-0.77343822 7.728516,-1.2802742 7.5351566,-1.8984382 7.5351566,-2.6250007 c 0,-0.4921875 0.087891,-0.9492188 0.2695313,-1.3710938 0.1787109,-0.4130859 0.4394531,-0.7324219 0.7851562,-0.9609375 0.3339844,-0.2255859 0.7324219,-0.3398437 1.1953125,-0.3398437 0.6093754,0 1.1132814,0.2460937 1.5117184,0.7382812 v -0.6210937 h 0.808594 v 4.47656248 c 0,0.80273437 -0.0791,1.37402344 -0.234375,1.71093752 -0.172851,0.3427734 -0.433594,0.6123047 -0.785156,0.8085937 -0.360352,0.1933594 -0.802735,0.2929688 -1.3242189,0.2929688 -0.618164,0 -1.1132812,-0.140625 -1.4882812,-0.421875 C 7.8808597,1.4121087 7.6933597,0.99609303 7.7109379,0.43359303 Z M 8.4492191,-2.6835945 c 0,0.6796875 0.131836,1.1777344 0.3984375,1.4882813 0.2636719,0.31347654 0.6035156,0.46874998 1.0195313,0.46874998 0.3984371,0 0.7324221,-0.15527344 1.0078121,-0.46874998 0.272461,-0.3046875 0.410157,-0.7910156 0.410157,-1.4648438 0,-0.6328125 -0.137696,-1.1074219 -0.410157,-1.4296875 -0.290039,-0.3193359 -0.632812,-0.4804687 -1.0312496,-0.4804687 -0.3837891,0 -0.7119141,0.1582031 -0.984375,0.46875 -0.2753907,0.3222656 -0.4101563,0.7939453 -0.4101563,1.4179687 z M 13.420899,-7.2160009e-7 V -5.1796882 h 0.796875 v 0.7382812 c 0.375,-0.5683594 0.919922,-0.8554687 1.640625,-0.8554687 0.310547,0 0.600586,0.055664 0.867187,0.1640625 0.257813,0.1171875 0.451172,0.2666015 0.585938,0.4453125 0.123047,0.1816406 0.216797,0.3955078 0.28125,0.6445312 0.0293,0.1640625 0.04687,0.4511719 0.04687,0.8554688 V -7.2160009e-7 H 16.760743 V -3.1523445 c 0,-0.3515625 -0.03516,-0.6210937 -0.105469,-0.8085937 -0.07031,-0.1699219 -0.19336,-0.3105469 -0.363281,-0.421875 -0.172852,-0.099609 -0.416016,-0.1523438 -0.726563,-0.1523438 -0.304687,0 -0.591797,0.1171875 -0.855469,0.3515625 -0.27539,0.2431641 -0.410156,0.6914063 -0.410156,1.3476563 V -7.2160009e-7 Z M 22.356446,-0.64453197 c -0.328125,0.28125 -0.641602,0.47753906 -0.9375,0.5859375 -0.304688,0.1171875 -0.629883,0.17578125 -0.972657,0.17578125 -0.571289,0 -1.007812,-0.140625 -1.3125,-0.421875 -0.313476,-0.27246094 -0.46582,-0.62695313 -0.457031,-1.06640628 0,-0.2490234 0.05859,-0.4804687 0.175781,-0.6914062 0.108399,-0.2109375 0.260743,-0.3779297 0.457032,-0.5039063 0.178711,-0.1230469 0.386718,-0.2226562 0.621093,-0.2929687 0.169922,-0.038086 0.433594,-0.082031 0.785157,-0.1289063 0.703125,-0.076172 1.224609,-0.1787109 1.570312,-0.3046875 0,-0.1171875 0,-0.1904297 0,-0.2226562 0,-0.3574219 -0.09961,-0.6240235 -0.292969,-0.796875 -0.196289,-0.1699219 -0.515625,-0.2578125 -0.960937,-0.2578125 -0.416016,0 -0.714844,0.070312 -0.902344,0.2109375 -0.205078,0.149414 -0.351562,0.4072265 -0.445312,0.7734375 l -0.855469,-0.1171875 c 0.07031,-0.366211 0.199219,-0.6621094 0.386719,-0.890625 0.178711,-0.225586 0.436523,-0.4013672 0.773437,-0.5273438 0.333985,-0.1171875 0.726563,-0.1757812 1.171875,-0.1757812 0.436524,0 0.796875,0.052734 1.078125,0.1523437 0.272461,0.1025391 0.47461,0.2314453 0.609375,0.3867188 0.131836,0.1640625 0.225586,0.3691406 0.28125,0.609375 0.02344,0.149414 0.03516,0.4189453 0.03516,0.8085937 v 1.171875 c 0,0.8144532 0.01758,1.33007815 0.05859,1.54687503 0.03809,0.21972656 0.111328,0.42773437 0.222656,0.62109374839991 H 22.532227 C 22.438477,-0.17871166 22.379883,-0.39257885 22.356446,-0.64453197 Z m -0.07031,-1.95703123 c -0.322265,0.1347656 -0.802734,0.243164 -1.441406,0.328125 -0.360352,0.055664 -0.615234,0.1142578 -0.761719,0.1757812 -0.158203,0.070312 -0.27539,0.1640625 -0.351562,0.28125 -0.08789,0.1347657 -0.128907,0.2988282 -0.128907,0.4921875 0,0.1875 0.09375,0.36035159 0.28125,0.51562503 0.169922,0.15820312 0.427735,0.234375 0.773438,0.234375 0.333984,0.008789 0.635742,-0.0644531 0.902344,-0.22265625 0.263672,-0.140625 0.459961,-0.34277348 0.585937,-0.60937498 0.08496,-0.1933594 0.131836,-0.4863281 0.140625,-0.8789063 z M 24.503907,-7.2160009e-7 V -7.160157 h 0.878906 V -7.2160009e-7 Z m 0,0"
       style="fill:#000000;fill-opacity:1;fill-rule:nonzero;stroke:none"
       aria-label="signal"
       transform="matrix(1.3333333,0,0,1.3333333,387.76562,350)"
       clip-path="url(#clipPath36)" />
    <path
       id="path37"
       d="M 0,0 H 50 V 24 H 0 Z"
       style="fill:#ffffff;fill-opacity:1;fill-rule:nonzero;stroke:none"
       transform="matrix(1.3333333,0,0,1.3333333,529.20312,380.66667)"
       clip-path="url(#clipPath38)" />
    <path
       id="path42"
       d="M 0,0 H 50 V 24 H 0 Z"
       style="fill:#ffffff;fill-opacity:1;fill-rule:nonzero;stroke:#000000;stroke-width:0.565047;stroke-linecap:butt;stroke-linejoin:miter;stroke-miterlimit:2;stroke-dasharray:none;stroke-opacity:1;paint-order:stroke fill markers"
       transform="matrix(1.3333333,0,0,1.3333333,529.20312,380.66667)"
       clip-path="url(#clipPath43)" />
    <path
       id="path40"
       d="M 0.72656302,-9.767569e-4 V -7.161133 H 1.6757818 v 6.31640624 H 5.2031255 V -9.767569e-4 Z M 5.874024,-2.5908205 c 0,-0.9609375 0.2695312,-1.6699219 0.8085937,-2.1328125 0.4365235,-0.3808594 0.9785156,-0.5742188 1.6289063,-0.5742188 0.7089843,0 1.2919922,0.2314453 1.746094,0.6914063 0.451172,0.46875 0.679687,1.1191406 0.679687,1.9453125 0,0.6650391 -0.102539,1.1894531 -0.304687,1.5703125 -0.196289,0.38378905 -0.4863284,0.67968749 -0.8671878,0.89062499 -0.3925781,0.2109375 -0.8085937,0.31640625 -1.2539062,0.31640625 -0.7353516,0 -1.3212891,-0.234375 -1.7578125,-0.703125 C 6.0996099,-1.0468752 5.874024,-1.7148439 5.874024,-2.5908205 Z m 0.9023437,0 c 0,0.6650391 0.1435547,1.1601562 0.4335938,1.4882812 0.2871093,0.32812504 0.65625,0.49218754 1.1015625,0.49218754 0.4277343,0 0.7910156,-0.1640625 1.0898437,-0.49218754 0.28125,-0.3339843 0.4248047,-0.84375 0.4335938,-1.5234375 -0.00879,-0.6328125 -0.1523438,-1.1162109 -0.4335938,-1.453125 -0.2988281,-0.328125 -0.6621094,-0.4921875 -1.0898437,-0.4921875 -0.4453125,0 -0.8144532,0.1640625 -1.1015625,0.4921875 -0.2900391,0.328125 -0.4335938,0.8261719 -0.4335938,1.4882813 z M 12.711915,-9.767569e-4 11.118165,-5.1806643 h 0.914062 l 0.820313,2.9882813 0.316406,1.1132812 c 0.0059,-0.052734 0.09668,-0.4101562 0.269531,-1.0664062 l 0.820313,-3.0351563 h 0.902343 l 0.773438,3 0.257812,0.9960938 0.304688,-1.0078125 0.878906,-2.9882813 h 0.855469 L 16.614258,-9.767569e-4 H 15.700196 L 14.879883,-3.1064455 14.680665,-3.9853518 13.625977,-9.767569e-4 Z M 18.969727,1.9912107 v -7.171875 h 0.808594 v 0.6679688 c 0.178711,-0.2636719 0.389648,-0.4628906 0.632812,-0.5976563 0.240235,-0.1230468 0.530274,-0.1875 0.867188,-0.1875 0.436523,0 0.826172,0.1142578 1.171875,0.3398438 0.333984,0.2285156 0.588867,0.5478515 0.761719,0.9609375 0.169921,0.421875 0.257812,0.8789062 0.257812,1.3710937 0,0.5332032 -0.09375,1.0078125 -0.28125,1.4296875 -0.1875,0.42187504 -0.46582,0.74707035 -0.832031,0.97265629 -0.369141,0.22558594 -0.75,0.33984375 -1.148438,0.33984375 -0.290039,0 -0.550781,-0.06445312 -0.785156,-0.1875 -0.234375,-0.1171875 -0.427734,-0.27246093 -0.574219,-0.46875 V 1.9912107 Z m 0.796875,-4.5585937 c 0,0.6738281 0.134766,1.1689453 0.410156,1.4882812 0.263672,0.3134766 0.588868,0.46875004 0.972657,0.46875004 0.389648,0 0.726562,-0.1640625 1.007812,-0.49218754 0.28125,-0.328125 0.421875,-0.8378906 0.421875,-1.5351562 -0.0088,-0.65625 -0.146484,-1.1513672 -0.410156,-1.4882813 -0.275391,-0.3193359 -0.597656,-0.4833984 -0.972656,-0.4921875 -0.383789,0.00879 -0.714844,0.1845703 -0.996094,0.5273438 -0.290039,0.3515625 -0.433594,0.8613281 -0.433594,1.5234375 z m 8.135742,1.92187499 c -0.328125,0.28125 -0.641601,0.47753907 -0.9375,0.5859375 -0.304687,0.1171875 -0.629883,0.17578125 -0.972656,0.17578125 -0.571289,0 -1.007812,-0.140625 -1.3125,-0.421875 -0.313477,-0.27246094 -0.46582,-0.62695312 -0.457031,-1.06640624 0,-0.2490234 0.05859,-0.4804688 0.175781,-0.6914063 0.108398,-0.2109375 0.260742,-0.3779296 0.457031,-0.5039062 0.178711,-0.1230469 0.386719,-0.2226563 0.621094,-0.2929688 0.169922,-0.038086 0.433594,-0.082031 0.785156,-0.1289062 0.703125,-0.076172 1.22461,-0.1787109 1.570313,-0.3046875 0,-0.1171875 0,-0.1904297 0,-0.2226563 0,-0.3574218 -0.09961,-0.6240234 -0.292969,-0.796875 -0.196289,-0.1699218 -0.515625,-0.2578125 -0.960937,-0.2578125 -0.416016,0 -0.714844,0.070312 -0.902344,0.2109375 -0.205078,0.1494141 -0.351563,0.4072266 -0.445313,0.7734375 l -0.855468,-0.1171875 c 0.07031,-0.3662109 0.199218,-0.6621093 0.386718,-0.890625 0.178711,-0.2255859 0.436524,-0.4013672 0.773438,-0.5273437 0.333984,-0.1171875 0.726562,-0.1757813 1.171875,-0.1757813 0.436523,0 0.796875,0.052734 1.078125,0.1523438 0.272461,0.102539 0.474609,0.2314453 0.609375,0.3867187 0.131836,0.1640625 0.225586,0.3691407 0.28125,0.609375 0.02344,0.1494141 0.03516,0.4189453 0.03516,0.8085938 v 1.171875 c 0,0.8144531 0.01758,1.33007812 0.05859,1.54687499 0.03809,0.21972656 0.111328,0.42773438 0.222656,0.6210937531 H 28.078126 C 27.984376,-0.17968769 27.925782,-0.39355488 27.902344,-0.64550801 Z m -0.07031,-1.95703129 c -0.322266,0.1347657 -0.802735,0.2431641 -1.441406,0.328125 -0.360352,0.055664 -0.615235,0.1142579 -0.761719,0.1757813 -0.158203,0.070312 -0.275391,0.1640625 -0.351563,0.28125 -0.08789,0.1347656 -0.128906,0.2988281 -0.128906,0.4921875 0,0.1875 0.09375,0.36035155 0.28125,0.51562499 0.169922,0.15820313 0.427734,0.234375 0.773438,0.234375 0.333984,0.008789 0.635742,-0.0644531 0.902343,-0.22265625 0.263672,-0.140625 0.459961,-0.34277344 0.585938,-0.60937504 0.08496,-0.1933593 0.131836,-0.4863281 0.140625,-0.8789062 z m 1.87793,1.0546875 0.867187,-0.140625 c 0.05273,0.3515625 0.19043,0.6210938 0.410156,0.80859379 0.216797,0.18164063 0.530274,0.26953125 0.9375,0.26953125 0.404297,0 0.706055,-0.0820313 0.902344,-0.24609375 0.193359,-0.15527339 0.292969,-0.34570309 0.292969,-0.57421879 -0.0088,-0.1933593 -0.09961,-0.3515625 -0.269531,-0.46875 -0.117188,-0.076172 -0.416016,-0.1757812 -0.890625,-0.2929687 -0.650391,-0.1640625 -1.095704,-0.3076172 -1.335938,-0.4335938 -0.251953,-0.1171875 -0.442383,-0.28125 -0.574219,-0.4921875 -0.134765,-0.2021484 -0.196289,-0.4335937 -0.1875,-0.6914062 0,-0.225586 0.0498,-0.4394531 0.152344,-0.6445313 0.09961,-0.1875 0.246094,-0.3515625 0.433594,-0.4921875 0.131836,-0.09375 0.319336,-0.1787109 0.5625,-0.2578125 0.234375,-0.061523 0.518554,-0.09375 0.855469,-0.09375 0.333984,0 0.659179,0.058594 0.972656,0.1757813 0.304687,0.1171875 0.530273,0.2753906 0.679687,0.46875 0.146485,0.2050781 0.249024,0.4746094 0.304688,0.8085937 l -0.855469,0.1171875 C 32.926758,-3.9912111 32.81543,-4.2021486 32.62793,-4.3603518 32.431641,-4.5068361 32.16504,-4.583008 31.831055,-4.583008 c -0.407226,0.00879 -0.697265,0.076172 -0.867187,0.1992187 -0.172852,0.1347657 -0.257813,0.2900391 -0.257813,0.46875 0,0.1171875 0.03516,0.2226563 0.105469,0.3164063 0.07617,0.09375 0.19043,0.1728516 0.339844,0.234375 0.08496,0.032227 0.389648,0.1171875 0.914062,0.2578125 0.521485,0.140625 0.914063,0.2636719 1.171875,0.3632812 0.234375,0.1171875 0.424805,0.2753907 0.574219,0.46875 0.140625,0.2050782 0.210938,0.4541016 0.210938,0.75 0,0.2988282 -0.08789,0.5712891 -0.257813,0.82031254 -0.172852,0.26660156 -0.418945,0.46875 -0.738281,0.609375 -0.328125,0.140625 -0.697266,0.2109375 -1.101563,0.2109375 -0.673828,0 -1.183593,-0.140625 -1.535156,-0.421875 -0.360352,-0.27246094 -0.585937,-0.68554687 -0.679687,-1.24218754 z m 5.000976,0 0.867188,-0.140625 c 0.05273,0.3515625 0.190429,0.6210938 0.410156,0.80859379 0.216797,0.18164063 0.530273,0.26953125 0.9375,0.26953125 0.404297,0 0.706055,-0.0820313 0.902344,-0.24609375 0.193359,-0.15527339 0.292968,-0.34570309 0.292968,-0.57421879 -0.0088,-0.1933593 -0.09961,-0.3515625 -0.269531,-0.46875 -0.117187,-0.076172 -0.416016,-0.1757812 -0.890625,-0.2929687 -0.650391,-0.1640625 -1.095703,-0.3076172 -1.335937,-0.4335938 -0.251954,-0.1171875 -0.442383,-0.28125 -0.574219,-0.4921875 -0.134766,-0.2021484 -0.196289,-0.4335937 -0.1875,-0.6914062 0,-0.225586 0.0498,-0.4394531 0.152344,-0.6445313 0.09961,-0.1875 0.246093,-0.3515625 0.433593,-0.4921875 0.131836,-0.09375 0.319336,-0.1787109 0.5625,-0.2578125 0.234375,-0.061523 0.518555,-0.09375 0.855469,-0.09375 0.333984,0 0.65918,0.058594 0.972656,0.1757813 0.304688,0.1171875 0.530274,0.2753906 0.679688,0.46875 0.146484,0.2050781 0.249023,0.4746094 0.304687,0.8085937 l -0.855468,0.1171875 c -0.04102,-0.2636718 -0.152344,-0.4746093 -0.339844,-0.6328125 -0.196289,-0.1464843 -0.462891,-0.2226562 -0.796875,-0.2226562 -0.407227,0.00879 -0.697266,0.076172 -0.867188,0.1992187 -0.172851,0.1347657 -0.257812,0.2900391 -0.257812,0.46875 0,0.1171875 0.03516,0.2226563 0.105469,0.3164063 0.07617,0.09375 0.190429,0.1728516 0.339843,0.234375 0.08496,0.032227 0.389649,0.1171875 0.914063,0.2578125 0.521484,0.140625 0.914062,0.2636719 1.171875,0.3632812 0.234375,0.1171875 0.424805,0.2753907 0.574219,0.46875 0.140625,0.2050782 0.210937,0.4541016 0.210937,0.75 0,0.2988282 -0.08789,0.5712891 -0.257812,0.82031254 -0.172852,0.26660156 -0.418946,0.46875 -0.738282,0.609375 -0.328125,0.140625 -0.697265,0.2109375 -1.101562,0.2109375 -0.673828,0 -1.183594,-0.140625 -1.535156,-0.421875 C 35.030276,-0.5781252 34.80469,-0.99121113 34.71094,-1.5478518 Z m 0,0"
       style="fill:#000000;fill-opacity:1;fill-rule:nonzero;stroke:none"
       aria-label="Lowpass"
       transform="matrix(1.3333333,0,0,1.3333333,536.26562,401.33333)"
       clip-path="url(#clipPath41)" />
    <path
       id="path45"
       d="M 0.72656302,9.779681e-4 V -7.1591783 H 1.6757818 v 6.31640627 H 5.2031255 V 9.779681e-4 Z M 5.874024,-2.5888658 c 0,-0.9609375 0.2695312,-1.6699219 0.8085937,-2.1328125 0.4365235,-0.3808594 0.9785156,-0.5742187 1.6289063,-0.5742187 0.7089843,0 1.2919922,0.2314453 1.746094,0.6914062 0.451172,0.46875 0.679687,1.1191406 0.679687,1.9453125 0,0.6650391 -0.102539,1.1894531 -0.304687,1.5703125 -0.196289,0.38378908 -0.4863284,0.67968752 -0.8671878,0.89062502 -0.3925781,0.2109375 -0.8085937,0.31640625 -1.2539062,0.31640625 -0.7353516,0 -1.3212891,-0.234375 -1.7578125,-0.703125 C 6.0996099,-1.0449205 5.874024,-1.7128892 5.874024,-2.5888658 Z m 0.9023437,0 c 0,0.6650391 0.1435547,1.1601563 0.4335938,1.4882813 0.2871093,0.32812497 0.65625,0.49218747 1.1015625,0.49218747 0.4277343,0 0.7910156,-0.1640625 1.0898437,-0.49218747 0.28125,-0.3339844 0.4248047,-0.84375 0.4335938,-1.5234375 C 9.8261724,-3.2568345 9.6826177,-3.740233 9.4013677,-4.077147 9.1025396,-4.405272 8.7392583,-4.5693345 8.311524,-4.5693345 c -0.4453125,0 -0.8144532,0.1640625 -1.1015625,0.4921875 -0.2900391,0.328125 -0.4335938,0.8261718 -0.4335938,1.4882812 z M 12.711915,9.779681e-4 11.118165,-5.1787095 h 0.914062 l 0.820313,2.9882812 0.316406,1.1132813 c 0.0059,-0.052734 0.09668,-0.4101563 0.269531,-1.0664063 l 0.820313,-3.0351562 h 0.902343 l 0.773438,3 0.257812,0.9960937 0.304688,-1.0078125 0.878906,-2.9882812 h 0.855469 L 16.614258,9.779681e-4 H 15.700196 L 14.879883,-3.1044908 14.680665,-3.983397 13.625977,9.779681e-4 Z M 18.969727,1.9931655 v -7.171875 h 0.808594 v 0.6679687 c 0.178711,-0.2636719 0.389648,-0.4628906 0.632812,-0.5976562 0.240235,-0.1230469 0.530274,-0.1875 0.867188,-0.1875 0.436523,0 0.826172,0.1142578 1.171875,0.3398437 0.333984,0.2285156 0.588867,0.5478516 0.761719,0.9609375 0.169921,0.421875 0.257812,0.8789063 0.257812,1.3710938 0,0.5332031 -0.09375,1.0078125 -0.28125,1.4296875 -0.1875,0.42187497 -0.46582,0.74707028 -0.832031,0.97265622 -0.369141,0.22558594 -0.75,0.33984375 -1.148438,0.33984375 -0.290039,0 -0.550781,-0.06445313 -0.785156,-0.1875 -0.234375,-0.1171875 -0.427734,-0.27246094 -0.574219,-0.46875 V 1.9931655 Z m 0.796875,-4.5585938 c 0,0.6738281 0.134766,1.1689453 0.410156,1.4882813 0.263672,0.31347653 0.588868,0.46874997 0.972657,0.46874997 0.389648,0 0.726562,-0.1640625 1.007812,-0.49218747 0.28125,-0.328125 0.421875,-0.8378907 0.421875,-1.5351563 -0.0088,-0.65625 -0.146484,-1.1513672 -0.410156,-1.4882812 -0.275391,-0.319336 -0.597656,-0.4833985 -0.972656,-0.4921875 -0.383789,0.00879 -0.714844,0.1845703 -0.996094,0.5273437 -0.290039,0.3515625 -0.433594,0.8613281 -0.433594,1.5234375 z m 8.135742,1.92187502 c -0.328125,0.28125 -0.641601,0.47753906 -0.9375,0.5859375 -0.304687,0.1171875 -0.629883,0.17578125 -0.972656,0.17578125 -0.571289,0 -1.007812,-0.140625 -1.3125,-0.421875 -0.313477,-0.27246094 -0.46582,-0.62695313 -0.457031,-1.06640627 0,-0.2490234 0.05859,-0.4804687 0.175781,-0.6914062 0.108398,-0.2109375 0.260742,-0.3779297 0.457031,-0.5039063 0.178711,-0.1230469 0.386719,-0.2226562 0.621094,-0.2929687 0.169922,-0.038086 0.433594,-0.082031 0.785156,-0.1289063 0.703125,-0.076172 1.22461,-0.1787109 1.570313,-0.3046875 0,-0.1171875 0,-0.1904297 0,-0.2226562 0,-0.3574219 -0.09961,-0.6240235 -0.292969,-0.796875 -0.196289,-0.1699219 -0.515625,-0.2578125 -0.960937,-0.2578125 -0.416016,0 -0.714844,0.070312 -0.902344,0.2109375 -0.205078,0.149414 -0.351563,0.4072265 -0.445313,0.7734375 L 24.375001,-3.702147 c 0.07031,-0.366211 0.199218,-0.6621094 0.386718,-0.890625 0.178711,-0.225586 0.436524,-0.4013672 0.773438,-0.5273438 0.333984,-0.1171875 0.726562,-0.1757812 1.171875,-0.1757812 0.436523,0 0.796875,0.052734 1.078125,0.1523437 0.272461,0.1025391 0.474609,0.2314453 0.609375,0.3867188 0.131836,0.1640625 0.225586,0.3691406 0.28125,0.609375 0.02344,0.149414 0.03516,0.4189453 0.03516,0.8085937 v 1.171875 c 0,0.8144531 0.01758,1.33007814 0.05859,1.54687502 0.03809,0.21972656 0.111328,0.42773437 0.222656,0.6210937481 H 28.078126 C 27.984376,-0.17773297 27.925782,-0.39160016 27.902344,-0.64355328 Z m -0.07031,-1.95703122 c -0.322266,0.1347656 -0.802735,0.243164 -1.441406,0.328125 -0.360352,0.055664 -0.615235,0.1142578 -0.761719,0.1757812 -0.158203,0.070312 -0.275391,0.1640625 -0.351563,0.28125 -0.08789,0.1347656 -0.128906,0.2988281 -0.128906,0.4921875 0,0.1875 0.09375,0.36035158 0.28125,0.51562502 0.169922,0.15820312 0.427734,0.234375 0.773438,0.234375 0.333984,0.008789 0.635742,-0.0644531 0.902343,-0.22265625 0.263672,-0.140625 0.459961,-0.34277347 0.585938,-0.60937497 0.08496,-0.1933594 0.131836,-0.4863282 0.140625,-0.8789063 z m 1.87793,1.0546875 0.867187,-0.140625 c 0.05273,0.3515625 0.19043,0.6210937 0.410156,0.80859372 0.216797,0.18164062 0.530274,0.26953125 0.9375,0.26953125 0.404297,0 0.706055,-0.0820313 0.902344,-0.24609375 0.193359,-0.15527342 0.292969,-0.34570312 0.292969,-0.57421872 -0.0088,-0.1933594 -0.09961,-0.3515625 -0.269531,-0.46875 -0.117188,-0.076172 -0.416016,-0.1757813 -0.890625,-0.2929688 -0.650391,-0.1640625 -1.095704,-0.3076172 -1.335938,-0.4335937 -0.251953,-0.1171875 -0.442383,-0.28125 -0.574219,-0.4921875 -0.134765,-0.2021485 -0.196289,-0.4335938 -0.1875,-0.6914063 0,-0.2255859 0.0498,-0.4394531 0.152344,-0.6445312 0.09961,-0.1875 0.246094,-0.3515625 0.433594,-0.4921875 0.131836,-0.09375 0.319336,-0.178711 0.5625,-0.2578125 0.234375,-0.061523 0.518554,-0.09375 0.855469,-0.09375 0.333984,0 0.659179,0.058594 0.972656,0.1757812 0.304687,0.1171875 0.530273,0.2753906 0.679687,0.46875 0.146485,0.2050781 0.249024,0.4746094 0.304688,0.8085938 l -0.855469,0.1171875 c -0.04102,-0.2636719 -0.152344,-0.4746094 -0.339844,-0.6328125 -0.196289,-0.1464844 -0.46289,-0.2226563 -0.796875,-0.2226563 -0.407226,0.00879 -0.697265,0.076172 -0.867187,0.1992188 -0.172852,0.1347656 -0.257813,0.290039 -0.257813,0.46875 0,0.1171875 0.03516,0.2226562 0.105469,0.3164062 0.07617,0.09375 0.19043,0.1728516 0.339844,0.234375 0.08496,0.032227 0.389648,0.1171875 0.914062,0.2578125 0.521485,0.140625 0.914063,0.2636719 1.171875,0.3632813 0.234375,0.1171875 0.424805,0.2753906 0.574219,0.46875 0.140625,0.2050781 0.210938,0.4541015 0.210938,0.75 0,0.2988281 -0.08789,0.57128903 -0.257813,0.82031247 -0.172852,0.26660156 -0.418945,0.46875 -0.738281,0.609375 -0.328125,0.140625 -0.697266,0.2109375 -1.101563,0.2109375 -0.673828,0 -1.183593,-0.140625 -1.535156,-0.421875 -0.360352,-0.27246094 -0.585937,-0.68554688 -0.679687,-1.24218747 z m 5.000976,0 0.867188,-0.140625 c 0.05273,0.3515625 0.190429,0.6210937 0.410156,0.80859372 0.216797,0.18164062 0.530273,0.26953125 0.9375,0.26953125 0.404297,0 0.706055,-0.0820313 0.902344,-0.24609375 0.193359,-0.15527342 0.292968,-0.34570312 0.292968,-0.57421872 -0.0088,-0.1933594 -0.09961,-0.3515625 -0.269531,-0.46875 -0.117187,-0.076172 -0.416016,-0.1757813 -0.890625,-0.2929688 -0.650391,-0.1640625 -1.095703,-0.3076172 -1.335937,-0.4335937 -0.251954,-0.1171875 -0.442383,-0.28125 -0.574219,-0.4921875 -0.134766,-0.2021485 -0.196289,-0.4335938 -0.1875,-0.6914063 0,-0.2255859 0.0498,-0.4394531 0.152344,-0.6445312 0.09961,-0.1875 0.246093,-0.3515625 0.433593,-0.4921875 0.131836,-0.09375 0.319336,-0.178711 0.5625,-0.2578125 0.234375,-0.061523 0.518555,-0.09375 0.855469,-0.09375 0.333984,0 0.65918,0.058594 0.972656,0.1757812 0.304688,0.1171875 0.530274,0.2753906 0.679688,0.46875 0.146484,0.2050781 0.249023,0.4746094 0.304687,0.8085938 l -0.855468,0.1171875 c -0.04102,-0.2636719 -0.152344,-0.4746094 -0.339844,-0.6328125 -0.196289,-0.1464844 -0.462891,-0.2226563 -0.796875,-0.2226563 -0.407227,0.00879 -0.697266,0.076172 -0.867188,0.1992188 -0.172851,0.1347656 -0.257812,0.290039 -0.257812,0.46875 0,0.1171875 0.03516,0.2226562 0.105469,0.3164062 0.07617,0.09375 0.190429,0.1728516 0.339843,0.234375 0.08496,0.032227 0.389649,0.1171875 0.914063,0.2578125 0.521484,0.140625 0.914062,0.2636719 1.171875,0.3632813 0.234375,0.1171875 0.424805,0.2753906 0.574219,0.46875 0.140625,0.2050781 0.210937,0.4541015 0.210937,0.75 0,0.2988281 -0.08789,0.57128903 -0.257812,0.82031247 -0.172852,0.26660156 -0.418946,0.46875 -0.738282,0.609375 -0.328125,0.140625 -0.697265,0.2109375 -1.101562,0.2109375 -0.673828,0 -1.183594,-0.140625 -1.535156,-0.421875 C 35.030276,-0.57617047 34.80469,-0.98925641 34.71094,-1.545897 Z m 0,0"
       style="fill:#000000;fill-opacity:1;fill-rule:nonzero;stroke:none"
       aria-label="Lowpass"
       transform="matrix(1.3333333,0,0,1.3333333,536.26562,474.66666)"
       clip-path="url(#clipPath46)" />
    <path
       id="path47"
       d="M 0,0 H 50 V 24 H 0 Z"
       style="fill:none;stroke:#000000;stroke-width:0.565047;stroke-linecap:butt;stroke-linejoin:miter;stroke-miterlimit:2;stroke-dasharray:none;stroke-opacity:1"
       transform="matrix(1.3333333,0,0,1.3333333,529.20312,454)"
       clip-path="url(#clipPath48)" />
    <path
       id="path49"
       d="M 0,0 H 30 V 32 H 0 Z"
       style="fill:#ffffff;fill-opacity:1;fill-rule:nonzero;stroke:none"
       transform="matrix(1.3333333,0,0,1.3333333,629.20312,302)"
       clip-path="url(#clipPath50)" />
    <path
       id="path58"
       d="M 7.1999999,5.9999945 H 25.599999 c 1.104571,0 2,0.9551255 2,2.1333334 v 9.3333331 c 0,1.178209 -0.895429,2.133333 -2,2.133333 H 7.1999999 c -1.1045699,0 -2,-0.955124 -2,-2.133333 V 8.1333279 c 0,-1.1782079 0.8954301,-2.1333334 2,-2.1333334 z"
       style="fill:none;stroke:#000000;stroke-width:1.3;stroke-linecap:round;stroke-linejoin:round;stroke-miterlimit:10;stroke-dasharray:none;stroke-opacity:1"
       transform="matrix(1.3333333,0,0,1.3333333,627.60302,300.13323)"
       clip-path="url(#clipPath59)" />
    <path
       id="path63"
       d="M 0,0 H 30 V 32 H 0 Z"
       style="fill:none;stroke:#000000;stroke-width:0.565047;stroke-linecap:butt;stroke-linejoin:miter;stroke-miterlimit:2;stroke-dasharray:none;stroke-opacity:1"
       transform="matrix(1.3333333,0,0,1.3333333,629.20312,302)"
       clip-path="url(#clipPath64)" />
    <g
       id="g66"
       clip-path="url(#clipPath67)">
      <path
         d="m 0.30566491,-1.5468744 0.86718749,-0.140625 c 0.052734,0.3515625 0.1904297,0.6210938 0.4101563,0.80859377 0.2167968,0.18164062 0.5302734,0.26953125 0.9375,0.26953125 0.4042968,0 0.7060547,-0.0820313 0.9023437,-0.24609375 C 3.6162118,-1.0107416 3.7158212,-1.2011713 3.7158212,-1.4296869 3.7070321,-1.6230463 3.6162118,-1.7812494 3.4462899,-1.8984369 3.3291024,-1.9746088 3.0302743,-2.0742181 2.5556649,-2.1914056 1.9052743,-2.3554681 1.4599618,-2.4990228 1.2197274,-2.6249994 0.96777429,-2.7421869 0.7773446,-2.9062494 0.64550867,-3.1171869 0.51074304,-3.3193353 0.4492196,-3.5507806 0.45800866,-3.8085931 c 0,-0.225586 0.0498047,-0.4394532 0.15234376,-0.6445313 0.0996094,-0.1875 0.24609375,-0.3515625 0.43359378,-0.4921875 0.1318359,-0.09375 0.3193359,-0.1787109 0.5625,-0.2578125 0.234375,-0.061523 0.5185547,-0.09375 0.8554687,-0.09375 0.3339844,0 0.6591797,0.058594 0.9726563,0.1757813 0.3046875,0.1171875 0.5302734,0.2753906 0.6796875,0.46875 0.1464843,0.2050781 0.2490234,0.4746093 0.3046875,0.8085937 L 3.5634774,-3.7265619 C 3.5224618,-3.9902338 3.4111337,-4.2011713 3.2236337,-4.3593744 3.0273446,-4.5058588 2.760743,-4.5820306 2.4267587,-4.5820306 c -0.4072266,0.00879 -0.6972657,0.076172 -0.8671875,0.1992187 -0.1728516,0.1347656 -0.2578125,0.2900391 -0.2578125,0.46875 0,0.1171875 0.035156,0.2226563 0.1054687,0.3164063 0.076172,0.09375 0.1904297,0.1728515 0.3398438,0.234375 0.084961,0.032227 0.3896484,0.1171875 0.9140625,0.2578125 0.5214843,0.140625 0.9140625,0.2636718 1.171875,0.3632812 0.234375,0.1171875 0.4248047,0.2753906 0.5742187,0.46875 0.140625,0.2050781 0.2109375,0.4541016 0.2109375,0.75 0,0.2988281 -0.087891,0.57128908 -0.2578125,0.82031252 -0.1728515,0.26660156 -0.4189453,0.46875 -0.7382812,0.609375 -0.328125,0.140625 -0.6972657,0.2109375 -1.1015625,0.2109375 -0.6738282,0 -1.1835938,-0.140625 -1.53515628,-0.421875 C 0.62500085,-0.57714782 0.39941491,-0.99023376 0.30566491,-1.5468744 Z m 5.36132809,-4.59375 v -1.0195312 h 0.8789063 v 1.0195312 z m 0,6.14062501759988 V -5.1796869 H 6.5458993 V 6.1759988e-7 Z M 7.7119149,0.43359437 8.5673837,0.55078187 c 0.038086,0.26367187 0.1523437,0.46875003 0.3398437,0.60937503 0.1933594,0.140625 0.4804688,0.2109375 0.8554688,0.2109375 0.4042968,0 0.7177738,-0.079102 0.9374998,-0.234375 0.216797,-0.16406253 0.369141,-0.39550784 0.457031,-0.69140628 0.03809,-0.18164063 0.05859,-0.55371094 0.05859,-1.125 C 10.832032,-0.22558532 10.354493,6.1759988e-7 9.7861337,6.1759988e-7 9.0654306,6.1759988e-7 8.5117196,-0.25781188 8.1220712,-0.77343688 7.7294931,-1.2802728 7.5361337,-1.8984369 7.5361337,-2.6249994 c 0,-0.4921875 0.087891,-0.9492187 0.2695312,-1.3710937 0.178711,-0.413086 0.4394532,-0.7324219 0.7851563,-0.9609375 0.3339844,-0.225586 0.7324219,-0.3398438 1.1953125,-0.3398438 0.6093753,0 1.1132813,0.2460938 1.5117183,0.7382813 v -0.6210938 h 0.808594 v 4.47656252 c 0,0.80273437 -0.0791,1.37402344 -0.234375,1.71093748 -0.172851,0.3427735 -0.433594,0.6123047 -0.785156,0.8085938 -0.360352,0.1933593 -0.802734,0.2929687 -1.3242188,0.2929687 -0.6181641,0 -1.1132813,-0.140625 -1.4882813,-0.421875 C 7.8818368,1.41211 7.6943368,0.99609437 7.7119149,0.43359437 Z M 8.4501962,-2.6835931 c 0,0.6796875 0.1318359,1.1777343 0.3984375,1.4882812 0.2636719,0.31347658 0.6035156,0.46875002 1.0195312,0.46875002 0.3984371,0 0.7324221,-0.15527344 1.0078121,-0.46875002 0.272461,-0.3046875 0.410157,-0.7910156 0.410157,-1.4648437 0,-0.6328125 -0.137696,-1.1074219 -0.410157,-1.4296875 -0.290039,-0.319336 -0.632812,-0.4804688 -1.0312496,-0.4804688 -0.383789,0 -0.711914,0.1582031 -0.984375,0.46875 -0.2753906,0.3222656 -0.4101562,0.7939453 -0.4101562,1.4179688 z M 13.421876,6.1759988e-7 V -5.1796869 h 0.796875 v 0.7382813 c 0.375,-0.5683594 0.919922,-0.8554688 1.640625,-0.8554688 0.310547,0 0.600586,0.055664 0.867187,0.1640625 0.257813,0.1171875 0.451172,0.2666016 0.585938,0.4453125 0.123047,0.1816406 0.216797,0.3955078 0.28125,0.6445313 0.0293,0.1640625 0.04687,0.4511718 0.04687,0.8554687 V 6.1759988e-7 H 16.76172 V -3.1523431 c 0,-0.3515625 -0.03516,-0.6210938 -0.105469,-0.8085938 -0.07031,-0.1699219 -0.193359,-0.3105469 -0.363281,-0.421875 -0.172852,-0.099609 -0.416016,-0.1523437 -0.726563,-0.1523437 -0.304687,0 -0.591797,0.1171875 -0.855469,0.3515625 -0.27539,0.243164 -0.410156,0.6914062 -0.410156,1.3476562 V 6.1759988e-7 Z M 22.354493,-0.64453063 c -0.328125,0.28125 -0.641601,0.47753906 -0.9375,0.5859375 -0.304687,0.1171875 -0.629883,0.17578125 -0.972656,0.17578125 -0.571289,0 -1.007813,-0.140625 -1.3125,-0.421875 -0.313477,-0.27246094 -0.46582,-0.62695313 -0.457031,-1.06640622 0,-0.2490235 0.05859,-0.4804688 0.175781,-0.6914063 0.108398,-0.2109375 0.260742,-0.3779297 0.457031,-0.5039062 0.178711,-0.1230469 0.386719,-0.2226563 0.621094,-0.2929688 0.169922,-0.038086 0.433594,-0.082031 0.785156,-0.1289062 0.703125,-0.076172 1.224609,-0.178711 1.570313,-0.3046875 0,-0.1171875 0,-0.1904297 0,-0.2226563 0,-0.3574219 -0.09961,-0.6240234 -0.292969,-0.796875 -0.196289,-0.1699219 -0.515625,-0.2578125 -0.960938,-0.2578125 -0.416015,0 -0.714843,0.070312 -0.902343,0.2109375 -0.205079,0.1494141 -0.351563,0.4072266 -0.445313,0.7734375 l -0.855469,-0.1171875 c 0.07031,-0.3662109 0.199219,-0.6621094 0.386719,-0.890625 0.178711,-0.2255859 0.436524,-0.4013672 0.773438,-0.5273437 0.333984,-0.1171875 0.726562,-0.1757813 1.171875,-0.1757813 0.436523,0 0.796875,0.052734 1.078125,0.1523438 0.272461,0.102539 0.474609,0.2314453 0.609375,0.3867187 0.131836,0.1640625 0.225586,0.3691406 0.28125,0.609375 0.02344,0.1494141 0.03516,0.4189453 0.03516,0.8085938 v 1.171875 c 0,0.8144531 0.01758,1.33007809 0.05859,1.54687497 0.03809,0.21972656 0.111328,0.42773437 0.222656,0.62109374759988 H 22.530274 C 22.436524,-0.17871032 22.377931,-0.39257751 22.354493,-0.64453063 Z m -0.07031,-1.95703127 c -0.322266,0.1347656 -0.802735,0.2431641 -1.441407,0.328125 -0.360351,0.055664 -0.615234,0.1142578 -0.761718,0.1757813 -0.158204,0.070312 -0.275391,0.1640625 -0.351563,0.28125 -0.08789,0.1347656 -0.128906,0.2988281 -0.128906,0.4921875 0,0.1875 0.09375,0.36035153 0.28125,0.51562497 0.169922,0.15820312 0.427734,0.234375 0.773437,0.234375 0.333985,0.008789 0.635743,-0.0644531 0.902344,-0.22265625 0.263672,-0.140625 0.459961,-0.34277342 0.585938,-0.60937502 0.08496,-0.1933594 0.131836,-0.4863281 0.140625,-0.8789062 z M 24.504884,6.1759988e-7 V -7.1601556 H 25.38379 V 6.1759988e-7 Z m 8.065429,0 H 31.691407 V -5.6015619 c -0.210937,0.2109375 -0.489258,0.4160156 -0.832031,0.609375 -0.351563,0.2050781 -0.662109,0.3574219 -0.925781,0.4570313 v -0.8554688 c 0.492187,-0.2255859 0.919922,-0.5039062 1.289062,-0.8320312 0.357422,-0.328125 0.615235,-0.647461 0.773438,-0.9609375 h 0.574218 z m 0,0"
         style="fill:#000000;fill-opacity:1;fill-rule:nonzero;stroke:none"
         aria-label="signal	1"
         transform="matrix(1.3333333,0,0,1.3333333,626.27604,362)"
         clip-path="url(#clipPath65)"
         id="path66" />
    </g>
    <path
       id="path68"
       d="M 0,0 H 30 V 32 H 0 Z"
       style="fill:#ffffff;fill-opacity:1;fill-rule:nonzero;stroke:none"
       transform="matrix(1.3333333,0,0,1.3333333,629.20312,448.66667)"
       clip-path="url(#clipPath69)" />
    <path
       id="path77"
       d="M 7.1999999,5.9999945 H 25.599999 c 1.104571,0 2,0.9551255 2,2.1333334 v 9.3333331 c 0,1.178209 -0.895429,2.133333 -2,2.133333 H 7.1999999 c -1.1045699,0 -2,-0.955124 -2,-2.133333 V 8.1333279 c 0,-1.1782079 0.8954301,-2.1333334 2,-2.1333334 z"
       style="fill:none;stroke:#000000;stroke-width:1.3;stroke-linecap:round;stroke-linejoin:round;stroke-miterlimit:10;stroke-dasharray:none;stroke-opacity:1"
       transform="matrix(1.3333333,0,0,1.3333333,627.60302,446.79989)"
       clip-path="url(#clipPath78)" />
    <path
       id="path82"
       d="M 0,0 H 30 V 32 H 0 Z"
       style="fill:none;stroke:#000000;stroke-width:0.565047;stroke-linecap:butt;stroke-linejoin:miter;stroke-miterlimit:2;stroke-dasharray:none;stroke-opacity:1"
       transform="matrix(1.3333333,0,0,1.3333333,629.20312,448.66667)"
       clip-path="url(#clipPath83)" />
    <g
       id="g85"
       clip-path="url(#clipPath86)">
      <path
         d="M 0.30566491,-1.545897 1.1728524,-1.686522 c 0.052734,0.3515625 0.1904297,0.6210937 0.4101563,0.80859373 0.2167968,0.18164062 0.5302734,0.26953125 0.9375,0.26953125 0.4042968,0 0.7060547,-0.0820313 0.9023437,-0.24609375 C 3.6162118,-1.0097642 3.7158212,-1.2001939 3.7158212,-1.4287095 3.7070321,-1.6220689 3.6162118,-1.780272 3.4462899,-1.8974595 3.3291024,-1.9736314 3.0302743,-2.0732408 2.5556649,-2.1904283 1.9052743,-2.3544908 1.4599618,-2.4980455 1.2197274,-2.624022 0.96777429,-2.7412095 0.7773446,-2.905272 0.64550867,-3.1162095 0.51074304,-3.318358 0.4492196,-3.5498033 0.45800866,-3.8076158 c 0,-0.2255859 0.0498047,-0.4394531 0.15234376,-0.6445312 0.0996094,-0.1875 0.24609375,-0.3515625 0.43359378,-0.4921875 0.1318359,-0.09375 0.3193359,-0.178711 0.5625,-0.2578125 0.234375,-0.061523 0.5185547,-0.09375 0.8554687,-0.09375 0.3339844,0 0.6591797,0.058594 0.9726563,0.1757812 0.3046875,0.1171875 0.5302734,0.2753906 0.6796875,0.46875 0.1464843,0.2050781 0.2490234,0.4746094 0.3046875,0.8085938 L 3.5634774,-3.7255845 C 3.5224618,-3.9892564 3.4111337,-4.2001939 3.2236337,-4.358397 3.0273446,-4.5048814 2.760743,-4.5810533 2.4267587,-4.5810533 c -0.4072266,0.00879 -0.6972657,0.076172 -0.8671875,0.1992188 -0.1728516,0.1347656 -0.2578125,0.290039 -0.2578125,0.46875 0,0.1171875 0.035156,0.2226562 0.1054687,0.3164062 0.076172,0.09375 0.1904297,0.1728516 0.3398438,0.234375 0.084961,0.032227 0.3896484,0.1171875 0.9140625,0.2578125 0.5214843,0.140625 0.9140625,0.2636719 1.171875,0.3632813 0.234375,0.1171875 0.4248047,0.2753906 0.5742187,0.46875 0.140625,0.2050781 0.2109375,0.4541015 0.2109375,0.75 0,0.2988281 -0.087891,0.57128904 -0.2578125,0.82031248 -0.1728515,0.26660156 -0.4189453,0.46875 -0.7382812,0.609375 -0.328125,0.140625 -0.6972657,0.2109375 -1.1015625,0.2109375 -0.6738282,0 -1.1835938,-0.140625 -1.53515628,-0.421875 C 0.62500085,-0.57617046 0.39941491,-0.9892564 0.30566491,-1.545897 Z M 5.666993,-6.139647 v -1.0195313 h 0.8789063 v 1.0195313 z m 0,6.1406249801 V -5.1787095 H 6.5458993 V 9.779801e-4 Z M 7.7119149,0.43457173 8.5673837,0.55175923 c 0.038086,0.26367188 0.1523437,0.46874997 0.3398437,0.60937497 0.1933594,0.140625 0.4804688,0.2109375 0.8554688,0.2109375 0.4042968,0 0.7177738,-0.079101 0.9374998,-0.234375 0.216797,-0.16406247 0.369141,-0.39550778 0.457031,-0.69140622 0.03809,-0.18164062 0.05859,-0.55371094 0.05859,-1.125 -0.383789,0.45410156 -0.861328,0.6796875001 -1.4296873,0.6796875001 -0.7207031,0 -1.2744141,-0.2578125001 -1.6640625,-0.7734375001 C 7.7294931,-1.2792955 7.5361337,-1.8974595 7.5361337,-2.624022 c 0,-0.4921875 0.087891,-0.9492188 0.2695312,-1.3710938 0.178711,-0.4130859 0.4394532,-0.7324219 0.7851563,-0.9609375 0.3339844,-0.2255859 0.7324219,-0.3398437 1.1953125,-0.3398437 0.6093753,0 1.1132813,0.2460937 1.5117183,0.7382812 v -0.6210937 h 0.808594 v 4.47656248 c 0,0.80273438 -0.0791,1.37402344 -0.234375,1.71093752 C 11.69922,1.3515639 11.438477,1.6210952 11.086915,1.8173842 10.726563,2.0107436 10.284181,2.110353 9.7626962,2.110353 9.1445321,2.110353 8.6494149,1.969728 8.2744149,1.688478 7.8818368,1.4130874 7.6943368,0.99707173 7.7119149,0.43457173 Z M 8.4501962,-2.6826158 c 0,0.6796875 0.1318359,1.1777344 0.3984375,1.4882813 0.2636719,0.31347654 0.6035156,0.46874998 1.0195312,0.46874998 0.3984371,0 0.7324221,-0.15527344 1.0078121,-0.46874998 0.272461,-0.3046875 0.410157,-0.7910156 0.410157,-1.4648438 0,-0.6328125 -0.137696,-1.1074219 -0.410157,-1.4296875 -0.290039,-0.3193359 -0.632812,-0.4804687 -1.0312496,-0.4804687 -0.383789,0 -0.711914,0.1582031 -0.984375,0.46875 -0.2753906,0.3222656 -0.4101562,0.7939453 -0.4101562,1.4179687 z M 13.421876,9.779801e-4 V -5.1787095 h 0.796875 v 0.7382812 c 0.375,-0.5683594 0.919922,-0.8554687 1.640625,-0.8554687 0.310547,0 0.600586,0.055664 0.867187,0.1640625 0.257813,0.1171875 0.451172,0.2666015 0.585938,0.4453125 0.123047,0.1816406 0.216797,0.3955078 0.28125,0.6445312 0.0293,0.1640625 0.04687,0.4511719 0.04687,0.8554688 V 9.779801e-4 H 16.76172 V -3.1513658 c 0,-0.3515625 -0.03516,-0.6210937 -0.105469,-0.8085937 -0.07031,-0.1699219 -0.193359,-0.3105469 -0.363281,-0.421875 -0.172852,-0.099609 -0.416016,-0.1523438 -0.726563,-0.1523438 -0.304687,0 -0.591797,0.1171875 -0.855469,0.3515625 -0.27539,0.2431641 -0.410156,0.6914063 -0.410156,1.3476563 V 9.779801e-4 Z M 22.354493,-0.64355327 c -0.328125,0.28125 -0.641601,0.47753906 -0.9375,0.5859375 -0.304687,0.1171875 -0.629883,0.17578125 -0.972656,0.17578125 -0.571289,0 -1.007813,-0.140625 -1.3125,-0.421875 -0.313477,-0.27246094 -0.46582,-0.62695313 -0.457031,-1.06640628 0,-0.2490234 0.05859,-0.4804687 0.175781,-0.6914062 0.108398,-0.2109375 0.260742,-0.3779297 0.457031,-0.5039063 0.178711,-0.1230468 0.386719,-0.2226562 0.621094,-0.2929687 0.169922,-0.038086 0.433594,-0.082031 0.785156,-0.1289063 0.703125,-0.076172 1.224609,-0.1787109 1.570313,-0.3046875 0,-0.1171875 0,-0.1904297 0,-0.2226562 0,-0.3574219 -0.09961,-0.6240235 -0.292969,-0.796875 -0.196289,-0.1699219 -0.515625,-0.2578125 -0.960938,-0.2578125 -0.416015,0 -0.714843,0.070312 -0.902343,0.2109375 -0.205079,0.149414 -0.351563,0.4072265 -0.445313,0.7734375 L 18.827149,-3.702147 c 0.07031,-0.366211 0.199219,-0.6621094 0.386719,-0.890625 0.178711,-0.225586 0.436524,-0.4013672 0.773438,-0.5273438 0.333984,-0.1171875 0.726562,-0.1757812 1.171875,-0.1757812 0.436523,0 0.796875,0.052734 1.078125,0.1523437 0.272461,0.1025391 0.474609,0.2314453 0.609375,0.3867188 0.131836,0.1640625 0.225586,0.3691406 0.28125,0.609375 0.02344,0.149414 0.03516,0.4189453 0.03516,0.8085937 v 1.171875 c 0,0.8144532 0.01758,1.33007815 0.05859,1.54687503 0.03809,0.21972656 0.111328,0.42773437 0.222656,0.6210937501 H 22.530274 C 22.436524,-0.17773296 22.377931,-0.39160015 22.354493,-0.64355327 Z m -0.07031,-1.95703123 c -0.322266,0.1347656 -0.802735,0.243164 -1.441407,0.328125 -0.360351,0.055664 -0.615234,0.1142578 -0.761718,0.1757812 -0.158204,0.070312 -0.275391,0.1640625 -0.351563,0.28125 -0.08789,0.1347657 -0.128906,0.2988282 -0.128906,0.4921875 0,0.1875 0.09375,0.36035159 0.28125,0.51562503 0.169922,0.15820312 0.427734,0.234375 0.773437,0.234375 0.333985,0.008789 0.635743,-0.0644531 0.902344,-0.22265625 0.263672,-0.140625 0.459961,-0.34277348 0.585938,-0.60937498 0.08496,-0.1933594 0.131836,-0.4863281 0.140625,-0.8789063 z M 24.504884,9.779801e-4 V -7.1591783 H 25.38379 V 9.779801e-4 Z M 29.265626,-1.8857408 30.144532,-2.0029283 c 0.09961,0.5009766 0.272461,0.8554688 0.515625,1.06640628 0.234375,0.22851562 0.527344,0.33984375 0.878906,0.33984375 0.413086,0 0.764649,-0.14355469 1.054688,-0.43359373 0.28125,-0.28125 0.421875,-0.6357422 0.421875,-1.0664063 0,-0.3984375 -0.134766,-0.7294922 -0.398438,-0.9960937 -0.266601,-0.2578125 -0.597656,-0.3867188 -0.996093,-0.3867188 -0.172852,0 -0.38086,0.032227 -0.621094,0.09375 l 0.09375,-0.7734375 c 0.06152,0.00879 0.108398,0.011719 0.140625,0.011719 0.375,0 0.708984,-0.09668 1.007812,-0.2929688 0.295899,-0.1933594 0.448243,-0.4951172 0.457032,-0.9023437 0,-0.319336 -0.111328,-0.5859375 -0.328125,-0.796875 -0.228516,-0.2109375 -0.509766,-0.3164063 -0.84375,-0.3164063 -0.345703,0 -0.629883,0.1054688 -0.855469,0.3164063 -0.234375,0.2197265 -0.383789,0.5449218 -0.445313,0.9726562 l -0.878906,-0.1640625 c 0.108399,-0.5859375 0.354492,-1.0429687 0.738281,-1.3710937 0.38086,-0.319336 0.855469,-0.4804688 1.417969,-0.4804688 0.389649,0 0.75,0.082031 1.078125,0.2460938 0.328125,0.1728515 0.580078,0.4042968 0.761719,0.6914062 0.164062,0.2900391 0.249023,0.5976563 0.257812,0.9257813 0,0.3046875 -0.08789,0.5859375 -0.257812,0.84375 -0.164063,0.2519531 -0.407227,0.4511718 -0.726563,0.5976562 0.421875,0.1025391 0.75,0.3046875 0.984375,0.609375 0.234375,0.3134766 0.351563,0.7001953 0.351563,1.1601563 -0.0088,0.6269531 -0.240234,1.15429685 -0.691406,1.58203123 -0.454102,0.43945312 -1.028321,0.65625 -1.722657,0.65625 -0.632812,0 -1.154296,-0.1875 -1.558593,-0.5625 -0.421875,-0.375 -0.66211,-0.85839843 -0.714844,-1.45312523 z m 0,0"
         style="fill:#000000;fill-opacity:1;fill-rule:nonzero;stroke:none"
         aria-label="signal	3"
         transform="matrix(1.3333333,0,0,1.3333333,626.27604,508.66666)"
         clip-path="url(#clipPath84)"
         id="path85" />
    </g>
    <path
       id="path87"
       d="M 0,0 H 30 V 32 H 0 Z"
       style="fill:#ffffff;fill-opacity:1;fill-rule:nonzero;stroke:none"
       transform="matrix(1.3333333,0,0,1.3333333,629.20312,375.33333)"
       clip-path="url(#clipPath88)" />
    <path
       id="path96"
       d="M 7.1999999,5.9999945 H 25.599999 c 1.104571,0 2,0.9551255 2,2.1333334 v 9.3333331 c 0,1.178209 -0.895429,2.133333 -2,2.133333 H 7.1999999 c -1.1045699,0 -2,-0.955124 -2,-2.133333 V 8.1333279 c 0,-1.1782079 0.8954301,-2.1333334 2,-2.1333334 z"
       style="fill:none;stroke:#000000;stroke-width:1.3;stroke-linecap:round;stroke-linejoin:round;stroke-miterlimit:10;stroke-dasharray:none;stroke-opacity:1"
       transform="matrix(1.3333333,0,0,1.3333333,627.60302,373.46656)"
       clip-path="url(#clipPath97)" />
    <path
       id="path101"
       d="M 0,0 H 30 V 32 H 0 Z"
       style="fill:none;stroke:#000000;stroke-width:0.565047;stroke-linecap:butt;stroke-linejoin:miter;stroke-miterlimit:2;stroke-dasharray:none;stroke-opacity:1"
       transform="matrix(1.3333333,0,0,1.3333333,629.20312,375.33333)"
       clip-path="url(#clipPath102)" />
    <g
       id="g104"
       clip-path="url(#clipPath105)">
      <path
         d="m 0.30566491,-1.5478517 0.86718749,-0.140625 c 0.052734,0.3515625 0.1904297,0.6210937 0.4101563,0.8085937 0.2167968,0.18164063 0.5302734,0.26953125 0.9375,0.26953125 0.4042968,0 0.7060547,-0.0820313 0.9023437,-0.24609375 0.1933594,-0.1552734 0.2929688,-0.3457031 0.2929688,-0.5742187 -0.00879,-0.1933594 -0.099609,-0.3515625 -0.2695313,-0.46875 C 3.3291024,-1.9755861 3.0302743,-2.0751955 2.5556649,-2.192383 1.9052743,-2.3564455 1.4599618,-2.5000002 1.2197274,-2.6259767 0.96777429,-2.7431642 0.7773446,-2.9072267 0.64550867,-3.1181642 0.51074304,-3.3203127 0.4492196,-3.551758 0.45800866,-3.8095705 c 0,-0.2255859 0.0498047,-0.4394531 0.15234376,-0.6445313 0.0996094,-0.1875 0.24609375,-0.3515625 0.43359378,-0.4921875 0.1318359,-0.09375 0.3193359,-0.1787109 0.5625,-0.2578125 0.234375,-0.061523 0.5185547,-0.09375 0.8554687,-0.09375 0.3339844,0 0.6591797,0.058594 0.9726563,0.1757813 0.3046875,0.1171875 0.5302734,0.2753906 0.6796875,0.46875 0.1464843,0.2050781 0.2490234,0.4746094 0.3046875,0.8085937 L 3.5634774,-3.7275393 C 3.5224618,-3.9912111 3.4111337,-4.2021486 3.2236337,-4.3603518 3.0273446,-4.5068361 2.760743,-4.583008 2.4267587,-4.583008 c -0.4072266,0.00879 -0.6972657,0.076172 -0.8671875,0.1992187 -0.1728516,0.1347657 -0.2578125,0.2900391 -0.2578125,0.46875 0,0.1171875 0.035156,0.2226563 0.1054687,0.3164063 0.076172,0.09375 0.1904297,0.1728516 0.3398438,0.234375 0.084961,0.032227 0.3896484,0.1171875 0.9140625,0.2578125 0.5214843,0.140625 0.9140625,0.2636719 1.171875,0.3632813 0.234375,0.1171875 0.4248047,0.2753906 0.5742187,0.46875 0.140625,0.2050781 0.2109375,0.4541015 0.2109375,0.75 0,0.2988281 -0.087891,0.57128902 -0.2578125,0.82031245 -0.1728515,0.26660157 -0.4189453,0.46875 -0.7382812,0.609375 -0.328125,0.14062501 -0.6972657,0.21093751 -1.1015625,0.21093751 -0.6738282,0 -1.1835938,-0.140625 -1.53515628,-0.42187501 C 0.62500085,-0.57812518 0.39941491,-0.99121112 0.30566491,-1.5478517 Z M 5.666993,-6.1416018 V -7.161133 h 0.8789063 v 1.0195312 z m 0,6.1406250551 V -5.1806643 H 6.5458993 V -9.767449e-4 Z M 7.7119149,0.43261701 8.5673837,0.54980451 c 0.038086,0.26367187 0.1523437,0.46874999 0.3398437,0.60937499 0.1933594,0.140625 0.4804688,0.2109375 0.8554688,0.2109375 0.4042968,0 0.7177738,-0.079102 0.9374998,-0.234375 0.216797,-0.16406249 0.369141,-0.39550781 0.457031,-0.69140624 0.03809,-0.18164063 0.05859,-0.55371094 0.05859,-1.12500001 -0.383789,0.45410157 -0.861328,0.6796875051 -1.4296873,0.6796875051 -0.7207031,0 -1.2744141,-0.2578125051 -1.6640625,-0.7734375051 C 7.7294931,-1.2812502 7.5361337,-1.8994142 7.5361337,-2.6259767 c 0,-0.4921875 0.087891,-0.9492188 0.2695312,-1.3710938 0.178711,-0.4130859 0.4394532,-0.7324219 0.7851563,-0.9609375 0.3339844,-0.2255859 0.7324219,-0.3398438 1.1953125,-0.3398438 0.6093753,0 1.1132813,0.2460938 1.5117183,0.7382813 v -0.6210938 h 0.808594 v 4.47656255 c 0,0.80273438 -0.0791,1.37402344 -0.234375,1.71093755 -0.172851,0.3427734 -0.433594,0.6123046 -0.785156,0.8085937 -0.360352,0.1933594 -0.802734,0.2929688 -1.3242188,0.2929688 -0.6181641,0 -1.1132813,-0.140625 -1.4882813,-0.421875 C 7.8818368,1.4111326 7.6943368,0.99511701 7.7119149,0.43261701 Z M 8.4501962,-2.6845705 c 0,0.6796875 0.1318359,1.1777344 0.3984375,1.4882813 0.2636719,0.31347652 0.6035156,0.46874995 1.0195312,0.46874995 0.3984371,0 0.7324221,-0.15527343 1.0078121,-0.46874995 0.272461,-0.3046875 0.410157,-0.7910157 0.410157,-1.4648438 0,-0.6328125 -0.137696,-1.1074219 -0.410157,-1.4296875 -0.290039,-0.3193359 -0.632812,-0.4804688 -1.0312496,-0.4804688 -0.383789,0 -0.711914,0.1582032 -0.984375,0.46875 -0.2753906,0.3222657 -0.4101562,0.7939454 -0.4101562,1.4179688 z M 13.421876,-9.767449e-4 V -5.1806643 h 0.796875 v 0.7382813 c 0.375,-0.5683594 0.919922,-0.8554688 1.640625,-0.8554688 0.310547,0 0.600586,0.055664 0.867187,0.1640625 0.257813,0.1171875 0.451172,0.2666016 0.585938,0.4453125 0.123047,0.1816407 0.216797,0.3955079 0.28125,0.6445313 0.0293,0.1640625 0.04687,0.4511719 0.04687,0.8554687 V -9.767449e-4 H 16.76172 V -3.1533205 c 0,-0.3515625 -0.03516,-0.6210938 -0.105469,-0.8085938 -0.07031,-0.1699218 -0.193359,-0.3105468 -0.363281,-0.421875 -0.172852,-0.099609 -0.416016,-0.1523437 -0.726563,-0.1523437 -0.304687,0 -0.591797,0.1171875 -0.855469,0.3515625 -0.27539,0.2431641 -0.410156,0.6914062 -0.410156,1.3476563 V -9.767449e-4 Z M 22.354493,-0.645508 c -0.328125,0.28125 -0.641601,0.47753907 -0.9375,0.58593751 -0.304687,0.1171875 -0.629883,0.17578125 -0.972656,0.17578125 -0.571289,0 -1.007813,-0.140625 -1.3125,-0.42187501 -0.313477,-0.27246093 -0.46582,-0.62695312 -0.457031,-1.06640625 0,-0.2490234 0.05859,-0.4804687 0.175781,-0.6914062 0.108398,-0.2109375 0.260742,-0.3779297 0.457031,-0.5039063 0.178711,-0.1230469 0.386719,-0.2226562 0.621094,-0.2929687 0.169922,-0.038086 0.433594,-0.082031 0.785156,-0.1289063 0.703125,-0.076172 1.224609,-0.1787109 1.570313,-0.3046875 0,-0.1171875 0,-0.1904297 0,-0.2226563 0,-0.3574218 -0.09961,-0.6240234 -0.292969,-0.796875 -0.196289,-0.1699218 -0.515625,-0.2578125 -0.960938,-0.2578125 -0.416015,0 -0.714843,0.070312 -0.902343,0.2109375 -0.205079,0.1494141 -0.351563,0.4072266 -0.445313,0.7734375 l -0.855469,-0.1171875 c 0.07031,-0.3662109 0.199219,-0.6621093 0.386719,-0.890625 0.178711,-0.2255859 0.436524,-0.4013671 0.773438,-0.5273437 0.333984,-0.1171875 0.726562,-0.1757813 1.171875,-0.1757813 0.436523,0 0.796875,0.052734 1.078125,0.1523438 0.272461,0.1025391 0.474609,0.2314453 0.609375,0.3867187 0.131836,0.1640625 0.225586,0.3691407 0.28125,0.609375 0.02344,0.1494141 0.03516,0.4189454 0.03516,0.8085938 v 1.171875 c 0,0.8144531 0.01758,1.33007813 0.05859,1.546875 0.03809,0.21972657 0.111328,0.42773438 0.222656,0.6210937551 H 22.530274 C 22.436524,-0.17968768 22.377931,-0.39355487 22.354493,-0.645508 Z m -0.07031,-1.9570312 c -0.322266,0.1347656 -0.802735,0.243164 -1.441407,0.328125 -0.360351,0.055664 -0.615234,0.1142578 -0.761718,0.1757812 -0.158204,0.070312 -0.275391,0.1640625 -0.351563,0.28125 -0.08789,0.1347656 -0.128906,0.2988281 -0.128906,0.4921875 0,0.1875 0.09375,0.36035157 0.28125,0.515625 0.169922,0.15820313 0.427734,0.234375 0.773437,0.234375 0.333985,0.008789 0.635743,-0.0644531 0.902344,-0.22265625 0.263672,-0.140625 0.459961,-0.34277345 0.585938,-0.60937495 0.08496,-0.1933594 0.131836,-0.4863282 0.140625,-0.8789063 z m 2.220703,2.6015624551 V -7.161133 H 25.38379 V -9.767449e-4 Z M 33.871095,-0.84472675 v 0.8437500051 h -4.722657 c -0.0088,-0.2109375051 0.03516,-0.4453125051 0.128907,-0.7031250051 0.09961,-0.2578125 0.284179,-0.54199215 0.550781,-0.85546875 0.257812,-0.3105469 0.706055,-0.7294922 1.347656,-1.2539062 0.638672,-0.5214844 1.101563,-0.9726563 1.382813,-1.3476563 0.272461,-0.375 0.410156,-0.7265625 0.410156,-1.0546875 0,-0.3427734 -0.125977,-0.6386719 -0.375,-0.890625 -0.251953,-0.234375 -0.574219,-0.3515625 -0.972656,-0.3515625 -0.430664,0 -0.770508,0.1259766 -1.019532,0.375 -0.257812,0.2578125 -0.386718,0.609375 -0.386718,1.0546875 l -0.902344,-0.082031 c 0.05273,-0.6708984 0.287109,-1.1865234 0.703125,-1.546875 0.398437,-0.3515625 0.9375,-0.5273437 1.617187,-0.5273437 0.685547,0 1.230469,0.1933594 1.628907,0.5742187 0.404297,0.3837891 0.609375,0.8525391 0.609375,1.40625 0,0.2900391 -0.05859,0.5712891 -0.175782,0.84375 -0.125976,0.28125 -0.322265,0.5742188 -0.585937,0.8789063 -0.275391,0.3134766 -0.726563,0.7324219 -1.359375,1.2539063 -0.524414,0.4541015 -0.861328,0.7558593 -1.007813,0.9023437 -0.158203,0.1640625 -0.28125,0.3251953 -0.375,0.48046875 z m 0,0"
         style="fill:#000000;fill-opacity:1;fill-rule:nonzero;stroke:none"
         aria-label="signal	2"
         transform="matrix(1.3333333,0,0,1.3333333,626.27604,435.33333)"
         clip-path="url(#clipPath103)"
         id="path104" />
    </g>
    <path
       id="path106"
       d="m 1182.5931,1168.4167 h 66.6667 c 16.1083,0 29.1666,13.0583 29.1666,29.1666 0,16.1083 -13.0583,29.1667 -29.1666,29.1667 h -66.6667 c -16.1083,0 -29.1667,-13.0584 -29.1667,-29.1667 0,-16.1083 13.0584,-29.1666 29.1667,-29.1666 z"
       style="fill:#ffffff;fill-opacity:1;fill-rule:nonzero;stroke:none"
       transform="matrix(0.32,0,0,0.32,13.44,13.440001)"
       clip-path="url(#clipPath107)" />
    <path
       id="path109"
       d="M 3.7255865,-9.767569e-4 H 2.8466802 V -5.6025393 C 2.6357427,-5.3916018 2.3574224,-5.1865236 2.014649,-4.9931643 1.6630865,-4.7880861 1.3525396,-4.6357424 1.0888677,-4.536133 V -5.3916018 C 1.5810552,-5.6171877 2.0087896,-5.895508 2.3779302,-6.223633 2.7353521,-6.551758 2.9931646,-6.871094 3.1513677,-7.1845705 h 0.5742188 z m 0,0"
       style="fill:#000000;fill-opacity:1;fill-rule:nonzero;stroke:none"
       aria-label="1"
       transform="matrix(1.3333333,0,0,1.3333333,398.84896,401.33333)"
       clip-path="url(#clipPath110)" />
    <path
       id="path111"
       d="m 7,0 h 16 c 3.865993,0 7,3.1340068 7,7 0,3.865993 -3.134007,7 -7,7 H 7 C 3.1340068,14 0,10.865993 0,7 0,3.1340068 3.1340068,0 7,0 Z"
       style="fill:none;stroke:#000000;stroke-width:0.565047;stroke-linecap:butt;stroke-linejoin:miter;stroke-miterlimit:2;stroke-dasharray:none;stroke-opacity:1"
       transform="matrix(1.3333333,0,0,1.3333333,382.53646,387.33333)"
       clip-path="url(#clipPath112)" />
    <g
       id="g114"
       clip-path="url(#clipPath115)">
      <path
         d="M 0.6679688,-6.1416018 V -7.161133 h 0.8789063 v 1.0195312 z m 0,6.1406250551 V -5.1806643 h 0.8789063 v 5.1796875551 z m 2.2060547,0 V -5.1806643 h 0.796875 v 0.7382813 c 0.375,-0.5683594 0.9199219,-0.8554688 1.640625,-0.8554688 0.3105469,0 0.6005859,0.055664 0.8671875,0.1640625 0.2578125,0.1171875 0.4511719,0.2666016 0.5859375,0.4453125 0.1230469,0.1816407 0.2167969,0.3955079 0.28125,0.6445313 0.029297,0.1640625 0.046875,0.4511719 0.046875,0.8554687 V -9.767449e-4 H 6.2138672 V -3.1533205 c 0,-0.3515625 -0.035156,-0.6210938 -0.1054687,-0.8085938 C 6.038086,-4.1318361 5.9150391,-4.2724611 5.7451172,-4.3837893 5.5722657,-4.4833986 5.3291016,-4.536133 5.0185547,-4.536133 c -0.3046875,0 -0.5917968,0.1171875 -0.8554687,0.3515625 -0.2753906,0.2431641 -0.4101563,0.6914062 -0.4101563,1.3476563 v 2.8359374551 z m 0,0"
         style="fill:#000000;fill-opacity:1;fill-rule:nonzero;stroke:none"
         aria-label="in"
         transform="matrix(1.3333333,0,0,1.3333333,397.35937,423.33333)"
         clip-path="url(#clipPath113)"
         id="path114" />
    </g>
    <path
       id="path116"
       d="m 1445.0931,1197.5833 -33.3333,-16.6666 v 33.3333 z"
       style="fill:#000000;fill-opacity:1;fill-rule:nonzero;stroke:none"
       transform="matrix(0.32,0,0,0.32,13.44,13.440001)"
       clip-path="url(#clipPath117)" />
    <path
       id="path118"
       d="m 69.937656,90.22 h 12.16"
       style="fill:none;stroke:#000000;stroke-width:0.24;stroke-linecap:butt;stroke-linejoin:miter;stroke-miterlimit:2;stroke-dasharray:none;stroke-opacity:1"
       transform="matrix(1.3333333,0,0,1.3333333,355.86979,276.66667)"
       clip-path="url(#clipPath119)" />
    <path
       id="path120"
       d="m 1361.7598,1072.5833 -16.6667,33.3334 h 33.3333 z"
       style="fill:#000000;fill-opacity:1;fill-rule:nonzero;stroke:none"
       transform="matrix(0.32,0,0,0.32,13.44,13.440001)"
       clip-path="url(#clipPath121)" />
    <path
       id="path122"
       d="m 69.937656,90.22 v -22"
       style="fill:none;stroke:#000000;stroke-width:0.24;stroke-linecap:butt;stroke-linejoin:miter;stroke-miterlimit:2;stroke-dasharray:none;stroke-opacity:1"
       transform="matrix(1.3333333,0,0,1.3333333,355.86979,276.66667)"
       clip-path="url(#clipPath123)" />
    <path
       id="path124"
       d="m 50.017656,90.22 h 19.92"
       style="fill:none;stroke:#000000;stroke-width:0.24;stroke-linecap:butt;stroke-linejoin:miter;stroke-miterlimit:2;stroke-dasharray:none;stroke-opacity:1"
       transform="matrix(1.3333333,0,0,1.3333333,355.86979,276.66667)"
       clip-path="url(#clipPath125)" />
    <path
       id="path126"
       d="m 1367.75,1198.5 c 0,3.4518 -2.7982,6.25 -6.25,6.25 -3.4518,0 -6.25,-2.7982 -6.25,-6.25 0,-3.4518 2.7982,-6.25 6.25,-6.25 3.4518,0 6.25,2.7982 6.25,6.25 z"
       style="fill:#000000;fill-opacity:1;fill-rule:evenodd;stroke:none"
       transform="matrix(0.32,0,0,0.32,13.44,13.440001)"
       clip-path="url(#clipPath127)" />
    <path
       id="path128"
       d="M 1611.7598,968.41667 1578.4264,951.75 v 33.33333 z"
       style="fill:#000000;fill-opacity:1;fill-rule:nonzero;stroke:none"
       transform="matrix(0.32,0,0,0.32,13.44,13.440001)"
       clip-path="url(#clipPath129)" />
    <path
       id="path130"
       d="M 94.897656,75.1 H 110.01766 V 35.02 h 11.92"
       style="fill:none;stroke:#000000;stroke-width:0.24;stroke-linecap:butt;stroke-linejoin:miter;stroke-miterlimit:2;stroke-dasharray:none;stroke-opacity:1"
       transform="matrix(1.3333333,0,0,1.3333333,355.86979,276.66667)"
       clip-path="url(#clipPath131)" />
    <path
       id="path132"
       d="m 1611.7598,1197.5833 -33.3334,-16.6666 v 33.3333 z"
       style="fill:#000000;fill-opacity:1;fill-rule:nonzero;stroke:none"
       transform="matrix(0.32,0,0,0.32,13.44,13.440001)"
       clip-path="url(#clipPath133)" />
    <path
       id="path134"
       d="M 94.897656,90.22 H 121.93766"
       style="fill:none;stroke:#000000;stroke-width:0.24;stroke-linecap:butt;stroke-linejoin:miter;stroke-miterlimit:2;stroke-dasharray:none;stroke-opacity:1"
       transform="matrix(1.3333333,0,0,1.3333333,355.86979,276.66667)"
       clip-path="url(#clipPath135)" />
    <path
       id="path136"
       d="m 1611.7598,1426.75 -33.3334,-16.6667 v 33.3334 z"
       style="fill:#000000;fill-opacity:1;fill-rule:nonzero;stroke:none"
       transform="matrix(0.32,0,0,0.32,13.44,13.440001)"
       clip-path="url(#clipPath137)" />
    <path
       id="path138"
       d="m 94.897656,105.1 h 18.000004 v 40.08 h 9.04"
       style="fill:none;stroke:#000000;stroke-width:0.24;stroke-linecap:butt;stroke-linejoin:miter;stroke-miterlimit:2;stroke-dasharray:none;stroke-opacity:1"
       transform="matrix(1.3333333,0,0,1.3333333,355.86979,276.66667)"
       clip-path="url(#clipPath139)" />
    <path
       id="path140"
       d="m 1924.2598,1197.5833 -33.3334,-16.6666 v 33.3333 z"
       style="fill:#000000;fill-opacity:1;fill-rule:nonzero;stroke:none"
       transform="matrix(0.32,0,0,0.32,13.44,13.440001)"
       clip-path="url(#clipPath141)" />
    <path
       id="path142"
       d="m 180.09766,90.22 h 16.96"
       style="fill:none;stroke:#000000;stroke-width:0.24;stroke-linecap:butt;stroke-linejoin:miter;stroke-miterlimit:2;stroke-dasharray:none;stroke-opacity:1"
       transform="matrix(1.3333333,0,0,1.3333333,355.86979,276.66667)"
       clip-path="url(#clipPath143)" />
    <path
       id="path144"
       d="M 1924.2598,968.41667 1890.9264,951.75 v 33.33333 z"
       style="fill:#000000;fill-opacity:1;fill-rule:nonzero;stroke:none"
       transform="matrix(0.32,0,0,0.32,13.44,13.440001)"
       clip-path="url(#clipPath145)" />
    <path
       id="path146"
       d="m 180.09766,35.02 h 16.96"
       style="fill:none;stroke:#000000;stroke-width:0.24;stroke-linecap:butt;stroke-linejoin:miter;stroke-miterlimit:2;stroke-dasharray:none;stroke-opacity:1"
       transform="matrix(1.3333333,0,0,1.3333333,355.86979,276.66667)"
       clip-path="url(#clipPath147)" />
    <path
       id="path148"
       d="m 1924.2598,1426.75 -33.3334,-16.6667 v 33.3334 z"
       style="fill:#000000;fill-opacity:1;fill-rule:nonzero;stroke:none"
       transform="matrix(0.32,0,0,0.32,13.44,13.440001)"
       clip-path="url(#clipPath149)" />
    <path
       id="path150"
       d="m 180.09766,145.18 h 16.96"
       style="fill:none;stroke:#000000;stroke-width:0.24;stroke-linecap:butt;stroke-linejoin:miter;stroke-miterlimit:2;stroke-dasharray:none;stroke-opacity:1"
       transform="matrix(1.3333333,0,0,1.3333333,355.86979,276.66667)"
       clip-path="url(#clipPath151)" />
  </g>
</svg>
