<?xml version="1.0" encoding="UTF-8" standalone="no"?>
<!-- Created with Inkscape (http://www.inkscape.org/) -->

<svg
   version="1.1"
   id="svg1"
   width="401.13"
   height="156.78375"
   viewBox="0 0 401.13 156.78375"
   sodipodi:docname="lab1_task3_freq_triangle_diagram.svg"
   xmlns:inkscape="http://www.inkscape.org/namespaces/inkscape"
   xmlns:sodipodi="http://sodipodi.sourceforge.net/DTD/sodipodi-0.dtd"
   xmlns="http://www.w3.org/2000/svg"
   xmlns:svg="http://www.w3.org/2000/svg">
  <defs
     id="defs1">
    <clipPath
       clipPathUnits="userSpaceOnUse"
       id="clipPath3">
      <path
         d="m 1180.9167,1058 h 854.1666 v 350 h -854.1666 z"
         transform="matrix(0.24000001,0,0,0.24000001,-440.42001,-255.92001)"
         clip-rule="evenodd"
         id="path3" />
    </clipPath>
    <clipPath
       clipPathUnits="userSpaceOnUse"
       id="clipPath12">
      <path
         d="m 1801.75,1028.8333 h 254.1667 v 283.3334 H 1801.75 Z"
         clip-rule="evenodd"
         id="path12" />
    </clipPath>
    <clipPath
       clipPathUnits="userSpaceOnUse"
       id="clipPath14">
      <path
         d="m 1801.75,1028.8333 h 254.1667 v 283.3334 H 1801.75 Z"
         transform="matrix(0.53333333,0,0,0.48,-978.71112,-511.84)"
         clip-rule="evenodd"
         id="path14" />
    </clipPath>
    <clipPath
       clipPathUnits="userSpaceOnUse"
       id="clipPath16">
      <path
         d="m 1801.75,1028.8333 h 254.1667 v 283.3334 H 1801.75 Z"
         clip-rule="evenodd"
         id="path16" />
    </clipPath>
    <clipPath
       clipPathUnits="userSpaceOnUse"
       id="clipPath18">
      <path
         d="m 1801.75,1028.8333 h 254.1667 v 283.3334 H 1801.75 Z"
         transform="matrix(0.53333333,0,0,0.48,-978.71112,-511.84)"
         clip-rule="evenodd"
         id="path18" />
    </clipPath>
    <clipPath
       clipPathUnits="userSpaceOnUse"
       id="clipPath20">
      <path
         d="m 1801.75,1028.8333 h 254.1667 v 283.3334 H 1801.75 Z"
         clip-rule="evenodd"
         id="path20" />
    </clipPath>
    <clipPath
       clipPathUnits="userSpaceOnUse"
       id="clipPath22">
      <path
         d="m 1801.75,1028.8333 h 254.1667 v 283.3334 H 1801.75 Z"
         transform="matrix(0.53333333,0,0,0.48,-978.71112,-511.84)"
         clip-rule="evenodd"
         id="path22" />
    </clipPath>
    <clipPath
       clipPathUnits="userSpaceOnUse"
       id="clipPath24">
      <path
         d="m 1801.75,1028.8333 h 254.1667 v 283.3334 H 1801.75 Z"
         clip-rule="evenodd"
         id="path24" />
    </clipPath>
    <clipPath
       clipPathUnits="userSpaceOnUse"
       id="clipPath26">
      <path
         d="m 1801.75,1028.8333 h 254.1667 v 283.3334 H 1801.75 Z"
         clip-rule="evenodd"
         id="path26" />
    </clipPath>
    <clipPath
       clipPathUnits="userSpaceOnUse"
       id="clipPath28">
      <path
         d="m 1801.75,1028.8333 h 254.1667 v 283.3334 H 1801.75 Z"
         clip-rule="evenodd"
         id="path28" />
    </clipPath>
    <clipPath
       clipPathUnits="userSpaceOnUse"
       id="clipPath30">
      <path
         d="m 1801.75,1028.8333 h 254.1667 v 283.3334 H 1801.75 Z"
         clip-rule="evenodd"
         id="path30" />
    </clipPath>
    <clipPath
       clipPathUnits="userSpaceOnUse"
       id="clipPath32">
      <path
         d="m 1801.75,1028.8333 h 254.1667 v 283.3334 H 1801.75 Z"
         clip-rule="evenodd"
         id="path32" />
    </clipPath>
    <clipPath
       clipPathUnits="userSpaceOnUse"
       id="clipPath34">
      <path
         d="m 1801.75,1028.8333 h 254.1667 v 283.3334 H 1801.75 Z"
         clip-rule="evenodd"
         id="path34" />
    </clipPath>
    <clipPath
       clipPathUnits="userSpaceOnUse"
       id="clipPath36">
      <path
         d="m 1801.75,1028.8333 h 254.1667 v 283.3334 H 1801.75 Z"
         clip-rule="evenodd"
         id="path36" />
    </clipPath>
    <clipPath
       clipPathUnits="userSpaceOnUse"
       id="clipPath41">
      <path
         d="m 1180.9167,1058 h 854.1666 v 350 h -854.1666 z"
         transform="matrix(0.24000001,0,0,0.24000001,-440.42001,-255.92001)"
         clip-rule="evenodd"
         id="path41" />
    </clipPath>
    <clipPath
       clipPathUnits="userSpaceOnUse"
       id="clipPath42">
      <path
         d="m 1835.6693,1283 h 186.3281 v 116.6667 h -186.3281 z"
         transform="matrix(0.24000001,0,0,0.24000001,-441.56064,-318.92001)"
         clip-rule="evenodd"
         id="path42" />
    </clipPath>
    <clipPath
       clipPathUnits="userSpaceOnUse"
       id="clipPath44">
      <path
         d="m 1835.6693,1283 h 186.3281 v 116.6667 h -186.3281 z"
         transform="matrix(0.32,0,0,0.32,13.44,13.440001)"
         clip-rule="evenodd"
         id="path44" />
    </clipPath>
    <clipPath
       clipPathUnits="userSpaceOnUse"
       id="clipPath46">
      <path
         d="m 1835.6693,1283 h 186.3281 v 116.6667 h -186.3281 z"
         transform="matrix(0.24000001,0,0,0.24000001,-443.49813,-331.92001)"
         clip-rule="evenodd"
         id="path46" />
    </clipPath>
    <clipPath
       clipPathUnits="userSpaceOnUse"
       id="clipPath48">
      <path
         d="m 1180.9167,1058 h 854.1666 v 350 h -854.1666 z"
         transform="matrix(0.24000001,0,0,0.24000001,-285.42001,-261.92001)"
         clip-rule="evenodd"
         id="path48" />
    </clipPath>
    <clipPath
       clipPathUnits="userSpaceOnUse"
       id="clipPath51">
      <path
         d="m 1180.9167,1058 h 854.1666 v 350 h -854.1666 z"
         transform="matrix(0.24000001,0,0,0.24000001,-120.92001,-166.42)"
         clip-rule="evenodd"
         id="path51" />
    </clipPath>
    <clipPath
       clipPathUnits="userSpaceOnUse"
       id="clipPath53">
      <path
         d="m 1180.9167,1058 h 854.1666 v 350 h -854.1666 z"
         transform="matrix(0.24000001,0,0,0.24000001,-120.92001,-166.42)"
         clip-rule="evenodd"
         id="path53" />
    </clipPath>
    <clipPath
       clipPathUnits="userSpaceOnUse"
       id="clipPath55">
      <path
         d="m 1180.9167,1058 h 854.1666 v 350 h -854.1666 z"
         transform="matrix(0.24000001,0,0,0.24000001,-120.92001,-166.42)"
         clip-rule="evenodd"
         id="path55" />
    </clipPath>
    <clipPath
       clipPathUnits="userSpaceOnUse"
       id="clipPath57">
      <path
         d="m 1180.9167,1058 h 854.1666 v 350 h -854.1666 z"
         transform="matrix(0.24000001,0,0,0.24000001,-120.92001,-166.42)"
         clip-rule="evenodd"
         id="path57" />
    </clipPath>
    <clipPath
       clipPathUnits="userSpaceOnUse"
       id="clipPath59">
      <path
         d="m 1180.9167,1058 h 854.1666 v 350 h -854.1666 z"
         transform="matrix(0.24000001,0,0,0.24000001,-120.92001,-166.42)"
         clip-rule="evenodd"
         id="path59" />
    </clipPath>
    <clipPath
       clipPathUnits="userSpaceOnUse"
       id="clipPath61">
      <path
         d="m 1180.9167,1058 h 854.1666 v 350 h -854.1666 z"
         transform="matrix(0.24000001,0,0,0.24000001,-120.92001,-166.42)"
         clip-rule="evenodd"
         id="path61" />
    </clipPath>
    <clipPath
       clipPathUnits="userSpaceOnUse"
       id="clipPath63">
      <path
         d="m 1180.9167,1058 h 854.1666 v 350 h -854.1666 z"
         transform="matrix(0.24000001,0,0,0.24000001,-285.42001,-261.92001)"
         clip-rule="evenodd"
         id="path63" />
    </clipPath>
    <clipPath
       clipPathUnits="userSpaceOnUse"
       id="clipPath64">
      <path
         d="m 1193.5794,1258 h 199.6745 v 116.6667 h -199.6745 z"
         transform="matrix(0.24000001,0,0,0.24000001,-292.58407,-312.92001)"
         clip-rule="evenodd"
         id="path64" />
    </clipPath>
    <clipPath
       clipPathUnits="userSpaceOnUse"
       id="clipPath66">
      <path
         d="m 1193.5794,1258 h 199.6745 v 116.6667 h -199.6745 z"
         transform="matrix(0.32,0,0,0.32,13.44,13.440001)"
         clip-rule="evenodd"
         id="path66" />
    </clipPath>
    <clipPath
       clipPathUnits="userSpaceOnUse"
       id="clipPath68">
      <path
         d="m 1193.5794,1258 h 199.6745 v 116.6667 h -199.6745 z"
         transform="matrix(0.24000001,0,0,0.24000001,-287.95906,-325.92001)"
         clip-rule="evenodd"
         id="path68" />
    </clipPath>
    <clipPath
       clipPathUnits="userSpaceOnUse"
       id="clipPath70">
      <path
         d="m 1180.9167,1058 h 854.1666 v 350 h -854.1666 z"
         clip-rule="evenodd"
         id="path70" />
    </clipPath>
    <clipPath
       clipPathUnits="userSpaceOnUse"
       id="clipPath72">
      <path
         d="m 1180.9167,1058 h 854.1666 v 350 h -854.1666 z"
         transform="matrix(0.24000001,0,0,0.24000001,-120.42,-165.92001)"
         clip-rule="evenodd"
         id="path72" />
    </clipPath>
  </defs>
  <sodipodi:namedview
     id="namedview1"
     pagecolor="#ffffff"
     bordercolor="#000000"
     borderopacity="0.25"
     inkscape:showpageshadow="2"
     inkscape:pageopacity="0.0"
     inkscape:pagecheckerboard="0"
     inkscape:deskcolor="#d1d1d1">
    <inkscape:page
       x="0"
       y="0"
       inkscape:label="1"
       id="page1"
       width="401.13"
       height="156.78375"
       margin="0"
       bleed="0" />
  </sodipodi:namedview>
  <rect
     style="fill:#ffffff;stroke-width:1.61629"
     id="rect1"
     width="401.13"
     height="156.78375"
     x="326.76834"
     y="328.15936"
     transform="translate(-326.76833,-328.15936)" />
  <g
     id="g1"
     inkscape:groupmode="layer"
     inkscape:label="1"
     transform="translate(-326.76833,-328.15936)">
    <path
       id="path2"
       d="M 0,0 H 45 V 50 H 0 Z"
       style="fill:#ffffff;fill-opacity:1;fill-rule:nonzero;stroke:none"
       transform="matrix(1.3333333,0,0,1.3333333,600.66667,354.66667)"
       clip-path="url(#clipPath3)" />
    <path
       id="path11"
       d="m 1853.8333,1087.1667 h 150 v 125 h -150 z"
       style="fill:#bebebe;fill-opacity:1;fill-rule:evenodd;stroke:none"
       transform="matrix(0.32,0,0,0.32,13.44,13.440001)"
       clip-path="url(#clipPath12)" />
    <path
       id="path13"
       d="M 10,10 H 90 V 70 H 10 Z"
       style="fill:none;stroke:#000000;stroke-width:3;stroke-linecap:butt;stroke-linejoin:miter;stroke-miterlimit:4;stroke-dasharray:none;stroke-opacity:1"
       transform="matrix(0.6,0,0,0.66666667,600.66667,354.66667)"
       clip-path="url(#clipPath14)" />
    <path
       id="path15"
       d="m 1872.5833,1191.3333 h 112.5"
       style="fill:#000000;fill-opacity:1;fill-rule:nonzero;stroke:none"
       transform="matrix(0.32,0,0,0.32,13.44,13.440001)"
       clip-path="url(#clipPath16)" />
    <path
       id="path17"
       d="M 20,60 H 80"
       style="fill:none;stroke:#000000;stroke-width:2;stroke-linecap:butt;stroke-linejoin:miter;stroke-miterlimit:4;stroke-dasharray:none;stroke-opacity:1"
       transform="matrix(0.6,0,0,0.66666667,600.66667,354.66667)"
       clip-path="url(#clipPath18)" />
    <path
       id="path19"
       d="m 1874.4583,1110.0833 v 81.25"
       style="fill:#000000;fill-opacity:1;fill-rule:nonzero;stroke:none"
       transform="matrix(0.32,0,0,0.32,13.44,13.440001)"
       clip-path="url(#clipPath20)" />
    <path
       id="path21"
       d="M 21,21 V 60"
       style="fill:none;stroke:#000000;stroke-width:2;stroke-linecap:butt;stroke-linejoin:miter;stroke-miterlimit:4;stroke-dasharray:none;stroke-opacity:1"
       transform="matrix(0.6,0,0,0.66666667,600.66667,354.66667)"
       clip-path="url(#clipPath22)" />
    <path
       id="path23"
       d="m 1883.8333,1124.6667 -1.875,2.0833 v 62.5 h 11.25 v -62.5 l -1.875,-2.0833 z"
       style="fill:#ffff00;fill-opacity:1;fill-rule:nonzero;stroke:none"
       transform="matrix(0.32,0,0,0.32,13.44,13.440001)"
       clip-path="url(#clipPath24)" />
    <path
       id="path25"
       d="m 1895.0833,1145.5 -1.875,2.0833 v 41.6667 h 11.25 v -41.6667 l -1.875,-2.0833 z"
       style="fill:#ffff00;fill-opacity:1;fill-rule:nonzero;stroke:none"
       transform="matrix(0.32,0,0,0.32,13.44,13.440001)"
       clip-path="url(#clipPath26)" />
    <path
       id="path27"
       d="m 1906.3333,1108 -1.875,2.0833 v 79.1667 h 11.25 v -79.1667 l -1.875,-2.0833 z"
       style="fill:#ffff00;fill-opacity:1;fill-rule:nonzero;stroke:none"
       transform="matrix(0.32,0,0,0.32,13.44,13.440001)"
       clip-path="url(#clipPath28)" />
    <path
       id="path29"
       d="m 1917.5833,1130.9167 -1.875,2.0833 v 56.25 h 11.25 V 1133 l -1.875,-2.0833 z"
       style="fill:#ffff00;fill-opacity:1;fill-rule:nonzero;stroke:none"
       transform="matrix(0.32,0,0,0.32,13.44,13.440001)"
       clip-path="url(#clipPath30)" />
    <path
       id="path31"
       d="m 1928.8333,1130.9167 -1.875,2.0833 v 56.25 h 11.25 V 1133 l -1.875,-2.0833 z"
       style="fill:#ffff00;fill-opacity:1;fill-rule:nonzero;stroke:none"
       transform="matrix(0.32,0,0,0.32,13.44,13.440001)"
       clip-path="url(#clipPath32)" />
    <path
       id="path33"
       d="m 1940.0833,1116.3333 -1.875,2.0834 v 70.8333 h 11.25 v -70.8333 l -1.875,-2.0834 z"
       style="fill:#ffff00;fill-opacity:1;fill-rule:nonzero;stroke:none"
       transform="matrix(0.32,0,0,0.32,13.44,13.440001)"
       clip-path="url(#clipPath34)" />
    <path
       id="path35"
       d="m 1951.3333,1164.25 -1.875,2.0833 v 22.9167 h 11.25 v -22.9167 l -1.875,-2.0833 z"
       style="fill:#ffff00;fill-opacity:1;fill-rule:nonzero;stroke:none"
       transform="matrix(0.32,0,0,0.32,13.44,13.440001)"
       clip-path="url(#clipPath36)" />
    <path
       id="path40"
       d="M 0,0 H 45 V 50 H 0 Z"
       style="fill:none;stroke:#000000;stroke-width:0.565047;stroke-linecap:butt;stroke-linejoin:miter;stroke-miterlimit:2;stroke-dasharray:none;stroke-opacity:1"
       transform="matrix(1.3333333,0,0,1.3333333,600.66667,354.66667)"
       clip-path="url(#clipPath41)" />
    <g
       id="g43"
       clip-path="url(#clipPath44)">
      <path
         d="m 0.4453127,-2.2958994 0.9023438,-0.082031 c 0.038086,0.3603516 0.1347656,0.6533203 0.2929687,0.8789063 0.1464844,0.234375 0.3867188,0.421875 0.7148438,0.56249998 0.328125,0.140625 0.6943359,0.2109375 1.1015625,0.2109375 0.3574218,0 0.6796875,-0.0527344 0.9609375,-0.1640625 0.2724609,-0.0996094 0.4746093,-0.24902348 0.609375,-0.44531248 0.1318359,-0.178711 0.1992187,-0.3808594 0.1992187,-0.609375 0,-0.2167969 -0.064453,-0.413086 -0.1875,-0.5859375 C 4.9042971,-2.6943369 4.6904299,-2.8349619 4.3945315,-2.9521494 4.1982424,-3.0224619 3.7734377,-3.1396494 3.1171877,-3.3037119 2.4609377,-3.4589854 1.9980471,-3.6083994 1.7343752,-3.7490244 1.3974611,-3.9189463 1.1425783,-4.1416026 0.97265645,-4.4169932 c -0.17285156,-0.2636719 -0.25488281,-0.5625 -0.24609375,-0.890625 0,-0.3574219 0.0996094,-0.6943359 0.3046875,-1.0078125 0.2021484,-0.3105469 0.5039063,-0.5507812 0.9023438,-0.7148437 0.3808593,-0.1640625 0.8203125,-0.2460938 1.3125,-0.2460938 0.5214843,0 0.9902343,0.087891 1.40625,0.2578125 0.3984375,0.1728516 0.7060546,0.421875 0.9257812,0.75 0.2167969,0.3369141 0.3339844,0.7119141 0.3515625,1.125 L 5.027344,-5.0732432 C 4.9716799,-5.5244151 4.8076174,-5.8642588 4.5351565,-6.0927744 4.2451174,-6.3183604 3.8261721,-6.4355479 3.2812502,-6.4443369 c -0.5800781,0 -0.9960937,0.1054687 -1.2539062,0.3164062 -0.2578125,0.2109375 -0.3867188,0.4658203 -0.3867188,0.7617188 0,0.2578125 0.087891,0.46875 0.2695313,0.6328125 0.1787109,0.1728515 0.65625,0.3398437 1.4296875,0.5039062 0.7646484,0.1816406 1.3242187,0.3515625 1.6757812,0.515625 0.3515625,0.1582031 0.6269531,0.3837891 0.8320313,0.6796875 0.1933593,0.2988282 0.2929687,0.6386719 0.2929687,1.0195313 0,0.375 -0.1113281,0.7324219 -0.328125,1.06640623 -0.2197266,0.34570312 -0.5273437,0.60644531 -0.9257812,0.78515625 -0.4160157,0.19335938 -0.8759766,0.28710938 -1.3828125,0.28125 -0.65625,0.005859 -1.2011719,-0.08789062 -1.6289063,-0.28125 -0.4394531,-0.1875 -0.7822266,-0.47167969 -1.03125,-0.85546878 -0.25195312,-0.375 -0.38378906,-0.7998047 -0.3984375,-1.2773437 z m 6.8671875,4.2890625 v -7.171875 H 8.121094 v 0.6679687 c 0.1787109,-0.2636719 0.3896484,-0.4628906 0.6328125,-0.5976562 0.2402343,-0.1230469 0.5302734,-0.1875 0.8671875,-0.1875 0.436523,0 0.826172,0.1142578 1.171875,0.3398437 0.333984,0.2285156 0.588867,0.5478516 0.761719,0.9609375 0.169922,0.421875 0.257812,0.8789063 0.257812,1.3710938 0,0.5332031 -0.09375,1.0078125 -0.28125,1.4296875 -0.1875,0.42187498 -0.46582,0.74707029 -0.832031,0.97265623 -0.369141,0.22558594 -0.75,0.33984375 -1.1484375,0.33984375 -0.2900391,0 -0.5507813,-0.06445312 -0.7851563,-0.1875 -0.234375,-0.1171875 -0.4277344,-0.27246094 -0.5742187,-0.46875 V 1.9931631 Z m 0.796875,-4.5585938 c 0,0.6738282 0.1347656,1.1689453 0.4101563,1.4882813 0.2636718,0.31347654 0.5888672,0.46874998 0.9726562,0.46874998 0.3896485,0 0.7265623,-0.1640625 1.0078123,-0.49218748 0.28125,-0.328125 0.421875,-0.8378906 0.421875,-1.5351563 -0.0088,-0.65625 -0.146484,-1.1513672 -0.410156,-1.4882812 -0.275391,-0.319336 -0.5976563,-0.4833985 -0.9726563,-0.4921875 -0.383789,0.00879 -0.7148437,0.1845703 -0.9960937,0.5273437 -0.2900391,0.3515625 -0.4335938,0.8613281 -0.4335938,1.5234375 z m 8.2998048,0.9023438 0.902344,0.1054687 c -0.140625,0.5332032 -0.404297,0.94628909 -0.785157,1.24218753 -0.392578,0.29003906 -0.887695,0.43359375 -1.488281,0.43359375 -0.758789,0 -1.359375,-0.234375 -1.804687,-0.703125 C 12.788086,-1.0449229 12.56543,-1.6982432 12.56543,-2.5419932 c 0,-0.8730469 0.225586,-1.5527344 0.679687,-2.0390625 0.445313,-0.4746094 1.025391,-0.7148437 1.746094,-0.7148437 0.694336,0 1.259766,0.234375 1.699219,0.703125 0.436523,0.477539 0.65625,1.1425781 0.65625,1.9921875 0,0.055664 0,0.1347656 0,0.234375 h -3.867188 c 0.0293,0.571289 0.19043,1.0078125 0.480469,1.3125 0.28711,0.2988281 0.647461,0.44531248 1.078125,0.44531248 0.319336,0.008789 0.597656,-0.0732422 0.832031,-0.24609375 0.225586,-0.16992183 0.404297,-0.43945313 0.539063,-0.80859373 z m -2.882813,-1.4296875 h 2.894532 c -0.04687,-0.4277344 -0.1875,-0.7792969 -0.421875,-1.0546875 -0.228516,-0.28125 -0.559571,-0.4248047 -0.996094,-0.4335938 -0.407227,0.00879 -0.74707,0.1464844 -1.019531,0.4101563 -0.28125,0.2666015 -0.433594,0.6269531 -0.457032,1.078125 z m 8.267579,1.1953125 0.867187,0.1171875 c -0.102539,0.5947265 -0.345703,1.06054685 -0.726562,1.39453123 -0.392579,0.33691406 -0.873047,0.50390625 -1.441407,0.50390625 -0.703125,0 -1.271484,-0.234375 -1.699218,-0.703125 -0.439454,-0.45996098 -0.65625,-1.11914058 -0.65625,-1.98046878 0,-0.5625 0.09375,-1.0546875 0.28125,-1.4765625 0.1875,-0.421875 0.471679,-0.7382812 0.855468,-0.9492187 0.366211,-0.2021485 0.776367,-0.3046875 1.230469,-0.3046875 0.5625,0 1.022461,0.140625 1.382813,0.421875 0.351562,0.290039 0.580078,0.6972656 0.691406,1.21875 l -0.855469,0.1289062 c -0.08789,-0.3427734 -0.231445,-0.6035156 -0.433594,-0.7851562 -0.210937,-0.178711 -0.500976,-0.2695313 -0.867187,-0.2695313 -0.369141,0 -0.688477,0.1611328 -0.960938,0.4804688 -0.28125,0.3222656 -0.421875,0.8203125 -0.421875,1.5 0,0.703125 0.134766,1.2128906 0.410157,1.5234375 0.263671,0.3222656 0.612304,0.47753904 1.042968,0.46874998 0.342774,0 0.626953,-0.10546875 0.855469,-0.31640625 0.234375,-0.20214843 0.380859,-0.52734373 0.445313,-0.97265623 z m 3.533203,1.11328123 0.128906,0.7734375 c -0.251953,0.05273438 -0.503906,0.08203125 -0.761719,0.08203125 -0.257812,0 -0.474609,-0.05273437 -0.644531,-0.15234375 -0.181641,-0.09960938 -0.304688,-0.234375 -0.375,-0.3984375 -0.07031,-0.1640625 -0.105469,-0.50976563 -0.105469,-1.04296873 v -2.9765625 h -0.644531 v -0.6796875 h 0.644531 v -1.2890625 l 0.878906,-0.5273438 v 1.8164063 h 0.878907 v 0.6796875 h -0.878907 v 3.0351562 c -0.0088,0.2519532 0.0029,0.4101563 0.03516,0.48046878 0.0293,0.0703125 0.08496,0.12597656 0.164062,0.1640625 0.06152,0.046875 0.158203,0.0703125 0.292969,0.0703125 0.09375,0 0.222656,-0.0117188 0.386719,-0.0351563 z M 26.15918,9.755801e-4 V -5.1787119 h 0.796875 v 0.7851562 c 0.193359,-0.3662109 0.380859,-0.609375 0.5625,-0.7265625 0.164062,-0.1171875 0.369141,-0.1757812 0.621094,-0.1757812 0.249023,0 0.530273,0.09375 0.84375,0.28125 l -0.304688,0.8085937 c -0.219726,-0.1230469 -0.433594,-0.1875 -0.644531,-0.1875 -0.196289,0.00879 -0.369141,0.067383 -0.515625,0.1757813 -0.158203,0.1171875 -0.27832,0.3046875 -0.363281,0.5625 -0.0791,0.2578125 -0.117188,0.571289 -0.117188,0.9375 V 9.755801e-4 Z m 6.738281,0 V -0.76074317 c -0.407226,0.5859375 -0.955078,0.87890625 -1.640625,0.87890625 -0.313476,0 -0.597656,-0.05859375 -0.855469,-0.17578125 -0.27539,-0.1171875 -0.474609,-0.26367188 -0.597656,-0.4453125 -0.134765,-0.16992188 -0.222656,-0.38671875 -0.269531,-0.64453123 -0.03223,-0.1699219 -0.04687,-0.4453125 -0.04687,-0.8203125 v -3.2109375 h 0.878906 v 2.8710937 c 0,0.4628907 0.01758,0.7910157 0.05859,0.984375 0.04687,0.1962891 0.158203,0.3574219 0.339844,0.48046878 0.178711,0.13476562 0.401367,0.19921875 0.667968,0.19921875 0.257813,0 0.503907,-0.0644531 0.738282,-0.19921875 0.225586,-0.13183594 0.389648,-0.31640628 0.492187,-0.55078128 0.09375,-0.2255859 0.140625,-0.5625 0.140625,-1.0078125 v -2.7773437 h 0.878906 V 9.755801e-4 Z m 2.150391,0 V -5.1787119 h 0.785156 v 0.7265625 c 0.164063,-0.2578125 0.380859,-0.4628907 0.65625,-0.6210938 0.263672,-0.1464844 0.568359,-0.2226562 0.914063,-0.2226562 0.380859,0 0.697265,0.079101 0.949218,0.234375 0.240235,0.1640625 0.413086,0.3867187 0.515625,0.6679687 0.404297,-0.6005859 0.94043,-0.9023437 1.605469,-0.9023437 0.506836,0 0.902344,0.140625 1.183594,0.421875 0.28125,0.290039 0.421875,0.7265625 0.421875,1.3125 V 9.755801e-4 H 41.200196 V -3.2685557 c 0,-0.3515625 -0.0293,-0.6035156 -0.08203,-0.7617187 -0.06445,-0.1464844 -0.169922,-0.2695313 -0.316406,-0.3632813 -0.149414,-0.09375 -0.325195,-0.140625 -0.527344,-0.140625 -0.36914,0 -0.667968,0.1171875 -0.902343,0.3515625 -0.243164,0.2519531 -0.363282,0.6416016 -0.363282,1.171875 V 9.755801e-4 H 38.129883 V -3.3623057 c 0,-0.3896484 -0.07031,-0.6826172 -0.210937,-0.8789062 -0.149414,-0.1933594 -0.383789,-0.2929688 -0.703125,-0.2929688 -0.251954,0 -0.480469,0.064453 -0.691407,0.1875 -0.210937,0.1347656 -0.363281,0.3251953 -0.457031,0.5742188 -0.09375,0.2519531 -0.140625,0.6152344 -0.140625,1.0898437 V 9.755801e-4 Z m 0,0"
         style="fill:#000000;fill-opacity:1;fill-rule:nonzero;stroke:none"
         aria-label="Spectrum"
         transform="matrix(1.3333333,0,0,1.3333333,602.1875,438.66667)"
         clip-path="url(#clipPath42)"
         id="path43" />
    </g>
    <path
       id="path45"
       d="M -0.01269511,-9.6160005e-7 2.7294924,-7.1601572 H 3.7490236 L 6.6787112,-9.6160005e-7 H 5.6005862 L 4.7685549,-2.1679697 H 1.7802736 L 0.99511739,-9.6160005e-7 Z M 2.0498049,-2.9414072 h 2.4257812 l -0.75,-1.9804688 C 3.4970705,-5.5136728 3.3300783,-6.0058603 3.2216799,-6.3984385 c -0.09375,0.4541016 -0.2226563,0.9082032 -0.3867188,1.359375 z M 7.3115237,-9.6160005e-7 V -5.1796885 h 0.796875 v 0.7382813 c 0.375,-0.5683594 0.9199218,-0.8554688 1.640625,-0.8554688 0.3105473,0 0.6005863,0.055664 0.8671873,0.1640625 0.257813,0.1171875 0.451172,0.2666016 0.585938,0.4453125 0.123047,0.1816407 0.216797,0.3955078 0.28125,0.6445313 0.0293,0.1640625 0.04687,0.4511719 0.04687,0.8554687 V -9.6160005e-7 H 10.651367 V -3.1523447 c 0,-0.3515625 -0.03516,-0.6210938 -0.105468,-0.8085938 -0.07031,-0.1699218 -0.19336,-0.3105468 -0.363282,-0.421875 -0.172851,-0.099609 -0.4160152,-0.1523437 -0.7265621,-0.1523437 -0.3046875,0 -0.5917969,0.1171875 -0.8554687,0.3515625 -0.2753907,0.243164 -0.4101563,0.6914062 -0.4101563,1.3476562 V -9.6160005e-7 Z M 16.247071,-0.64453221 c -0.328125,0.28125 -0.641602,0.47753906 -0.9375,0.5859375 -0.304688,0.1171875 -0.629883,0.17578125 -0.972657,0.17578125 -0.571289,0 -1.007812,-0.140625 -1.3125,-0.421875 -0.313476,-0.27246094 -0.46582,-0.62695313 -0.457031,-1.06640624 0,-0.2490235 0.05859,-0.4804688 0.175781,-0.6914063 0.108399,-0.2109375 0.260742,-0.3779297 0.457032,-0.5039062 0.17871,-0.1230469 0.386718,-0.2226563 0.621093,-0.2929688 0.169922,-0.038086 0.433594,-0.082031 0.785157,-0.1289062 0.703125,-0.076172 1.224609,-0.178711 1.570312,-0.3046875 0,-0.1171875 0,-0.1904297 0,-0.2226563 0,-0.3574218 -0.09961,-0.6240234 -0.292969,-0.796875 -0.196289,-0.1699218 -0.515625,-0.2578125 -0.960937,-0.2578125 -0.416016,0 -0.714844,0.070312 -0.902344,0.2109375 -0.205078,0.1494141 -0.351562,0.4072266 -0.445312,0.7734375 L 12.719727,-3.703126 c 0.07031,-0.3662109 0.199219,-0.6621093 0.386719,-0.890625 0.17871,-0.2255859 0.436523,-0.4013672 0.773437,-0.5273437 0.333984,-0.1171875 0.726563,-0.1757813 1.171875,-0.1757813 0.436523,0 0.796875,0.052734 1.078125,0.1523438 0.272461,0.102539 0.474609,0.2314453 0.609375,0.3867187 0.131836,0.1640625 0.225586,0.3691407 0.28125,0.609375 0.02344,0.1494141 0.03516,0.4189453 0.03516,0.8085938 v 1.171875 c 0,0.8144531 0.01758,1.33007811 0.05859,1.54687499 0.03809,0.21972656 0.111328,0.42773437 0.222656,0.62109374839995 H 16.422852 C 16.329102,-0.1787119 16.270508,-0.39257909 16.247071,-0.64453221 Z m -0.07031,-1.95703129 c -0.322266,0.1347657 -0.802734,0.2431641 -1.441406,0.328125 -0.360352,0.055664 -0.615235,0.1142578 -0.761719,0.1757813 -0.158203,0.070312 -0.275391,0.1640625 -0.351562,0.28125 -0.08789,0.1347656 -0.128907,0.2988281 -0.128907,0.4921875 0,0.1875 0.09375,0.36035155 0.28125,0.51562499 0.169922,0.15820312 0.427735,0.234375 0.773438,0.234375 0.333984,0.008789 0.635742,-0.0644531 0.902344,-0.22265625 0.263671,-0.140625 0.45996,-0.34277344 0.585937,-0.60937504 0.08496,-0.1933593 0.131836,-0.4863281 0.140625,-0.8789062 z M 18.394531,-9.6160005e-7 V -7.1601572 h 0.878907 V -9.6160005e-7 Z M 20.588867,1.9921865 20.495117,1.171874 c 0.1875,0.052734 0.363282,0.082031 0.527344,0.082031 0.169922,0 0.316406,-0.035156 0.433594,-0.1054688 0.117187,-0.064453 0.213867,-0.15234371 0.292969,-0.26953121 0.05273,-0.0878906 0.143554,-0.3046875 0.269531,-0.65625 0.01465,-0.046875 0.04102,-0.1171875 0.08203,-0.2109375 l -1.96875,-5.19140629 h 0.949219 l 1.078125,3 c 0.131836,0.3837891 0.257812,0.7822266 0.375,1.19531254 0.09375,-0.39843754 0.210937,-0.79101564 0.351562,-1.18359374 l 1.113282,-3.0117188 H 24.87793 L 22.90918,0.08203029 C 22.698242,0.65917873 22.522461,1.0722647 22.381836,1.3242178 22.241211,1.5732412 22.071289,1.7636709 21.87793,1.8984365 21.672852,2.0390615 21.432617,2.109374 21.151367,2.109374 c -0.172851,0 -0.360351,-0.041016 -0.5625,-0.1171875 z M 25.167969,-9.6160005e-7 V -0.71484471 L 28.460938,-4.500001 c -0.375,0.017578 -0.703125,0.023437 -0.984375,0.023437 h -2.121094 v -0.703125 h 4.242188 v 0.5742188 l -2.812501,3.2929687 -0.539062,0.59765629 c 0.389648,-0.0292969 0.761719,-0.046875 1.113281,-0.046875 H 29.75 V -9.6160005e-7 Z M 34.176758,-1.6640635 l 0.902344,0.1054688 c -0.140625,0.5332031 -0.404297,0.94628905 -0.785156,1.24218749 -0.392579,0.29003906 -0.887696,0.43359375 -1.488282,0.43359375 -0.758789,0 -1.359375,-0.234375 -1.804687,-0.703125 -0.445313,-0.45996094 -0.667969,-1.11328124 -0.667969,-1.95703124 0,-0.8730469 0.225586,-1.5527344 0.679688,-2.0390625 0.445312,-0.4746094 1.02539,-0.7148438 1.746093,-0.7148438 0.694336,0 1.259766,0.234375 1.699219,0.703125 0.436524,0.4775391 0.65625,1.1425782 0.65625,1.9921875 0,0.055664 0,0.1347657 0,0.234375 h -3.867187 c 0.0293,0.5712891 0.190429,1.0078125 0.480468,1.3125 0.28711,0.29882816 0.647461,0.44531254 1.078125,0.44531254 0.319336,0.008789 0.597657,-0.0732422 0.832032,-0.24609375 0.225586,-0.16992189 0.404296,-0.43945309 0.539062,-0.80859379 z M 31.293946,-3.093751 h 2.894531 c -0.04687,-0.4277343 -0.1875,-0.7792968 -0.421875,-1.0546875 -0.228516,-0.28125 -0.55957,-0.4248047 -0.996094,-0.4335937 -0.407226,0.00879 -0.74707,0.1464844 -1.019531,0.4101562 -0.28125,0.2666016 -0.433594,0.6269532 -0.457031,1.078125 z M 36.160157,-9.6160005e-7 V -5.1796885 h 0.796875 v 0.7851563 c 0.193359,-0.366211 0.380859,-0.609375 0.5625,-0.7265625 0.164062,-0.1171875 0.36914,-0.1757813 0.621093,-0.1757813 0.249024,0 0.530274,0.09375 0.84375,0.28125 l -0.304687,0.8085938 c -0.219727,-0.1230469 -0.433594,-0.1875 -0.644531,-0.1875 -0.19629,0.00879 -0.369141,0.067383 -0.515625,0.1757812 -0.158204,0.1171875 -0.278321,0.3046875 -0.363282,0.5625 -0.0791,0.2578125 -0.117187,0.5712891 -0.117187,0.9375 V -9.6160005e-7 Z m 0,0"
       style="fill:#000000;fill-opacity:1;fill-rule:nonzero;stroke:none"
       aria-label="Analyzer"
       transform="matrix(1.3333333,0,0,1.3333333,604.77083,456)"
       clip-path="url(#clipPath46)" />
    <path
       id="path47"
       d="M 0,0 H 50 V 38 H 0 Z"
       style="fill:#ffffff;fill-opacity:1;fill-rule:nonzero;stroke:none"
       transform="matrix(1.3333333,0,0,1.3333333,394,362.66667)"
       clip-path="url(#clipPath48)" />
    <path
       id="path50"
       d="m 165,115 6,-19"
       style="fill:none;stroke:#000000;stroke-width:0.24;stroke-linecap:butt;stroke-linejoin:miter;stroke-miterlimit:2;stroke-dasharray:none;stroke-opacity:1"
       transform="matrix(1.3333333,0,0,1.3333333,174.66667,235.33333)"
       clip-path="url(#clipPath51)" />
    <path
       id="path52"
       d="m 171,96 12,37"
       style="fill:none;stroke:#000000;stroke-width:0.24;stroke-linecap:butt;stroke-linejoin:miter;stroke-miterlimit:2;stroke-dasharray:none;stroke-opacity:1"
       transform="matrix(1.3333333,0,0,1.3333333,174.66667,235.33333)"
       clip-path="url(#clipPath53)" />
    <path
       id="path54"
       d="m 183,133 7,-18"
       style="fill:none;stroke:#000000;stroke-width:0.24;stroke-linecap:butt;stroke-linejoin:miter;stroke-miterlimit:2;stroke-dasharray:none;stroke-opacity:1"
       transform="matrix(1.3333333,0,0,1.3333333,174.66667,235.33333)"
       clip-path="url(#clipPath55)" />
    <path
       id="path56"
       d="m 190,115 6,-19"
       style="fill:none;stroke:#000000;stroke-width:0.24;stroke-linecap:butt;stroke-linejoin:miter;stroke-miterlimit:2;stroke-dasharray:none;stroke-opacity:1"
       transform="matrix(1.3333333,0,0,1.3333333,174.66667,235.33333)"
       clip-path="url(#clipPath57)" />
    <path
       id="path58"
       d="m 196,96 12,37"
       style="fill:none;stroke:#000000;stroke-width:0.24;stroke-linecap:butt;stroke-linejoin:miter;stroke-miterlimit:2;stroke-dasharray:none;stroke-opacity:1"
       transform="matrix(1.3333333,0,0,1.3333333,174.66667,235.33333)"
       clip-path="url(#clipPath59)" />
    <path
       id="path60"
       d="m 208,133 6,-18"
       style="fill:none;stroke:#000000;stroke-width:0.24;stroke-linecap:butt;stroke-linejoin:miter;stroke-miterlimit:2;stroke-dasharray:none;stroke-opacity:1"
       transform="matrix(1.3333333,0,0,1.3333333,174.66667,235.33333)"
       clip-path="url(#clipPath61)" />
    <path
       id="path62"
       d="M 0,0 H 50 V 38 H 0 Z"
       style="fill:none;stroke:#000000;stroke-width:0.565047;stroke-linecap:butt;stroke-linejoin:miter;stroke-miterlimit:2;stroke-dasharray:none;stroke-opacity:1"
       transform="matrix(1.3333333,0,0,1.3333333,394,362.66667)"
       clip-path="url(#clipPath63)" />
    <g
       id="g65"
       clip-path="url(#clipPath66)">
      <path
         d="M 2.5888689,9.755801e-4 V -6.3154307 H 0.23340015 v -0.84375 H 5.9052752 v 0.84375 H 3.5380877 V 9.755801e-4 Z m 3.7734375,0 V -5.1787119 h 0.796875 v 0.7851562 c 0.1933594,-0.3662109 0.3808594,-0.609375 0.5625,-0.7265625 0.1640625,-0.1171875 0.3691406,-0.1757812 0.6210938,-0.1757812 0.2490234,0 0.5302734,0.09375 0.84375,0.28125 l -0.3046875,0.8085937 c -0.2197266,-0.1230469 -0.4335938,-0.1875 -0.6445313,-0.1875 -0.1962891,0.00879 -0.3691406,0.067383 -0.515625,0.1757813 -0.1582031,0.1171875 -0.2783203,0.3046875 -0.3632812,0.5625 -0.079102,0.2578125 -0.1171875,0.571289 -0.1171875,0.9375 V 9.755801e-4 Z M 9.7138689,-6.1396494 v -1.0195313 h 0.8789061 v 1.0195313 z m 0,6.1406249801 V -5.1787119 H 10.592775 V 9.755801e-4 Z M 15.309572,-0.64355567 c -0.328125,0.28125 -0.641602,0.47753906 -0.9375,0.5859375 -0.304687,0.1171875 -0.629883,0.17578125 -0.972656,0.17578125 -0.571289,0 -1.007813,-0.140625 -1.3125,-0.421875 -0.313477,-0.27246094 -0.465821,-0.62695313 -0.457031,-1.06640628 0,-0.2490234 0.05859,-0.4804687 0.175781,-0.6914062 0.108398,-0.2109375 0.260742,-0.3779297 0.457031,-0.5039063 0.178711,-0.1230468 0.386719,-0.2226562 0.621094,-0.2929687 0.169922,-0.038086 0.433594,-0.082031 0.785156,-0.1289063 0.703125,-0.076172 1.224609,-0.1787109 1.570313,-0.3046875 0,-0.1171875 0,-0.1904297 0,-0.2226562 0,-0.3574219 -0.09961,-0.6240235 -0.292969,-0.796875 -0.196289,-0.1699219 -0.515625,-0.2578125 -0.960938,-0.2578125 -0.416015,0 -0.714843,0.070312 -0.902343,0.2109375 -0.205079,0.149414 -0.351563,0.4072265 -0.445313,0.7734375 l -0.855469,-0.1171875 c 0.07031,-0.366211 0.199219,-0.6621094 0.386719,-0.890625 0.178711,-0.225586 0.436523,-0.4013672 0.773438,-0.5273438 0.333984,-0.1171875 0.726562,-0.1757812 1.171875,-0.1757812 0.436523,0 0.796875,0.052734 1.078125,0.1523437 0.27246,0.1025391 0.474609,0.2314453 0.609375,0.3867188 0.131835,0.1640625 0.225585,0.3691406 0.28125,0.609375 0.02344,0.149414 0.03516,0.4189453 0.03516,0.8085937 v 1.171875 c 0,0.8144532 0.01758,1.33007815 0.05859,1.54687503 0.03808,0.21972656 0.111328,0.42773437 0.222656,0.6210937501 H 15.485353 C 15.391603,-0.17773536 15.33301,-0.39160255 15.309572,-0.64355567 Z M 15.23926,-2.6005869 c -0.322266,0.1347656 -0.802735,0.243164 -1.441407,0.328125 -0.360351,0.055664 -0.615234,0.1142578 -0.761718,0.1757812 -0.158204,0.070312 -0.275391,0.1640625 -0.351563,0.28125 -0.08789,0.1347657 -0.128906,0.2988282 -0.128906,0.4921875 0,0.1875 0.09375,0.36035159 0.28125,0.51562503 0.169922,0.15820312 0.427734,0.234375 0.773437,0.234375 0.333985,0.008789 0.635742,-0.0644531 0.902344,-0.22265625 0.263672,-0.140625 0.459961,-0.34277348 0.585938,-0.60937498 0.08496,-0.1933594 0.131835,-0.4863281 0.140625,-0.8789063 z M 17.468752,9.755801e-4 V -5.1787119 h 0.796875 v 0.7382812 c 0.375,-0.5683594 0.919922,-0.8554687 1.640625,-0.8554687 0.310547,0 0.600586,0.055664 0.867187,0.1640625 0.257813,0.1171875 0.451172,0.2666015 0.585938,0.4453125 0.123047,0.1816406 0.216797,0.3955078 0.28125,0.6445312 0.0293,0.1640625 0.04687,0.4511719 0.04687,0.8554688 V 9.755801e-4 H 20.808595 V -3.1513682 c 0,-0.3515625 -0.03516,-0.6210937 -0.105468,-0.8085937 -0.07031,-0.1699219 -0.19336,-0.3105469 -0.363282,-0.421875 -0.172851,-0.099609 -0.416015,-0.1523438 -0.726562,-0.1523438 -0.304688,0 -0.591797,0.1171875 -0.855469,0.3515625 -0.27539,0.2431641 -0.410156,0.6914063 -0.410156,1.3476563 V 9.755801e-4 Z m 5.381836,0.4335937499 0.855468,0.1171875 c 0.03809,0.26367188 0.152344,0.46874997 0.339844,0.60937497 0.19336,0.140625 0.480469,0.2109375 0.855469,0.2109375 0.404297,0 0.717773,-0.079101 0.9375,-0.234375 0.216797,-0.16406247 0.369141,-0.39550778 0.457031,-0.69140622 0.03809,-0.18164062 0.05859,-0.55371094 0.05859,-1.125 -0.383789,0.45410156 -0.861328,0.6796875001 -1.429688,0.6796875001 -0.720703,0 -1.274414,-0.2578125001 -1.664062,-0.7734375001 -0.392578,-0.50683598 -0.585938,-1.12499998 -0.585938,-1.85156248 0,-0.4921875 0.08789,-0.9492188 0.269532,-1.3710938 0.178711,-0.4130859 0.439453,-0.7324219 0.785156,-0.9609375 0.333984,-0.2255859 0.732422,-0.3398437 1.195312,-0.3398437 0.609375,0 1.113282,0.2460937 1.511719,0.7382812 v -0.6210937 h 0.808594 v 4.47656248 c 0,0.80273438 -0.0791,1.37402344 -0.234375,1.71093752 -0.172852,0.3427734 -0.433594,0.6123047 -0.785156,0.8085937 -0.360352,0.1933594 -0.802735,0.2929688 -1.324219,0.2929688 -0.618164,0 -1.113281,-0.140625 -1.488281,-0.421875 C 23.02051,1.413085 22.83301,0.99706933 22.850588,0.43456933 Z m 0.738281,-3.11718753 c 0,0.6796875 0.131836,1.1777344 0.398437,1.4882813 0.263672,0.31347654 0.603516,0.46874998 1.019532,0.46874998 0.398437,0 0.732422,-0.15527344 1.007812,-0.46874998 0.272461,-0.3046875 0.410156,-0.7910156 0.410156,-1.4648438 0,-0.6328125 -0.137695,-1.1074219 -0.410156,-1.4296875 -0.290039,-0.3193359 -0.632812,-0.4804687 -1.03125,-0.4804687 -0.383789,0 -0.711914,0.1582031 -0.984375,0.46875 -0.27539,0.3222656 -0.410156,0.7939453 -0.410156,1.4179687 z M 28.55176,9.755801e-4 V -7.1591807 h 0.878906 V 9.755801e-4 Z m 5.780273,-1.6640624801 0.902344,0.1054687 c -0.140625,0.5332032 -0.404297,0.94628909 -0.785156,1.24218753 -0.392579,0.29003906 -0.887696,0.43359375 -1.488282,0.43359375 -0.758789,0 -1.359375,-0.234375 -1.804687,-0.703125 -0.445313,-0.45996098 -0.667969,-1.11328128 -0.667969,-1.95703128 0,-0.8730469 0.225586,-1.5527344 0.679688,-2.0390625 0.445312,-0.4746094 1.02539,-0.7148437 1.746093,-0.7148437 0.694336,0 1.259766,0.234375 1.699219,0.703125 0.436523,0.477539 0.65625,1.1425781 0.65625,1.9921875 0,0.055664 0,0.1347656 0,0.234375 h -3.867187 c 0.0293,0.571289 0.190429,1.0078125 0.480468,1.3125 0.28711,0.2988281 0.647461,0.44531248 1.078125,0.44531248 0.319336,0.008789 0.597657,-0.0732422 0.832032,-0.24609375 0.225585,-0.16992183 0.404296,-0.43945313 0.539062,-0.80859373 z m -2.882812,-1.4296875 h 2.894531 c -0.04687,-0.4277344 -0.1875,-0.7792969 -0.421875,-1.0546875 -0.228516,-0.28125 -0.559571,-0.4248047 -0.996094,-0.4335938 -0.407227,0.00879 -0.74707,0.1464844 -1.019531,0.4101563 -0.28125,0.2666015 -0.433594,0.6269531 -0.457031,1.078125 z m 0,0"
         style="fill:#000000;fill-opacity:1;fill-rule:nonzero;stroke:none"
         aria-label="Triangle"
         transform="matrix(1.3333333,0,0,1.3333333,403.55208,430.66667)"
         clip-path="url(#clipPath64)"
         id="path65" />
    </g>
    <path
       id="path67"
       d="m 4.1259783,-2.8007822 v -0.84375 l 3.0234375,-0.011719 v 2.66015629 c -0.46875,0.375 -0.9492188,0.65332031 -1.4414063,0.83203125 -0.4921875,0.19335937 -1.0019531,0.28710937 -1.5234375,0.28125 -0.703125,0 -1.3417969,-0.14648438 -1.9101562,-0.4453125 C 1.6943376,-0.6240244 1.2607439,-1.0605478 0.97363452,-1.640626 c -0.29882813,-0.5625 -0.4453125,-1.1953125 -0.4453125,-1.8984375 0,-0.703125 0.14648437,-1.3535156 0.4453125,-1.9570312 0.28710938,-0.600586 0.70605468,-1.0488281 1.25390628,-1.3476563 0.5449218,-0.2871093 1.1748047,-0.4335937 1.8867187,-0.4335937 0.515625,0 0.984375,0.082031 1.40625,0.2460937 0.413086,0.1728516 0.741211,0.4072266 0.984375,0.703125 0.234375,0.3046875 0.413086,0.6972657 0.5390625,1.171875 L 6.1884783,-4.921876 C 6.0771501,-5.2792978 5.9453142,-5.5664072 5.7900408,-5.7773447 5.6259783,-5.9882822 5.3974626,-6.1552744 5.1103533,-6.281251 c -0.3046875,-0.1171875 -0.6328125,-0.1787109 -0.984375,-0.1875 -0.4394532,0 -0.8144532,0.067383 -1.125,0.1992188 -0.3222657,0.1347656 -0.5742188,0.3046875 -0.7617188,0.515625 -0.196289,0.2197265 -0.3486328,0.4570312 -0.4570312,0.7148437 -0.1816407,0.4453125 -0.2695313,0.9257813 -0.2695313,1.4414063 0,0.6416015 0.1083985,1.171875 0.328125,1.59375 0.2167969,0.430664 0.5390625,0.75 0.9609375,0.9609375 0.413086,0.21093749 0.8583985,0.31640624 1.3359375,0.31640624 0.4042969,0 0.8027344,-0.0820313 1.1953125,-0.24609375 C 5.722658,-1.1191416 6.0185564,-1.2890635 6.2236345,-1.4765635 v -1.3242187 z m 7.8457027,1.1367187 0.902344,0.1054688 c -0.140625,0.5332031 -0.404297,0.94628905 -0.785156,1.24218749 -0.392578,0.29003906 -0.887695,0.43359375 -1.488281,0.43359375 -0.7587894,0 -1.3593753,-0.234375 -1.8046878,-0.703125 C 8.3505877,-1.0458994 8.1279314,-1.6992197 8.1279314,-2.5429697 c 0,-0.8730469 0.2255859,-1.5527344 0.6796875,-2.0390625 0.4453125,-0.4746094 1.0253906,-0.7148438 1.7460941,-0.7148438 0.694336,0 1.259765,0.234375 1.699218,0.703125 0.436524,0.4775391 0.65625,1.1425782 0.65625,1.9921875 0,0.055664 0,0.1347657 0,0.234375 H 9.0419939 c 0.029297,0.5712891 0.1904297,1.0078125 0.4804688,1.3125 0.2871093,0.29882816 0.6474613,0.44531254 1.0781253,0.44531254 0.319336,0.008789 0.597656,-0.0732422 0.832031,-0.24609375 0.225586,-0.16992189 0.404297,-0.43945309 0.539062,-0.80859379 z M 9.0888689,-3.093751 H 11.9834 c -0.04687,-0.4277343 -0.1875,-0.7792968 -0.421875,-1.0546875 -0.228515,-0.28125 -0.55957,-0.4248047 -0.996094,-0.4335937 -0.407226,0.00879 -0.7470699,0.1464844 -1.0195308,0.4101562 -0.28125,0.2666016 -0.4335938,0.6269532 -0.4570313,1.078125 z M 13.969728,-9.6160005e-7 V -5.1796885 h 0.796875 v 0.7382813 c 0.375,-0.5683594 0.919922,-0.8554688 1.640625,-0.8554688 0.310547,0 0.600586,0.055664 0.867188,0.1640625 0.257812,0.1171875 0.451172,0.2666016 0.585937,0.4453125 0.123047,0.1816407 0.216797,0.3955078 0.28125,0.6445313 0.0293,0.1640625 0.04687,0.4511719 0.04687,0.8554687 V -9.6160005e-7 H 17.309572 V -3.1523447 c 0,-0.3515625 -0.03516,-0.6210938 -0.105469,-0.8085938 -0.07031,-0.1699218 -0.193359,-0.3105468 -0.363281,-0.421875 -0.172852,-0.099609 -0.416016,-0.1523437 -0.726562,-0.1523437 -0.304688,0 -0.591797,0.1171875 -0.855469,0.3515625 -0.275391,0.243164 -0.410156,0.6914062 -0.410156,1.3476562 V -9.6160005e-7 Z M 23.066408,-1.6640635 l 0.902344,0.1054688 c -0.140625,0.5332031 -0.404297,0.94628905 -0.785157,1.24218749 -0.392578,0.29003906 -0.887695,0.43359375 -1.488281,0.43359375 -0.758789,0 -1.359375,-0.234375 -1.804687,-0.703125 -0.445313,-0.45996094 -0.667969,-1.11328124 -0.667969,-1.95703124 0,-0.8730469 0.225586,-1.5527344 0.679687,-2.0390625 0.445313,-0.4746094 1.025391,-0.7148438 1.746094,-0.7148438 0.694336,0 1.259766,0.234375 1.699219,0.703125 0.436523,0.4775391 0.65625,1.1425782 0.65625,1.9921875 0,0.055664 0,0.1347657 0,0.234375 H 20.13672 c 0.0293,0.5712891 0.19043,1.0078125 0.480469,1.3125 0.28711,0.29882816 0.647461,0.44531254 1.078125,0.44531254 0.319336,0.008789 0.597656,-0.0732422 0.832031,-0.24609375 0.225586,-0.16992189 0.404297,-0.43945309 0.539063,-0.80859379 z M 20.183595,-3.093751 h 2.894532 c -0.04687,-0.4277343 -0.1875,-0.7792968 -0.421875,-1.0546875 -0.228516,-0.28125 -0.559571,-0.4248047 -0.996094,-0.4335937 -0.407227,0.00879 -0.74707,0.1464844 -1.019531,0.4101562 -0.28125,0.2666016 -0.433594,0.6269532 -0.457032,1.078125 z M 25.049806,-9.6160005e-7 V -5.1796885 h 0.796875 v 0.7851563 c 0.19336,-0.366211 0.38086,-0.609375 0.5625,-0.7265625 0.164063,-0.1171875 0.369141,-0.1757813 0.621094,-0.1757813 0.249024,0 0.530274,0.09375 0.84375,0.28125 l -0.304687,0.8085938 c -0.219727,-0.1230469 -0.433594,-0.1875 -0.644532,-0.1875 -0.196289,0.00879 -0.36914,0.067383 -0.515625,0.1757812 -0.158203,0.1171875 -0.27832,0.3046875 -0.363281,0.5625 -0.0791,0.2578125 -0.117187,0.5712891 -0.117187,0.9375 V -9.6160005e-7 Z M 31.776369,-0.64453221 c -0.328125,0.28125 -0.641602,0.47753906 -0.9375,0.5859375 -0.304688,0.1171875 -0.629883,0.17578125 -0.972656,0.17578125 -0.571289,0 -1.007813,-0.140625 -1.3125,-0.421875 -0.313477,-0.27246094 -0.465821,-0.62695313 -0.457032,-1.06640624 0,-0.2490235 0.05859,-0.4804688 0.175782,-0.6914063 0.108398,-0.2109375 0.260742,-0.3779297 0.457031,-0.5039062 0.178711,-0.1230469 0.386719,-0.2226563 0.621094,-0.2929688 0.169922,-0.038086 0.433593,-0.082031 0.785156,-0.1289062 0.703125,-0.076172 1.224609,-0.178711 1.570312,-0.3046875 0,-0.1171875 0,-0.1904297 0,-0.2226563 0,-0.3574218 -0.09961,-0.6240234 -0.292968,-0.796875 -0.196289,-0.1699218 -0.515625,-0.2578125 -0.960938,-0.2578125 -0.416015,0 -0.714844,0.070312 -0.902344,0.2109375 -0.205078,0.1494141 -0.351562,0.4072266 -0.445312,0.7734375 L 28.249025,-3.703126 c 0.07031,-0.3662109 0.199219,-0.6621093 0.386719,-0.890625 0.178711,-0.2255859 0.436523,-0.4013672 0.773437,-0.5273437 0.333985,-0.1171875 0.726563,-0.1757813 1.171875,-0.1757813 0.436524,0 0.796875,0.052734 1.078125,0.1523438 0.272461,0.102539 0.47461,0.2314453 0.609375,0.3867187 0.131836,0.1640625 0.225586,0.3691407 0.28125,0.609375 0.02344,0.1494141 0.03516,0.4189453 0.03516,0.8085938 v 1.171875 c 0,0.8144531 0.01758,1.33007811 0.05859,1.54687499 0.03809,0.21972656 0.111329,0.42773437 0.222657,0.62109374839995 H 31.95215 C 31.8584,-0.1787119 31.799806,-0.39257909 31.776369,-0.64453221 Z m -0.07031,-1.95703129 c -0.322265,0.1347657 -0.802734,0.2431641 -1.441406,0.328125 -0.360351,0.055664 -0.615234,0.1142578 -0.761719,0.1757813 -0.158203,0.070312 -0.27539,0.1640625 -0.351562,0.28125 -0.08789,0.1347656 -0.128906,0.2988281 -0.128906,0.4921875 0,0.1875 0.09375,0.36035155 0.28125,0.51562499 0.169922,0.15820312 0.427734,0.234375 0.773437,0.234375 0.333985,0.008789 0.635742,-0.0644531 0.902344,-0.22265625 0.263672,-0.140625 0.459961,-0.34277344 0.585937,-0.60937504 0.08496,-0.1933593 0.131836,-0.4863281 0.140625,-0.8789062 z m 4.154297,1.81640629 0.128907,0.7734375 c -0.251954,0.05273437 -0.503907,0.08203125 -0.761719,0.08203125 -0.257813,0 -0.47461,-0.05273438 -0.644531,-0.15234375 -0.181641,-0.09960938 -0.304688,-0.234375 -0.375,-0.3984375 -0.07031,-0.1640625 -0.105469,-0.50976563 -0.105469,-1.04296879 V -4.500001 H 33.45801 v -0.6796875 h 0.644531 V -6.468751 l 0.878906,-0.5273437 v 1.8164062 h 0.878906 v 0.6796875 h -0.878906 v 3.0351563 c -0.0088,0.2519531 0.0029,0.4101562 0.03516,0.48046874 0.0293,0.0703125 0.08496,0.12597656 0.164063,0.1640625 0.06152,0.046875 0.158203,0.0703125 0.292969,0.0703125 0.09375,0 0.222656,-0.0117188 0.386718,-0.0351563 z m 0.515625,-1.80468749 c 0,-0.9609375 0.269532,-1.6699219 0.808594,-2.1328125 0.436524,-0.3808594 0.978516,-0.5742188 1.628906,-0.5742188 0.708985,0 1.291993,0.2314453 1.746094,0.6914063 0.451172,0.46875 0.679688,1.1191406 0.679688,1.9453125 0,0.665039 -0.102539,1.1894531 -0.304688,1.5703125 -0.196289,0.38378905 -0.486328,0.67968749 -0.867187,0.89062499 -0.392579,0.2109375 -0.808594,0.31640625 -1.253907,0.31640625 -0.735351,0 -1.321289,-0.234375 -1.757812,-0.703125 C 36.601564,-1.0458994 36.375978,-1.7138682 36.375978,-2.5898447 Z m 0.902344,0 c 0,0.665039 0.143555,1.1601562 0.433594,1.4882812 0.287109,0.32812504 0.65625,0.49218754 1.101562,0.49218754 0.427735,0 0.791016,-0.1640625 1.089844,-0.49218754 0.28125,-0.3339843 0.424805,-0.84375 0.433594,-1.5234375 -0.0088,-0.6328125 -0.152344,-1.1162109 -0.433594,-1.453125 -0.298828,-0.328125 -0.662109,-0.4921875 -1.089844,-0.4921875 -0.445312,0 -0.814453,0.1640625 -1.101562,0.4921875 -0.290039,0.328125 -0.433594,0.8261719 -0.433594,1.4882813 z M 42.238283,-9.6160005e-7 V -5.1796885 h 0.796875 v 0.7851563 c 0.193359,-0.366211 0.380859,-0.609375 0.5625,-0.7265625 0.164063,-0.1171875 0.369141,-0.1757813 0.621094,-0.1757813 0.249023,0 0.530273,0.09375 0.84375,0.28125 l -0.304688,0.8085938 c -0.219726,-0.1230469 -0.433593,-0.1875 -0.644531,-0.1875 -0.196289,0.00879 -0.369141,0.067383 -0.515625,0.1757812 -0.158203,0.1171875 -0.27832,0.3046875 -0.363281,0.5625 -0.0791,0.2578125 -0.117188,0.5712891 -0.117188,0.9375 V -9.6160005e-7 Z m 0,0"
       style="fill:#000000;fill-opacity:1;fill-rule:nonzero;stroke:none"
       aria-label="Generator"
       transform="matrix(1.3333333,0,0,1.3333333,397.38541,448)"
       clip-path="url(#clipPath68)" />
    <path
       id="path69"
       d="m 1835.0833,1170.5 -33.3333,-16.6667 v 33.3334 z"
       style="fill:#000000;fill-opacity:1;fill-rule:nonzero;stroke:none"
       transform="matrix(0.32,0,0,0.32,13.44,13.440001)"
       clip-path="url(#clipPath70)" />
    <path
       id="path71"
       d="M 214.98,115 H 312.1"
       style="fill:none;stroke:#000000;stroke-width:0.24;stroke-linecap:butt;stroke-linejoin:miter;stroke-miterlimit:2;stroke-dasharray:none;stroke-opacity:1"
       transform="matrix(1.3333333,0,0,1.3333333,174,234.66667)"
       clip-path="url(#clipPath72)" />
  </g>
</svg>
