<?xml version="1.0" encoding="UTF-8" standalone="no"?>
<!-- Created with Inkscape (http://www.inkscape.org/) -->

<svg
   version="1.1"
   id="svg1"
   width="294.42999"
   height="252.79819"
   viewBox="0 0 294.42999 252.79819"
   sodipodi:docname="lab1_task3_time_diagram.pdf"
   xmlns:inkscape="http://www.inkscape.org/namespaces/inkscape"
   xmlns:sodipodi="http://sodipodi.sourceforge.net/DTD/sodipodi-0.dtd"
   xmlns="http://www.w3.org/2000/svg"
   xmlns:svg="http://www.w3.org/2000/svg">
  <defs
     id="defs1">
    <clipPath
       clipPathUnits="userSpaceOnUse"
       id="clipPath3">
      <path
         d="m 1287.248,953.83333 h 641.504 v 558.33337 h -641.504 z"
         transform="matrix(0.24000001,0,0,0.24000001,-429.90048,-266.92)"
         clip-rule="evenodd"
         id="path3" />
    </clipPath>
    <clipPath
       clipPathUnits="userSpaceOnUse"
       id="clipPath12">
      <path
         d="m 1764.1686,1065.9861 h 179.1667 v 238.1945 h -179.1667 z"
         transform="matrix(0.24000001,0,0,0.24000001,-428.3004,-265.51993)"
         clip-rule="evenodd"
         id="path12" />
    </clipPath>
    <clipPath
       clipPathUnits="userSpaceOnUse"
       id="clipPath17">
      <path
         d="m 1287.248,953.83333 h 641.504 v 558.33337 h -641.504 z"
         transform="matrix(0.24000001,0,0,0.24000001,-429.90048,-266.92)"
         clip-rule="evenodd"
         id="path17" />
    </clipPath>
    <clipPath
       clipPathUnits="userSpaceOnUse"
       id="clipPath18">
      <path
         d="m 1790.6335,1266.3333 h 126.2369 v 62.5 h -126.2369 z"
         transform="matrix(0.24000001,0,0,0.24000001,-430.75204,-314.92)"
         clip-rule="evenodd"
         id="path18" />
    </clipPath>
    <clipPath
       clipPathUnits="userSpaceOnUse"
       id="clipPath20">
      <path
         d="m 1790.6335,1266.3333 h 126.2369 v 62.5 h -126.2369 z"
         transform="matrix(0.32,0,0,0.32,13.44,13.440001)"
         clip-rule="evenodd"
         id="path20" />
    </clipPath>
    <clipPath
       clipPathUnits="userSpaceOnUse"
       id="clipPath22">
      <path
         d="m 1287.248,953.83333 h 641.504 v 558.33337 h -641.504 z"
         transform="matrix(0.24000001,0,0,0.24000001,-319.90048,-230.92)"
         clip-rule="evenodd"
         id="path22" />
    </clipPath>
    <clipPath
       clipPathUnits="userSpaceOnUse"
       id="clipPath25">
      <path
         d="m 1287.248,953.83333 h 641.504 v 558.33337 h -641.504 z"
         transform="matrix(0.24000001,0,0,0.24000001,-130.40047,-132.42)"
         clip-rule="evenodd"
         id="path25" />
    </clipPath>
    <clipPath
       clipPathUnits="userSpaceOnUse"
       id="clipPath27">
      <path
         d="m 1287.248,953.83333 h 641.504 v 558.33337 h -641.504 z"
         transform="matrix(0.24000001,0,0,0.24000001,-130.40047,-132.42)"
         clip-rule="evenodd"
         id="path27" />
    </clipPath>
    <clipPath
       clipPathUnits="userSpaceOnUse"
       id="clipPath29">
      <path
         d="m 1287.248,953.83333 h 641.504 v 558.33337 h -641.504 z"
         transform="matrix(0.24000001,0,0,0.24000001,-130.40047,-132.42)"
         clip-rule="evenodd"
         id="path29" />
    </clipPath>
    <clipPath
       clipPathUnits="userSpaceOnUse"
       id="clipPath31">
      <path
         d="m 1287.248,953.83333 h 641.504 v 558.33337 h -641.504 z"
         transform="matrix(0.24000001,0,0,0.24000001,-130.40047,-132.42)"
         clip-rule="evenodd"
         id="path31" />
    </clipPath>
    <clipPath
       clipPathUnits="userSpaceOnUse"
       id="clipPath33">
      <path
         d="m 1287.248,953.83333 h 641.504 v 558.33337 h -641.504 z"
         transform="matrix(0.24000001,0,0,0.24000001,-130.40047,-132.42)"
         clip-rule="evenodd"
         id="path33" />
    </clipPath>
    <clipPath
       clipPathUnits="userSpaceOnUse"
       id="clipPath35">
      <path
         d="m 1287.248,953.83333 h 641.504 v 558.33337 h -641.504 z"
         transform="matrix(0.24000001,0,0,0.24000001,-130.40047,-132.42)"
         clip-rule="evenodd"
         id="path35" />
    </clipPath>
    <clipPath
       clipPathUnits="userSpaceOnUse"
       id="clipPath37">
      <path
         d="m 1287.248,953.83333 h 641.504 v 558.33337 h -641.504 z"
         transform="matrix(0.24000001,0,0,0.24000001,-130.40047,-132.42)"
         clip-rule="evenodd"
         id="path37" />
    </clipPath>
    <clipPath
       clipPathUnits="userSpaceOnUse"
       id="clipPath39">
      <path
         d="m 1287.248,953.83333 h 641.504 v 558.33337 h -641.504 z"
         transform="matrix(0.24000001,0,0,0.24000001,-130.40047,-132.42)"
         clip-rule="evenodd"
         id="path39" />
    </clipPath>
    <clipPath
       clipPathUnits="userSpaceOnUse"
       id="clipPath41">
      <path
         d="m 1287.248,953.83333 h 641.504 v 558.33337 h -641.504 z"
         transform="matrix(0.24000001,0,0,0.24000001,-130.40047,-132.42)"
         clip-rule="evenodd"
         id="path41" />
    </clipPath>
    <clipPath
       clipPathUnits="userSpaceOnUse"
       id="clipPath43">
      <path
         d="m 1287.248,953.83333 h 641.504 v 558.33337 h -641.504 z"
         transform="matrix(0.24000001,0,0,0.24000001,-130.40047,-132.42)"
         clip-rule="evenodd"
         id="path43" />
    </clipPath>
    <clipPath
       clipPathUnits="userSpaceOnUse"
       id="clipPath45">
      <path
         d="m 1287.248,953.83333 h 641.504 v 558.33337 h -641.504 z"
         transform="matrix(0.24000001,0,0,0.24000001,-130.40047,-132.42)"
         clip-rule="evenodd"
         id="path45" />
    </clipPath>
    <clipPath
       clipPathUnits="userSpaceOnUse"
       id="clipPath47">
      <path
         d="m 1287.248,953.83333 h 641.504 v 558.33337 h -641.504 z"
         transform="matrix(0.24000001,0,0,0.24000001,-130.40047,-132.42)"
         clip-rule="evenodd"
         id="path47" />
    </clipPath>
    <clipPath
       clipPathUnits="userSpaceOnUse"
       id="clipPath49">
      <path
         d="m 1287.248,953.83333 h 641.504 v 558.33337 h -641.504 z"
         transform="matrix(0.24000001,0,0,0.24000001,-130.40047,-132.42)"
         clip-rule="evenodd"
         id="path49" />
    </clipPath>
    <clipPath
       clipPathUnits="userSpaceOnUse"
       id="clipPath51">
      <path
         d="m 1287.248,953.83333 h 641.504 v 558.33337 h -641.504 z"
         transform="matrix(0.24000001,0,0,0.24000001,-130.40047,-132.42)"
         clip-rule="evenodd"
         id="path51" />
    </clipPath>
    <clipPath
       clipPathUnits="userSpaceOnUse"
       id="clipPath53">
      <path
         d="m 1287.248,953.83333 h 641.504 v 558.33337 h -641.504 z"
         transform="matrix(0.24000001,0,0,0.24000001,-130.40047,-132.42)"
         clip-rule="evenodd"
         id="path53" />
    </clipPath>
    <clipPath
       clipPathUnits="userSpaceOnUse"
       id="clipPath55">
      <path
         d="m 1287.248,953.83333 h 641.504 v 558.33337 h -641.504 z"
         transform="matrix(0.24000001,0,0,0.24000001,-130.40047,-132.42)"
         clip-rule="evenodd"
         id="path55" />
    </clipPath>
    <clipPath
       clipPathUnits="userSpaceOnUse"
       id="clipPath57">
      <path
         d="m 1287.248,953.83333 h 641.504 v 558.33337 h -641.504 z"
         transform="matrix(0.24000001,0,0,0.24000001,-130.40047,-132.42)"
         clip-rule="evenodd"
         id="path57" />
    </clipPath>
    <clipPath
       clipPathUnits="userSpaceOnUse"
       id="clipPath59">
      <path
         d="m 1287.248,953.83333 h 641.504 v 558.33337 h -641.504 z"
         transform="matrix(0.24000001,0,0,0.24000001,-130.40047,-132.42)"
         clip-rule="evenodd"
         id="path59" />
    </clipPath>
    <clipPath
       clipPathUnits="userSpaceOnUse"
       id="clipPath61">
      <path
         d="m 1287.248,953.83333 h 641.504 v 558.33337 h -641.504 z"
         transform="matrix(0.24000001,0,0,0.24000001,-130.40047,-132.42)"
         clip-rule="evenodd"
         id="path61" />
    </clipPath>
    <clipPath
       clipPathUnits="userSpaceOnUse"
       id="clipPath63">
      <path
         d="m 1287.248,953.83333 h 641.504 v 558.33337 h -641.504 z"
         transform="matrix(0.24000001,0,0,0.24000001,-130.40047,-132.42)"
         clip-rule="evenodd"
         id="path63" />
    </clipPath>
    <clipPath
       clipPathUnits="userSpaceOnUse"
       id="clipPath65">
      <path
         d="m 1287.248,953.83333 h 641.504 v 558.33337 h -641.504 z"
         transform="matrix(0.24000001,0,0,0.24000001,-130.40047,-132.42)"
         clip-rule="evenodd"
         id="path65" />
    </clipPath>
    <clipPath
       clipPathUnits="userSpaceOnUse"
       id="clipPath67">
      <path
         d="m 1287.248,953.83333 h 641.504 v 558.33337 h -641.504 z"
         transform="matrix(0.24000001,0,0,0.24000001,-130.40047,-132.42)"
         clip-rule="evenodd"
         id="path67" />
    </clipPath>
    <clipPath
       clipPathUnits="userSpaceOnUse"
       id="clipPath69">
      <path
         d="m 1287.248,953.83333 h 641.504 v 558.33337 h -641.504 z"
         transform="matrix(0.24000001,0,0,0.24000001,-130.40047,-132.42)"
         clip-rule="evenodd"
         id="path69" />
    </clipPath>
    <clipPath
       clipPathUnits="userSpaceOnUse"
       id="clipPath71">
      <path
         d="m 1287.248,953.83333 h 641.504 v 558.33337 h -641.504 z"
         transform="matrix(0.24000001,0,0,0.24000001,-130.40047,-132.42)"
         clip-rule="evenodd"
         id="path71" />
    </clipPath>
    <clipPath
       clipPathUnits="userSpaceOnUse"
       id="clipPath73">
      <path
         d="m 1287.248,953.83333 h 641.504 v 558.33337 h -641.504 z"
         transform="matrix(0.24000001,0,0,0.24000001,-130.40047,-132.42)"
         clip-rule="evenodd"
         id="path73" />
    </clipPath>
    <clipPath
       clipPathUnits="userSpaceOnUse"
       id="clipPath75">
      <path
         d="m 1287.248,953.83333 h 641.504 v 558.33337 h -641.504 z"
         transform="matrix(0.24000001,0,0,0.24000001,-130.40047,-132.42)"
         clip-rule="evenodd"
         id="path75" />
    </clipPath>
    <clipPath
       clipPathUnits="userSpaceOnUse"
       id="clipPath77">
      <path
         d="m 1287.248,953.83333 h 641.504 v 558.33337 h -641.504 z"
         transform="matrix(0.24000001,0,0,0.24000001,-130.40047,-132.42)"
         clip-rule="evenodd"
         id="path77" />
    </clipPath>
    <clipPath
       clipPathUnits="userSpaceOnUse"
       id="clipPath79">
      <path
         d="m 1287.248,953.83333 h 641.504 v 558.33337 h -641.504 z"
         transform="matrix(0.24000001,0,0,0.24000001,-130.40047,-132.42)"
         clip-rule="evenodd"
         id="path79" />
    </clipPath>
    <clipPath
       clipPathUnits="userSpaceOnUse"
       id="clipPath81">
      <path
         d="m 1287.248,953.83333 h 641.504 v 558.33337 h -641.504 z"
         transform="matrix(0.24000001,0,0,0.24000001,-130.40047,-132.42)"
         clip-rule="evenodd"
         id="path81" />
    </clipPath>
    <clipPath
       clipPathUnits="userSpaceOnUse"
       id="clipPath83">
      <path
         d="m 1287.248,953.83333 h 641.504 v 558.33337 h -641.504 z"
         transform="matrix(0.24000001,0,0,0.24000001,-130.40047,-132.42)"
         clip-rule="evenodd"
         id="path83" />
    </clipPath>
    <clipPath
       clipPathUnits="userSpaceOnUse"
       id="clipPath85">
      <path
         d="m 1287.248,953.83333 h 641.504 v 558.33337 h -641.504 z"
         transform="matrix(0.24000001,0,0,0.24000001,-319.90048,-230.92)"
         clip-rule="evenodd"
         id="path85" />
    </clipPath>
    <clipPath
       clipPathUnits="userSpaceOnUse"
       id="clipPath86">
      <path
         d="m 1295.5814,1103.8333 h 199.6745 V 1220.5 h -199.6745 z"
         transform="matrix(0.24000001,0,0,0.24000001,-322.40829,-275.92)"
         clip-rule="evenodd"
         id="path86" />
    </clipPath>
    <clipPath
       clipPathUnits="userSpaceOnUse"
       id="clipPath88">
      <path
         d="m 1295.5814,1103.8333 h 199.6745 V 1220.5 h -199.6745 z"
         transform="matrix(0.32,0,0,0.32,13.44,13.440001)"
         clip-rule="evenodd"
         id="path88" />
    </clipPath>
    <clipPath
       clipPathUnits="userSpaceOnUse"
       id="clipPath90">
      <path
         d="m 1295.5814,1103.8333 h 199.6745 V 1220.5 h -199.6745 z"
         transform="matrix(0.24000001,0,0,0.24000001,-312.43954,-288.92001)"
         clip-rule="evenodd"
         id="path90" />
    </clipPath>
    <clipPath
       clipPathUnits="userSpaceOnUse"
       id="clipPath92">
      <path
         d="m 1287.248,953.83333 h 641.504 v 558.33337 h -641.504 z"
         transform="matrix(0.24000001,0,0,0.24000001,-319.90048,-302.92)"
         clip-rule="evenodd"
         id="path92" />
    </clipPath>
    <clipPath
       clipPathUnits="userSpaceOnUse"
       id="clipPath95">
      <path
         d="m 1287.248,953.83333 h 641.504 v 558.33337 h -641.504 z"
         transform="matrix(0.24000001,0,0,0.24000001,-130.40047,-132.42)"
         clip-rule="evenodd"
         id="path95" />
    </clipPath>
    <clipPath
       clipPathUnits="userSpaceOnUse"
       id="clipPath97">
      <path
         d="m 1287.248,953.83333 h 641.504 v 558.33337 h -641.504 z"
         transform="matrix(0.24000001,0,0,0.24000001,-130.40047,-132.42)"
         clip-rule="evenodd"
         id="path97" />
    </clipPath>
    <clipPath
       clipPathUnits="userSpaceOnUse"
       id="clipPath99">
      <path
         d="m 1287.248,953.83333 h 641.504 v 558.33337 h -641.504 z"
         transform="matrix(0.24000001,0,0,0.24000001,-130.40047,-132.42)"
         clip-rule="evenodd"
         id="path99" />
    </clipPath>
    <clipPath
       clipPathUnits="userSpaceOnUse"
       id="clipPath101">
      <path
         d="m 1287.248,953.83333 h 641.504 v 558.33337 h -641.504 z"
         transform="matrix(0.24000001,0,0,0.24000001,-130.40047,-132.42)"
         clip-rule="evenodd"
         id="path101" />
    </clipPath>
    <clipPath
       clipPathUnits="userSpaceOnUse"
       id="clipPath103">
      <path
         d="m 1287.248,953.83333 h 641.504 v 558.33337 h -641.504 z"
         transform="matrix(0.24000001,0,0,0.24000001,-130.40047,-132.42)"
         clip-rule="evenodd"
         id="path103" />
    </clipPath>
    <clipPath
       clipPathUnits="userSpaceOnUse"
       id="clipPath105">
      <path
         d="m 1287.248,953.83333 h 641.504 v 558.33337 h -641.504 z"
         transform="matrix(0.24000001,0,0,0.24000001,-130.40047,-132.42)"
         clip-rule="evenodd"
         id="path105" />
    </clipPath>
    <clipPath
       clipPathUnits="userSpaceOnUse"
       id="clipPath107">
      <path
         d="m 1287.248,953.83333 h 641.504 v 558.33337 h -641.504 z"
         transform="matrix(0.24000001,0,0,0.24000001,-319.90048,-302.92)"
         clip-rule="evenodd"
         id="path107" />
    </clipPath>
    <clipPath
       clipPathUnits="userSpaceOnUse"
       id="clipPath108">
      <path
         d="m 1295.5814,1387.1667 h 199.6745 v 116.6666 h -199.6745 z"
         transform="matrix(0.24000001,0,0,0.24000001,-317.06454,-343.92001)"
         clip-rule="evenodd"
         id="path108" />
    </clipPath>
    <clipPath
       clipPathUnits="userSpaceOnUse"
       id="clipPath110">
      <path
         d="m 1295.5814,1387.1667 h 199.6745 v 116.6666 h -199.6745 z"
         transform="matrix(0.32,0,0,0.32,13.44,13.440001)"
         clip-rule="evenodd"
         id="path110" />
    </clipPath>
    <clipPath
       clipPathUnits="userSpaceOnUse"
       id="clipPath112">
      <path
         d="m 1295.5814,1387.1667 h 199.6745 v 116.6666 h -199.6745 z"
         transform="matrix(0.24000001,0,0,0.24000001,-312.43954,-356.92001)"
         clip-rule="evenodd"
         id="path112" />
    </clipPath>
    <clipPath
       clipPathUnits="userSpaceOnUse"
       id="clipPath114">
      <path
         d="m 1287.248,953.83333 h 641.504 v 558.33337 h -641.504 z"
         clip-rule="evenodd"
         id="path114" />
    </clipPath>
    <clipPath
       clipPathUnits="userSpaceOnUse"
       id="clipPath116">
      <path
         d="m 1287.248,953.83333 h 641.504 v 558.33337 h -641.504 z"
         transform="matrix(0.24000001,0,0,0.24000001,-129.90047,-131.92)"
         clip-rule="evenodd"
         id="path116" />
    </clipPath>
    <clipPath
       clipPathUnits="userSpaceOnUse"
       id="clipPath118">
      <path
         d="m 1287.248,953.83333 h 641.504 v 558.33337 h -641.504 z"
         clip-rule="evenodd"
         id="path118" />
    </clipPath>
    <clipPath
       clipPathUnits="userSpaceOnUse"
       id="clipPath120">
      <path
         d="m 1287.248,953.83333 h 641.504 v 558.33337 h -641.504 z"
         transform="matrix(0.24000001,0,0,0.24000001,-129.90047,-131.92)"
         clip-rule="evenodd"
         id="path120" />
    </clipPath>
  </defs>
  <sodipodi:namedview
     id="namedview1"
     pagecolor="#ffffff"
     bordercolor="#000000"
     borderopacity="0.25"
     inkscape:showpageshadow="2"
     inkscape:pageopacity="0.0"
     inkscape:pagecheckerboard="0"
     inkscape:deskcolor="#d1d1d1">
    <inkscape:page
       x="0"
       y="0"
       inkscape:label="1"
       id="page1"
       width="294.42999"
       height="252.79819"
       margin="0"
       bleed="0" />
  </sodipodi:namedview>
  <rect
     style="fill:#ffffff;stroke-width:1.3274"
     id="rect120"
     width="294.42999"
     height="252.79817"
     x="381.65891"
     y="278.82355"
     transform="translate(-381.65889,-278.82354)" />
  <g
     id="g1"
     inkscape:groupmode="layer"
     inkscape:label="1"
     transform="translate(-381.65889,-278.82354)">
    <path
       id="path2"
       d="M 0,0 H 30 V 35 H 0 Z"
       style="fill:#ffffff;fill-opacity:1;fill-rule:nonzero;stroke:none"
       transform="matrix(1.3333333,0,0,1.3333333,586.64062,369.33333)"
       clip-path="url(#clipPath3)" />
    <path
       id="path11"
       d="m 8,6.0000017 h 17.6 c 1.10457,0 2,1.0446684 2,2.3333333 v 10.533366 c 0,1.288666 -0.89543,2.333334 -2,2.333334 H 8 c -1.1045699,0 -2,-1.044668 -2,-2.333334 V 8.333335 C 6,7.0446701 6.8954301,6.0000017 8,6.0000017 Z"
       style="fill:none;stroke:#000000;stroke-width:1.3;stroke-linecap:round;stroke-linejoin:round;stroke-miterlimit:10;stroke-dasharray:none;stroke-opacity:1"
       transform="matrix(1.3333333,0,0,1.3333333,584.50718,367.46656)"
       clip-path="url(#clipPath12)" />
    <path
       id="path16"
       d="M 0,0 H 30 V 35 H 0 Z"
       style="fill:none;stroke:#000000;stroke-width:0.565047;stroke-linecap:butt;stroke-linejoin:miter;stroke-miterlimit:2;stroke-dasharray:none;stroke-opacity:1"
       transform="matrix(1.3333333,0,0,1.3333333,586.64062,369.33333)"
       clip-path="url(#clipPath17)" />
    <g
       id="g19"
       clip-path="url(#clipPath20)">
      <path
         d="M 0.44628991,-2.2978517 1.3486337,-2.379883 c 0.038086,0.3603516 0.1347656,0.6533203 0.2929687,0.8789063 0.1464844,0.234375 0.3867188,0.421875 0.7148438,0.56249995 0.328125,0.140625 0.6943359,0.2109375 1.1015625,0.2109375 0.3574218,0 0.6796875,-0.0527344 0.9609375,-0.1640625 0.2724609,-0.0996094 0.4746093,-0.24902345 0.609375,-0.44531245 0.1318359,-0.178711 0.1992187,-0.3808594 0.1992187,-0.609375 0,-0.2167969 -0.064453,-0.413086 -0.1875,-0.5859375 -0.1347656,-0.1640625 -0.3486328,-0.3046875 -0.6445312,-0.421875 -0.1962891,-0.070312 -0.6210938,-0.1875 -1.2773438,-0.3515626 -0.65625,-0.1552734 -1.1191406,-0.3046875 -1.3828125,-0.4453125 -0.336914,-0.1699218 -0.5917969,-0.3925781 -0.76171873,-0.6679687 -0.17285157,-0.2636719 -0.25488282,-0.5625 -0.24609375,-0.890625 0,-0.3574219 0.0996094,-0.6943359 0.30468748,-1.0078125 0.2021485,-0.3105469 0.5039063,-0.5507813 0.9023438,-0.7148438 0.3808593,-0.1640625 0.8203125,-0.2460937 1.3125,-0.2460937 0.5214843,0 0.9902343,0.087891 1.40625,0.2578125 0.3984375,0.1728516 0.7060547,0.421875 0.9257812,0.75 0.2167969,0.3369141 0.3339844,0.7119141 0.3515625,1.125 L 5.0283212,-5.075196 C 4.9726571,-5.5263674 4.8085946,-5.8662111 4.5361337,-6.0947268 4.2460946,-6.3203127 3.8271493,-6.4375002 3.2822274,-6.4462893 c -0.5800781,0 -0.9960937,0.1054688 -1.2539062,0.3164063 -0.2578125,0.2109375 -0.3867188,0.4658203 -0.3867188,0.7617187 0,0.2578125 0.087891,0.46875 0.2695313,0.6328125 0.1787109,0.1728516 0.65625,0.3398438 1.4296875,0.5039063 0.7646484,0.1816406 1.3242187,0.3515625 1.6757812,0.515625 0.3515625,0.1582031 0.6269531,0.3837891 0.8320313,0.6796875 0.1933593,0.2988281 0.2929687,0.6386719 0.2929687,1.0195313 0,0.375 -0.1113281,0.7324218 -0.328125,1.0664062 C 5.5937509,-0.60449237 5.2861337,-0.34375018 4.8876962,-0.16503925 4.4716805,0.02832013 4.0117196,0.12207013 3.5048837,0.11621076 2.8486337,0.12207013 2.3037118,0.02832013 1.8759774,-0.16503925 1.4365243,-0.35253925 1.0937509,-0.63671893 0.84472742,-1.020508 0.59277429,-1.395508 0.46093835,-1.8203127 0.44628991,-2.2978517 Z m 10.25390609,0.3984375 0.867188,0.1171875 c -0.102539,0.5947265 -0.345703,1.06054683 -0.726563,1.3945312 -0.392578,0.33691407 -0.8730467,0.50390626 -1.4414061,0.50390626 -0.703125,0 -1.2714843,-0.23437501 -1.6992187,-0.70312501 -0.4394531,-0.45996095 -0.65625,-1.11914065 -0.65625,-1.98046875 0,-0.5625 0.09375,-1.0546875 0.28125,-1.4765625 0.1875,-0.421875 0.4716797,-0.7382813 0.8554687,-0.9492188 0.366211,-0.2021484 0.7763672,-0.3046875 1.2304688,-0.3046875 0.5625,0 1.0224613,0.140625 1.3828123,0.421875 0.351563,0.2900391 0.580078,0.6972657 0.691406,1.21875 l -0.855468,0.1289063 C 10.541993,-3.8710939 10.398438,-4.1318361 10.19629,-4.3134768 9.9853524,-4.4921877 9.6953134,-4.583008 9.3291024,-4.583008 c -0.3691406,0 -0.6884765,0.1611328 -0.9609375,0.4804687 -0.28125,0.3222657 -0.421875,0.8203125 -0.421875,1.5000001 0,0.703125 0.1347657,1.2128906 0.4101563,1.5234375 0.2636719,0.32226558 0.6123047,0.47753902 1.0429687,0.46874995 0.3427735,0 0.6269531,-0.10546875 0.8554691,-0.31640625 0.234375,-0.2021484 0.380859,-0.5273437 0.445312,-0.9726562 z m 1.283203,-0.6914063 c 0,-0.9609375 0.269532,-1.6699219 0.808594,-2.1328125 0.436523,-0.3808594 0.978516,-0.5742188 1.628906,-0.5742188 0.708985,0 1.291993,0.2314454 1.746094,0.6914063 0.451172,0.46875 0.679688,1.1191406 0.679688,1.9453125 0,0.6650391 -0.102539,1.1894531 -0.304688,1.5703125 -0.196289,0.38378907 -0.486328,0.6796875 -0.867187,0.890625 -0.392579,0.21093751 -0.808594,0.31640626 -1.253907,0.31640626 -0.735351,0 -1.321289,-0.23437501 -1.757812,-0.70312501 C 12.208985,-1.0468752 11.983399,-1.7148439 11.983399,-2.5908205 Z m 0.902344,0 c 0,0.6650391 0.143555,1.1601563 0.433594,1.4882813 0.287109,0.32812495 0.65625,0.49218745 1.101562,0.49218745 0.427735,0 0.791016,-0.1640625 1.089844,-0.49218745 0.28125,-0.3339844 0.424805,-0.84375 0.433594,-1.5234375 -0.0088,-0.6328126 -0.152344,-1.116211 -0.433594,-1.4531251 -0.298828,-0.328125 -0.662109,-0.4921875 -1.089844,-0.4921875 -0.445312,0 -0.814453,0.1640625 -1.101562,0.4921875 -0.290039,0.328125 -0.433594,0.8261719 -0.433594,1.4882813 z m 4.974609,4.5820313 v -7.1718751 h 0.808594 v 0.6679688 c 0.178711,-0.2636719 0.389649,-0.4628906 0.632813,-0.5976563 0.240234,-0.1230468 0.530273,-0.1875 0.867187,-0.1875 0.436524,0 0.826172,0.1142579 1.171875,0.3398438 0.333985,0.2285156 0.588867,0.5478516 0.761719,0.9609375 0.169922,0.421875 0.257812,0.8789063 0.257812,1.3710938 0,0.5332031 -0.09375,1.0078125 -0.28125,1.4296875 -0.1875,0.42187495 -0.46582,0.74707027 -0.832031,0.9726562 -0.36914,0.22558594 -0.75,0.33984376 -1.148437,0.33984376 -0.290039,0 -0.550782,-0.06445313 -0.785157,-0.18750001 -0.234375,-0.1171875 -0.427734,-0.27246093 -0.574218,-0.46875 V 1.9912108 Z m 0.796875,-4.5585938 c 0,0.6738281 0.134766,1.1689453 0.410157,1.4882813 0.263672,0.31347652 0.588867,0.46874995 0.972656,0.46874995 0.389648,0 0.726562,-0.1640625 1.007812,-0.49218745 0.28125,-0.328125 0.421875,-0.8378907 0.421875,-1.5351563 -0.0088,-0.65625 -0.146484,-1.1513672 -0.410156,-1.4882813 -0.27539,-0.3193359 -0.597656,-0.4833984 -0.972656,-0.4921875 -0.383789,0.00879 -0.714844,0.1845704 -0.996094,0.5273438 -0.290039,0.3515625 -0.433594,0.8613281 -0.433594,1.5234375 z m 8.299805,0.9023438 0.902344,0.1054687 c -0.140625,0.5332031 -0.404297,0.94628907 -0.785156,1.2421875 -0.392578,0.29003907 -0.887696,0.43359376 -1.488282,0.43359376 -0.758789,0 -1.359375,-0.23437501 -1.804687,-0.70312501 -0.445313,-0.45996095 -0.667969,-1.11328125 -0.667969,-1.95703125 0,-0.8730469 0.225586,-1.5527344 0.679688,-2.0390625 0.445312,-0.4746094 1.02539,-0.7148438 1.746093,-0.7148438 0.694336,0 1.259766,0.234375 1.699219,0.703125 0.436524,0.4775391 0.65625,1.1425782 0.65625,1.9921876 0,0.055664 0,0.1347656 0,0.234375 h -3.867187 c 0.0293,0.571289 0.190429,1.0078125 0.480468,1.3125 0.28711,0.29882808 0.647461,0.44531245 1.078125,0.44531245 0.319336,0.008789 0.597657,-0.0732422 0.832032,-0.24609375 0.225586,-0.1699219 0.404297,-0.4394531 0.539062,-0.8085937 z M 24.07422,-3.0947267 h 2.894531 c -0.04687,-0.4277344 -0.1875,-0.7792969 -0.421875,-1.0546876 -0.228516,-0.28125 -0.55957,-0.4248046 -0.996094,-0.4335937 -0.407226,0.00879 -0.74707,0.1464844 -1.019531,0.4101562 -0.28125,0.2666016 -0.433594,0.6269532 -0.457031,1.0781251 z m 0,0"
         style="fill:#000000;fill-opacity:1;fill-rule:nonzero;stroke:none"
         aria-label="Scope"
         transform="matrix(1.3333333,0,0,1.3333333,587.77604,433.33333)"
         clip-path="url(#clipPath18)"
         id="path19" />
    </g>
    <path
       id="path21"
       d="M 0,0 H 30 V 32 H 0 Z"
       style="fill:#ffffff;fill-opacity:1;fill-rule:nonzero;stroke:none"
       transform="matrix(1.3333333,0,0,1.3333333,439.97396,321.33333)"
       clip-path="url(#clipPath22)" />
    <path
       id="path24"
       d="m 190,125 h 4"
       style="fill:none;stroke:#000000;stroke-width:0.24;stroke-linecap:butt;stroke-linejoin:miter;stroke-miterlimit:2;stroke-dasharray:none;stroke-opacity:1"
       transform="matrix(1.3333333,0,0,1.3333333,187.30729,190)"
       clip-path="url(#clipPath25)" />
    <path
       id="path26"
       d="m 192,123 v 4"
       style="fill:none;stroke:#000000;stroke-width:0.24;stroke-linecap:butt;stroke-linejoin:miter;stroke-miterlimit:2;stroke-dasharray:none;stroke-opacity:1"
       transform="matrix(1.3333333,0,0,1.3333333,187.30729,190)"
       clip-path="url(#clipPath27)" />
    <path
       id="path28"
       d="m 193,125 h 4"
       style="fill:none;stroke:#000000;stroke-width:0.24;stroke-linecap:butt;stroke-linejoin:miter;stroke-miterlimit:2;stroke-dasharray:none;stroke-opacity:1"
       transform="matrix(1.3333333,0,0,1.3333333,187.30729,190)"
       clip-path="url(#clipPath29)" />
    <path
       id="path30"
       d="m 195,123 v 4"
       style="fill:none;stroke:#000000;stroke-width:0.24;stroke-linecap:butt;stroke-linejoin:miter;stroke-miterlimit:2;stroke-dasharray:none;stroke-opacity:1"
       transform="matrix(1.3333333,0,0,1.3333333,187.30729,190)"
       clip-path="url(#clipPath31)" />
    <path
       id="path32"
       d="m 193,106 h 4"
       style="fill:none;stroke:#000000;stroke-width:0.24;stroke-linecap:butt;stroke-linejoin:miter;stroke-miterlimit:2;stroke-dasharray:none;stroke-opacity:1"
       transform="matrix(1.3333333,0,0,1.3333333,187.30729,190)"
       clip-path="url(#clipPath33)" />
    <path
       id="path34"
       d="m 195,104 v 4"
       style="fill:none;stroke:#000000;stroke-width:0.24;stroke-linecap:butt;stroke-linejoin:miter;stroke-miterlimit:2;stroke-dasharray:none;stroke-opacity:1"
       transform="matrix(1.3333333,0,0,1.3333333,187.30729,190)"
       clip-path="url(#clipPath35)" />
    <path
       id="path36"
       d="m 196,106 h 4"
       style="fill:none;stroke:#000000;stroke-width:0.24;stroke-linecap:butt;stroke-linejoin:miter;stroke-miterlimit:2;stroke-dasharray:none;stroke-opacity:1"
       transform="matrix(1.3333333,0,0,1.3333333,187.30729,190)"
       clip-path="url(#clipPath37)" />
    <path
       id="path38"
       d="m 198,104 v 4"
       style="fill:none;stroke:#000000;stroke-width:0.24;stroke-linecap:butt;stroke-linejoin:miter;stroke-miterlimit:2;stroke-dasharray:none;stroke-opacity:1"
       transform="matrix(1.3333333,0,0,1.3333333,187.30729,190)"
       clip-path="url(#clipPath39)" />
    <path
       id="path40"
       d="m 198,106 h 4"
       style="fill:none;stroke:#000000;stroke-width:0.24;stroke-linecap:butt;stroke-linejoin:miter;stroke-miterlimit:2;stroke-dasharray:none;stroke-opacity:1"
       transform="matrix(1.3333333,0,0,1.3333333,187.30729,190)"
       clip-path="url(#clipPath41)" />
    <path
       id="path42"
       d="m 200,104 v 4"
       style="fill:none;stroke:#000000;stroke-width:0.24;stroke-linecap:butt;stroke-linejoin:miter;stroke-miterlimit:2;stroke-dasharray:none;stroke-opacity:1"
       transform="matrix(1.3333333,0,0,1.3333333,187.30729,190)"
       clip-path="url(#clipPath43)" />
    <path
       id="path44"
       d="m 198,125 h 4"
       style="fill:none;stroke:#000000;stroke-width:0.24;stroke-linecap:butt;stroke-linejoin:miter;stroke-miterlimit:2;stroke-dasharray:none;stroke-opacity:1"
       transform="matrix(1.3333333,0,0,1.3333333,187.30729,190)"
       clip-path="url(#clipPath45)" />
    <path
       id="path46"
       d="m 200,123 v 4"
       style="fill:none;stroke:#000000;stroke-width:0.24;stroke-linecap:butt;stroke-linejoin:miter;stroke-miterlimit:2;stroke-dasharray:none;stroke-opacity:1"
       transform="matrix(1.3333333,0,0,1.3333333,187.30729,190)"
       clip-path="url(#clipPath47)" />
    <path
       id="path48"
       d="m 201,125 h 4"
       style="fill:none;stroke:#000000;stroke-width:0.24;stroke-linecap:butt;stroke-linejoin:miter;stroke-miterlimit:2;stroke-dasharray:none;stroke-opacity:1"
       transform="matrix(1.3333333,0,0,1.3333333,187.30729,190)"
       clip-path="url(#clipPath49)" />
    <path
       id="path50"
       d="m 203,123 v 4"
       style="fill:none;stroke:#000000;stroke-width:0.24;stroke-linecap:butt;stroke-linejoin:miter;stroke-miterlimit:2;stroke-dasharray:none;stroke-opacity:1"
       transform="matrix(1.3333333,0,0,1.3333333,187.30729,190)"
       clip-path="url(#clipPath51)" />
    <path
       id="path52"
       d="m 204,125 h 4"
       style="fill:none;stroke:#000000;stroke-width:0.24;stroke-linecap:butt;stroke-linejoin:miter;stroke-miterlimit:2;stroke-dasharray:none;stroke-opacity:1"
       transform="matrix(1.3333333,0,0,1.3333333,187.30729,190)"
       clip-path="url(#clipPath53)" />
    <path
       id="path54"
       d="m 206,123 v 4"
       style="fill:none;stroke:#000000;stroke-width:0.24;stroke-linecap:butt;stroke-linejoin:miter;stroke-miterlimit:2;stroke-dasharray:none;stroke-opacity:1"
       transform="matrix(1.3333333,0,0,1.3333333,187.30729,190)"
       clip-path="url(#clipPath55)" />
    <path
       id="path56"
       d="m 204,106 h 4"
       style="fill:none;stroke:#000000;stroke-width:0.24;stroke-linecap:butt;stroke-linejoin:miter;stroke-miterlimit:2;stroke-dasharray:none;stroke-opacity:1"
       transform="matrix(1.3333333,0,0,1.3333333,187.30729,190)"
       clip-path="url(#clipPath57)" />
    <path
       id="path58"
       d="m 206,104 v 4"
       style="fill:none;stroke:#000000;stroke-width:0.24;stroke-linecap:butt;stroke-linejoin:miter;stroke-miterlimit:2;stroke-dasharray:none;stroke-opacity:1"
       transform="matrix(1.3333333,0,0,1.3333333,187.30729,190)"
       clip-path="url(#clipPath59)" />
    <path
       id="path60"
       d="m 206,106 h 4"
       style="fill:none;stroke:#000000;stroke-width:0.24;stroke-linecap:butt;stroke-linejoin:miter;stroke-miterlimit:2;stroke-dasharray:none;stroke-opacity:1"
       transform="matrix(1.3333333,0,0,1.3333333,187.30729,190)"
       clip-path="url(#clipPath61)" />
    <path
       id="path62"
       d="m 208,104 v 4"
       style="fill:none;stroke:#000000;stroke-width:0.24;stroke-linecap:butt;stroke-linejoin:miter;stroke-miterlimit:2;stroke-dasharray:none;stroke-opacity:1"
       transform="matrix(1.3333333,0,0,1.3333333,187.30729,190)"
       clip-path="url(#clipPath63)" />
    <path
       id="path64"
       d="m 209,106 h 4"
       style="fill:none;stroke:#000000;stroke-width:0.24;stroke-linecap:butt;stroke-linejoin:miter;stroke-miterlimit:2;stroke-dasharray:none;stroke-opacity:1"
       transform="matrix(1.3333333,0,0,1.3333333,187.30729,190)"
       clip-path="url(#clipPath65)" />
    <path
       id="path66"
       d="m 211,104 v 4"
       style="fill:none;stroke:#000000;stroke-width:0.24;stroke-linecap:butt;stroke-linejoin:miter;stroke-miterlimit:2;stroke-dasharray:none;stroke-opacity:1"
       transform="matrix(1.3333333,0,0,1.3333333,187.30729,190)"
       clip-path="url(#clipPath67)" />
    <path
       id="path68"
       d="m 209,125 h 4"
       style="fill:none;stroke:#000000;stroke-width:0.24;stroke-linecap:butt;stroke-linejoin:miter;stroke-miterlimit:2;stroke-dasharray:none;stroke-opacity:1"
       transform="matrix(1.3333333,0,0,1.3333333,187.30729,190)"
       clip-path="url(#clipPath69)" />
    <path
       id="path70"
       d="m 211,123 v 4"
       style="fill:none;stroke:#000000;stroke-width:0.24;stroke-linecap:butt;stroke-linejoin:miter;stroke-miterlimit:2;stroke-dasharray:none;stroke-opacity:1"
       transform="matrix(1.3333333,0,0,1.3333333,187.30729,190)"
       clip-path="url(#clipPath71)" />
    <path
       id="path72"
       d="m 212,125 h 4"
       style="fill:none;stroke:#000000;stroke-width:0.24;stroke-linecap:butt;stroke-linejoin:miter;stroke-miterlimit:2;stroke-dasharray:none;stroke-opacity:1"
       transform="matrix(1.3333333,0,0,1.3333333,187.30729,190)"
       clip-path="url(#clipPath73)" />
    <path
       id="path74"
       d="m 214,123 v 4"
       style="fill:none;stroke:#000000;stroke-width:0.24;stroke-linecap:butt;stroke-linejoin:miter;stroke-miterlimit:2;stroke-dasharray:none;stroke-opacity:1"
       transform="matrix(1.3333333,0,0,1.3333333,187.30729,190)"
       clip-path="url(#clipPath75)" />
    <path
       id="path76"
       d="M 195,125 V 106"
       style="fill:none;stroke:#000000;stroke-width:1;stroke-linecap:square;stroke-linejoin:bevel;stroke-miterlimit:10;stroke-dasharray:4, 2;stroke-dashoffset:0;stroke-opacity:1"
       transform="matrix(1.3333333,0,0,1.3333333,187.30729,190)"
       clip-path="url(#clipPath77)" />
    <path
       id="path78"
       d="M 200,125 V 106"
       style="fill:none;stroke:#000000;stroke-width:1;stroke-linecap:square;stroke-linejoin:bevel;stroke-miterlimit:10;stroke-dasharray:4, 2;stroke-dashoffset:0;stroke-opacity:1"
       transform="matrix(1.3333333,0,0,1.3333333,187.30729,190)"
       clip-path="url(#clipPath79)" />
    <path
       id="path80"
       d="M 206,125 V 106"
       style="fill:none;stroke:#000000;stroke-width:1;stroke-linecap:square;stroke-linejoin:bevel;stroke-miterlimit:10;stroke-dasharray:4, 2;stroke-dashoffset:0;stroke-opacity:1"
       transform="matrix(1.3333333,0,0,1.3333333,187.30729,190)"
       clip-path="url(#clipPath81)" />
    <path
       id="path82"
       d="M 211,125 V 106"
       style="fill:none;stroke:#000000;stroke-width:1;stroke-linecap:square;stroke-linejoin:bevel;stroke-miterlimit:10;stroke-dasharray:4, 2;stroke-dashoffset:0;stroke-opacity:1"
       transform="matrix(1.3333333,0,0,1.3333333,187.30729,190)"
       clip-path="url(#clipPath83)" />
    <path
       id="path84"
       d="M 0,0 H 30 V 32 H 0 Z"
       style="fill:none;stroke:#000000;stroke-width:0.565047;stroke-linecap:butt;stroke-linejoin:miter;stroke-miterlimit:2;stroke-dasharray:none;stroke-opacity:1"
       transform="matrix(1.3333333,0,0,1.3333333,439.97396,321.33333)"
       clip-path="url(#clipPath85)" />
    <g
       id="g87"
       clip-path="url(#clipPath88)">
      <path
         d="M 0.77246101,-9.767449e-4 V -7.161133 H 3.4677735 c 0.4746094,0.00879 0.8613281,0.041016 1.1601563,0.09375 0.3046875,0.046875 0.5742187,0.1523437 0.8085937,0.3164062 0.2402344,0.1640625 0.4365235,0.3955079 0.5859375,0.6914063 0.131836,0.2988281 0.2021485,0.6210937 0.2109375,0.9726562 -0.00879,0.609375 -0.2050781,1.125 -0.5859375,1.546875 -0.3925781,0.4218751 -1.0898437,0.6328126 -2.0976562,0.6328126 H 1.7216798 V -9.767449e-4 Z M 1.7216798,-3.7509768 h 1.8398437 c 0.609375,0 1.0458985,-0.1113281 1.3125,-0.3398437 0.2578125,-0.2255859 0.3867188,-0.5449219 0.3867188,-0.9609375 0,-0.2958984 -0.079102,-0.5537109 -0.234375,-0.7734375 C 4.8769532,-6.036133 4.6777345,-6.176758 4.428711,-6.2470705 4.2646485,-6.2939455 3.9716798,-6.317383 3.5498048,-6.317383 H 1.7216798 Z M 10.709961,-9.767449e-4 V -0.7626955 c -0.407227,0.5859375 -0.9550781,0.87890626 -1.640625,0.87890626 -0.3134765,0 -0.5976562,-0.05859375 -0.8554687,-0.17578125 C 7.9384766,-0.176758 7.7392579,-0.32324237 7.616211,-0.504883 7.4814454,-0.67480487 7.3935548,-0.89160175 7.3466798,-1.1494142 7.3144532,-1.3193361 7.2998048,-1.5947267 7.2998048,-1.9697267 V -5.1806643 H 8.178711 v 2.8710938 c 0,0.4628906 0.017578,0.7910156 0.058594,0.984375 0.046875,0.1962891 0.1582031,0.35742188 0.3398437,0.48046875 0.178711,0.13476563 0.4013672,0.19921875 0.6679688,0.19921875 0.2578125,0 0.5039062,-0.0644531 0.7382812,-0.19921875 0.2255853,-0.13183593 0.3896483,-0.31640625 0.4921873,-0.55078125 0.09375,-0.2255859 0.140625,-0.5625 0.140625,-1.0078125 v -2.7773438 h 0.878906 v 5.1796875551 z m 2.138672,0 V -7.161133 h 0.878906 v 7.1601562551 z m 1.87793,-1.5468749551 0.867187,-0.140625 c 0.05273,0.3515625 0.19043,0.6210937 0.410156,0.8085937 0.216797,0.18164063 0.530274,0.26953125 0.9375,0.26953125 0.404297,0 0.706055,-0.0820313 0.902344,-0.24609375 0.193359,-0.1552734 0.292969,-0.3457031 0.292969,-0.5742187 -0.0088,-0.1933594 -0.09961,-0.3515625 -0.269531,-0.46875 -0.117188,-0.076172 -0.416016,-0.1757813 -0.890625,-0.2929688 -0.650391,-0.1640625 -1.095704,-0.3076172 -1.335938,-0.4335937 -0.251953,-0.1171875 -0.442383,-0.28125 -0.574219,-0.4921875 -0.134765,-0.2021485 -0.196289,-0.4335938 -0.1875,-0.6914063 0,-0.2255859 0.0498,-0.4394531 0.152344,-0.6445313 0.09961,-0.1875 0.246094,-0.3515625 0.433594,-0.4921875 0.131836,-0.09375 0.319336,-0.1787109 0.5625,-0.2578125 0.234375,-0.061523 0.518555,-0.09375 0.855469,-0.09375 0.333984,0 0.659179,0.058594 0.972656,0.1757813 0.304687,0.1171875 0.530273,0.2753906 0.679687,0.46875 0.146485,0.2050781 0.249024,0.4746094 0.304688,0.8085937 l -0.855469,0.1171875 c -0.04102,-0.2636718 -0.152344,-0.4746093 -0.339844,-0.6328125 -0.196289,-0.1464843 -0.46289,-0.2226562 -0.796875,-0.2226562 -0.407226,0.00879 -0.697265,0.076172 -0.867187,0.1992187 -0.172852,0.1347657 -0.257813,0.2900391 -0.257813,0.46875 0,0.1171875 0.03516,0.2226563 0.105469,0.3164063 0.07617,0.09375 0.19043,0.1728516 0.339844,0.234375 0.08496,0.032227 0.389648,0.1171875 0.914062,0.2578125 0.521485,0.140625 0.914063,0.2636719 1.171875,0.3632813 0.234375,0.1171875 0.424805,0.2753906 0.574219,0.46875 0.140625,0.2050781 0.210938,0.4541015 0.210938,0.75 0,0.2988281 -0.08789,0.57128902 -0.257813,0.82031245 -0.172851,0.26660157 -0.418945,0.46875 -0.738281,0.609375 -0.328125,0.14062501 -0.697266,0.21093751 -1.101563,0.21093751 -0.673828,0 -1.183593,-0.140625 -1.535156,-0.42187501 -0.360351,-0.27246093 -0.585937,-0.68554687 -0.679687,-1.24218745 z m 8.90332,-0.1171875 0.902344,0.1054687 c -0.140625,0.5332031 -0.404297,0.94628907 -0.785157,1.2421875 -0.392578,0.29003907 -0.887695,0.43359376 -1.488281,0.43359376 -0.758789,0 -1.359375,-0.23437501 -1.804687,-0.70312501 -0.445313,-0.45996095 -0.667969,-1.11328125 -0.667969,-1.95703125 0,-0.8730469 0.225586,-1.5527344 0.679687,-2.0390625 0.445313,-0.4746094 1.025391,-0.7148438 1.746094,-0.7148438 0.694336,0 1.259766,0.234375 1.699219,0.703125 0.436523,0.4775391 0.65625,1.1425782 0.65625,1.9921876 0,0.055664 0,0.1347656 0,0.234375 h -3.867188 c 0.0293,0.571289 0.19043,1.0078125 0.480469,1.3125 0.28711,0.29882808 0.647461,0.44531245 1.078125,0.44531245 0.319336,0.008789 0.597656,-0.0732422 0.832031,-0.24609375 0.225586,-0.1699219 0.404297,-0.4394531 0.539063,-0.8085937 z M 20.74707,-3.0947267 h 2.894532 c -0.04687,-0.4277344 -0.1875,-0.7792969 -0.421875,-1.0546876 -0.228516,-0.28125 -0.559571,-0.4248046 -0.996094,-0.4335937 -0.407227,0.00879 -0.74707,0.1464844 -1.019531,0.4101562 -0.28125,0.2666016 -0.433594,0.6269532 -0.457032,1.0781251 z m 0,0"
         style="fill:#000000;fill-opacity:1;fill-rule:nonzero;stroke:none"
         aria-label="Pulse"
         transform="matrix(1.3333333,0,0,1.3333333,443.31771,381.33333)"
         clip-path="url(#clipPath86)"
         id="path87" />
    </g>
    <path
       id="path89"
       d="m 4.1259766,-2.7998049 v -0.84375 l 3.0234375,-0.011719 v 2.66015625 c -0.46875,0.375 -0.9492187,0.65332031 -1.4414062,0.83203125 -0.4921875,0.19335938 -1.0019532,0.28710938 -1.5234375,0.28125 -0.703125,0 -1.3417969,-0.14648437 -1.9101563,-0.4453125 -0.5800781,-0.29589844 -1.0136719,-0.7324219 -1.30078123,-1.3125 -0.29882813,-0.5625 -0.4453125,-1.1953125 -0.4453125,-1.8984375 0,-0.703125 0.14648437,-1.3535156 0.4453125,-1.9570313 C 1.2607422,-6.0957033 1.6796876,-6.5439455 2.2275391,-6.8427736 2.772461,-7.129883 3.4023438,-7.2763674 4.1142579,-7.2763674 c 0.515625,0 0.984375,0.082031 1.40625,0.2460938 0.4130859,0.1728516 0.7412109,0.4072266 0.984375,0.703125 0.234375,0.3046875 0.4130859,0.6972656 0.5390625,1.171875 l -0.8554688,0.234375 C 6.0771485,-5.2783205 5.9453126,-5.5654299 5.7900391,-5.7763674 5.6259766,-5.9873049 5.397461,-6.154297 5.1103516,-6.2802736 c -0.3046875,-0.1171875 -0.6328125,-0.1787109 -0.984375,-0.1875 -0.4394531,0 -0.8144531,0.067383 -1.125,0.1992187 -0.3222656,0.1347657 -0.5742187,0.3046875 -0.7617187,0.515625 -0.1962891,0.2197266 -0.3486328,0.4570313 -0.4570313,0.7148438 -0.1816406,0.4453125 -0.2695312,0.9257812 -0.2695312,1.4414062 0,0.6416016 0.1083984,1.171875 0.328125,1.59375 0.2167968,0.4306641 0.5390625,0.75 0.9609375,0.9609375 0.4130859,0.21093755 0.8583984,0.3164063 1.3359375,0.3164063 0.4042968,0 0.8027343,-0.0820313 1.1953125,-0.24609375 0.3896484,-0.14648435 0.6855468,-0.31640625 0.890625,-0.50390625 v -1.3242188 z m 7.8457034,1.1367188 0.902344,0.1054687 c -0.140625,0.5332032 -0.404297,0.94628911 -0.785157,1.24218755 -0.392578,0.29003906 -0.887695,0.43359375 -1.488281,0.43359375 -0.7587891,0 -1.359375,-0.234375 -1.8046875,-0.703125 C 8.350586,-1.044922 8.1279298,-1.6982424 8.1279298,-2.5419924 c 0,-0.8730468 0.2255859,-1.5527343 0.6796875,-2.0390625 0.4453125,-0.4746093 1.0253906,-0.7148437 1.7460937,-0.7148437 0.694336,0 1.259766,0.234375 1.699219,0.703125 0.436523,0.4775391 0.65625,1.1425781 0.65625,1.9921875 0,0.055664 0,0.1347656 0,0.234375 H 9.0419923 c 0.029297,0.5712891 0.1904296,1.0078125 0.4804687,1.3125 0.2871094,0.29882812 0.647461,0.4453125 1.078125,0.4453125 0.319336,0.008789 0.597656,-0.0732422 0.832031,-0.24609375 0.225586,-0.16992185 0.404297,-0.43945315 0.539063,-0.80859375 z M 9.0888673,-3.0927736 h 2.8945317 c -0.04687,-0.4277344 -0.1875,-0.7792969 -0.421875,-1.0546875 -0.228516,-0.28125 -0.559571,-0.4248047 -0.996094,-0.4335938 -0.407227,0.00879 -0.7470706,0.1464844 -1.0195315,0.4101563 -0.28125,0.2666016 -0.4335937,0.6269531 -0.4570312,1.078125 z M 13.969727,9.764009e-4 V -5.1787111 h 0.796875 v 0.7382812 c 0.375,-0.5683593 0.919922,-0.8554687 1.640625,-0.8554687 0.310547,0 0.600586,0.055664 0.867187,0.1640625 0.257813,0.1171875 0.451172,0.2666016 0.585938,0.4453125 0.123047,0.1816406 0.216797,0.3955078 0.28125,0.6445312 0.0293,0.1640625 0.04687,0.4511719 0.04687,0.8554688 V 9.764009e-4 H 17.30957 V -3.1513674 c 0,-0.3515625 -0.03516,-0.6210937 -0.105468,-0.8085937 -0.07031,-0.1699219 -0.19336,-0.3105469 -0.363282,-0.421875 -0.172851,-0.099609 -0.416015,-0.1523438 -0.726562,-0.1523438 -0.304688,0 -0.591797,0.1171875 -0.855469,0.3515625 -0.27539,0.2431641 -0.410156,0.6914063 -0.410156,1.3476563 V 9.764009e-4 Z M 23.066406,-1.6630861 23.96875,-1.5576174 c -0.140625,0.5332032 -0.404297,0.94628911 -0.785156,1.24218755 -0.392578,0.29003906 -0.887695,0.43359375 -1.488281,0.43359375 -0.758789,0 -1.359375,-0.234375 -1.804688,-0.703125 -0.445312,-0.4599609 -0.667969,-1.1132813 -0.667969,-1.9570313 0,-0.8730468 0.225586,-1.5527343 0.679688,-2.0390625 0.445312,-0.4746093 1.02539,-0.7148437 1.746094,-0.7148437 0.694336,0 1.259765,0.234375 1.699218,0.703125 0.436524,0.4775391 0.65625,1.1425781 0.65625,1.9921875 0,0.055664 0,0.1347656 0,0.234375 h -3.867187 c 0.0293,0.5712891 0.19043,1.0078125 0.480469,1.3125 0.287109,0.29882812 0.647461,0.4453125 1.078125,0.4453125 0.319336,0.008789 0.597656,-0.0732422 0.832031,-0.24609375 0.225586,-0.16992185 0.404297,-0.43945315 0.539062,-0.80859375 z m -2.882812,-1.4296875 h 2.894531 c -0.04687,-0.4277344 -0.1875,-0.7792969 -0.421875,-1.0546875 -0.228516,-0.28125 -0.55957,-0.4248047 -0.996094,-0.4335938 -0.407226,0.00879 -0.74707,0.1464844 -1.019531,0.4101563 -0.28125,0.2666016 -0.433594,0.6269531 -0.457031,1.078125 z M 25.049805,9.764009e-4 V -5.1787111 h 0.796875 v 0.7851562 c 0.193359,-0.3662109 0.380859,-0.609375 0.5625,-0.7265625 0.164062,-0.1171875 0.36914,-0.1757812 0.621094,-0.1757812 0.249023,0 0.530273,0.09375 0.84375,0.28125 l -0.304688,0.8085937 c -0.219727,-0.1230468 -0.433594,-0.1875 -0.644531,-0.1875 -0.196289,0.00879 -0.369141,0.067383 -0.515625,0.1757813 -0.158203,0.1171875 -0.278321,0.3046875 -0.363281,0.5625 -0.0791,0.2578125 -0.117188,0.5712891 -0.117188,0.9375 V 9.764009e-4 Z M 31.776367,-0.64355485 c -0.328125,0.28125 -0.641601,0.47753906 -0.9375,0.5859375 -0.304687,0.1171875 -0.629883,0.17578125 -0.972656,0.17578125 -0.571289,0 -1.007812,-0.140625 -1.3125,-0.421875 -0.313477,-0.27246094 -0.46582,-0.62695313 -0.457031,-1.0664063 0,-0.2490234 0.05859,-0.4804687 0.175781,-0.6914062 0.108398,-0.2109375 0.260742,-0.3779297 0.457031,-0.5039063 0.178711,-0.1230468 0.386719,-0.2226562 0.621094,-0.2929687 0.169922,-0.038086 0.433594,-0.082031 0.785156,-0.1289063 0.703125,-0.076172 1.22461,-0.1787109 1.570313,-0.3046875 0,-0.1171875 0,-0.1904296 0,-0.2226562 0,-0.3574219 -0.09961,-0.6240234 -0.292969,-0.796875 -0.196289,-0.1699219 -0.515625,-0.2578125 -0.960937,-0.2578125 -0.416016,0 -0.714844,0.070312 -0.902344,0.2109375 -0.205078,0.1494141 -0.351563,0.4072266 -0.445313,0.7734375 l -0.855468,-0.1171875 c 0.07031,-0.3662109 0.199218,-0.6621094 0.386718,-0.890625 0.178711,-0.2255859 0.436524,-0.4013672 0.773438,-0.5273438 0.333984,-0.1171875 0.726562,-0.1757812 1.171875,-0.1757812 0.436523,0 0.796875,0.052734 1.078125,0.1523437 0.272461,0.1025391 0.474609,0.2314454 0.609375,0.3867188 0.131836,0.1640625 0.225586,0.3691406 0.28125,0.609375 0.02344,0.1494141 0.03516,0.4189453 0.03516,0.8085937 v 1.171875 c 0,0.8144532 0.01758,1.33007817 0.05859,1.54687505 0.03809,0.21972656 0.111328,0.42773438 0.222656,0.6210937509 H 31.952149 C 31.858399,-0.17773454 31.799805,-0.39160172 31.776367,-0.64355485 Z m -0.07031,-1.95703125 c -0.322266,0.1347656 -0.802735,0.2431641 -1.441406,0.328125 -0.360352,0.055664 -0.615235,0.1142578 -0.761719,0.1757812 -0.158203,0.070312 -0.275391,0.1640625 -0.351563,0.28125 -0.08789,0.1347657 -0.128906,0.2988282 -0.128906,0.4921875 0,0.1875 0.09375,0.36035161 0.28125,0.51562505 0.169922,0.15820312 0.427734,0.234375 0.773438,0.234375 0.333984,0.008789 0.635742,-0.0644531 0.902343,-0.22265625 0.263672,-0.140625 0.459961,-0.3427734 0.585938,-0.609375 0.08496,-0.1933594 0.131836,-0.4863281 0.140625,-0.8789063 z m 4.154297,1.81640625 0.128906,0.7734375 c -0.251953,0.05273438 -0.503906,0.08203125 -0.761719,0.08203125 -0.257812,0 -0.474609,-0.05273437 -0.644531,-0.15234375 -0.181641,-0.09960937 -0.304688,-0.234375 -0.375,-0.3984375 -0.07031,-0.1640625 -0.105469,-0.50976563 -0.105469,-1.04296875 V -4.4990236 H 33.45801 v -0.6796875 h 0.644531 v -1.2890625 l 0.878906,-0.5273438 v 1.8164063 h 0.878907 v 0.6796875 h -0.878907 v 3.0351562 c -0.0088,0.2519532 0.0029,0.4101563 0.03516,0.4804688 0.0293,0.0703125 0.08496,0.12597656 0.164062,0.1640625 0.06152,0.046875 0.158203,0.0703125 0.292969,0.0703125 0.09375,0 0.222656,-0.0117188 0.386719,-0.0351563 z m 0.515625,-1.80468755 c 0,-0.9609375 0.269531,-1.6699218 0.808593,-2.1328125 0.436524,-0.3808593 0.978516,-0.5742187 1.628907,-0.5742187 0.708984,0 1.291992,0.2314453 1.746093,0.6914062 0.451172,0.46875 0.679688,1.1191407 0.679688,1.9453125 0,0.6650391 -0.102539,1.1894532 -0.304688,1.5703125 -0.196289,0.38378911 -0.486328,0.67968755 -0.867187,0.89062505 -0.392578,0.2109375 -0.808594,0.31640625 -1.253906,0.31640625 -0.735352,0 -1.321289,-0.234375 -1.757813,-0.703125 -0.454101,-0.4599609 -0.679687,-1.1279297 -0.679687,-2.0039063 z m 0.902343,0 c 0,0.6650391 0.143555,1.1601563 0.433594,1.4882813 0.28711,0.328125 0.65625,0.4921875 1.101563,0.4921875 0.427734,0 0.791015,-0.1640625 1.089843,-0.4921875 0.28125,-0.3339844 0.424805,-0.84375 0.433594,-1.5234375 -0.0088,-0.6328125 -0.152344,-1.1162109 -0.433594,-1.453125 -0.298828,-0.328125 -0.662109,-0.4921875 -1.089843,-0.4921875 -0.445313,0 -0.814453,0.1640625 -1.101563,0.4921875 -0.290039,0.328125 -0.433594,0.8261719 -0.433594,1.4882812 z M 42.238281,9.764009e-4 V -5.1787111 h 0.796875 v 0.7851562 c 0.19336,-0.3662109 0.38086,-0.609375 0.5625,-0.7265625 0.164063,-0.1171875 0.369141,-0.1757812 0.621094,-0.1757812 0.249024,0 0.530274,0.09375 0.84375,0.28125 l -0.304687,0.8085937 c -0.219727,-0.1230468 -0.433594,-0.1875 -0.644532,-0.1875 -0.196289,0.00879 -0.36914,0.067383 -0.515625,0.1757813 -0.158203,0.1171875 -0.27832,0.3046875 -0.363281,0.5625 -0.0791,0.2578125 -0.117187,0.5712891 -0.117187,0.9375 V 9.764009e-4 Z m 0,0"
       style="fill:#000000;fill-opacity:1;fill-rule:nonzero;stroke:none"
       aria-label="Generator"
       transform="matrix(1.3333333,0,0,1.3333333,430.02604,398.66667)"
       clip-path="url(#clipPath90)" />
    <path
       id="path91"
       d="M 0,0 H 30 V 28 H 0 Z"
       style="fill:#ffffff;fill-opacity:1;fill-rule:nonzero;stroke:none"
       transform="matrix(1.3333333,0,0,1.3333333,439.97396,417.33333)"
       clip-path="url(#clipPath92)" />
    <path
       id="path94"
       d="m 190,185 4,-14"
       style="fill:none;stroke:#000000;stroke-width:0.24;stroke-linecap:butt;stroke-linejoin:miter;stroke-miterlimit:2;stroke-dasharray:none;stroke-opacity:1"
       transform="matrix(1.3333333,0,0,1.3333333,187.30729,190)"
       clip-path="url(#clipPath95)" />
    <path
       id="path96"
       d="m 194,171 7,27"
       style="fill:none;stroke:#000000;stroke-width:0.24;stroke-linecap:butt;stroke-linejoin:miter;stroke-miterlimit:2;stroke-dasharray:none;stroke-opacity:1"
       transform="matrix(1.3333333,0,0,1.3333333,187.30729,190)"
       clip-path="url(#clipPath97)" />
    <path
       id="path98"
       d="m 201,198 4,-13"
       style="fill:none;stroke:#000000;stroke-width:0.24;stroke-linecap:butt;stroke-linejoin:miter;stroke-miterlimit:2;stroke-dasharray:none;stroke-opacity:1"
       transform="matrix(1.3333333,0,0,1.3333333,187.30729,190)"
       clip-path="url(#clipPath99)" />
    <path
       id="path100"
       d="m 205,185 3,-14"
       style="fill:none;stroke:#000000;stroke-width:0.24;stroke-linecap:butt;stroke-linejoin:miter;stroke-miterlimit:2;stroke-dasharray:none;stroke-opacity:1"
       transform="matrix(1.3333333,0,0,1.3333333,187.30729,190)"
       clip-path="url(#clipPath101)" />
    <path
       id="path102"
       d="m 208,171 7,27"
       style="fill:none;stroke:#000000;stroke-width:0.24;stroke-linecap:butt;stroke-linejoin:miter;stroke-miterlimit:2;stroke-dasharray:none;stroke-opacity:1"
       transform="matrix(1.3333333,0,0,1.3333333,187.30729,190)"
       clip-path="url(#clipPath103)" />
    <path
       id="path104"
       d="m 215,198 4,-13"
       style="fill:none;stroke:#000000;stroke-width:0.24;stroke-linecap:butt;stroke-linejoin:miter;stroke-miterlimit:2;stroke-dasharray:none;stroke-opacity:1"
       transform="matrix(1.3333333,0,0,1.3333333,187.30729,190)"
       clip-path="url(#clipPath105)" />
    <path
       id="path106"
       d="M 0,0 H 30 V 28 H 0 Z"
       style="fill:none;stroke:#000000;stroke-width:0.565047;stroke-linecap:butt;stroke-linejoin:miter;stroke-miterlimit:2;stroke-dasharray:none;stroke-opacity:1"
       transform="matrix(1.3333333,0,0,1.3333333,439.97396,417.33333)"
       clip-path="url(#clipPath107)" />
    <g
       id="g109"
       clip-path="url(#clipPath110)">
      <path
         d="M 2.5888673,6.1759994e-7 V -6.3164056 H 0.2333985 v -0.84375 h 5.671875 v 0.84375 H 3.538086 V 6.1759994e-7 Z m 3.7734375,0 V -5.1796869 h 0.796875 v 0.7851563 c 0.1933593,-0.366211 0.3808593,-0.609375 0.5625,-0.7265625 0.1640625,-0.1171875 0.3691406,-0.1757813 0.6210937,-0.1757813 0.2490234,0 0.5302734,0.09375 0.84375,0.28125 L 8.881836,-4.2070306 c -0.2197266,-0.1230469 -0.4335937,-0.1875 -0.6445312,-0.1875 -0.1962891,0.00879 -0.3691407,0.067383 -0.515625,0.1757812 -0.1582032,0.1171875 -0.2783204,0.3046875 -0.3632813,0.5625 -0.079102,0.2578125 -0.1171875,0.5712891 -0.1171875,0.9375 V 6.1759994e-7 Z M 9.7138673,-6.1406244 v -1.0195312 h 0.8789067 v 1.0195312 z m 0,6.14062501759994 V -5.1796869 H 10.592774 V 6.1759994e-7 Z M 15.30957,-0.64453063 c -0.328125,0.28125 -0.641601,0.47753906 -0.9375,0.5859375 -0.304687,0.1171875 -0.629882,0.17578125 -0.972656,0.17578125 -0.571289,0 -1.007812,-0.140625 -1.3125,-0.421875 -0.313476,-0.27246094 -0.46582,-0.62695313 -0.457031,-1.06640622 0,-0.2490235 0.05859,-0.4804688 0.175781,-0.6914063 0.108399,-0.2109375 0.260742,-0.3779297 0.457031,-0.5039062 0.178711,-0.1230469 0.386719,-0.2226563 0.621094,-0.2929688 0.169922,-0.038086 0.433594,-0.082031 0.785156,-0.1289062 0.703125,-0.076172 1.22461,-0.178711 1.570313,-0.3046875 0,-0.1171875 0,-0.1904297 0,-0.2226563 0,-0.3574219 -0.09961,-0.6240234 -0.292969,-0.796875 -0.196289,-0.1699219 -0.515625,-0.2578125 -0.960937,-0.2578125 -0.416016,0 -0.714844,0.070312 -0.902344,0.2109375 -0.205078,0.1494141 -0.351563,0.4072266 -0.445313,0.7734375 l -0.855468,-0.1171875 c 0.07031,-0.3662109 0.199218,-0.6621094 0.386718,-0.890625 0.178711,-0.2255859 0.436524,-0.4013672 0.773438,-0.5273437 0.333984,-0.1171875 0.726562,-0.1757813 1.171875,-0.1757813 0.436523,0 0.796875,0.052734 1.078125,0.1523438 0.272461,0.102539 0.474609,0.2314453 0.609375,0.3867187 0.131836,0.1640625 0.225586,0.3691406 0.28125,0.609375 0.02344,0.1494141 0.03516,0.4189453 0.03516,0.8085938 v 1.171875 c 0,0.8144531 0.01758,1.33007809 0.05859,1.54687497 0.03809,0.21972656 0.111328,0.42773437 0.222656,0.62109374759994 H 15.485352 C 15.391602,-0.17871032 15.333008,-0.39257751 15.30957,-0.64453063 Z M 15.23926,-2.6015619 c -0.322266,0.1347656 -0.802734,0.2431641 -1.441406,0.328125 -0.360352,0.055664 -0.615235,0.1142578 -0.761719,0.1757813 -0.158203,0.070312 -0.275391,0.1640625 -0.351563,0.28125 -0.08789,0.1347656 -0.128906,0.2988281 -0.128906,0.4921875 0,0.1875 0.09375,0.36035153 0.28125,0.51562497 0.169922,0.15820312 0.427735,0.234375 0.773438,0.234375 0.333984,0.008789 0.635742,-0.0644531 0.902343,-0.22265625 0.263672,-0.140625 0.459961,-0.34277342 0.585938,-0.60937502 0.08496,-0.1933594 0.131836,-0.4863281 0.140625,-0.8789062 z M 17.46875,6.1759994e-7 V -5.1796869 h 0.796875 v 0.7382813 c 0.375,-0.5683594 0.919922,-0.8554688 1.640625,-0.8554688 0.310547,0 0.600586,0.055664 0.867188,0.1640625 0.257812,0.1171875 0.451171,0.2666016 0.585937,0.4453125 0.123047,0.1816406 0.216797,0.3955078 0.28125,0.6445313 0.0293,0.1640625 0.04687,0.4511718 0.04687,0.8554687 V 6.1759994e-7 H 20.808594 V -3.1523431 c 0,-0.3515625 -0.03516,-0.6210938 -0.105469,-0.8085938 -0.07031,-0.1699219 -0.193359,-0.3105469 -0.363281,-0.421875 -0.172852,-0.099609 -0.416016,-0.1523437 -0.726563,-0.1523437 -0.304687,0 -0.591797,0.1171875 -0.855468,0.3515625 -0.275391,0.243164 -0.410157,0.6914062 -0.410157,1.3476562 V 6.1759994e-7 Z M 22.850586,0.43359437 l 0.855469,0.1171875 c 0.03809,0.26367187 0.152344,0.46875003 0.339844,0.60937503 0.193359,0.140625 0.480468,0.2109375 0.855468,0.2109375 0.404297,0 0.717774,-0.079102 0.9375,-0.234375 0.216797,-0.16406253 0.369141,-0.39550784 0.457032,-0.69140628 0.03809,-0.18164063 0.05859,-0.55371094 0.05859,-1.125 C 25.970703,-0.22558532 25.493164,6.1759994e-7 24.924805,6.1759994e-7 24.204102,6.1759994e-7 23.650391,-0.25781188 23.260742,-0.77343688 22.868164,-1.2802728 22.674805,-1.8984369 22.674805,-2.6249994 c 0,-0.4921875 0.08789,-0.9492187 0.269531,-1.3710937 0.178711,-0.413086 0.439453,-0.7324219 0.785156,-0.9609375 0.333985,-0.225586 0.732422,-0.3398438 1.195313,-0.3398438 0.609375,0 1.113281,0.2460938 1.511719,0.7382813 v -0.6210938 h 0.808593 v 4.47656252 c 0,0.80273437 -0.0791,1.37402344 -0.234375,1.71093748 -0.172851,0.3427735 -0.433593,0.6123047 -0.785156,0.8085938 -0.360352,0.1933593 -0.802734,0.2929687 -1.324219,0.2929687 -0.618164,0 -1.113281,-0.140625 -1.488281,-0.421875 C 23.020508,1.41211 22.833008,0.99609437 22.850586,0.43359437 Z m 0.738281,-3.11718747 c 0,0.6796875 0.131836,1.1777343 0.398438,1.4882812 0.263672,0.31347658 0.603515,0.46875002 1.019531,0.46875002 0.398438,0 0.732422,-0.15527344 1.007813,-0.46875002 0.27246,-0.3046875 0.410156,-0.7910156 0.410156,-1.4648437 0,-0.6328125 -0.137696,-1.1074219 -0.410156,-1.4296875 -0.29004,-0.319336 -0.632813,-0.4804688 -1.03125,-0.4804688 -0.38379,0 -0.711915,0.1582031 -0.984375,0.46875 -0.275391,0.3222656 -0.410157,0.7939453 -0.410157,1.4179688 z M 28.551758,6.1759994e-7 V -7.1601556 h 0.878906 V 6.1759994e-7 Z M 34.332031,-1.6640619 l 0.902344,0.1054688 c -0.140625,0.5332031 -0.404297,0.94628903 -0.785156,1.24218747 -0.392578,0.29003906 -0.887695,0.43359375 -1.488281,0.43359375 -0.758789,0 -1.359375,-0.234375 -1.804688,-0.703125 -0.445312,-0.45996092 -0.667969,-1.11328122 -0.667969,-1.95703122 0,-0.8730469 0.225586,-1.5527344 0.679688,-2.0390625 0.445312,-0.4746094 1.02539,-0.7148438 1.746094,-0.7148438 0.694336,0 1.259765,0.234375 1.699218,0.703125 0.436524,0.4775391 0.65625,1.1425781 0.65625,1.9921875 0,0.055664 0,0.1347656 0,0.234375 h -3.867187 c 0.0293,0.5712891 0.19043,1.0078125 0.480469,1.3125 0.287109,0.29882814 0.647461,0.44531252 1.078125,0.44531252 0.319336,0.008789 0.597656,-0.0732422 0.832031,-0.24609375 0.225586,-0.16992187 0.404297,-0.43945317 0.539062,-0.80859377 z m -2.882812,-1.4296875 h 2.894531 c -0.04687,-0.4277344 -0.1875,-0.7792969 -0.421875,-1.0546875 -0.228516,-0.28125 -0.55957,-0.4248047 -0.996094,-0.4335937 -0.407226,0.00879 -0.74707,0.1464843 -1.019531,0.4101562 -0.28125,0.2666016 -0.433594,0.6269531 -0.457031,1.078125 z m 0,0"
         style="fill:#000000;fill-opacity:1;fill-rule:nonzero;stroke:none"
         aria-label="Triangle"
         transform="matrix(1.3333333,0,0,1.3333333,436.19271,472)"
         clip-path="url(#clipPath108)"
         id="path109" />
    </g>
    <path
       id="path111"
       d="m 4.1259766,-2.8017572 v -0.84375 l 3.0234375,-0.011719 v 2.66015622 c -0.46875,0.375 -0.9492187,0.65332032 -1.4414062,0.83203126 -0.4921875,0.19335937 -1.0019532,0.28710937 -1.5234375,0.28125 -0.703125,0 -1.3417969,-0.14648438 -1.9101563,-0.4453125 C 1.694336,-0.62499936 1.2607422,-1.0615228 0.97363287,-1.6416009 c -0.29882813,-0.5625 -0.4453125,-1.1953125 -0.4453125,-1.8984375 0,-0.703125 0.14648437,-1.3535157 0.4453125,-1.9570313 0.28710933,-0.6005859 0.70605473,-1.0488281 1.25390623,-1.3476562 0.5449219,-0.2871094 1.1748047,-0.4335938 1.8867188,-0.4335938 0.515625,0 0.984375,0.082031 1.40625,0.2460938 0.4130859,0.1728515 0.7412109,0.4072265 0.984375,0.703125 0.234375,0.3046875 0.4130859,0.6972656 0.5390625,1.171875 l -0.8554688,0.234375 C 6.0771485,-5.2802728 5.9453126,-5.5673822 5.7900391,-5.7783197 5.6259766,-5.9892572 5.397461,-6.1562494 5.1103516,-6.2822259 c -0.3046875,-0.1171875 -0.6328125,-0.178711 -0.984375,-0.1875 -0.4394531,0 -0.8144531,0.067383 -1.125,0.1992187 -0.3222656,0.1347656 -0.5742187,0.3046875 -0.7617187,0.515625 -0.1962891,0.2197266 -0.3486328,0.4570313 -0.4570313,0.7148438 -0.1816406,0.4453125 -0.2695312,0.9257812 -0.2695312,1.4414062 0,0.6416016 0.1083984,1.171875 0.328125,1.59375 0.2167968,0.4306641 0.5390625,0.75 0.9609375,0.9609375 0.4130859,0.21093752 0.8583984,0.31640627 1.3359375,0.31640627 0.4042968,0 0.8027343,-0.0820313 1.1953125,-0.24609375 0.3896484,-0.14648442 0.6855468,-0.31640622 0.890625,-0.50390622 v -1.3242188 z m 7.8457034,1.1367188 0.902344,0.1054687 c -0.140625,0.5332031 -0.404297,0.94628909 -0.785157,1.24218753 -0.392578,0.29003906 -0.887695,0.43359375 -1.488281,0.43359375 -0.7587891,0 -1.359375,-0.234375 -1.8046875,-0.70312501 C 8.350586,-1.0468744 8.1279298,-1.7001947 8.1279298,-2.5439447 c 0,-0.8730469 0.2255859,-1.5527344 0.6796875,-2.0390625 0.4453125,-0.4746094 1.0253906,-0.7148437 1.7460937,-0.7148437 0.694336,0 1.259766,0.234375 1.699219,0.703125 0.436523,0.477539 0.65625,1.1425781 0.65625,1.9921875 0,0.055664 0,0.1347656 0,0.234375 H 9.0419923 c 0.029297,0.571289 0.1904296,1.0078125 0.4804687,1.3125 0.2871094,0.2988281 0.647461,0.44531247 1.078125,0.44531247 0.319336,0.008789 0.597656,-0.0732422 0.832031,-0.24609375 0.225586,-0.16992192 0.404297,-0.43945312 0.539063,-0.80859372 z M 9.0888673,-3.0947259 h 2.8945317 c -0.04687,-0.4277344 -0.1875,-0.7792969 -0.421875,-1.0546875 -0.228516,-0.28125 -0.559571,-0.4248047 -0.996094,-0.4335938 -0.407227,0.00879 -0.7470706,0.1464844 -1.0195315,0.4101563 -0.28125,0.2666015 -0.4335937,0.6269531 -0.4570312,1.078125 z M 13.969727,-9.759241e-4 V -5.1806634 h 0.796875 v 0.7382812 c 0.375,-0.5683594 0.919922,-0.8554687 1.640625,-0.8554687 0.310547,0 0.600586,0.055664 0.867187,0.1640625 0.257813,0.1171875 0.451172,0.2666015 0.585938,0.4453125 0.123047,0.1816406 0.216797,0.3955078 0.28125,0.6445312 0.0293,0.1640625 0.04687,0.4511719 0.04687,0.8554688 V -9.759241e-4 H 17.30957 V -3.1533197 c 0,-0.3515625 -0.03516,-0.6210937 -0.105468,-0.8085937 -0.07031,-0.1699219 -0.19336,-0.3105469 -0.363282,-0.421875 -0.172851,-0.099609 -0.416015,-0.1523438 -0.726562,-0.1523438 -0.304688,0 -0.591797,0.1171875 -0.855469,0.3515625 -0.27539,0.2431641 -0.410156,0.6914063 -0.410156,1.3476563 V -9.759241e-4 Z M 23.066406,-1.6650384 23.96875,-1.5595697 c -0.140625,0.5332031 -0.404297,0.94628909 -0.785156,1.24218753 -0.392578,0.29003906 -0.887695,0.43359375 -1.488281,0.43359375 -0.758789,0 -1.359375,-0.234375 -1.804688,-0.70312501 -0.445312,-0.45996097 -0.667969,-1.11328127 -0.667969,-1.95703127 0,-0.8730469 0.225586,-1.5527344 0.679688,-2.0390625 0.445312,-0.4746094 1.02539,-0.7148437 1.746094,-0.7148437 0.694336,0 1.259765,0.234375 1.699218,0.703125 0.436524,0.477539 0.65625,1.1425781 0.65625,1.9921875 0,0.055664 0,0.1347656 0,0.234375 h -3.867187 c 0.0293,0.571289 0.19043,1.0078125 0.480469,1.3125 0.287109,0.2988281 0.647461,0.44531247 1.078125,0.44531247 0.319336,0.008789 0.597656,-0.0732422 0.832031,-0.24609375 0.225586,-0.16992192 0.404297,-0.43945312 0.539062,-0.80859372 z m -2.882812,-1.4296875 h 2.894531 c -0.04687,-0.4277344 -0.1875,-0.7792969 -0.421875,-1.0546875 -0.228516,-0.28125 -0.55957,-0.4248047 -0.996094,-0.4335938 -0.407226,0.00879 -0.74707,0.1464844 -1.019531,0.4101563 -0.28125,0.2666015 -0.433594,0.6269531 -0.457031,1.078125 z m 4.866211,3.0937499759 V -5.1806634 h 0.796875 v 0.7851562 c 0.193359,-0.3662109 0.380859,-0.609375 0.5625,-0.7265625 0.164062,-0.1171875 0.36914,-0.1757812 0.621094,-0.1757812 0.249023,0 0.530273,0.09375 0.84375,0.28125 l -0.304688,0.8085937 c -0.219727,-0.1230469 -0.433594,-0.1875 -0.644531,-0.1875 -0.196289,0.00879 -0.369141,0.067383 -0.515625,0.1757813 -0.158203,0.1171875 -0.278321,0.3046875 -0.363281,0.5625 -0.0791,0.2578125 -0.117188,0.571289 -0.117188,0.9375 V -9.759241e-4 Z M 31.776367,-0.64550718 c -0.328125,0.28125001 -0.641601,0.47753907 -0.9375,0.58593751 -0.304687,0.1171875 -0.629883,0.17578125 -0.972656,0.17578125 -0.571289,0 -1.007812,-0.140625 -1.3125,-0.421875 -0.313477,-0.27246094 -0.46582,-0.62695313 -0.457031,-1.06640628 0,-0.2490234 0.05859,-0.4804687 0.175781,-0.6914062 0.108398,-0.2109375 0.260742,-0.3779297 0.457031,-0.5039063 0.178711,-0.1230469 0.386719,-0.2226562 0.621094,-0.2929687 0.169922,-0.038086 0.433594,-0.082031 0.785156,-0.1289063 0.703125,-0.076172 1.22461,-0.1787109 1.570313,-0.3046875 0,-0.1171875 0,-0.1904297 0,-0.2226562 0,-0.3574219 -0.09961,-0.6240235 -0.292969,-0.796875 -0.196289,-0.1699219 -0.515625,-0.2578125 -0.960937,-0.2578125 -0.416016,0 -0.714844,0.070312 -0.902344,0.2109375 -0.205078,0.149414 -0.351563,0.4072265 -0.445313,0.7734375 l -0.855468,-0.1171875 c 0.07031,-0.366211 0.199218,-0.6621094 0.386718,-0.890625 0.178711,-0.225586 0.436524,-0.4013672 0.773438,-0.5273438 0.333984,-0.1171875 0.726562,-0.1757812 1.171875,-0.1757812 0.436523,0 0.796875,0.052734 1.078125,0.1523437 0.272461,0.1025391 0.474609,0.2314453 0.609375,0.3867188 0.131836,0.1640625 0.225586,0.3691406 0.28125,0.609375 0.02344,0.149414 0.03516,0.4189453 0.03516,0.8085937 v 1.171875 c 0,0.8144531 0.01758,1.33007815 0.05859,1.54687502 0.03809,0.21972657 0.111328,0.42773438 0.222656,0.6210937559 H 31.952149 C 31.858399,-0.17968686 31.799805,-0.39355405 31.776367,-0.64550718 Z m -0.07031,-1.95703122 c -0.322266,0.1347656 -0.802735,0.243164 -1.441406,0.328125 -0.360352,0.055664 -0.615235,0.1142578 -0.761719,0.1757812 -0.158203,0.070312 -0.275391,0.1640625 -0.351563,0.28125 -0.08789,0.1347656 -0.128906,0.2988281 -0.128906,0.4921875 0,0.1875 0.09375,0.36035159 0.28125,0.51562502 0.169922,0.15820313 0.427734,0.234375 0.773438,0.234375 0.333984,0.008789 0.635742,-0.0644531 0.902343,-0.22265625 0.263672,-0.140625 0.459961,-0.34277347 0.585938,-0.60937497 0.08496,-0.1933594 0.131836,-0.4863282 0.140625,-0.8789063 z m 4.154297,1.81640622 0.128906,0.77343751 c -0.251953,0.05273437 -0.503906,0.08203125 -0.761719,0.08203125 -0.257812,0 -0.474609,-0.05273438 -0.644531,-0.15234375 -0.181641,-0.09960938 -0.304688,-0.234375 -0.375,-0.3984375 C 34.1377,-0.64550718 34.102541,-0.9912103 34.102541,-1.5244134 V -4.5009759 H 33.45801 v -0.6796875 h 0.644531 v -1.2890625 l 0.878906,-0.5273438 v 1.8164063 h 0.878907 v 0.6796875 h -0.878907 v 3.0351562 c -0.0088,0.2519531 0.0029,0.4101563 0.03516,0.48046877 0.0293,0.0703125 0.08496,0.12597657 0.164062,0.1640625 0.06152,0.046875 0.158203,0.0703125 0.292969,0.0703125 0.09375,0 0.222656,-0.0117188 0.386719,-0.0351563 z m 0.515625,-1.80468752 c 0,-0.9609375 0.269531,-1.6699219 0.808593,-2.1328125 0.436524,-0.3808594 0.978516,-0.5742187 1.628907,-0.5742187 0.708984,0 1.291992,0.2314453 1.746093,0.6914062 0.451172,0.46875 0.679688,1.1191406 0.679688,1.9453125 0,0.6650391 -0.102539,1.1894531 -0.304688,1.5703125 -0.196289,0.38378909 -0.486328,0.67968753 -0.867187,0.89062503 -0.392578,0.2109375 -0.808594,0.31640625 -1.253906,0.31640625 -0.735352,0 -1.321289,-0.234375 -1.757813,-0.70312501 C 36.601563,-1.0468744 36.375977,-1.7148431 36.375977,-2.5908197 Z m 0.902343,0 c 0,0.6650391 0.143555,1.1601563 0.433594,1.4882813 0.28711,0.32812497 0.65625,0.49218747 1.101563,0.49218747 0.427734,0 0.791015,-0.1640625 1.089843,-0.49218747 0.28125,-0.3339844 0.424805,-0.84375 0.433594,-1.5234375 -0.0088,-0.6328125 -0.152344,-1.116211 -0.433594,-1.453125 -0.298828,-0.328125 -0.662109,-0.4921875 -1.089843,-0.4921875 -0.445313,0 -0.814453,0.1640625 -1.101563,0.4921875 -0.290039,0.328125 -0.433594,0.8261718 -0.433594,1.4882812 z m 4.959961,2.5898437759 V -5.1806634 h 0.796875 v 0.7851562 c 0.19336,-0.3662109 0.38086,-0.609375 0.5625,-0.7265625 0.164063,-0.1171875 0.369141,-0.1757812 0.621094,-0.1757812 0.249024,0 0.530274,0.09375 0.84375,0.28125 l -0.304687,0.8085937 c -0.219727,-0.1230469 -0.433594,-0.1875 -0.644532,-0.1875 -0.196289,0.00879 -0.36914,0.067383 -0.515625,0.1757813 -0.158203,0.1171875 -0.27832,0.3046875 -0.363281,0.5625 -0.0791,0.2578125 -0.117187,0.571289 -0.117187,0.9375 v 2.7187499759 z m 0,0"
       style="fill:#000000;fill-opacity:1;fill-rule:nonzero;stroke:none"
       aria-label="Generator"
       transform="matrix(1.3333333,0,0,1.3333333,430.02604,489.33333)"
       clip-path="url(#clipPath112)" />
    <path
       id="path113"
       d="m 1791.252,1153.8333 -33.3334,-16.6666 V 1170.5 Z"
       style="fill:#000000;fill-opacity:1;fill-rule:nonzero;stroke:none"
       transform="matrix(0.32,0,0,0.32,13.44,13.440001)"
       clip-path="url(#clipPath114)" />
    <path
       id="path115"
       d="m 219.89953,115.16 h 42 v 30 h 30.16"
       style="fill:none;stroke:#000000;stroke-width:0.24;stroke-linecap:butt;stroke-linejoin:miter;stroke-miterlimit:2;stroke-dasharray:none;stroke-opacity:1"
       transform="matrix(1.3333333,0,0,1.3333333,186.64062,189.33333)"
       clip-path="url(#clipPath116)" />
    <path
       id="path117"
       d="m 1791.252,1216.3333 -33.3334,-16.6666 V 1233 Z"
       style="fill:#000000;fill-opacity:1;fill-rule:nonzero;stroke:none"
       transform="matrix(0.32,0,0,0.32,13.44,13.440001)"
       clip-path="url(#clipPath118)" />
    <path
       id="path119"
       d="m 219.89953,185 h 42 v -24.96 h 30.16"
       style="fill:none;stroke:#000000;stroke-width:0.24;stroke-linecap:butt;stroke-linejoin:miter;stroke-miterlimit:2;stroke-dasharray:none;stroke-opacity:1"
       transform="matrix(1.3333333,0,0,1.3333333,186.64062,189.33333)"
       clip-path="url(#clipPath120)" />
  </g>
</svg>
