<?xml version="1.0" encoding="UTF-8" standalone="no"?>
<!-- Created with Inkscape (http://www.inkscape.org/) -->

<svg
   version="1.1"
   id="svg1"
   width="364.43399"
   height="156.78372"
   viewBox="0 0 364.434 156.78372"
   sodipodi:docname="lab1_task3_freq_rect_diagram.pdf"
   xmlns:inkscape="http://www.inkscape.org/namespaces/inkscape"
   xmlns:sodipodi="http://sodipodi.sourceforge.net/DTD/sodipodi-0.dtd"
   xmlns="http://www.w3.org/2000/svg"
   xmlns:svg="http://www.w3.org/2000/svg">
  <defs
     id="defs1">
    <clipPath
       clipPathUnits="userSpaceOnUse"
       id="clipPath3">
      <path
         d="m 1214.3314,1058 h 787.3372 v 350 h -787.3372 z"
         transform="matrix(0.24000001,0,0,0.24000001,-302.40047,-264.92001)"
         clip-rule="evenodd"
         id="path3" />
    </clipPath>
    <clipPath
       clipPathUnits="userSpaceOnUse"
       id="clipPath6">
      <path
         d="m 1214.3314,1058 h 787.3372 v 350 h -787.3372 z"
         transform="matrix(0.24000001,0,0,0.24000001,-112.90047,-166.42)"
         clip-rule="evenodd"
         id="path6" />
    </clipPath>
    <clipPath
       clipPathUnits="userSpaceOnUse"
       id="clipPath8">
      <path
         d="m 1214.3314,1058 h 787.3372 v 350 h -787.3372 z"
         transform="matrix(0.24000001,0,0,0.24000001,-112.90047,-166.42)"
         clip-rule="evenodd"
         id="path8" />
    </clipPath>
    <clipPath
       clipPathUnits="userSpaceOnUse"
       id="clipPath10">
      <path
         d="m 1214.3314,1058 h 787.3372 v 350 h -787.3372 z"
         transform="matrix(0.24000001,0,0,0.24000001,-112.90047,-166.42)"
         clip-rule="evenodd"
         id="path10" />
    </clipPath>
    <clipPath
       clipPathUnits="userSpaceOnUse"
       id="clipPath12">
      <path
         d="m 1214.3314,1058 h 787.3372 v 350 h -787.3372 z"
         transform="matrix(0.24000001,0,0,0.24000001,-112.90047,-166.42)"
         clip-rule="evenodd"
         id="path12" />
    </clipPath>
    <clipPath
       clipPathUnits="userSpaceOnUse"
       id="clipPath14">
      <path
         d="m 1214.3314,1058 h 787.3372 v 350 h -787.3372 z"
         transform="matrix(0.24000001,0,0,0.24000001,-112.90047,-166.42)"
         clip-rule="evenodd"
         id="path14" />
    </clipPath>
    <clipPath
       clipPathUnits="userSpaceOnUse"
       id="clipPath16">
      <path
         d="m 1214.3314,1058 h 787.3372 v 350 h -787.3372 z"
         transform="matrix(0.24000001,0,0,0.24000001,-112.90047,-166.42)"
         clip-rule="evenodd"
         id="path16" />
    </clipPath>
    <clipPath
       clipPathUnits="userSpaceOnUse"
       id="clipPath18">
      <path
         d="m 1214.3314,1058 h 787.3372 v 350 h -787.3372 z"
         transform="matrix(0.24000001,0,0,0.24000001,-112.90047,-166.42)"
         clip-rule="evenodd"
         id="path18" />
    </clipPath>
    <clipPath
       clipPathUnits="userSpaceOnUse"
       id="clipPath20">
      <path
         d="m 1214.3314,1058 h 787.3372 v 350 h -787.3372 z"
         transform="matrix(0.24000001,0,0,0.24000001,-112.90047,-166.42)"
         clip-rule="evenodd"
         id="path20" />
    </clipPath>
    <clipPath
       clipPathUnits="userSpaceOnUse"
       id="clipPath22">
      <path
         d="m 1214.3314,1058 h 787.3372 v 350 h -787.3372 z"
         transform="matrix(0.24000001,0,0,0.24000001,-112.90047,-166.42)"
         clip-rule="evenodd"
         id="path22" />
    </clipPath>
    <clipPath
       clipPathUnits="userSpaceOnUse"
       id="clipPath24">
      <path
         d="m 1214.3314,1058 h 787.3372 v 350 h -787.3372 z"
         transform="matrix(0.24000001,0,0,0.24000001,-112.90047,-166.42)"
         clip-rule="evenodd"
         id="path24" />
    </clipPath>
    <clipPath
       clipPathUnits="userSpaceOnUse"
       id="clipPath26">
      <path
         d="m 1214.3314,1058 h 787.3372 v 350 h -787.3372 z"
         transform="matrix(0.24000001,0,0,0.24000001,-112.90047,-166.42)"
         clip-rule="evenodd"
         id="path26" />
    </clipPath>
    <clipPath
       clipPathUnits="userSpaceOnUse"
       id="clipPath28">
      <path
         d="m 1214.3314,1058 h 787.3372 v 350 h -787.3372 z"
         transform="matrix(0.24000001,0,0,0.24000001,-112.90047,-166.42)"
         clip-rule="evenodd"
         id="path28" />
    </clipPath>
    <clipPath
       clipPathUnits="userSpaceOnUse"
       id="clipPath30">
      <path
         d="m 1214.3314,1058 h 787.3372 v 350 h -787.3372 z"
         transform="matrix(0.24000001,0,0,0.24000001,-112.90047,-166.42)"
         clip-rule="evenodd"
         id="path30" />
    </clipPath>
    <clipPath
       clipPathUnits="userSpaceOnUse"
       id="clipPath32">
      <path
         d="m 1214.3314,1058 h 787.3372 v 350 h -787.3372 z"
         transform="matrix(0.24000001,0,0,0.24000001,-112.90047,-166.42)"
         clip-rule="evenodd"
         id="path32" />
    </clipPath>
    <clipPath
       clipPathUnits="userSpaceOnUse"
       id="clipPath34">
      <path
         d="m 1214.3314,1058 h 787.3372 v 350 h -787.3372 z"
         transform="matrix(0.24000001,0,0,0.24000001,-112.90047,-166.42)"
         clip-rule="evenodd"
         id="path34" />
    </clipPath>
    <clipPath
       clipPathUnits="userSpaceOnUse"
       id="clipPath36">
      <path
         d="m 1214.3314,1058 h 787.3372 v 350 h -787.3372 z"
         transform="matrix(0.24000001,0,0,0.24000001,-112.90047,-166.42)"
         clip-rule="evenodd"
         id="path36" />
    </clipPath>
    <clipPath
       clipPathUnits="userSpaceOnUse"
       id="clipPath38">
      <path
         d="m 1214.3314,1058 h 787.3372 v 350 h -787.3372 z"
         transform="matrix(0.24000001,0,0,0.24000001,-112.90047,-166.42)"
         clip-rule="evenodd"
         id="path38" />
    </clipPath>
    <clipPath
       clipPathUnits="userSpaceOnUse"
       id="clipPath40">
      <path
         d="m 1214.3314,1058 h 787.3372 v 350 h -787.3372 z"
         transform="matrix(0.24000001,0,0,0.24000001,-112.90047,-166.42)"
         clip-rule="evenodd"
         id="path40" />
    </clipPath>
    <clipPath
       clipPathUnits="userSpaceOnUse"
       id="clipPath42">
      <path
         d="m 1214.3314,1058 h 787.3372 v 350 h -787.3372 z"
         transform="matrix(0.24000001,0,0,0.24000001,-112.90047,-166.42)"
         clip-rule="evenodd"
         id="path42" />
    </clipPath>
    <clipPath
       clipPathUnits="userSpaceOnUse"
       id="clipPath44">
      <path
         d="m 1214.3314,1058 h 787.3372 v 350 h -787.3372 z"
         transform="matrix(0.24000001,0,0,0.24000001,-112.90047,-166.42)"
         clip-rule="evenodd"
         id="path44" />
    </clipPath>
    <clipPath
       clipPathUnits="userSpaceOnUse"
       id="clipPath46">
      <path
         d="m 1214.3314,1058 h 787.3372 v 350 h -787.3372 z"
         transform="matrix(0.24000001,0,0,0.24000001,-112.90047,-166.42)"
         clip-rule="evenodd"
         id="path46" />
    </clipPath>
    <clipPath
       clipPathUnits="userSpaceOnUse"
       id="clipPath48">
      <path
         d="m 1214.3314,1058 h 787.3372 v 350 h -787.3372 z"
         transform="matrix(0.24000001,0,0,0.24000001,-112.90047,-166.42)"
         clip-rule="evenodd"
         id="path48" />
    </clipPath>
    <clipPath
       clipPathUnits="userSpaceOnUse"
       id="clipPath50">
      <path
         d="m 1214.3314,1058 h 787.3372 v 350 h -787.3372 z"
         transform="matrix(0.24000001,0,0,0.24000001,-112.90047,-166.42)"
         clip-rule="evenodd"
         id="path50" />
    </clipPath>
    <clipPath
       clipPathUnits="userSpaceOnUse"
       id="clipPath52">
      <path
         d="m 1214.3314,1058 h 787.3372 v 350 h -787.3372 z"
         transform="matrix(0.24000001,0,0,0.24000001,-112.90047,-166.42)"
         clip-rule="evenodd"
         id="path52" />
    </clipPath>
    <clipPath
       clipPathUnits="userSpaceOnUse"
       id="clipPath54">
      <path
         d="m 1214.3314,1058 h 787.3372 v 350 h -787.3372 z"
         transform="matrix(0.24000001,0,0,0.24000001,-112.90047,-166.42)"
         clip-rule="evenodd"
         id="path54" />
    </clipPath>
    <clipPath
       clipPathUnits="userSpaceOnUse"
       id="clipPath56">
      <path
         d="m 1214.3314,1058 h 787.3372 v 350 h -787.3372 z"
         transform="matrix(0.24000001,0,0,0.24000001,-112.90047,-166.42)"
         clip-rule="evenodd"
         id="path56" />
    </clipPath>
    <clipPath
       clipPathUnits="userSpaceOnUse"
       id="clipPath58">
      <path
         d="m 1214.3314,1058 h 787.3372 v 350 h -787.3372 z"
         transform="matrix(0.24000001,0,0,0.24000001,-112.90047,-166.42)"
         clip-rule="evenodd"
         id="path58" />
    </clipPath>
    <clipPath
       clipPathUnits="userSpaceOnUse"
       id="clipPath60">
      <path
         d="m 1214.3314,1058 h 787.3372 v 350 h -787.3372 z"
         transform="matrix(0.24000001,0,0,0.24000001,-112.90047,-166.42)"
         clip-rule="evenodd"
         id="path60" />
    </clipPath>
    <clipPath
       clipPathUnits="userSpaceOnUse"
       id="clipPath62">
      <path
         d="m 1214.3314,1058 h 787.3372 v 350 h -787.3372 z"
         transform="matrix(0.24000001,0,0,0.24000001,-112.90047,-166.42)"
         clip-rule="evenodd"
         id="path62" />
    </clipPath>
    <clipPath
       clipPathUnits="userSpaceOnUse"
       id="clipPath64">
      <path
         d="m 1214.3314,1058 h 787.3372 v 350 h -787.3372 z"
         transform="matrix(0.24000001,0,0,0.24000001,-112.90047,-166.42)"
         clip-rule="evenodd"
         id="path64" />
    </clipPath>
    <clipPath
       clipPathUnits="userSpaceOnUse"
       id="clipPath66">
      <path
         d="m 1214.3314,1058 h 787.3372 v 350 h -787.3372 z"
         transform="matrix(0.24000001,0,0,0.24000001,-302.40047,-264.92001)"
         clip-rule="evenodd"
         id="path66" />
    </clipPath>
    <clipPath
       clipPathUnits="userSpaceOnUse"
       id="clipPath67">
      <path
         d="m 1222.6647,1245.5 h 199.6745 v 116.6667 h -199.6745 z"
         transform="matrix(0.24000001,0,0,0.24000001,-304.90829,-309.92001)"
         clip-rule="evenodd"
         id="path67" />
    </clipPath>
    <clipPath
       clipPathUnits="userSpaceOnUse"
       id="clipPath69">
      <path
         d="m 1222.6647,1245.5 h 199.6745 v 116.6667 h -199.6745 z"
         transform="matrix(0.32,0,0,0.32,13.44,13.440001)"
         clip-rule="evenodd"
         id="path69" />
    </clipPath>
    <clipPath
       clipPathUnits="userSpaceOnUse"
       id="clipPath71">
      <path
         d="m 1222.6647,1245.5 h 199.6745 v 116.6667 h -199.6745 z"
         transform="matrix(0.24000001,0,0,0.24000001,-294.93954,-322.92001)"
         clip-rule="evenodd"
         id="path71" />
    </clipPath>
    <clipPath
       clipPathUnits="userSpaceOnUse"
       id="clipPath73">
      <path
         d="m 1214.3314,1058 h 787.3372 v 350 h -787.3372 z"
         transform="matrix(0.24000001,0,0,0.24000001,-432.40048,-255.92001)"
         clip-rule="evenodd"
         id="path73" />
    </clipPath>
    <clipPath
       clipPathUnits="userSpaceOnUse"
       id="clipPath82">
      <path
         d="m 1768.3353,1028.8333 h 254.1667 v 283.3334 h -254.1667 z"
         clip-rule="evenodd"
         id="path82" />
    </clipPath>
    <clipPath
       clipPathUnits="userSpaceOnUse"
       id="clipPath84">
      <path
         d="m 1768.3353,1028.8333 h 254.1667 v 283.3334 h -254.1667 z"
         transform="matrix(0.53333333,0,0,0.48,-960.88993,-511.84)"
         clip-rule="evenodd"
         id="path84" />
    </clipPath>
    <clipPath
       clipPathUnits="userSpaceOnUse"
       id="clipPath86">
      <path
         d="m 1768.3353,1028.8333 h 254.1667 v 283.3334 h -254.1667 z"
         clip-rule="evenodd"
         id="path86" />
    </clipPath>
    <clipPath
       clipPathUnits="userSpaceOnUse"
       id="clipPath88">
      <path
         d="m 1768.3353,1028.8333 h 254.1667 v 283.3334 h -254.1667 z"
         transform="matrix(0.53333333,0,0,0.48,-960.88993,-511.84)"
         clip-rule="evenodd"
         id="path88" />
    </clipPath>
    <clipPath
       clipPathUnits="userSpaceOnUse"
       id="clipPath90">
      <path
         d="m 1768.3353,1028.8333 h 254.1667 v 283.3334 h -254.1667 z"
         clip-rule="evenodd"
         id="path90" />
    </clipPath>
    <clipPath
       clipPathUnits="userSpaceOnUse"
       id="clipPath92">
      <path
         d="m 1768.3353,1028.8333 h 254.1667 v 283.3334 h -254.1667 z"
         transform="matrix(0.53333333,0,0,0.48,-960.88993,-511.84)"
         clip-rule="evenodd"
         id="path92" />
    </clipPath>
    <clipPath
       clipPathUnits="userSpaceOnUse"
       id="clipPath94">
      <path
         d="m 1768.3353,1028.8333 h 254.1667 v 283.3334 h -254.1667 z"
         clip-rule="evenodd"
         id="path94" />
    </clipPath>
    <clipPath
       clipPathUnits="userSpaceOnUse"
       id="clipPath96">
      <path
         d="m 1768.3353,1028.8333 h 254.1667 v 283.3334 h -254.1667 z"
         clip-rule="evenodd"
         id="path96" />
    </clipPath>
    <clipPath
       clipPathUnits="userSpaceOnUse"
       id="clipPath98">
      <path
         d="m 1768.3353,1028.8333 h 254.1667 v 283.3334 h -254.1667 z"
         clip-rule="evenodd"
         id="path98" />
    </clipPath>
    <clipPath
       clipPathUnits="userSpaceOnUse"
       id="clipPath100">
      <path
         d="m 1768.3353,1028.8333 h 254.1667 v 283.3334 h -254.1667 z"
         clip-rule="evenodd"
         id="path100" />
    </clipPath>
    <clipPath
       clipPathUnits="userSpaceOnUse"
       id="clipPath102">
      <path
         d="m 1768.3353,1028.8333 h 254.1667 v 283.3334 h -254.1667 z"
         clip-rule="evenodd"
         id="path102" />
    </clipPath>
    <clipPath
       clipPathUnits="userSpaceOnUse"
       id="clipPath104">
      <path
         d="m 1768.3353,1028.8333 h 254.1667 v 283.3334 h -254.1667 z"
         clip-rule="evenodd"
         id="path104" />
    </clipPath>
    <clipPath
       clipPathUnits="userSpaceOnUse"
       id="clipPath106">
      <path
         d="m 1768.3353,1028.8333 h 254.1667 v 283.3334 h -254.1667 z"
         clip-rule="evenodd"
         id="path106" />
    </clipPath>
    <clipPath
       clipPathUnits="userSpaceOnUse"
       id="clipPath111">
      <path
         d="m 1214.3314,1058 h 787.3372 v 350 h -787.3372 z"
         transform="matrix(0.24000001,0,0,0.24000001,-432.40048,-255.92001)"
         clip-rule="evenodd"
         id="path111" />
    </clipPath>
    <clipPath
       clipPathUnits="userSpaceOnUse"
       id="clipPath112">
      <path
         d="m 1802.2546,1283 h 186.3281 v 116.6667 h -186.3281 z"
         transform="matrix(0.24000001,0,0,0.24000001,-433.5411,-318.92001)"
         clip-rule="evenodd"
         id="path112" />
    </clipPath>
    <clipPath
       clipPathUnits="userSpaceOnUse"
       id="clipPath114">
      <path
         d="m 1802.2546,1283 h 186.3281 v 116.6667 h -186.3281 z"
         transform="matrix(0.32,0,0,0.32,13.44,13.440001)"
         clip-rule="evenodd"
         id="path114" />
    </clipPath>
    <clipPath
       clipPathUnits="userSpaceOnUse"
       id="clipPath116">
      <path
         d="m 1802.2546,1283 h 186.3281 v 116.6667 h -186.3281 z"
         transform="matrix(0.24000001,0,0,0.24000001,-435.4786,-331.92001)"
         clip-rule="evenodd"
         id="path116" />
    </clipPath>
    <clipPath
       clipPathUnits="userSpaceOnUse"
       id="clipPath118">
      <path
         d="m 1214.3314,1058 h 787.3372 v 350 h -787.3372 z"
         clip-rule="evenodd"
         id="path118" />
    </clipPath>
    <clipPath
       clipPathUnits="userSpaceOnUse"
       id="clipPath120">
      <path
         d="m 1214.3314,1058 h 787.3372 v 350 h -787.3372 z"
         transform="matrix(0.24000001,0,0,0.24000001,-112.40047,-165.92001)"
         clip-rule="evenodd"
         id="path120" />
    </clipPath>
  </defs>
  <sodipodi:namedview
     id="namedview1"
     pagecolor="#ffffff"
     bordercolor="#000000"
     borderopacity="0.25"
     inkscape:showpageshadow="2"
     inkscape:pageopacity="0.0"
     inkscape:pagecheckerboard="0"
     inkscape:deskcolor="#d1d1d1">
    <inkscape:page
       x="0"
       y="0"
       inkscape:label="1"
       id="page1"
       width="364.43399"
       height="156.78372"
       margin="0"
       bleed="0" />
  </sodipodi:namedview>
  <rect
     style="fill:#ffffff;stroke-width:1.28496"
     id="rect120"
     width="364.43396"
     height="156.78372"
     x="346.65561"
     y="328.15936"
     transform="translate(-346.6556,-328.15937)" />
  <g
     id="g1"
     inkscape:groupmode="layer"
     inkscape:label="1"
     transform="translate(-346.6556,-328.15937)">
    <path
       id="path2"
       d="M 0,0 H 30 V 32 H 0 Z"
       style="fill:#ffffff;fill-opacity:1;fill-rule:nonzero;stroke:none"
       transform="matrix(1.3333333,0,0,1.3333333,416.64062,366.66667)"
       clip-path="url(#clipPath3)" />
    <path
       id="path5"
       d="m 190,125 h 4"
       style="fill:none;stroke:#000000;stroke-width:0.24;stroke-linecap:butt;stroke-linejoin:miter;stroke-miterlimit:2;stroke-dasharray:none;stroke-opacity:1"
       transform="matrix(1.3333333,0,0,1.3333333,163.97396,235.33333)"
       clip-path="url(#clipPath6)" />
    <path
       id="path7"
       d="m 192,123 v 4"
       style="fill:none;stroke:#000000;stroke-width:0.24;stroke-linecap:butt;stroke-linejoin:miter;stroke-miterlimit:2;stroke-dasharray:none;stroke-opacity:1"
       transform="matrix(1.3333333,0,0,1.3333333,163.97396,235.33333)"
       clip-path="url(#clipPath8)" />
    <path
       id="path9"
       d="m 193,125 h 4"
       style="fill:none;stroke:#000000;stroke-width:0.24;stroke-linecap:butt;stroke-linejoin:miter;stroke-miterlimit:2;stroke-dasharray:none;stroke-opacity:1"
       transform="matrix(1.3333333,0,0,1.3333333,163.97396,235.33333)"
       clip-path="url(#clipPath10)" />
    <path
       id="path11"
       d="m 195,123 v 4"
       style="fill:none;stroke:#000000;stroke-width:0.24;stroke-linecap:butt;stroke-linejoin:miter;stroke-miterlimit:2;stroke-dasharray:none;stroke-opacity:1"
       transform="matrix(1.3333333,0,0,1.3333333,163.97396,235.33333)"
       clip-path="url(#clipPath12)" />
    <path
       id="path13"
       d="m 193,106 h 4"
       style="fill:none;stroke:#000000;stroke-width:0.24;stroke-linecap:butt;stroke-linejoin:miter;stroke-miterlimit:2;stroke-dasharray:none;stroke-opacity:1"
       transform="matrix(1.3333333,0,0,1.3333333,163.97396,235.33333)"
       clip-path="url(#clipPath14)" />
    <path
       id="path15"
       d="m 195,104 v 4"
       style="fill:none;stroke:#000000;stroke-width:0.24;stroke-linecap:butt;stroke-linejoin:miter;stroke-miterlimit:2;stroke-dasharray:none;stroke-opacity:1"
       transform="matrix(1.3333333,0,0,1.3333333,163.97396,235.33333)"
       clip-path="url(#clipPath16)" />
    <path
       id="path17"
       d="m 196,106 h 4"
       style="fill:none;stroke:#000000;stroke-width:0.24;stroke-linecap:butt;stroke-linejoin:miter;stroke-miterlimit:2;stroke-dasharray:none;stroke-opacity:1"
       transform="matrix(1.3333333,0,0,1.3333333,163.97396,235.33333)"
       clip-path="url(#clipPath18)" />
    <path
       id="path19"
       d="m 198,104 v 4"
       style="fill:none;stroke:#000000;stroke-width:0.24;stroke-linecap:butt;stroke-linejoin:miter;stroke-miterlimit:2;stroke-dasharray:none;stroke-opacity:1"
       transform="matrix(1.3333333,0,0,1.3333333,163.97396,235.33333)"
       clip-path="url(#clipPath20)" />
    <path
       id="path21"
       d="m 198,106 h 4"
       style="fill:none;stroke:#000000;stroke-width:0.24;stroke-linecap:butt;stroke-linejoin:miter;stroke-miterlimit:2;stroke-dasharray:none;stroke-opacity:1"
       transform="matrix(1.3333333,0,0,1.3333333,163.97396,235.33333)"
       clip-path="url(#clipPath22)" />
    <path
       id="path23"
       d="m 200,104 v 4"
       style="fill:none;stroke:#000000;stroke-width:0.24;stroke-linecap:butt;stroke-linejoin:miter;stroke-miterlimit:2;stroke-dasharray:none;stroke-opacity:1"
       transform="matrix(1.3333333,0,0,1.3333333,163.97396,235.33333)"
       clip-path="url(#clipPath24)" />
    <path
       id="path25"
       d="m 198,125 h 4"
       style="fill:none;stroke:#000000;stroke-width:0.24;stroke-linecap:butt;stroke-linejoin:miter;stroke-miterlimit:2;stroke-dasharray:none;stroke-opacity:1"
       transform="matrix(1.3333333,0,0,1.3333333,163.97396,235.33333)"
       clip-path="url(#clipPath26)" />
    <path
       id="path27"
       d="m 200,123 v 4"
       style="fill:none;stroke:#000000;stroke-width:0.24;stroke-linecap:butt;stroke-linejoin:miter;stroke-miterlimit:2;stroke-dasharray:none;stroke-opacity:1"
       transform="matrix(1.3333333,0,0,1.3333333,163.97396,235.33333)"
       clip-path="url(#clipPath28)" />
    <path
       id="path29"
       d="m 201,125 h 4"
       style="fill:none;stroke:#000000;stroke-width:0.24;stroke-linecap:butt;stroke-linejoin:miter;stroke-miterlimit:2;stroke-dasharray:none;stroke-opacity:1"
       transform="matrix(1.3333333,0,0,1.3333333,163.97396,235.33333)"
       clip-path="url(#clipPath30)" />
    <path
       id="path31"
       d="m 203,123 v 4"
       style="fill:none;stroke:#000000;stroke-width:0.24;stroke-linecap:butt;stroke-linejoin:miter;stroke-miterlimit:2;stroke-dasharray:none;stroke-opacity:1"
       transform="matrix(1.3333333,0,0,1.3333333,163.97396,235.33333)"
       clip-path="url(#clipPath32)" />
    <path
       id="path33"
       d="m 204,125 h 4"
       style="fill:none;stroke:#000000;stroke-width:0.24;stroke-linecap:butt;stroke-linejoin:miter;stroke-miterlimit:2;stroke-dasharray:none;stroke-opacity:1"
       transform="matrix(1.3333333,0,0,1.3333333,163.97396,235.33333)"
       clip-path="url(#clipPath34)" />
    <path
       id="path35"
       d="m 206,123 v 4"
       style="fill:none;stroke:#000000;stroke-width:0.24;stroke-linecap:butt;stroke-linejoin:miter;stroke-miterlimit:2;stroke-dasharray:none;stroke-opacity:1"
       transform="matrix(1.3333333,0,0,1.3333333,163.97396,235.33333)"
       clip-path="url(#clipPath36)" />
    <path
       id="path37"
       d="m 204,106 h 4"
       style="fill:none;stroke:#000000;stroke-width:0.24;stroke-linecap:butt;stroke-linejoin:miter;stroke-miterlimit:2;stroke-dasharray:none;stroke-opacity:1"
       transform="matrix(1.3333333,0,0,1.3333333,163.97396,235.33333)"
       clip-path="url(#clipPath38)" />
    <path
       id="path39"
       d="m 206,104 v 4"
       style="fill:none;stroke:#000000;stroke-width:0.24;stroke-linecap:butt;stroke-linejoin:miter;stroke-miterlimit:2;stroke-dasharray:none;stroke-opacity:1"
       transform="matrix(1.3333333,0,0,1.3333333,163.97396,235.33333)"
       clip-path="url(#clipPath40)" />
    <path
       id="path41"
       d="m 206,106 h 4"
       style="fill:none;stroke:#000000;stroke-width:0.24;stroke-linecap:butt;stroke-linejoin:miter;stroke-miterlimit:2;stroke-dasharray:none;stroke-opacity:1"
       transform="matrix(1.3333333,0,0,1.3333333,163.97396,235.33333)"
       clip-path="url(#clipPath42)" />
    <path
       id="path43"
       d="m 208,104 v 4"
       style="fill:none;stroke:#000000;stroke-width:0.24;stroke-linecap:butt;stroke-linejoin:miter;stroke-miterlimit:2;stroke-dasharray:none;stroke-opacity:1"
       transform="matrix(1.3333333,0,0,1.3333333,163.97396,235.33333)"
       clip-path="url(#clipPath44)" />
    <path
       id="path45"
       d="m 209,106 h 4"
       style="fill:none;stroke:#000000;stroke-width:0.24;stroke-linecap:butt;stroke-linejoin:miter;stroke-miterlimit:2;stroke-dasharray:none;stroke-opacity:1"
       transform="matrix(1.3333333,0,0,1.3333333,163.97396,235.33333)"
       clip-path="url(#clipPath46)" />
    <path
       id="path47"
       d="m 211,104 v 4"
       style="fill:none;stroke:#000000;stroke-width:0.24;stroke-linecap:butt;stroke-linejoin:miter;stroke-miterlimit:2;stroke-dasharray:none;stroke-opacity:1"
       transform="matrix(1.3333333,0,0,1.3333333,163.97396,235.33333)"
       clip-path="url(#clipPath48)" />
    <path
       id="path49"
       d="m 209,125 h 4"
       style="fill:none;stroke:#000000;stroke-width:0.24;stroke-linecap:butt;stroke-linejoin:miter;stroke-miterlimit:2;stroke-dasharray:none;stroke-opacity:1"
       transform="matrix(1.3333333,0,0,1.3333333,163.97396,235.33333)"
       clip-path="url(#clipPath50)" />
    <path
       id="path51"
       d="m 211,123 v 4"
       style="fill:none;stroke:#000000;stroke-width:0.24;stroke-linecap:butt;stroke-linejoin:miter;stroke-miterlimit:2;stroke-dasharray:none;stroke-opacity:1"
       transform="matrix(1.3333333,0,0,1.3333333,163.97396,235.33333)"
       clip-path="url(#clipPath52)" />
    <path
       id="path53"
       d="m 212,125 h 4"
       style="fill:none;stroke:#000000;stroke-width:0.24;stroke-linecap:butt;stroke-linejoin:miter;stroke-miterlimit:2;stroke-dasharray:none;stroke-opacity:1"
       transform="matrix(1.3333333,0,0,1.3333333,163.97396,235.33333)"
       clip-path="url(#clipPath54)" />
    <path
       id="path55"
       d="m 214,123 v 4"
       style="fill:none;stroke:#000000;stroke-width:0.24;stroke-linecap:butt;stroke-linejoin:miter;stroke-miterlimit:2;stroke-dasharray:none;stroke-opacity:1"
       transform="matrix(1.3333333,0,0,1.3333333,163.97396,235.33333)"
       clip-path="url(#clipPath56)" />
    <path
       id="path57"
       d="M 195,125 V 106"
       style="fill:none;stroke:#000000;stroke-width:1;stroke-linecap:square;stroke-linejoin:bevel;stroke-miterlimit:10;stroke-dasharray:4, 2;stroke-dashoffset:0;stroke-opacity:1"
       transform="matrix(1.3333333,0,0,1.3333333,163.97396,235.33333)"
       clip-path="url(#clipPath58)" />
    <path
       id="path59"
       d="M 200,125 V 106"
       style="fill:none;stroke:#000000;stroke-width:1;stroke-linecap:square;stroke-linejoin:bevel;stroke-miterlimit:10;stroke-dasharray:4, 2;stroke-dashoffset:0;stroke-opacity:1"
       transform="matrix(1.3333333,0,0,1.3333333,163.97396,235.33333)"
       clip-path="url(#clipPath60)" />
    <path
       id="path61"
       d="M 206,125 V 106"
       style="fill:none;stroke:#000000;stroke-width:1;stroke-linecap:square;stroke-linejoin:bevel;stroke-miterlimit:10;stroke-dasharray:4, 2;stroke-dashoffset:0;stroke-opacity:1"
       transform="matrix(1.3333333,0,0,1.3333333,163.97396,235.33333)"
       clip-path="url(#clipPath62)" />
    <path
       id="path63"
       d="M 211,125 V 106"
       style="fill:none;stroke:#000000;stroke-width:1;stroke-linecap:square;stroke-linejoin:bevel;stroke-miterlimit:10;stroke-dasharray:4, 2;stroke-dashoffset:0;stroke-opacity:1"
       transform="matrix(1.3333333,0,0,1.3333333,163.97396,235.33333)"
       clip-path="url(#clipPath64)" />
    <path
       id="path65"
       d="M 0,0 H 30 V 32 H 0 Z"
       style="fill:none;stroke:#000000;stroke-width:0.565047;stroke-linecap:butt;stroke-linejoin:miter;stroke-miterlimit:2;stroke-dasharray:none;stroke-opacity:1"
       transform="matrix(1.3333333,0,0,1.3333333,416.64062,366.66667)"
       clip-path="url(#clipPath66)" />
    <g
       id="g68"
       clip-path="url(#clipPath69)">
      <path
         d="M 0.77343837,9.755801e-4 V -7.1591807 H 3.4687509 c 0.4746093,0.00879 0.8613281,0.041016 1.1601562,0.09375 0.3046875,0.046875 0.5742188,0.1523438 0.8085938,0.3164063 0.2402344,0.1640625 0.4365234,0.3955078 0.5859375,0.6914062 0.1318359,0.2988281 0.2021484,0.6210938 0.2109375,0.9726563 -0.00879,0.609375 -0.2050781,1.125 -0.5859375,1.546875 -0.3925781,0.421875 -1.0898438,0.6328125 -2.0976563,0.6328125 H 1.7226571 V 9.755801e-4 Z M 1.7226571,-3.7490244 h 1.8398438 c 0.609375,0 1.0458984,-0.1113282 1.3125,-0.3398438 0.2578125,-0.2255859 0.3867187,-0.5449219 0.3867187,-0.9609375 0,-0.2958984 -0.079102,-0.5537109 -0.234375,-0.7734375 -0.149414,-0.2109375 -0.3486328,-0.3515625 -0.5976562,-0.421875 -0.1640625,-0.046875 -0.4570313,-0.070312 -0.8789063,-0.070312 H 1.7226571 Z M 10.710938,9.755801e-4 V -0.76074317 c -0.407226,0.5859375 -0.9550777,0.87890625 -1.6406246,0.87890625 -0.3134766,0 -0.5976563,-0.05859375 -0.8554688,-0.17578125 C 7.939454,-0.17480567 7.7402353,-0.32129005 7.6171884,-0.50293067 7.4824228,-0.67285255 7.3945321,-0.88964942 7.3476571,-1.1474619 7.3154306,-1.3173838 7.3007821,-1.5927744 7.3007821,-1.9677744 v -3.2109375 h 0.8789063 v 2.8710937 c 0,0.4628907 0.017578,0.7910157 0.058594,0.984375 0.046875,0.1962891 0.1582032,0.3574219 0.3398438,0.48046878 0.1787109,0.13476562 0.4013672,0.19921875 0.6679687,0.19921875 0.2578125,0 0.5039063,-0.0644531 0.7382813,-0.19921875 0.2255858,-0.13183594 0.3896478,-0.31640628 0.4921868,-0.55078128 0.09375,-0.2255859 0.140625,-0.5625 0.140625,-1.0078125 v -2.7773437 h 0.878907 V 9.755801e-4 Z m 2.135743,0 V -7.1591807 h 0.878906 V 9.755801e-4 Z M 14.72754,-1.5458994 l 0.867187,-0.140625 c 0.05274,0.3515625 0.19043,0.6210937 0.410157,0.80859373 0.216797,0.18164062 0.530273,0.26953125 0.9375,0.26953125 0.404297,0 0.706054,-0.0820313 0.902343,-0.24609375 0.19336,-0.15527343 0.292969,-0.34570313 0.292969,-0.57421873 -0.0088,-0.1933594 -0.09961,-0.3515625 -0.269531,-0.46875 -0.117188,-0.076172 -0.416016,-0.1757813 -0.890625,-0.2929688 -0.650391,-0.1640625 -1.095703,-0.3076172 -1.335938,-0.4335937 -0.251953,-0.1171875 -0.442382,-0.28125 -0.574218,-0.4921875 -0.134766,-0.2021485 -0.196289,-0.4335938 -0.1875,-0.6914063 0,-0.2255859 0.0498,-0.4394531 0.152343,-0.6445312 0.09961,-0.1875 0.246094,-0.3515625 0.433594,-0.4921875 0.131836,-0.09375 0.319336,-0.178711 0.5625,-0.2578125 0.234375,-0.061524 0.518555,-0.09375 0.855469,-0.09375 0.333984,0 0.65918,0.058594 0.972656,0.1757812 0.304688,0.1171875 0.530274,0.2753906 0.679688,0.46875 0.146484,0.2050781 0.249023,0.4746094 0.304687,0.8085938 l -0.855469,0.1171875 c -0.04101,-0.2636719 -0.152343,-0.4746094 -0.339843,-0.6328125 -0.196289,-0.1464844 -0.462891,-0.2226563 -0.796875,-0.2226563 -0.407227,0.00879 -0.697266,0.076172 -0.867188,0.1992188 -0.172851,0.1347656 -0.257812,0.290039 -0.257812,0.46875 0,0.1171875 0.03516,0.2226562 0.105468,0.3164062 0.07617,0.09375 0.19043,0.1728516 0.339844,0.234375 0.08496,0.032227 0.389649,0.1171875 0.914063,0.2578125 0.521484,0.140625 0.914062,0.2636719 1.171875,0.3632813 0.234375,0.1171875 0.424804,0.2753906 0.574218,0.46875 0.140625,0.2050781 0.210938,0.4541015 0.210938,0.75 0,0.2988281 -0.08789,0.57128904 -0.257813,0.82031248 -0.172851,0.26660156 -0.418945,0.46875 -0.738281,0.609375 -0.328125,0.140625 -0.697265,0.2109375 -1.101562,0.2109375 -0.673828,0 -1.183594,-0.140625 -1.535157,-0.421875 C 15.046876,-0.57617286 14.82129,-0.9892588 14.72754,-1.5458994 Z m 8.900391,-0.1171875 0.902343,0.1054687 c -0.140625,0.5332032 -0.404297,0.94628909 -0.785156,1.24218753 -0.392578,0.29003906 -0.887695,0.43359375 -1.488281,0.43359375 -0.758789,0 -1.359375,-0.234375 -1.804688,-0.703125 -0.445312,-0.45996098 -0.667968,-1.11328128 -0.667968,-1.95703128 0,-0.8730469 0.225586,-1.5527344 0.679687,-2.0390625 0.445313,-0.4746094 1.025391,-0.7148437 1.746094,-0.7148437 0.694336,0 1.259765,0.234375 1.699219,0.703125 0.436523,0.477539 0.65625,1.1425781 0.65625,1.9921875 0,0.055664 0,0.1347656 0,0.234375 h -3.867188 c 0.0293,0.571289 0.19043,1.0078125 0.480469,1.3125 0.287109,0.2988281 0.647461,0.44531248 1.078125,0.44531248 0.319336,0.008789 0.597656,-0.0732422 0.832031,-0.24609375 0.225586,-0.16992183 0.404297,-0.43945313 0.539063,-0.80859373 z m -2.882813,-1.4296875 h 2.894531 c -0.04687,-0.4277344 -0.1875,-0.7792969 -0.421875,-1.0546875 -0.228515,-0.28125 -0.55957,-0.4248047 -0.996093,-0.4335938 -0.407227,0.00879 -0.747071,0.1464844 -1.019532,0.4101563 -0.28125,0.2666015 -0.433593,0.6269531 -0.457031,1.078125 z m 0,0"
         style="fill:#000000;fill-opacity:1;fill-rule:nonzero;stroke:none"
         aria-label="Pulse"
         transform="matrix(1.3333333,0,0,1.3333333,419.98437,426.66667)"
         clip-path="url(#clipPath67)"
         id="path68" />
    </g>
    <path
       id="path70"
       d="m 4.1240243,-2.8007822 v -0.84375 l 3.0234375,-0.011719 v 2.66015629 c -0.46875,0.375 -0.9492188,0.65332031 -1.4414063,0.83203125 -0.4921875,0.19335937 -1.0019531,0.28710937 -1.5234375,0.28125 -0.703125,0 -1.3417968,-0.14648438 -1.9101562,-0.4453125 C 1.6923837,-0.6240244 1.2587899,-1.0605478 0.97168054,-1.640626 c -0.29882812,-0.5625 -0.4453125,-1.1953125 -0.4453125,-1.8984375 0,-0.703125 0.14648438,-1.3535156 0.4453125,-1.9570312 0.28710936,-0.600586 0.70605466,-1.0488281 1.25390626,-1.3476563 0.5449219,-0.2871093 1.1748047,-0.4335937 1.8867187,-0.4335937 0.515625,0 0.984375,0.082031 1.40625,0.2460937 0.413086,0.1728516 0.741211,0.4072266 0.9843751,0.703125 0.234375,0.3046875 0.4130859,0.6972657 0.5390625,1.171875 L 6.1865243,-4.921876 C 6.0751962,-5.2792978 5.9433602,-5.5664072 5.7880868,-5.7773447 5.6240243,-5.9882822 5.3955087,-6.1552744 5.1083993,-6.281251 c -0.3046875,-0.1171875 -0.6328125,-0.1787109 -0.984375,-0.1875 -0.4394531,0 -0.8144531,0.067383 -1.125,0.1992188 -0.3222656,0.1347656 -0.5742188,0.3046875 -0.7617188,0.515625 -0.196289,0.2197265 -0.3486328,0.4570312 -0.4570312,0.7148437 -0.1816406,0.4453125 -0.2695313,0.9257813 -0.2695313,1.4414063 0,0.6416015 0.1083985,1.171875 0.328125,1.59375 0.2167969,0.430664 0.5390625,0.75 0.9609375,0.9609375 0.413086,0.21093749 0.8583985,0.31640624 1.3359375,0.31640624 0.4042969,0 0.8027344,-0.0820313 1.1953125,-0.24609375 C 5.720704,-1.1191416 6.0166024,-1.2890635 6.2216805,-1.4765635 v -1.3242187 z m 7.8486327,1.1367187 0.902344,0.1054688 c -0.140625,0.5332031 -0.404297,0.94628905 -0.785156,1.24218749 -0.392579,0.29003906 -0.887696,0.43359375 -1.488282,0.43359375 -0.7587887,0 -1.3593746,-0.234375 -1.8046871,-0.703125 C 8.3515634,-1.0458994 8.1289071,-1.6992197 8.1289071,-2.5429697 c 0,-0.8730469 0.225586,-1.5527344 0.6796875,-2.0390625 0.4453125,-0.4746094 1.0253906,-0.7148438 1.7460934,-0.7148438 0.694336,0 1.259766,0.234375 1.699219,0.703125 0.436524,0.4775391 0.65625,1.1425782 0.65625,1.9921875 0,0.055664 0,0.1347657 0,0.234375 H 9.0429696 c 0.029297,0.5712891 0.1904297,1.0078125 0.4804688,1.3125 0.2871093,0.29882816 0.6474606,0.44531254 1.0781246,0.44531254 0.319336,0.008789 0.597657,-0.0732422 0.832032,-0.24609375 0.225586,-0.16992189 0.404296,-0.43945309 0.539062,-0.80859379 z M 9.0898446,-3.093751 h 2.8945314 c -0.04687,-0.4277343 -0.1875,-0.7792968 -0.421875,-1.0546875 -0.228516,-0.28125 -0.55957,-0.4248047 -0.996094,-0.4335937 -0.407226,0.00879 -0.7470702,0.1464844 -1.0195311,0.4101562 -0.28125,0.2666016 -0.4335938,0.6269532 -0.4570313,1.078125 z M 13.967774,-9.6159999e-7 V -5.1796885 h 0.796875 v 0.7382813 c 0.375,-0.5683594 0.919922,-0.8554688 1.640625,-0.8554688 0.310547,0 0.600586,0.055664 0.867188,0.1640625 0.257812,0.1171875 0.451172,0.2666016 0.585937,0.4453125 0.123047,0.1816407 0.216797,0.3955078 0.28125,0.6445313 0.0293,0.1640625 0.04687,0.4511719 0.04687,0.8554687 V -9.6159999e-7 H 17.307618 V -3.1523447 c 0,-0.3515625 -0.03516,-0.6210938 -0.105469,-0.8085938 -0.07031,-0.1699218 -0.193359,-0.3105468 -0.363281,-0.421875 -0.172851,-0.099609 -0.416016,-0.1523437 -0.726562,-0.1523437 -0.304688,0 -0.591797,0.1171875 -0.855469,0.3515625 -0.275391,0.243164 -0.410156,0.6914062 -0.410156,1.3476562 V -9.6159999e-7 Z M 23.067384,-1.6640635 l 0.902343,0.1054688 c -0.140625,0.5332031 -0.404296,0.94628905 -0.785156,1.24218749 -0.392578,0.29003906 -0.887695,0.43359375 -1.488281,0.43359375 -0.758789,0 -1.359375,-0.234375 -1.804688,-0.703125 -0.445312,-0.45996094 -0.667968,-1.11328124 -0.667968,-1.95703124 0,-0.8730469 0.225586,-1.5527344 0.679687,-2.0390625 0.445313,-0.4746094 1.025391,-0.7148438 1.746094,-0.7148438 0.694336,0 1.259766,0.234375 1.699219,0.703125 0.436523,0.4775391 0.65625,1.1425782 0.65625,1.9921875 0,0.055664 0,0.1347657 0,0.234375 h -3.867188 c 0.0293,0.5712891 0.19043,1.0078125 0.480469,1.3125 0.287109,0.29882816 0.647461,0.44531254 1.078125,0.44531254 0.319336,0.008789 0.597656,-0.0732422 0.832031,-0.24609375 0.225586,-0.16992189 0.404297,-0.43945309 0.539063,-0.80859379 z M 20.184571,-3.093751 h 2.894531 c -0.04687,-0.4277343 -0.1875,-0.7792968 -0.421875,-1.0546875 -0.228515,-0.28125 -0.55957,-0.4248047 -0.996093,-0.4335937 -0.407227,0.00879 -0.747071,0.1464844 -1.019532,0.4101562 -0.28125,0.2666016 -0.433593,0.6269532 -0.457031,1.078125 z M 25.050782,-9.6159999e-7 V -5.1796885 h 0.796875 v 0.7851563 c 0.19336,-0.366211 0.38086,-0.609375 0.5625,-0.7265625 0.164063,-0.1171875 0.369141,-0.1757813 0.621094,-0.1757813 0.249023,0 0.530273,0.09375 0.84375,0.28125 l -0.304688,0.8085938 c -0.219726,-0.1230469 -0.433593,-0.1875 -0.644531,-0.1875 -0.196289,0.00879 -0.36914,0.067383 -0.515625,0.1757812 -0.158203,0.1171875 -0.27832,0.3046875 -0.363281,0.5625 -0.0791,0.2578125 -0.117188,0.5712891 -0.117188,0.9375 V -9.6159999e-7 Z M 31.777345,-0.64453221 c -0.328125,0.28125 -0.641602,0.47753906 -0.9375,0.5859375 -0.304688,0.1171875 -0.629883,0.17578125 -0.972657,0.17578125 -0.571289,0 -1.007812,-0.140625 -1.3125,-0.421875 -0.313476,-0.27246094 -0.46582,-0.62695313 -0.457031,-1.06640624 0,-0.2490235 0.05859,-0.4804688 0.175781,-0.6914063 0.108399,-0.2109375 0.260743,-0.3779297 0.457032,-0.5039062 0.178711,-0.1230469 0.386718,-0.2226563 0.621093,-0.2929688 0.169922,-0.038086 0.433594,-0.082031 0.785157,-0.1289062 0.703125,-0.076172 1.224609,-0.178711 1.570312,-0.3046875 0,-0.1171875 0,-0.1904297 0,-0.2226563 0,-0.3574218 -0.09961,-0.6240234 -0.292969,-0.796875 -0.196289,-0.1699218 -0.515625,-0.2578125 -0.960937,-0.2578125 -0.416016,0 -0.714844,0.070312 -0.902344,0.2109375 -0.205078,0.1494141 -0.351562,0.4072266 -0.445312,0.7734375 L 28.250001,-3.703126 c 0.07031,-0.3662109 0.199219,-0.6621093 0.386719,-0.890625 0.178711,-0.2255859 0.436523,-0.4013672 0.773437,-0.5273437 0.333985,-0.1171875 0.726563,-0.1757813 1.171875,-0.1757813 0.436524,0 0.796875,0.052734 1.078125,0.1523438 0.272461,0.102539 0.47461,0.2314453 0.609375,0.3867187 0.131836,0.1640625 0.225586,0.3691407 0.28125,0.609375 0.02344,0.1494141 0.03516,0.4189453 0.03516,0.8085938 v 1.171875 c 0,0.8144531 0.01758,1.33007811 0.05859,1.54687499 0.03809,0.21972656 0.111328,0.42773437 0.222656,0.62109374840001 H 31.953126 C 31.859376,-0.1787119 31.800782,-0.39257909 31.777345,-0.64453221 Z m -0.07031,-1.95703129 c -0.322265,0.1347657 -0.802734,0.2431641 -1.441406,0.328125 -0.360352,0.055664 -0.615234,0.1142578 -0.761719,0.1757813 -0.158203,0.070312 -0.27539,0.1640625 -0.351562,0.28125 -0.08789,0.1347656 -0.128907,0.2988281 -0.128907,0.4921875 0,0.1875 0.09375,0.36035155 0.28125,0.51562499 0.169922,0.15820312 0.427735,0.234375 0.773438,0.234375 0.333984,0.008789 0.635742,-0.0644531 0.902344,-0.22265625 0.263672,-0.140625 0.459961,-0.34277344 0.585937,-0.60937504 0.08496,-0.1933593 0.131836,-0.4863281 0.140625,-0.8789062 z m 4.151367,1.81640629 0.128907,0.7734375 c -0.251954,0.05273437 -0.503907,0.08203125 -0.761719,0.08203125 -0.257813,0 -0.47461,-0.05273438 -0.644531,-0.15234375 -0.181641,-0.09960938 -0.304688,-0.234375 -0.375,-0.3984375 -0.07031,-0.1640625 -0.105469,-0.50976563 -0.105469,-1.04296879 V -4.500001 H 33.456059 V -5.1796885 H 34.10059 V -6.468751 l 0.878906,-0.5273437 v 1.8164062 h 0.878906 v 0.6796875 h -0.878906 v 3.0351563 c -0.0088,0.2519531 0.0029,0.4101562 0.03516,0.48046874 0.0293,0.0703125 0.08496,0.12597656 0.164063,0.1640625 0.06152,0.046875 0.158203,0.0703125 0.292969,0.0703125 0.09375,0 0.222656,-0.0117188 0.386718,-0.0351563 z m 0.515625,-1.80468749 c 0,-0.9609375 0.269532,-1.6699219 0.808594,-2.1328125 0.436524,-0.3808594 0.978516,-0.5742188 1.628906,-0.5742188 0.708985,0 1.291993,0.2314453 1.746094,0.6914063 0.451172,0.46875 0.679688,1.1191406 0.679688,1.9453125 0,0.665039 -0.102539,1.1894531 -0.304688,1.5703125 -0.196289,0.38378905 -0.486328,0.67968749 -0.867187,0.89062499 -0.392579,0.2109375 -0.808594,0.31640625 -1.253907,0.31640625 -0.735351,0 -1.321289,-0.234375 -1.757812,-0.703125 C 36.59961,-1.0458994 36.374024,-1.7138682 36.374024,-2.5898447 Z m 0.902344,0 c 0,0.665039 0.143555,1.1601562 0.433594,1.4882812 0.287109,0.32812504 0.65625,0.49218754 1.101562,0.49218754 0.427735,0 0.791016,-0.1640625 1.089844,-0.49218754 0.28125,-0.3339843 0.424805,-0.84375 0.433594,-1.5234375 -0.0088,-0.6328125 -0.152344,-1.1162109 -0.433594,-1.453125 -0.298828,-0.328125 -0.662109,-0.4921875 -1.089844,-0.4921875 -0.445312,0 -0.814453,0.1640625 -1.101562,0.4921875 -0.290039,0.328125 -0.433594,0.8261719 -0.433594,1.4882813 z M 42.239259,-9.6159999e-7 V -5.1796885 h 0.796875 v 0.7851563 c 0.193359,-0.366211 0.380859,-0.609375 0.5625,-0.7265625 0.164062,-0.1171875 0.36914,-0.1757813 0.621093,-0.1757813 0.249024,0 0.530274,0.09375 0.84375,0.28125 l -0.304687,0.8085938 c -0.219727,-0.1230469 -0.433594,-0.1875 -0.644531,-0.1875 -0.196289,0.00879 -0.369141,0.067383 -0.515625,0.1757812 -0.158203,0.1171875 -0.278321,0.3046875 -0.363282,0.5625 -0.0791,0.2578125 -0.117187,0.5712891 -0.117187,0.9375 V -9.6159999e-7 Z m 0,0"
       style="fill:#000000;fill-opacity:1;fill-rule:nonzero;stroke:none"
       aria-label="Generator"
       transform="matrix(1.3333333,0,0,1.3333333,406.69271,444)"
       clip-path="url(#clipPath71)" />
    <path
       id="path72"
       d="M 0,0 H 45 V 50 H 0 Z"
       style="fill:#ffffff;fill-opacity:1;fill-rule:nonzero;stroke:none"
       transform="matrix(1.3333333,0,0,1.3333333,589.97396,354.66667)"
       clip-path="url(#clipPath73)" />
    <path
       id="path81"
       d="m 1820.4186,1087.1667 h 150 v 125 h -150 z"
       style="fill:#bebebe;fill-opacity:1;fill-rule:evenodd;stroke:none"
       transform="matrix(0.32,0,0,0.32,13.44,13.440001)"
       clip-path="url(#clipPath82)" />
    <path
       id="path83"
       d="M 10,10 H 90 V 70 H 10 Z"
       style="fill:none;stroke:#000000;stroke-width:3;stroke-linecap:butt;stroke-linejoin:miter;stroke-miterlimit:4;stroke-dasharray:none;stroke-opacity:1"
       transform="matrix(0.6,0,0,0.66666667,589.97396,354.66667)"
       clip-path="url(#clipPath84)" />
    <path
       id="path85"
       d="m 1839.1686,1191.3333 h 112.5"
       style="fill:#000000;fill-opacity:1;fill-rule:nonzero;stroke:none"
       transform="matrix(0.32,0,0,0.32,13.44,13.440001)"
       clip-path="url(#clipPath86)" />
    <path
       id="path87"
       d="M 20,60 H 80"
       style="fill:none;stroke:#000000;stroke-width:2;stroke-linecap:butt;stroke-linejoin:miter;stroke-miterlimit:4;stroke-dasharray:none;stroke-opacity:1"
       transform="matrix(0.6,0,0,0.66666667,589.97396,354.66667)"
       clip-path="url(#clipPath88)" />
    <path
       id="path89"
       d="m 1841.0436,1110.0833 v 81.25"
       style="fill:#000000;fill-opacity:1;fill-rule:nonzero;stroke:none"
       transform="matrix(0.32,0,0,0.32,13.44,13.440001)"
       clip-path="url(#clipPath90)" />
    <path
       id="path91"
       d="M 21,21 V 60"
       style="fill:none;stroke:#000000;stroke-width:2;stroke-linecap:butt;stroke-linejoin:miter;stroke-miterlimit:4;stroke-dasharray:none;stroke-opacity:1"
       transform="matrix(0.6,0,0,0.66666667,589.97396,354.66667)"
       clip-path="url(#clipPath92)" />
    <path
       id="path93"
       d="m 1850.4186,1124.6667 -1.875,2.0833 v 62.5 h 11.25 v -62.5 l -1.875,-2.0833 z"
       style="fill:#ffff00;fill-opacity:1;fill-rule:nonzero;stroke:none"
       transform="matrix(0.32,0,0,0.32,13.44,13.440001)"
       clip-path="url(#clipPath94)" />
    <path
       id="path95"
       d="m 1861.6686,1145.5 -1.875,2.0833 v 41.6667 h 11.25 v -41.6667 l -1.875,-2.0833 z"
       style="fill:#ffff00;fill-opacity:1;fill-rule:nonzero;stroke:none"
       transform="matrix(0.32,0,0,0.32,13.44,13.440001)"
       clip-path="url(#clipPath96)" />
    <path
       id="path97"
       d="m 1872.9186,1108 -1.875,2.0833 v 79.1667 h 11.25 v -79.1667 l -1.875,-2.0833 z"
       style="fill:#ffff00;fill-opacity:1;fill-rule:nonzero;stroke:none"
       transform="matrix(0.32,0,0,0.32,13.44,13.440001)"
       clip-path="url(#clipPath98)" />
    <path
       id="path99"
       d="m 1884.1686,1130.9167 -1.875,2.0833 v 56.25 h 11.25 V 1133 l -1.875,-2.0833 z"
       style="fill:#ffff00;fill-opacity:1;fill-rule:nonzero;stroke:none"
       transform="matrix(0.32,0,0,0.32,13.44,13.440001)"
       clip-path="url(#clipPath100)" />
    <path
       id="path101"
       d="m 1895.4186,1130.9167 -1.875,2.0833 v 56.25 h 11.25 V 1133 l -1.875,-2.0833 z"
       style="fill:#ffff00;fill-opacity:1;fill-rule:nonzero;stroke:none"
       transform="matrix(0.32,0,0,0.32,13.44,13.440001)"
       clip-path="url(#clipPath102)" />
    <path
       id="path103"
       d="m 1906.6686,1116.3333 -1.875,2.0834 v 70.8333 h 11.25 v -70.8333 l -1.875,-2.0834 z"
       style="fill:#ffff00;fill-opacity:1;fill-rule:nonzero;stroke:none"
       transform="matrix(0.32,0,0,0.32,13.44,13.440001)"
       clip-path="url(#clipPath104)" />
    <path
       id="path105"
       d="m 1917.9186,1164.25 -1.875,2.0833 v 22.9167 h 11.25 v -22.9167 l -1.875,-2.0833 z"
       style="fill:#ffff00;fill-opacity:1;fill-rule:nonzero;stroke:none"
       transform="matrix(0.32,0,0,0.32,13.44,13.440001)"
       clip-path="url(#clipPath106)" />
    <path
       id="path110"
       d="M 0,0 H 45 V 50 H 0 Z"
       style="fill:none;stroke:#000000;stroke-width:0.565047;stroke-linecap:butt;stroke-linejoin:miter;stroke-miterlimit:2;stroke-dasharray:none;stroke-opacity:1"
       transform="matrix(1.3333333,0,0,1.3333333,589.97396,354.66667)"
       clip-path="url(#clipPath111)" />
    <g
       id="g113"
       clip-path="url(#clipPath114)">
      <path
         d="m 0.44629081,-2.2958994 0.90234379,-0.082031 c 0.038086,0.3603516 0.1347656,0.6533203 0.2929687,0.8789063 0.1464844,0.234375 0.3867188,0.421875 0.7148438,0.56249998 0.328125,0.140625 0.6943359,0.2109375 1.1015625,0.2109375 0.3574218,0 0.6796875,-0.0527344 0.9609375,-0.1640625 0.2724609,-0.0996094 0.4746093,-0.24902348 0.609375,-0.44531248 0.1318359,-0.178711 0.1992187,-0.3808594 0.1992187,-0.609375 0,-0.2167969 -0.064453,-0.413086 -0.1875,-0.5859375 C 4.9052752,-2.6943369 4.691408,-2.8349619 4.3955096,-2.9521494 4.1992205,-3.0224619 3.7744158,-3.1396494 3.1181658,-3.3037119 2.4619158,-3.4589854 1.9990252,-3.6083994 1.7353533,-3.7490244 1.3984393,-3.9189463 1.1435564,-4.1416026 0.97363457,-4.4169932 0.800783,-4.6806651 0.71875175,-4.9794932 0.72754082,-5.3076182 c 0,-0.3574219 0.0996094,-0.6943359 0.30468748,-1.0078125 0.2021485,-0.3105469 0.5039063,-0.5507812 0.9023438,-0.7148437 0.3808593,-0.1640625 0.8203125,-0.2460938 1.3125,-0.2460938 0.5214843,0 0.9902343,0.087891 1.40625,0.2578125 0.3984375,0.1728516 0.7060547,0.421875 0.9257812,0.75 0.2167969,0.3369141 0.3339844,0.7119141 0.3515625,1.125 l -0.9023437,0.070312 C 4.972658,-5.5244151 4.8085955,-5.8642588 4.5361346,-6.0927744 4.2460955,-6.3183604 3.8271502,-6.4355479 3.2822283,-6.4443369 c -0.5800781,0 -0.9960937,0.1054687 -1.2539062,0.3164062 -0.2578125,0.2109375 -0.3867188,0.4658203 -0.3867188,0.7617188 0,0.2578125 0.087891,0.46875 0.2695313,0.6328125 0.1787109,0.1728515 0.65625,0.3398437 1.4296875,0.5039062 0.7646484,0.1816406 1.3242187,0.3515625 1.6757812,0.515625 0.3515625,0.1582031 0.6269531,0.3837891 0.8320313,0.6796875 0.1933593,0.2988282 0.2929687,0.6386719 0.2929687,1.0195313 0,0.375 -0.1113281,0.7324219 -0.328125,1.06640623 -0.2197265,0.34570312 -0.5273437,0.60644531 -0.9257812,0.78515625 -0.4160157,0.19335938 -0.8759766,0.28710938 -1.3828125,0.28125 -0.65625,0.005859 -1.2011719,-0.08789062 -1.6289063,-0.28125 -0.4394531,-0.1875 -0.7822265,-0.47167969 -1.03124998,-0.85546878 -0.25195313,-0.375 -0.38378907,-0.7998047 -0.39843751,-1.2773437 z M 7.3134783,1.9931631 v -7.171875 h 0.8085938 v 0.6679687 c 0.1787109,-0.2636719 0.3896484,-0.4628906 0.6328125,-0.5976562 0.2402344,-0.1230469 0.5302734,-0.1875 0.8671875,-0.1875 0.4365239,0 0.8261719,0.1142578 1.1718749,0.3398437 0.333984,0.2285156 0.588867,0.5478516 0.761719,0.9609375 0.169922,0.421875 0.257812,0.8789063 0.257812,1.3710938 0,0.5332031 -0.09375,1.0078125 -0.28125,1.4296875 -0.1875,0.42187498 -0.46582,0.74707029 -0.832031,0.97265623 -0.369141,0.22558594 -0.7499999,0.33984375 -1.1484374,0.33984375 -0.2900391,0 -0.5507813,-0.06445312 -0.7851563,-0.1875 -0.234375,-0.1171875 -0.4277343,-0.27246094 -0.5742187,-0.46875 V 1.9931631 Z m 0.796875,-4.5585938 c 0,0.6738282 0.1347657,1.1689453 0.4101563,1.4882813 0.2636719,0.31347654 0.5888672,0.46874998 0.9726562,0.46874998 0.3896485,0 0.7265622,-0.1640625 1.0078122,-0.49218748 0.28125,-0.328125 0.421875,-0.8378906 0.421875,-1.5351563 -0.0088,-0.65625 -0.146484,-1.1513672 -0.410156,-1.4882812 -0.275391,-0.319336 -0.5976562,-0.4833985 -0.9726562,-0.4921875 -0.383789,0.00879 -0.7148437,0.1845703 -0.9960937,0.5273437 -0.2900391,0.3515625 -0.4335938,0.8613281 -0.4335938,1.5234375 z m 8.2998047,0.9023438 0.902344,0.1054687 c -0.140625,0.5332032 -0.404297,0.94628909 -0.785156,1.24218753 -0.392579,0.29003906 -0.887696,0.43359375 -1.488282,0.43359375 -0.758789,0 -1.359375,-0.234375 -1.804687,-0.703125 -0.445313,-0.45996098 -0.667969,-1.11328128 -0.667969,-1.95703128 0,-0.8730469 0.225586,-1.5527344 0.679688,-2.0390625 0.445312,-0.4746094 1.02539,-0.7148437 1.746093,-0.7148437 0.694336,0 1.259766,0.234375 1.699219,0.703125 0.436523,0.477539 0.65625,1.1425781 0.65625,1.9921875 0,0.055664 0,0.1347656 0,0.234375 h -3.867187 c 0.0293,0.571289 0.190429,1.0078125 0.480468,1.3125 0.28711,0.2988281 0.647461,0.44531248 1.078125,0.44531248 0.319336,0.008789 0.597657,-0.0732422 0.832032,-0.24609375 0.225585,-0.16992183 0.404296,-0.43945313 0.539062,-0.80859373 z m -2.882812,-1.4296875 h 2.894531 c -0.04687,-0.4277344 -0.1875,-0.7792969 -0.421875,-1.0546875 -0.228516,-0.28125 -0.559571,-0.4248047 -0.996094,-0.4335938 -0.407227,0.00879 -0.74707,0.1464844 -1.019531,0.4101563 -0.28125,0.2666015 -0.433594,0.6269531 -0.457031,1.078125 z m 8.264648,1.1953125 0.867187,0.1171875 c -0.102539,0.5947265 -0.345703,1.06054685 -0.726562,1.39453123 -0.392578,0.33691406 -0.873047,0.50390625 -1.441406,0.50390625 -0.703125,0 -1.271485,-0.234375 -1.699219,-0.703125 -0.439453,-0.45996098 -0.65625,-1.11914058 -0.65625,-1.98046878 0,-0.5625 0.09375,-1.0546875 0.28125,-1.4765625 0.1875,-0.421875 0.47168,-0.7382812 0.855469,-0.9492187 0.366211,-0.2021485 0.776367,-0.3046875 1.230468,-0.3046875 0.5625,0 1.022461,0.140625 1.382813,0.421875 0.351562,0.290039 0.580078,0.6972656 0.691406,1.21875 l -0.855469,0.1289062 c -0.08789,-0.3427734 -0.231445,-0.6035156 -0.433593,-0.7851562 -0.210938,-0.178711 -0.500977,-0.2695313 -0.867188,-0.2695313 -0.36914,0 -0.688476,0.1611328 -0.960937,0.4804688 -0.28125,0.3222656 -0.421875,0.8203125 -0.421875,1.5 0,0.703125 0.134765,1.2128906 0.410156,1.5234375 0.263672,0.3222656 0.612305,0.47753904 1.042969,0.46874998 0.342773,0 0.626953,-0.10546875 0.855468,-0.31640625 0.234375,-0.20214843 0.38086,-0.52734373 0.445313,-0.97265623 z m 3.536133,1.11328123 0.128906,0.7734375 c -0.251953,0.05273438 -0.503906,0.08203125 -0.761719,0.08203125 -0.257812,0 -0.474609,-0.05273437 -0.644531,-0.15234375 -0.181641,-0.09960938 -0.304687,-0.234375 -0.375,-0.3984375 -0.07031,-0.1640625 -0.105469,-0.50976563 -0.105469,-1.04296873 v -2.9765625 h -0.644531 v -0.6796875 h 0.644531 v -1.2890625 l 0.878907,-0.5273438 v 1.8164063 h 0.878906 v 0.6796875 h -0.878906 v 3.0351562 c -0.0088,0.2519532 0.0029,0.4101563 0.03516,0.48046878 0.0293,0.0703125 0.08496,0.12597656 0.164062,0.1640625 0.06152,0.046875 0.158203,0.0703125 0.292969,0.0703125 0.09375,0 0.222656,-0.0117188 0.386719,-0.0351563 z M 26.160158,9.755801e-4 V -5.1787119 h 0.796875 v 0.7851562 c 0.193359,-0.3662109 0.380859,-0.609375 0.5625,-0.7265625 0.164063,-0.1171875 0.369141,-0.1757812 0.621094,-0.1757812 0.249023,0 0.530273,0.09375 0.84375,0.28125 l -0.304688,0.8085937 c -0.219726,-0.1230469 -0.433593,-0.1875 -0.644531,-0.1875 -0.196289,0.00879 -0.369141,0.067383 -0.515625,0.1757813 -0.158203,0.1171875 -0.27832,0.3046875 -0.363281,0.5625 -0.0791,0.2578125 -0.117188,0.571289 -0.117188,0.9375 V 9.755801e-4 Z m 6.738281,0 V -0.76074317 c -0.407226,0.5859375 -0.955078,0.87890625 -1.640625,0.87890625 -0.313476,0 -0.597656,-0.05859375 -0.855468,-0.17578125 -0.275391,-0.1171875 -0.47461,-0.26367188 -0.597657,-0.4453125 -0.134765,-0.16992188 -0.222656,-0.38671875 -0.269531,-0.64453123 -0.03223,-0.1699219 -0.04687,-0.4453125 -0.04687,-0.8203125 v -3.2109375 h 0.878906 v 2.8710937 c 0,0.4628907 0.01758,0.7910157 0.05859,0.984375 0.04687,0.1962891 0.158203,0.3574219 0.339844,0.48046878 0.178711,0.13476562 0.401367,0.19921875 0.667969,0.19921875 0.257812,0 0.503906,-0.0644531 0.738281,-0.19921875 0.225586,-0.13183594 0.389648,-0.31640628 0.492187,-0.55078128 0.09375,-0.2255859 0.140625,-0.5625 0.140625,-1.0078125 v -2.7773437 h 0.878907 V 9.755801e-4 Z m 2.147461,0 V -5.1787119 h 0.785156 v 0.7265625 c 0.164063,-0.2578125 0.38086,-0.4628907 0.65625,-0.6210938 0.263672,-0.1464844 0.56836,-0.2226562 0.914063,-0.2226562 0.380859,0 0.697266,0.079101 0.949219,0.234375 0.240234,0.1640625 0.413086,0.3867187 0.515625,0.6679687 0.404297,-0.6005859 0.940429,-0.9023437 1.605469,-0.9023437 0.506835,0 0.902343,0.140625 1.183593,0.421875 0.28125,0.290039 0.421875,0.7265625 0.421875,1.3125 V 9.755801e-4 H 41.198244 V -3.2685557 c 0,-0.3515625 -0.0293,-0.6035156 -0.08203,-0.7617187 -0.06445,-0.1464844 -0.169922,-0.2695313 -0.316406,-0.3632813 -0.149415,-0.09375 -0.325196,-0.140625 -0.527344,-0.140625 -0.369141,0 -0.667969,0.1171875 -0.902344,0.3515625 -0.243164,0.2519531 -0.363281,0.6416016 -0.363281,1.171875 V 9.755801e-4 H 38.127932 V -3.3623057 c 0,-0.3896484 -0.07031,-0.6826172 -0.210938,-0.8789062 -0.149414,-0.1933594 -0.383789,-0.2929688 -0.703125,-0.2929688 -0.251953,0 -0.480469,0.064453 -0.691406,0.1875 -0.210938,0.1347656 -0.363282,0.3251953 -0.457032,0.5742188 -0.09375,0.2519531 -0.140625,0.6152344 -0.140625,1.0898437 V 9.755801e-4 Z m 0,0"
         style="fill:#000000;fill-opacity:1;fill-rule:nonzero;stroke:none"
         aria-label="Spectrum"
         transform="matrix(1.3333333,0,0,1.3333333,591.49479,438.66667)"
         clip-path="url(#clipPath112)"
         id="path113" />
    </g>
    <path
       id="path115"
       d="M -0.011717,-9.6160005e-7 2.7304705,-7.1601572 H 3.7500018 L 6.6796893,-9.6160005e-7 H 5.6015643 L 4.769533,-2.1679697 H 1.7812518 L 0.99609551,-9.6160005e-7 Z M 2.050783,-2.9414072 h 2.4257813 l -0.75,-1.9804688 C 3.4980486,-5.5136728 3.3310564,-6.0058603 3.222658,-6.3984385 3.128908,-5.9443369 3.0000018,-5.4902353 2.8359393,-5.0390635 Z M 7.3125018,-9.6160005e-7 V -5.1796885 h 0.796875 v 0.7382813 c 0.375,-0.5683594 0.9199218,-0.8554688 1.640625,-0.8554688 0.3105472,0 0.6005862,0.055664 0.8671872,0.1640625 0.257813,0.1171875 0.451172,0.2666016 0.585938,0.4453125 0.123047,0.1816407 0.216797,0.3955078 0.28125,0.6445313 0.0293,0.1640625 0.04687,0.4511719 0.04687,0.8554687 V -9.6160005e-7 H 10.652346 V -3.1523447 c 0,-0.3515625 -0.03516,-0.6210938 -0.105469,-0.8085938 -0.07031,-0.1699218 -0.19336,-0.3105468 -0.363281,-0.421875 -0.172852,-0.099609 -0.4160161,-0.1523437 -0.726563,-0.1523437 -0.3046875,0 -0.5917969,0.1171875 -0.8554687,0.3515625 -0.2753907,0.243164 -0.4101563,0.6914062 -0.4101563,1.3476562 V -9.6160005e-7 Z M 16.245119,-0.64453221 c -0.328125,0.28125 -0.641602,0.47753906 -0.9375,0.5859375 -0.304688,0.1171875 -0.629883,0.17578125 -0.972656,0.17578125 -0.571289,0 -1.007813,-0.140625 -1.3125,-0.421875 -0.313477,-0.27246094 -0.465821,-0.62695313 -0.457032,-1.06640624 0,-0.2490235 0.05859,-0.4804688 0.175782,-0.6914063 0.108398,-0.2109375 0.260742,-0.3779297 0.457031,-0.5039062 0.178711,-0.1230469 0.386719,-0.2226563 0.621094,-0.2929688 0.169922,-0.038086 0.433593,-0.082031 0.785156,-0.1289062 0.703125,-0.076172 1.224609,-0.178711 1.570312,-0.3046875 0,-0.1171875 0,-0.1904297 0,-0.2226563 0,-0.3574218 -0.09961,-0.6240234 -0.292968,-0.796875 -0.196289,-0.1699218 -0.515625,-0.2578125 -0.960938,-0.2578125 -0.416015,0 -0.714844,0.070312 -0.902344,0.2109375 -0.205078,0.1494141 -0.351562,0.4072266 -0.445312,0.7734375 L 12.717775,-3.703126 c 0.07031,-0.3662109 0.199219,-0.6621093 0.386719,-0.890625 0.178711,-0.2255859 0.436523,-0.4013672 0.773437,-0.5273437 0.333985,-0.1171875 0.726563,-0.1757813 1.171875,-0.1757813 0.436524,0 0.796875,0.052734 1.078125,0.1523438 0.272461,0.102539 0.47461,0.2314453 0.609375,0.3867187 0.131836,0.1640625 0.225586,0.3691407 0.28125,0.609375 0.02344,0.1494141 0.03516,0.4189453 0.03516,0.8085938 v 1.171875 c 0,0.8144531 0.01758,1.33007811 0.05859,1.54687499 0.03809,0.21972656 0.111329,0.42773437 0.222657,0.62109374839995 H 16.4209 C 16.32715,-0.1787119 16.268556,-0.39257909 16.245119,-0.64453221 Z m -0.07031,-1.95703129 c -0.322265,0.1347657 -0.802734,0.2431641 -1.441406,0.328125 -0.360351,0.055664 -0.615234,0.1142578 -0.761719,0.1757813 -0.158203,0.070312 -0.27539,0.1640625 -0.351562,0.28125 -0.08789,0.1347656 -0.128906,0.2988281 -0.128906,0.4921875 0,0.1875 0.09375,0.36035155 0.28125,0.51562499 0.169922,0.15820312 0.427734,0.234375 0.773437,0.234375 0.333985,0.008789 0.635742,-0.0644531 0.902344,-0.22265625 0.263672,-0.140625 0.459961,-0.34277344 0.585937,-0.60937504 0.08496,-0.1933593 0.131836,-0.4863281 0.140625,-0.8789062 z M 18.39551,-9.6160005e-7 V -7.1601572 h 0.878906 V -9.6160005e-7 Z M 20.589846,1.9921865 20.496096,1.171874 c 0.1875,0.052734 0.363281,0.082031 0.527343,0.082031 0.169922,0 0.316407,-0.035156 0.433594,-0.1054688 0.117188,-0.064453 0.213867,-0.15234371 0.292969,-0.26953121 0.05273,-0.0878906 0.143554,-0.3046875 0.269531,-0.65625 0.01465,-0.046875 0.04102,-0.1171875 0.08203,-0.2109375 l -1.96875,-5.19140629 h 0.949219 l 1.078125,3 c 0.131836,0.3837891 0.257813,0.7822266 0.375,1.19531254 0.09375,-0.39843754 0.210938,-0.79101564 0.351563,-1.18359374 l 1.113281,-3.0117188 h 0.878906 l -1.96875,5.26171879 C 22.699221,0.65917873 22.523439,1.0722647 22.382814,1.3242178 22.242189,1.5732412 22.072267,1.7636709 21.878908,1.8984365 21.67383,2.0390615 21.433596,2.109374 21.152346,2.109374 c -0.172852,0 -0.360352,-0.041016 -0.5625,-0.1171875 z M 25.168947,-9.6160005e-7 V -0.71484471 L 28.461916,-4.500001 c -0.375,0.017578 -0.703125,0.023437 -0.984375,0.023437 h -2.121094 v -0.703125 h 4.242188 v 0.5742188 l -2.8125,3.2929687 -0.539063,0.59765629 c 0.389649,-0.0292969 0.761719,-0.046875 1.113281,-0.046875 h 2.390625 V -9.6160005e-7 Z M 34.174806,-1.6640635 35.07715,-1.5585947 c -0.140625,0.5332031 -0.404297,0.94628905 -0.785156,1.24218749 -0.392578,0.29003906 -0.887695,0.43359375 -1.488281,0.43359375 -0.758789,0 -1.359375,-0.234375 -1.804688,-0.703125 -0.445312,-0.45996094 -0.667969,-1.11328124 -0.667969,-1.95703124 0,-0.8730469 0.225586,-1.5527344 0.679688,-2.0390625 0.445312,-0.4746094 1.025391,-0.7148438 1.746094,-0.7148438 0.694336,0 1.259765,0.234375 1.699218,0.703125 0.436524,0.4775391 0.65625,1.1425782 0.65625,1.9921875 0,0.055664 0,0.1347657 0,0.234375 h -3.867187 c 0.0293,0.5712891 0.19043,1.0078125 0.480469,1.3125 0.287109,0.29882816 0.647461,0.44531254 1.078125,0.44531254 0.319336,0.008789 0.597656,-0.0732422 0.832031,-0.24609375 0.225586,-0.16992189 0.404297,-0.43945309 0.539062,-0.80859379 z M 31.291994,-3.093751 h 2.894531 c -0.04687,-0.4277343 -0.1875,-0.7792968 -0.421875,-1.0546875 -0.228515,-0.28125 -0.55957,-0.4248047 -0.996094,-0.4335937 -0.407226,0.00879 -0.74707,0.1464844 -1.019531,0.4101562 -0.28125,0.2666016 -0.433594,0.6269532 -0.457031,1.078125 z M 36.161135,-9.6160005e-7 V -5.1796885 h 0.796875 v 0.7851563 c 0.193359,-0.366211 0.380859,-0.609375 0.5625,-0.7265625 0.164062,-0.1171875 0.36914,-0.1757813 0.621093,-0.1757813 0.249024,0 0.530274,0.09375 0.84375,0.28125 l -0.304687,0.8085938 c -0.219727,-0.1230469 -0.433594,-0.1875 -0.644531,-0.1875 -0.196289,0.00879 -0.369141,0.067383 -0.515625,0.1757812 -0.158203,0.1171875 -0.278321,0.3046875 -0.363282,0.5625 -0.0791,0.2578125 -0.117187,0.5712891 -0.117187,0.9375 V -9.6160005e-7 Z m 0,0"
       style="fill:#000000;fill-opacity:1;fill-rule:nonzero;stroke:none"
       aria-label="Analyzer"
       transform="matrix(1.3333333,0,0,1.3333333,594.07812,456)"
       clip-path="url(#clipPath116)" />
    <path
       id="path117"
       d="m 1801.6686,1170.5 -33.3333,-16.6667 v 33.3334 z"
       style="fill:#000000;fill-opacity:1;fill-rule:nonzero;stroke:none"
       transform="matrix(0.32,0,0,0.32,13.44,13.440001)"
       clip-path="url(#clipPath118)" />
    <path
       id="path119"
       d="m 219.87953,115 h 92.08"
       style="fill:none;stroke:#000000;stroke-width:0.24;stroke-linecap:butt;stroke-linejoin:miter;stroke-miterlimit:2;stroke-dasharray:none;stroke-opacity:1"
       transform="matrix(1.3333333,0,0,1.3333333,163.30729,234.66667)"
       clip-path="url(#clipPath120)" />
  </g>
</svg>
