<?xml version="1.0" encoding="UTF-8" standalone="no"?>
<!-- Created with Inkscape (http://www.inkscape.org/) -->

<svg
   version="1.1"
   id="svg1"
   width="372"
   height="340.26501"
   viewBox="0 0 371.99999 340.26502"
   sodipodi:docname="lab1_task1_diagram.svg"
   inkscape:version="1.3.2 (091e20e, 2023-11-25, custom)"
   xmlns:inkscape="http://www.inkscape.org/namespaces/inkscape"
   xmlns:sodipodi="http://sodipodi.sourceforge.net/DTD/sodipodi-0.dtd"
   xmlns="http://www.w3.org/2000/svg"
   xmlns:svg="http://www.w3.org/2000/svg">
  <defs
     id="defs1">
    <clipPath
       clipPathUnits="userSpaceOnUse"
       id="clipPath3">
      <path
         d="m 1207.0723,866.33333 h 801.8554 v 733.33337 h -801.8554 z"
         transform="matrix(0.24000001,0,0,0.24000001,-294.14266,-209.92)"
         clip-rule="evenodd"
         id="path3" />
    </clipPath>
    <clipPath
       clipPathUnits="userSpaceOnUse"
       id="clipPath6">
      <path
         d="m 1207.0723,866.33333 h 801.8554 v 733.33337 h -801.8554 z"
         transform="matrix(0.24000001,0,0,0.24000001,-139.64266,-2.4200001)"
         clip-rule="evenodd"
         id="path6" />
    </clipPath>
    <clipPath
       clipPathUnits="userSpaceOnUse"
       id="clipPath8">
      <path
         d="m 1207.0723,866.33333 h 801.8554 v 733.33337 h -801.8554 z"
         transform="matrix(0.24000001,0,0,0.24000001,-139.64266,-2.4200001)"
         clip-rule="evenodd"
         id="path8" />
    </clipPath>
    <clipPath
       clipPathUnits="userSpaceOnUse"
       id="clipPath10">
      <path
         d="m 1207.0723,866.33333 h 801.8554 v 733.33337 h -801.8554 z"
         transform="matrix(0.24000001,0,0,0.24000001,-139.64266,-2.4200001)"
         clip-rule="evenodd"
         id="path10" />
    </clipPath>
    <clipPath
       clipPathUnits="userSpaceOnUse"
       id="clipPath12">
      <path
         d="m 1207.0723,866.33333 h 801.8554 v 733.33337 h -801.8554 z"
         transform="matrix(0.24000001,0,0,0.24000001,-139.64266,-2.4200001)"
         clip-rule="evenodd"
         id="path12" />
    </clipPath>
    <clipPath
       clipPathUnits="userSpaceOnUse"
       id="clipPath14">
      <path
         d="m 1207.0723,866.33333 h 801.8554 v 733.33337 h -801.8554 z"
         transform="matrix(0.24000001,0,0,0.24000001,-139.64266,-2.4200001)"
         clip-rule="evenodd"
         id="path14" />
    </clipPath>
    <clipPath
       clipPathUnits="userSpaceOnUse"
       id="clipPath16">
      <path
         d="m 1207.0723,866.33333 h 801.8554 v 733.33337 h -801.8554 z"
         transform="matrix(0.24000001,0,0,0.24000001,-139.64266,-2.4200001)"
         clip-rule="evenodd"
         id="path16" />
    </clipPath>
    <clipPath
       clipPathUnits="userSpaceOnUse"
       id="clipPath18">
      <path
         d="m 1207.0723,866.33333 h 801.8554 v 733.33337 h -801.8554 z"
         transform="matrix(0.24000001,0,0,0.24000001,-139.64266,-2.4200001)"
         clip-rule="evenodd"
         id="path18" />
    </clipPath>
    <clipPath
       clipPathUnits="userSpaceOnUse"
       id="clipPath20">
      <path
         d="m 1207.0723,866.33333 h 801.8554 v 733.33337 h -801.8554 z"
         transform="matrix(0.24000001,0,0,0.24000001,-139.64266,-2.4200001)"
         clip-rule="evenodd"
         id="path20" />
    </clipPath>
    <clipPath
       clipPathUnits="userSpaceOnUse"
       id="clipPath22">
      <path
         d="m 1207.0723,866.33333 h 801.8554 v 733.33337 h -801.8554 z"
         transform="matrix(0.24000001,0,0,0.24000001,-139.64266,-2.4200001)"
         clip-rule="evenodd"
         id="path22" />
    </clipPath>
    <clipPath
       clipPathUnits="userSpaceOnUse"
       id="clipPath24">
      <path
         d="m 1207.0723,866.33333 h 801.8554 v 733.33337 h -801.8554 z"
         transform="matrix(0.24000001,0,0,0.24000001,-139.64266,-2.4200001)"
         clip-rule="evenodd"
         id="path24" />
    </clipPath>
    <clipPath
       clipPathUnits="userSpaceOnUse"
       id="clipPath26">
      <path
         d="m 1207.0723,866.33333 h 801.8554 v 733.33337 h -801.8554 z"
         transform="matrix(0.24000001,0,0,0.24000001,-139.64266,-2.4200001)"
         clip-rule="evenodd"
         id="path26" />
    </clipPath>
    <clipPath
       clipPathUnits="userSpaceOnUse"
       id="clipPath28">
      <path
         d="m 1207.0723,866.33333 h 801.8554 v 733.33337 h -801.8554 z"
         transform="matrix(0.24000001,0,0,0.24000001,-139.64266,-2.4200001)"
         clip-rule="evenodd"
         id="path28" />
    </clipPath>
    <clipPath
       clipPathUnits="userSpaceOnUse"
       id="clipPath30">
      <path
         d="m 1207.0723,866.33333 h 801.8554 v 733.33337 h -801.8554 z"
         transform="matrix(0.24000001,0,0,0.24000001,-139.64266,-2.4200001)"
         clip-rule="evenodd"
         id="path30" />
    </clipPath>
    <clipPath
       clipPathUnits="userSpaceOnUse"
       id="clipPath32">
      <path
         d="m 1207.0723,866.33333 h 801.8554 v 733.33337 h -801.8554 z"
         transform="matrix(0.24000001,0,0,0.24000001,-139.64266,-2.4200001)"
         clip-rule="evenodd"
         id="path32" />
    </clipPath>
    <clipPath
       clipPathUnits="userSpaceOnUse"
       id="clipPath34">
      <path
         d="m 1207.0723,866.33333 h 801.8554 v 733.33337 h -801.8554 z"
         transform="matrix(0.24000001,0,0,0.24000001,-139.64266,-2.4200001)"
         clip-rule="evenodd"
         id="path34" />
    </clipPath>
    <clipPath
       clipPathUnits="userSpaceOnUse"
       id="clipPath36">
      <path
         d="m 1207.0723,866.33333 h 801.8554 v 733.33337 h -801.8554 z"
         transform="matrix(0.24000001,0,0,0.24000001,-139.64266,-2.4200001)"
         clip-rule="evenodd"
         id="path36" />
    </clipPath>
    <clipPath
       clipPathUnits="userSpaceOnUse"
       id="clipPath38">
      <path
         d="m 1207.0723,866.33333 h 801.8554 v 733.33337 h -801.8554 z"
         transform="matrix(0.24000001,0,0,0.24000001,-139.64266,-2.4200001)"
         clip-rule="evenodd"
         id="path38" />
    </clipPath>
    <clipPath
       clipPathUnits="userSpaceOnUse"
       id="clipPath40">
      <path
         d="m 1207.0723,866.33333 h 801.8554 v 733.33337 h -801.8554 z"
         transform="matrix(0.24000001,0,0,0.24000001,-139.64266,-2.4200001)"
         clip-rule="evenodd"
         id="path40" />
    </clipPath>
    <clipPath
       clipPathUnits="userSpaceOnUse"
       id="clipPath42">
      <path
         d="m 1207.0723,866.33333 h 801.8554 v 733.33337 h -801.8554 z"
         transform="matrix(0.24000001,0,0,0.24000001,-139.64266,-2.4200001)"
         clip-rule="evenodd"
         id="path42" />
    </clipPath>
    <clipPath
       clipPathUnits="userSpaceOnUse"
       id="clipPath44">
      <path
         d="m 1207.0723,866.33333 h 801.8554 v 733.33337 h -801.8554 z"
         transform="matrix(0.24000001,0,0,0.24000001,-139.64266,-2.4200001)"
         clip-rule="evenodd"
         id="path44" />
    </clipPath>
    <clipPath
       clipPathUnits="userSpaceOnUse"
       id="clipPath46">
      <path
         d="m 1207.0723,866.33333 h 801.8554 v 733.33337 h -801.8554 z"
         transform="matrix(0.24000001,0,0,0.24000001,-316.14266,-220.42)"
         clip-rule="evenodd"
         id="path46" />
    </clipPath>
    <clipPath
       clipPathUnits="userSpaceOnUse"
       id="clipPath48">
      <path
         d="m 1207.0723,866.33333 h 801.8554 v 733.33337 h -801.8554 z"
         transform="matrix(0.24000001,0,0,0.24000001,-294.14266,-209.92)"
         clip-rule="evenodd"
         id="path48" />
    </clipPath>
    <clipPath
       clipPathUnits="userSpaceOnUse"
       id="clipPath49">
      <path
         d="m 1215.4056,1066.3333 h 207.8776 v 62.5 h -207.8776 z"
         transform="matrix(0.24000001,0,0,0.24000001,-292.69735,-266.92)"
         clip-rule="evenodd"
         id="path49" />
    </clipPath>
    <clipPath
       clipPathUnits="userSpaceOnUse"
       id="clipPath51">
      <path
         d="m 1215.4056,1066.3333 h 207.8776 v 62.5 h -207.8776 z"
         transform="matrix(0.32,0,0,0.32,13.44,13.440001)"
         clip-rule="evenodd"
         id="path51" />
    </clipPath>
    <clipPath
       clipPathUnits="userSpaceOnUse"
       id="clipPath53">
      <path
         d="m 1207.0723,866.33333 h 801.8554 v 733.33337 h -801.8554 z"
         transform="matrix(0.24000001,0,0,0.24000001,-434.14266,-215.92)"
         clip-rule="evenodd"
         id="path53" />
    </clipPath>
    <clipPath
       clipPathUnits="userSpaceOnUse"
       id="clipPath62">
      <path
         d="m 1783.9277,866.33333 h 175 v 199.99997 h -175 z"
         transform="matrix(0.24000001,0,0,0.24000001,-432.94259,-214.51992)"
         clip-rule="evenodd"
         id="path62" />
    </clipPath>
    <clipPath
       clipPathUnits="userSpaceOnUse"
       id="clipPath67">
      <path
         d="m 1207.0723,866.33333 h 801.8554 v 733.33337 h -801.8554 z"
         transform="matrix(0.24000001,0,0,0.24000001,-434.14266,-215.92)"
         clip-rule="evenodd"
         id="path67" />
    </clipPath>
    <clipPath
       clipPathUnits="userSpaceOnUse"
       id="clipPath68">
      <path
         d="m 1808.3092,1041.3333 h 126.237 v 62.5 h -126.237 z"
         transform="matrix(0.24000001,0,0,0.24000001,-434.99423,-260.92)"
         clip-rule="evenodd"
         id="path68" />
    </clipPath>
    <clipPath
       clipPathUnits="userSpaceOnUse"
       id="clipPath70">
      <path
         d="m 1808.3092,1041.3333 h 126.237 v 62.5 h -126.237 z"
         transform="matrix(0.32,0,0,0.32,13.44,13.440001)"
         clip-rule="evenodd"
         id="path70" />
    </clipPath>
    <clipPath
       clipPathUnits="userSpaceOnUse"
       id="clipPath72">
      <path
         d="m 1207.0723,866.33333 h 801.8554 v 733.33337 h -801.8554 z"
         transform="matrix(0.24000001,0,0,0.24000001,-434.14266,-301.92001)"
         clip-rule="evenodd"
         id="path72" />
    </clipPath>
    <clipPath
       clipPathUnits="userSpaceOnUse"
       id="clipPath81">
      <path
         d="m 1775.5944,1220.5 h 254.1667 v 283.3333 h -254.1667 z"
         clip-rule="evenodd"
         id="path81" />
    </clipPath>
    <clipPath
       clipPathUnits="userSpaceOnUse"
       id="clipPath83">
      <path
         d="m 1775.5944,1220.5 h 254.1667 v 283.3333 h -254.1667 z"
         transform="matrix(0.53333333,0,0,0.48,-964.76145,-603.83999)"
         clip-rule="evenodd"
         id="path83" />
    </clipPath>
    <clipPath
       clipPathUnits="userSpaceOnUse"
       id="clipPath85">
      <path
         d="m 1775.5944,1220.5 h 254.1667 v 283.3333 h -254.1667 z"
         clip-rule="evenodd"
         id="path85" />
    </clipPath>
    <clipPath
       clipPathUnits="userSpaceOnUse"
       id="clipPath87">
      <path
         d="m 1775.5944,1220.5 h 254.1667 v 283.3333 h -254.1667 z"
         transform="matrix(0.53333333,0,0,0.48,-964.76145,-603.83999)"
         clip-rule="evenodd"
         id="path87" />
    </clipPath>
    <clipPath
       clipPathUnits="userSpaceOnUse"
       id="clipPath89">
      <path
         d="m 1775.5944,1220.5 h 254.1667 v 283.3333 h -254.1667 z"
         clip-rule="evenodd"
         id="path89" />
    </clipPath>
    <clipPath
       clipPathUnits="userSpaceOnUse"
       id="clipPath91">
      <path
         d="m 1775.5944,1220.5 h 254.1667 v 283.3333 h -254.1667 z"
         transform="matrix(0.53333333,0,0,0.48,-964.76145,-603.83999)"
         clip-rule="evenodd"
         id="path91" />
    </clipPath>
    <clipPath
       clipPathUnits="userSpaceOnUse"
       id="clipPath93">
      <path
         d="m 1775.5944,1220.5 h 254.1667 v 283.3333 h -254.1667 z"
         clip-rule="evenodd"
         id="path93" />
    </clipPath>
    <clipPath
       clipPathUnits="userSpaceOnUse"
       id="clipPath95">
      <path
         d="m 1775.5944,1220.5 h 254.1667 v 283.3333 h -254.1667 z"
         clip-rule="evenodd"
         id="path95" />
    </clipPath>
    <clipPath
       clipPathUnits="userSpaceOnUse"
       id="clipPath97">
      <path
         d="m 1775.5944,1220.5 h 254.1667 v 283.3333 h -254.1667 z"
         clip-rule="evenodd"
         id="path97" />
    </clipPath>
    <clipPath
       clipPathUnits="userSpaceOnUse"
       id="clipPath99">
      <path
         d="m 1775.5944,1220.5 h 254.1667 v 283.3333 h -254.1667 z"
         clip-rule="evenodd"
         id="path99" />
    </clipPath>
    <clipPath
       clipPathUnits="userSpaceOnUse"
       id="clipPath101">
      <path
         d="m 1775.5944,1220.5 h 254.1667 v 283.3333 h -254.1667 z"
         clip-rule="evenodd"
         id="path101" />
    </clipPath>
    <clipPath
       clipPathUnits="userSpaceOnUse"
       id="clipPath103">
      <path
         d="m 1775.5944,1220.5 h 254.1667 v 283.3333 h -254.1667 z"
         clip-rule="evenodd"
         id="path103" />
    </clipPath>
    <clipPath
       clipPathUnits="userSpaceOnUse"
       id="clipPath105">
      <path
         d="m 1775.5944,1220.5 h 254.1667 v 283.3333 h -254.1667 z"
         clip-rule="evenodd"
         id="path105" />
    </clipPath>
    <clipPath
       clipPathUnits="userSpaceOnUse"
       id="clipPath110">
      <path
         d="m 1207.0723,866.33333 h 801.8554 v 733.33337 h -801.8554 z"
         transform="matrix(0.24000001,0,0,0.24000001,-434.14266,-301.92001)"
         clip-rule="evenodd"
         id="path110" />
    </clipPath>
    <clipPath
       clipPathUnits="userSpaceOnUse"
       id="clipPath111">
      <path
         d="m 1809.5137,1474.6667 h 186.3281 v 116.6666 h -186.3281 z"
         transform="matrix(0.24000001,0,0,0.24000001,-435.28329,-364.92001)"
         clip-rule="evenodd"
         id="path111" />
    </clipPath>
    <clipPath
       clipPathUnits="userSpaceOnUse"
       id="clipPath113">
      <path
         d="m 1809.5137,1474.6667 h 186.3281 v 116.6666 h -186.3281 z"
         transform="matrix(0.32,0,0,0.32,13.44,13.440001)"
         clip-rule="evenodd"
         id="path113" />
    </clipPath>
    <clipPath
       clipPathUnits="userSpaceOnUse"
       id="clipPath115">
      <path
         d="m 1809.5137,1474.6667 h 186.3281 v 116.6666 h -186.3281 z"
         transform="matrix(0.24000001,0,0,0.24000001,-437.22079,-377.92001)"
         clip-rule="evenodd"
         id="path115" />
    </clipPath>
    <clipPath
       clipPathUnits="userSpaceOnUse"
       id="clipPath117">
      <path
         d="m 1207.0723,866.33333 h 801.8554 v 733.33337 h -801.8554 z"
         transform="matrix(0.24000001,0,0,0.24000001,-139.14266,-1.9199998)"
         clip-rule="evenodd"
         id="path117" />
    </clipPath>
    <clipPath
       clipPathUnits="userSpaceOnUse"
       id="clipPath119">
      <path
         d="m 1207.0723,866.33333 h 801.8554 v 733.33337 h -801.8554 z"
         clip-rule="evenodd"
         id="path119" />
    </clipPath>
    <clipPath
       clipPathUnits="userSpaceOnUse"
       id="clipPath121">
      <path
         d="m 1207.0723,866.33333 h 801.8554 v 733.33337 h -801.8554 z"
         transform="matrix(0.24000001,0,0,0.24000001,-139.14266,-1.9199998)"
         clip-rule="evenodd"
         id="path121" />
    </clipPath>
    <clipPath
       clipPathUnits="userSpaceOnUse"
       id="clipPath123">
      <path
         d="m 1207.0723,866.33333 h 801.8554 v 733.33337 h -801.8554 z"
         clip-rule="evenodd"
         id="path123" />
    </clipPath>
    <clipPath
       clipPathUnits="userSpaceOnUse"
       id="clipPath125">
      <path
         d="m 1207.0723,866.33333 h 801.8554 v 733.33337 h -801.8554 z"
         transform="matrix(0.24000001,0,0,0.24000001,-139.14266,-1.9199998)"
         clip-rule="evenodd"
         id="path125" />
    </clipPath>
    <clipPath
       clipPathUnits="userSpaceOnUse"
       id="clipPath127">
      <path
         d="m 1207.0723,866.33333 h 801.8554 v 733.33337 h -801.8554 z"
         clip-rule="evenodd"
         id="path127" />
    </clipPath>
  </defs>
  <sodipodi:namedview
     id="namedview1"
     pagecolor="#ffffff"
     bordercolor="#000000"
     borderopacity="0.25"
     inkscape:showpageshadow="2"
     inkscape:pageopacity="0.0"
     inkscape:pagecheckerboard="0"
     inkscape:deskcolor="#d1d1d1"
     inkscape:zoom="2.3203122"
     inkscape:cx="206.86871"
     inkscape:cy="95.030315"
     inkscape:window-width="1920"
     inkscape:window-height="1121"
     inkscape:window-x="-9"
     inkscape:window-y="-9"
     inkscape:window-maximized="1"
     inkscape:current-layer="svg1"
     inkscape:export-bgcolor="#ffffffff">
    <inkscape:page
       x="0"
       y="0"
       inkscape:label="1"
       id="page1"
       width="372"
       height="340.26501"
       margin="0"
       bleed="0" />
  </sodipodi:namedview>
  <rect
     style="fill:#ffffff;stroke-width:1.653;fill-opacity:1;stroke:none;stroke-dasharray:none"
     id="rect1"
     width="372"
     height="340.26501"
     x="342.4852"
     y="236.41808"
     transform="translate(-342.48521,-236.41808)" />
  <g
     id="g1"
     inkscape:groupmode="layer"
     inkscape:label="1"
     transform="translate(-342.48521,-236.41808)">
    <path
       id="path2"
       d="M 0,0 H 45 V 44 H 0 Z"
       style="fill:#ffffff;fill-opacity:1;fill-rule:nonzero;stroke:none"
       transform="matrix(1.3333333,0,0,1.3333333,405.63021,293.33333)"
       clip-path="url(#clipPath3)" />
    <path
       id="path5"
       d="m 155,230 h 4"
       style="fill:none;stroke:#000000;stroke-width:0.24;stroke-linecap:butt;stroke-linejoin:miter;stroke-miterlimit:2;stroke-dasharray:none;stroke-opacity:1"
       transform="matrix(1.3333333,0,0,1.3333333,199.63021,16.666668)"
       clip-path="url(#clipPath6)" />
    <path
       id="path7"
       d="M 159,230 V 217"
       style="fill:none;stroke:#000000;stroke-width:0.24;stroke-linecap:butt;stroke-linejoin:miter;stroke-miterlimit:2;stroke-dasharray:none;stroke-opacity:1"
       transform="matrix(1.3333333,0,0,1.3333333,199.63021,16.666668)"
       clip-path="url(#clipPath8)" />
    <path
       id="path9"
       d="m 159,217 h 5"
       style="fill:none;stroke:#000000;stroke-width:0.24;stroke-linecap:butt;stroke-linejoin:miter;stroke-miterlimit:2;stroke-dasharray:none;stroke-opacity:1"
       transform="matrix(1.3333333,0,0,1.3333333,199.63021,16.666668)"
       clip-path="url(#clipPath10)" />
    <path
       id="path11"
       d="m 164,217 v -8"
       style="fill:none;stroke:#000000;stroke-width:0.24;stroke-linecap:butt;stroke-linejoin:miter;stroke-miterlimit:2;stroke-dasharray:none;stroke-opacity:1"
       transform="matrix(1.3333333,0,0,1.3333333,199.63021,16.666668)"
       clip-path="url(#clipPath12)" />
    <path
       id="path13"
       d="m 164,209 h 4"
       style="fill:none;stroke:#000000;stroke-width:0.24;stroke-linecap:butt;stroke-linejoin:miter;stroke-miterlimit:2;stroke-dasharray:none;stroke-opacity:1"
       transform="matrix(1.3333333,0,0,1.3333333,199.63021,16.666668)"
       clip-path="url(#clipPath14)" />
    <path
       id="path15"
       d="m 168,209 h 5"
       style="fill:none;stroke:#000000;stroke-width:0.24;stroke-linecap:butt;stroke-linejoin:miter;stroke-miterlimit:2;stroke-dasharray:none;stroke-opacity:1"
       transform="matrix(1.3333333,0,0,1.3333333,199.63021,16.666668)"
       clip-path="url(#clipPath16)" />
    <path
       id="path17"
       d="m 173,209 v 8"
       style="fill:none;stroke:#000000;stroke-width:0.24;stroke-linecap:butt;stroke-linejoin:miter;stroke-miterlimit:2;stroke-dasharray:none;stroke-opacity:1"
       transform="matrix(1.3333333,0,0,1.3333333,199.63021,16.666668)"
       clip-path="url(#clipPath18)" />
    <path
       id="path19"
       d="m 173,217 h 4"
       style="fill:none;stroke:#000000;stroke-width:0.24;stroke-linecap:butt;stroke-linejoin:miter;stroke-miterlimit:2;stroke-dasharray:none;stroke-opacity:1"
       transform="matrix(1.3333333,0,0,1.3333333,199.63021,16.666668)"
       clip-path="url(#clipPath20)" />
    <path
       id="path21"
       d="m 177,217 v 13"
       style="fill:none;stroke:#000000;stroke-width:0.24;stroke-linecap:butt;stroke-linejoin:miter;stroke-miterlimit:2;stroke-dasharray:none;stroke-opacity:1"
       transform="matrix(1.3333333,0,0,1.3333333,199.63021,16.666668)"
       clip-path="url(#clipPath22)" />
    <path
       id="path23"
       d="m 177,230 h 4"
       style="fill:none;stroke:#000000;stroke-width:0.24;stroke-linecap:butt;stroke-linejoin:miter;stroke-miterlimit:2;stroke-dasharray:none;stroke-opacity:1"
       transform="matrix(1.3333333,0,0,1.3333333,199.63021,16.666668)"
       clip-path="url(#clipPath24)" />
    <path
       id="path25"
       d="m 181,230 v 12"
       style="fill:none;stroke:#000000;stroke-width:0.24;stroke-linecap:butt;stroke-linejoin:miter;stroke-miterlimit:2;stroke-dasharray:none;stroke-opacity:1"
       transform="matrix(1.3333333,0,0,1.3333333,199.63021,16.666668)"
       clip-path="url(#clipPath26)" />
    <path
       id="path27"
       d="m 181,242 h 5"
       style="fill:none;stroke:#000000;stroke-width:0.24;stroke-linecap:butt;stroke-linejoin:miter;stroke-miterlimit:2;stroke-dasharray:none;stroke-opacity:1"
       transform="matrix(1.3333333,0,0,1.3333333,199.63021,16.666668)"
       clip-path="url(#clipPath28)" />
    <path
       id="path29"
       d="m 186,242 v 8"
       style="fill:none;stroke:#000000;stroke-width:0.24;stroke-linecap:butt;stroke-linejoin:miter;stroke-miterlimit:2;stroke-dasharray:none;stroke-opacity:1"
       transform="matrix(1.3333333,0,0,1.3333333,199.63021,16.666668)"
       clip-path="url(#clipPath30)" />
    <path
       id="path31"
       d="m 186,250 h 4"
       style="fill:none;stroke:#000000;stroke-width:0.24;stroke-linecap:butt;stroke-linejoin:miter;stroke-miterlimit:2;stroke-dasharray:none;stroke-opacity:1"
       transform="matrix(1.3333333,0,0,1.3333333,199.63021,16.666668)"
       clip-path="url(#clipPath32)" />
    <path
       id="path33"
       d="m 190,250 h 5"
       style="fill:none;stroke:#000000;stroke-width:0.24;stroke-linecap:butt;stroke-linejoin:miter;stroke-miterlimit:2;stroke-dasharray:none;stroke-opacity:1"
       transform="matrix(1.3333333,0,0,1.3333333,199.63021,16.666668)"
       clip-path="url(#clipPath34)" />
    <path
       id="path35"
       d="m 195,250 v -8"
       style="fill:none;stroke:#000000;stroke-width:0.24;stroke-linecap:butt;stroke-linejoin:miter;stroke-miterlimit:2;stroke-dasharray:none;stroke-opacity:1"
       transform="matrix(1.3333333,0,0,1.3333333,199.63021,16.666668)"
       clip-path="url(#clipPath36)" />
    <path
       id="path37"
       d="m 195,242 h 4"
       style="fill:none;stroke:#000000;stroke-width:0.24;stroke-linecap:butt;stroke-linejoin:miter;stroke-miterlimit:2;stroke-dasharray:none;stroke-opacity:1"
       transform="matrix(1.3333333,0,0,1.3333333,199.63021,16.666668)"
       clip-path="url(#clipPath38)" />
    <path
       id="path39"
       d="M 199,242 V 230"
       style="fill:none;stroke:#000000;stroke-width:0.24;stroke-linecap:butt;stroke-linejoin:miter;stroke-miterlimit:2;stroke-dasharray:none;stroke-opacity:1"
       transform="matrix(1.3333333,0,0,1.3333333,199.63021,16.666668)"
       clip-path="url(#clipPath40)" />
    <path
       id="path41"
       d="m 155,208 v 43"
       style="fill:none;stroke:#000000;stroke-width:0.24;stroke-linecap:butt;stroke-linejoin:miter;stroke-miterlimit:2;stroke-dasharray:none;stroke-opacity:1"
       transform="matrix(1.3333333,0,0,1.3333333,199.63021,16.666668)"
       clip-path="url(#clipPath42)" />
    <path
       id="path43"
       d="m 155,230 h 44"
       style="fill:none;stroke:#000000;stroke-width:0.24;stroke-linecap:butt;stroke-linejoin:miter;stroke-miterlimit:2;stroke-dasharray:none;stroke-opacity:1"
       transform="matrix(1.3333333,0,0,1.3333333,199.63021,16.666668)"
       clip-path="url(#clipPath44)" />
    <path
       id="path45"
       d="M 0.77441591,-9.774769e-4 V -7.1611337 H 3.2353534 c 0.553711,0 1.0078125,0.043945 1.359375,0.1289062 0.3515625,0.079102 0.6708985,0.2431641 0.9609375,0.4921875 0.375,0.3222656 0.6591797,0.7265625 0.8554688,1.21875 0.1875,0.5009766 0.28125,1.0664063 0.28125,1.6992188 0,0.5478515 -0.067383,1.03125 -0.1992188,1.453125 -0.1259765,0.4160156 -0.2871094,0.758789 -0.4804687,1.03125 -0.2050782,0.28124997 -0.421875,0.50097653 -0.65625,0.65624997 -0.234375,0.1640625 -0.5214844,0.28710938 -0.8554688,0.36328125 -0.336914,0.07910157 -0.7207031,0.1171875031 -1.1484375,0.1171875031 z M 1.7236347,-0.84472748 h 1.5234375 c 0.46875,0 0.8378906,-0.0410156 1.1132812,-0.12890625 0.2636719,-0.084961 0.4921875,-0.22558597 0.6796875,-0.42187497 0.1933594,-0.1933594 0.3544922,-0.4804688 0.4804688,-0.8554688 0.1230468,-0.375 0.1875,-0.8349609 0.1875,-1.3828125 0,-0.7412109 -0.1230469,-1.3154297 -0.3632813,-1.7226562 C 5.0927753,-5.7607431 4.7939472,-6.0302744 4.4423847,-6.16504 4.1904315,-6.264649 3.7861347,-6.3173837 3.2236347,-6.3173837 h -1.5 z m 5.9414062,-1.45312502 0.9023438,-0.082031 c 0.038086,0.3603515 0.1347656,0.6533203 0.2929687,0.8789062 0.1464844,0.234375 0.3867188,0.421875 0.7148438,0.56250002 0.328125,0.140625 0.6943358,0.2109375 1.1015628,0.2109375 0.357422,0 0.679687,-0.0527344 0.960937,-0.1640625 0.272461,-0.0996094 0.47461,-0.24902342 0.609375,-0.44531252 0.131836,-0.1787109 0.199219,-0.3808594 0.199219,-0.609375 0,-0.2167969 -0.06445,-0.4130859 -0.1875,-0.5859375 C 12.124025,-2.69629 11.910158,-2.836915 11.61426,-2.9541025 11.417971,-3.024415 10.993166,-3.1416025 10.336916,-3.305665 9.6806659,-3.4609384 9.2177753,-3.6103525 8.9541034,-3.7509775 8.6171894,-3.9208994 8.3623066,-4.1435556 8.1923847,-4.4189462 c -0.1728516,-0.2636719 -0.2548828,-0.5625 -0.2460938,-0.890625 0,-0.3574219 0.099609,-0.694336 0.3046875,-1.0078125 0.2021485,-0.3105469 0.5039063,-0.5507813 0.9023438,-0.7148438 0.3808594,-0.1640625 0.8203125,-0.2460937 1.3124998,-0.2460937 0.521485,0 0.990235,0.087891 1.40625,0.2578125 0.398438,0.1728515 0.706055,0.421875 0.925781,0.75 0.216797,0.336914 0.333985,0.711914 0.351563,1.125 l -0.902344,0.070312 C 12.191408,-5.5263681 12.027346,-5.8662119 11.754885,-6.0947275 11.464846,-6.3203134 11.0459,-6.4375009 10.500978,-6.44629 c -0.5800777,0 -0.9960933,0.1054688 -1.2539058,0.3164063 -0.2578125,0.2109375 -0.3867188,0.4658203 -0.3867188,0.7617187 0,0.2578125 0.087891,0.46875 0.2695313,0.6328125 0.1787109,0.1728516 0.65625,0.3398438 1.4296873,0.5039063 0.764649,0.1816406 1.324219,0.3515625 1.675781,0.515625 0.351563,0.1582031 0.626954,0.383789 0.832032,0.6796875 0.193359,0.2988281 0.292968,0.6386718 0.292968,1.0195312 0,0.375 -0.111328,0.7324219 -0.328125,1.06640627 -0.219726,0.34570313 -0.527343,0.60644532 -0.925781,0.78515625 -0.416015,0.19335938 -0.875976,0.28710938 -1.382812,0.28125 -0.65625,0.005859 -1.2011722,-0.08789062 -1.6289066,-0.28125 -0.4394531,-0.1875 -0.7822265,-0.47167969 -1.03125,-0.85546872 -0.2519531,-0.375 -0.383789,-0.7998047 -0.3984375,-1.2773438 z M 14.649416,-9.774769e-4 V -7.1611337 h 2.695312 c 0.47461,0.00879 0.861329,0.041016 1.160157,0.09375 0.304687,0.046875 0.574218,0.1523437 0.808593,0.3164062 0.240235,0.1640625 0.436524,0.3955078 0.585938,0.6914063 0.131836,0.2988281 0.202148,0.6210937 0.210937,0.9726562 -0.0088,0.609375 -0.205078,1.125 -0.585937,1.546875 -0.392578,0.421875 -1.089844,0.6328125 -2.097656,0.6328125 H 15.598635 V -9.774769e-4 Z M 15.598635,-3.7509775 h 1.839843 c 0.609375,0 1.045899,-0.1113281 1.3125,-0.3398437 0.257813,-0.225586 0.386719,-0.5449219 0.386719,-0.9609375 0,-0.2958985 -0.0791,-0.553711 -0.234375,-0.7734375 -0.149414,-0.2109375 -0.348633,-0.3515625 -0.597656,-0.421875 -0.164063,-0.046875 -0.457031,-0.070312 -0.878906,-0.070312 h -1.828125 z m 0,0"
       style="fill:#000000;fill-opacity:1;fill-rule:nonzero;stroke:none"
       aria-label="DSP"
       transform="matrix(1.3333333,0,0,1.3333333,434.96354,307.33333)"
       clip-path="url(#clipPath46)" />
    <path
       id="path47"
       d="M 0,0 H 45 V 44 H 0 Z"
       style="fill:none;stroke:#000000;stroke-width:0.565047;stroke-linecap:butt;stroke-linejoin:miter;stroke-miterlimit:2;stroke-dasharray:none;stroke-opacity:1"
       transform="matrix(1.3333333,0,0,1.3333333,405.63021,293.33333)"
       clip-path="url(#clipPath48)" />
    <g
       id="g50"
       clip-path="url(#clipPath51)">
      <path
         d="M 0.44531465,-2.2978517 1.3476584,-2.379883 c 0.038086,0.3603516 0.1347656,0.6533203 0.2929688,0.8789063 0.1464843,0.234375 0.3867187,0.421875 0.7148437,0.56249995 0.328125,0.140625 0.6943359,0.2109375 1.1015625,0.2109375 0.3574219,0 0.6796875,-0.0527344 0.9609375,-0.1640625 0.2724609,-0.0996094 0.4746094,-0.24902345 0.609375,-0.44531245 0.1318359,-0.178711 0.1992188,-0.3808594 0.1992188,-0.609375 0,-0.2167969 -0.064453,-0.413086 -0.1875,-0.5859375 C 4.904299,-2.6962892 4.6904318,-2.8369142 4.3945334,-2.9541017 4.1982443,-3.0244142 3.7734397,-3.1416017 3.1171897,-3.3056643 2.4609397,-3.4609377 1.998049,-3.6103518 1.7343772,-3.7509768 1.3974631,-3.9208986 1.1425803,-4.1435549 0.9726584,-4.4189455 c -0.17285156,-0.2636719 -0.25488281,-0.5625 -0.24609375,-0.890625 0,-0.3574219 0.0996094,-0.6943359 0.30468755,-1.0078125 0.2021484,-0.3105469 0.5039062,-0.5507813 0.9023437,-0.7148438 0.3808594,-0.1640625 0.8203125,-0.2460937 1.3125,-0.2460937 0.5214844,0 0.9902344,0.087891 1.40625,0.2578125 0.3984375,0.1728516 0.7060547,0.421875 0.9257813,0.75 0.2167968,0.3369141 0.3339843,0.7119141 0.3515625,1.125 L 5.0273459,-5.075196 C 4.9716818,-5.5263674 4.8076193,-5.8662111 4.5351584,-6.0947268 4.2451193,-6.3203127 3.826174,-6.4375002 3.2812522,-6.4462893 c -0.5800782,0 -0.9960938,0.1054688 -1.2539063,0.3164063 -0.2578125,0.2109375 -0.3867187,0.4658203 -0.3867187,0.7617187 0,0.2578125 0.087891,0.46875 0.2695312,0.6328125 0.1787109,0.1728516 0.65625,0.3398438 1.4296875,0.5039063 0.7646484,0.1816406 1.3242188,0.3515625 1.6757813,0.515625 0.3515625,0.1582031 0.6269531,0.3837891 0.8320312,0.6796875 0.1933594,0.2988281 0.2929688,0.6386719 0.2929688,1.0195313 0,0.375 -0.1113282,0.7324218 -0.328125,1.0664062 C 5.5927756,-0.60449237 5.2851584,-0.34375018 4.8867209,-0.16503925 4.4707053,0.02832013 4.0107443,0.12207013 3.5039084,0.11621076 2.8476584,0.12207013 2.3027365,0.02832013 1.8750022,-0.16503925 1.435549,-0.35253925 1.0927756,-0.63671893 0.84375215,-1.020508 0.59179903,-1.395508 0.45996309,-1.8203127 0.44531465,-2.2978517 Z M 7.3242209,-6.1416018 V -7.161133 h 0.8789063 v 1.0195312 z m 0,6.1406250551 V -5.1806643 h 0.8789063 v 5.1796875551 z m 2.2060547,0 V -5.1806643 h 0.7968754 v 0.7382813 c 0.375,-0.5683594 0.919921,-0.8554688 1.640625,-0.8554688 0.310546,0 0.600586,0.055664 0.867187,0.1640625 0.257813,0.1171875 0.451172,0.2666016 0.585938,0.4453125 0.123046,0.1816407 0.216796,0.3955079 0.28125,0.6445313 0.0293,0.1640625 0.04687,0.4511719 0.04687,0.8554687 V -9.767449e-4 H 12.870119 V -3.1533205 c 0,-0.3515625 -0.03516,-0.6210938 -0.105468,-0.8085938 -0.07031,-0.1699218 -0.19336,-0.3105468 -0.363282,-0.421875 -0.172851,-0.099609 -0.416015,-0.1523437 -0.726562,-0.1523437 -0.304688,0 -0.591797,0.1171875 -0.855469,0.3515625 -0.275391,0.2431641 -0.410156,0.6914062 -0.410156,1.3476563 V -9.767449e-4 Z M 18.629885,-1.6650392 l 0.902344,0.1054687 c -0.140625,0.5332031 -0.404297,0.94628907 -0.785157,1.2421875 -0.392578,0.29003907 -0.887695,0.43359376 -1.488281,0.43359376 -0.758789,0 -1.359375,-0.23437501 -1.804687,-0.70312501 -0.445313,-0.45996095 -0.667969,-1.11328125 -0.667969,-1.95703125 0,-0.8730469 0.225586,-1.5527344 0.679687,-2.0390625 0.445313,-0.4746094 1.025391,-0.7148438 1.746094,-0.7148438 0.694336,0 1.259766,0.234375 1.699219,0.703125 0.436523,0.4775391 0.65625,1.1425782 0.65625,1.9921876 0,0.055664 0,0.1347656 0,0.234375 h -3.867188 c 0.0293,0.571289 0.19043,1.0078125 0.480469,1.3125 0.28711,0.29882808 0.647461,0.44531245 1.078125,0.44531245 0.319336,0.008789 0.597656,-0.0732422 0.832031,-0.24609375 0.225586,-0.1699219 0.404297,-0.4394531 0.539063,-0.8085937 z m -2.882813,-1.4296875 h 2.894532 c -0.04687,-0.4277344 -0.1875,-0.7792969 -0.421875,-1.0546876 -0.228516,-0.28125 -0.559571,-0.4248046 -0.996094,-0.4335937 -0.407227,0.00879 -0.74707,0.1464844 -1.019531,0.4101562 -0.28125,0.2666016 -0.433594,0.6269532 -0.457032,1.0781251 z M 24.750002,-9.767449e-4 22.851565,-7.161133 h 0.972656 l 1.089844,4.6992188 c 0.117187,0.4921875 0.216797,0.9814453 0.304687,1.4648437 0.178711,-0.7646484 0.28418,-1.2070312 0.316406,-1.3242187 l 1.371094,-4.8398438 h 1.136719 l 1.03125,3.6210937 c 0.257812,0.8994141 0.439453,1.7460938 0.550781,2.5429688 0.09375,-0.4511719 0.213867,-0.9726562 0.363281,-1.5585937 l 1.113282,-4.6054688 h 0.960937 l -1.96875,7.1601562551 H 29.17969 l -1.5,-5.4492187551 c -0.134766,-0.4511719 -0.210938,-0.7324219 -0.234375,-0.84375 -0.0791,0.3369141 -0.149414,0.6181641 -0.210938,0.84375 L 25.722658,-9.767449e-4 Z M 35.838869,-0.645508 c -0.328125,0.28125 -0.641601,0.47753907 -0.9375,0.58593751 -0.304687,0.1171875 -0.629882,0.17578125 -0.972656,0.17578125 -0.571289,0 -1.007812,-0.140625 -1.3125,-0.42187501 -0.313476,-0.27246093 -0.46582,-0.62695312 -0.457031,-1.06640625 0,-0.2490234 0.05859,-0.4804687 0.175781,-0.6914062 0.108399,-0.2109375 0.260742,-0.3779297 0.457031,-0.5039063 0.178711,-0.1230469 0.386719,-0.2226562 0.621094,-0.2929687 0.169922,-0.038086 0.433594,-0.082031 0.785156,-0.1289063 0.703125,-0.076172 1.22461,-0.1787109 1.570313,-0.3046875 0,-0.1171875 0,-0.1904297 0,-0.2226563 0,-0.3574218 -0.09961,-0.6240234 -0.292969,-0.796875 -0.196289,-0.1699218 -0.515625,-0.2578125 -0.960937,-0.2578125 -0.416016,0 -0.714844,0.070312 -0.902344,0.2109375 -0.205078,0.1494141 -0.351563,0.4072266 -0.445313,0.7734375 l -0.855468,-0.1171875 c 0.07031,-0.3662109 0.199218,-0.6621093 0.386718,-0.890625 0.178711,-0.2255859 0.436524,-0.4013671 0.773438,-0.5273437 0.333984,-0.1171875 0.726562,-0.1757813 1.171875,-0.1757813 0.436523,0 0.796875,0.052734 1.078125,0.1523438 0.272461,0.1025391 0.474609,0.2314453 0.609375,0.3867187 0.131836,0.1640625 0.225586,0.3691407 0.28125,0.609375 0.02344,0.1494141 0.03516,0.4189454 0.03516,0.8085938 v 1.171875 c 0,0.8144531 0.01758,1.33007813 0.05859,1.546875 0.03809,0.21972657 0.111328,0.42773438 0.222656,0.6210937551 H 36.014651 C 35.920901,-0.17968768 35.862307,-0.39355487 35.838869,-0.645508 Z m -0.07031,-1.9570312 c -0.322266,0.1347656 -0.802734,0.243164 -1.441406,0.328125 -0.360352,0.055664 -0.615235,0.1142578 -0.761719,0.1757812 -0.158203,0.070312 -0.275391,0.1640625 -0.351563,0.28125 -0.08789,0.1347656 -0.128906,0.2988281 -0.128906,0.4921875 0,0.1875 0.09375,0.36035157 0.28125,0.515625 0.169922,0.15820313 0.427735,0.234375 0.773438,0.234375 0.333984,0.008789 0.635742,-0.0644531 0.902343,-0.22265625 0.263672,-0.140625 0.459961,-0.34277345 0.585938,-0.60937495 0.08496,-0.1933594 0.131836,-0.4863282 0.140625,-0.8789063 z M 39.442385,-9.767449e-4 37.473635,-5.1806643 h 0.925781 l 1.113282,3.1054688 c 0.117187,0.3369141 0.225585,0.6855469 0.328125,1.0429688 0.07617,-0.272461 0.1875,-0.600586 0.328125,-0.984375 l 1.148437,-3.1640626 h 0.914063 l -1.96875,5.1796875551 z m 7.107422,-1.6640624551 0.902344,0.1054687 c -0.140625,0.5332031 -0.404297,0.94628907 -0.785157,1.2421875 -0.392578,0.29003907 -0.887695,0.43359376 -1.488281,0.43359376 -0.758789,0 -1.359375,-0.23437501 -1.804687,-0.70312501 -0.445313,-0.45996095 -0.667969,-1.11328125 -0.667969,-1.95703125 0,-0.8730469 0.225586,-1.5527344 0.679687,-2.0390625 0.445313,-0.4746094 1.025391,-0.7148438 1.746094,-0.7148438 0.694336,0 1.259766,0.234375 1.699219,0.703125 0.436523,0.4775391 0.65625,1.1425782 0.65625,1.9921876 0,0.055664 0,0.1347656 0,0.234375 h -3.867188 c 0.0293,0.571289 0.19043,1.0078125 0.480469,1.3125 0.28711,0.29882808 0.647461,0.44531245 1.078125,0.44531245 0.319336,0.008789 0.597656,-0.0732422 0.832031,-0.24609375 0.225586,-0.1699219 0.404297,-0.4394531 0.539063,-0.8085937 z m -2.882813,-1.4296875 h 2.894532 c -0.04687,-0.4277344 -0.1875,-0.7792969 -0.421875,-1.0546876 -0.228516,-0.28125 -0.559571,-0.4248046 -0.996094,-0.4335937 -0.407227,0.00879 -0.74707,0.1464844 -1.019531,0.4101562 -0.28125,0.2666016 -0.433594,0.6269532 -0.457032,1.0781251 z m 0,0"
         style="fill:#000000;fill-opacity:1;fill-rule:nonzero;stroke:none"
         aria-label="Sine Wave"
         transform="matrix(1.3333333,0,0,1.3333333,403.70312,369.33333)"
         clip-path="url(#clipPath49)"
         id="path50" />
    </g>
    <path
       id="path52"
       d="M 0,0 H 30 V 32 H 0 Z"
       style="fill:#ffffff;fill-opacity:1;fill-rule:nonzero;stroke:none"
       transform="matrix(1.3333333,0,0,1.3333333,592.29687,301.33333)"
       clip-path="url(#clipPath53)" />
    <path
       id="path61"
       d="M 7.1999999,5.9999945 H 25.599999 c 1.104571,0 2,0.9551255 2,2.1333334 v 9.3333331 c 0,1.178209 -0.895429,2.133333 -2,2.133333 H 7.1999999 c -1.1045699,0 -2,-0.955124 -2,-2.133333 V 8.1333279 c 0,-1.1782079 0.8954301,-2.1333334 2,-2.1333334 z"
       style="fill:none;stroke:#000000;stroke-width:1.3;stroke-linecap:round;stroke-linejoin:round;stroke-miterlimit:10;stroke-dasharray:none;stroke-opacity:1"
       transform="matrix(1.3333333,0,0,1.3333333,590.69677,299.46656)"
       clip-path="url(#clipPath62)" />
    <path
       id="path66"
       d="M 0,0 H 30 V 32 H 0 Z"
       style="fill:none;stroke:#000000;stroke-width:0.565047;stroke-linecap:butt;stroke-linejoin:miter;stroke-miterlimit:2;stroke-dasharray:none;stroke-opacity:1"
       transform="matrix(1.3333333,0,0,1.3333333,592.29687,301.33333)"
       clip-path="url(#clipPath67)" />
    <g
       id="g69"
       clip-path="url(#clipPath70)">
      <path
         d="M 0.44629021,-2.2978517 1.348634,-2.379883 c 0.038086,0.3603516 0.1347656,0.6533203 0.2929687,0.8789063 0.1464844,0.234375 0.3867188,0.421875 0.7148438,0.56249995 0.328125,0.140625 0.6943359,0.2109375 1.1015625,0.2109375 0.3574218,0 0.6796875,-0.0527344 0.9609375,-0.1640625 0.2724609,-0.0996094 0.4746093,-0.24902345 0.609375,-0.44531245 0.1318359,-0.178711 0.1992187,-0.3808594 0.1992187,-0.609375 0,-0.2167969 -0.064453,-0.413086 -0.1875,-0.5859375 C 4.9052746,-2.6962892 4.6914074,-2.8369142 4.395509,-2.9541017 4.1992199,-3.0244142 3.7744152,-3.1416017 3.1181652,-3.3056643 2.4619152,-3.4609377 1.9990246,-3.6103518 1.7353527,-3.7509768 1.3984387,-3.9208986 1.1435558,-4.1435549 0.97363397,-4.4189455 c -0.17285157,-0.2636719 -0.25488282,-0.5625 -0.24609375,-0.890625 0,-0.3574219 0.0996094,-0.6943359 0.30468748,-1.0078125 0.2021485,-0.3105469 0.5039063,-0.5507813 0.9023438,-0.7148438 0.3808593,-0.1640625 0.8203125,-0.2460937 1.3125,-0.2460937 0.5214843,0 0.9902343,0.087891 1.40625,0.2578125 0.3984375,0.1728516 0.7060547,0.421875 0.9257812,0.75 0.2167969,0.3369141 0.3339844,0.7119141 0.3515625,1.125 L 5.0283215,-5.075196 C 4.9726574,-5.5263674 4.8085949,-5.8662111 4.536134,-6.0947268 4.2460949,-6.3203127 3.8271496,-6.4375002 3.2822277,-6.4462893 c -0.5800781,0 -0.9960937,0.1054688 -1.2539062,0.3164063 -0.2578125,0.2109375 -0.3867188,0.4658203 -0.3867188,0.7617187 0,0.2578125 0.087891,0.46875 0.2695313,0.6328125 0.1787109,0.1728516 0.65625,0.3398438 1.4296875,0.5039063 0.7646484,0.1816406 1.3242187,0.3515625 1.6757812,0.515625 0.3515625,0.1582031 0.6269531,0.3837891 0.8320313,0.6796875 0.1933593,0.2988281 0.2929687,0.6386719 0.2929687,1.0195313 0,0.375 -0.1113281,0.7324218 -0.328125,1.0664062 C 5.5937512,-0.60449237 5.286134,-0.34375018 4.8876965,-0.16503925 4.4716808,0.02832013 4.0117199,0.12207013 3.504884,0.11621076 2.848634,0.12207013 2.3037121,0.02832013 1.8759777,-0.16503925 1.4365246,-0.35253925 1.0937512,-0.63671893 0.84472772,-1.020508 0.59277459,-1.395508 0.46093865,-1.8203127 0.44629021,-2.2978517 Z m 10.25390579,0.3984375 0.867188,0.1171875 c -0.102539,0.5947265 -0.345703,1.06054683 -0.726563,1.3945312 -0.392578,0.33691407 -0.8730464,0.50390626 -1.4414058,0.50390626 -0.703125,0 -1.2714843,-0.23437501 -1.6992187,-0.70312501 -0.4394531,-0.45996095 -0.65625,-1.11914065 -0.65625,-1.98046875 0,-0.5625 0.09375,-1.0546875 0.28125,-1.4765625 0.1875,-0.421875 0.4716797,-0.7382813 0.8554687,-0.9492188 0.366211,-0.2021484 0.7763672,-0.3046875 1.2304688,-0.3046875 0.5625,0 1.022461,0.140625 1.382812,0.421875 0.351563,0.2900391 0.580079,0.6972657 0.691407,1.21875 l -0.855469,0.1289063 C 10.541993,-3.8710939 10.398439,-4.1318361 10.19629,-4.3134768 9.9853527,-4.4921877 9.6953137,-4.583008 9.3291027,-4.583008 c -0.3691406,0 -0.6884765,0.1611328 -0.9609375,0.4804687 -0.28125,0.3222657 -0.421875,0.8203125 -0.421875,1.5000001 0,0.703125 0.1347657,1.2128906 0.4101563,1.5234375 0.2636719,0.32226558 0.6123047,0.47753902 1.0429687,0.46874995 0.3427735,0 0.6269528,-0.10546875 0.8554688,-0.31640625 0.234375,-0.2021484 0.380859,-0.5273437 0.445312,-0.9726562 z M 11.9834,-2.5908205 c 0,-0.9609375 0.269531,-1.6699219 0.808593,-2.1328125 0.436524,-0.3808594 0.978516,-0.5742188 1.628907,-0.5742188 0.708984,0 1.291992,0.2314454 1.746093,0.6914063 0.451172,0.46875 0.679688,1.1191406 0.679688,1.9453125 0,0.6650391 -0.102539,1.1894531 -0.304688,1.5703125 -0.196289,0.38378907 -0.486328,0.6796875 -0.867187,0.890625 -0.392578,0.21093751 -0.808594,0.31640626 -1.253906,0.31640626 -0.735352,0 -1.321289,-0.23437501 -1.757813,-0.70312501 C 12.208986,-1.0468752 11.9834,-1.7148439 11.9834,-2.5908205 Z m 0.902343,0 c 0,0.6650391 0.143555,1.1601563 0.433594,1.4882813 0.287109,0.32812495 0.65625,0.49218745 1.101563,0.49218745 0.427734,0 0.791015,-0.1640625 1.089843,-0.49218745 0.28125,-0.3339844 0.424805,-0.84375 0.433594,-1.5234375 -0.0088,-0.6328126 -0.152344,-1.116211 -0.433594,-1.4531251 -0.298828,-0.328125 -0.662109,-0.4921875 -1.089843,-0.4921875 -0.445313,0 -0.814454,0.1640625 -1.101563,0.4921875 -0.290039,0.328125 -0.433594,0.8261719 -0.433594,1.4882813 z m 4.97461,4.5820313 v -7.1718751 h 0.808593 v 0.6679688 c 0.178711,-0.2636719 0.389649,-0.4628906 0.632813,-0.5976563 0.240234,-0.1230468 0.530273,-0.1875 0.867187,-0.1875 0.436524,0 0.826172,0.1142579 1.171875,0.3398438 0.333985,0.2285156 0.588868,0.5478516 0.761719,0.9609375 0.169922,0.421875 0.257813,0.8789063 0.257813,1.3710938 0,0.5332031 -0.09375,1.0078125 -0.28125,1.4296875 -0.1875,0.42187495 -0.465821,0.74707027 -0.832032,0.9726562 -0.36914,0.22558594 -0.75,0.33984376 -1.148437,0.33984376 -0.290039,0 -0.550781,-0.06445313 -0.785156,-0.18750001 -0.234375,-0.1171875 -0.427735,-0.27246093 -0.574219,-0.46875 V 1.9912108 Z m 0.796875,-4.5585938 c 0,0.6738281 0.134765,1.1689453 0.410156,1.4882813 0.263672,0.31347652 0.588867,0.46874995 0.972656,0.46874995 0.389649,0 0.726563,-0.1640625 1.007813,-0.49218745 0.28125,-0.328125 0.421875,-0.8378907 0.421875,-1.5351563 -0.0088,-0.65625 -0.146485,-1.1513672 -0.410157,-1.4882813 -0.27539,-0.3193359 -0.597656,-0.4833984 -0.972656,-0.4921875 -0.383789,0.00879 -0.714844,0.1845704 -0.996094,0.5273438 -0.290039,0.3515625 -0.433593,0.8613281 -0.433593,1.5234375 z m 8.299804,0.9023438 0.902344,0.1054687 c -0.140625,0.5332031 -0.404297,0.94628907 -0.785156,1.2421875 -0.392578,0.29003907 -0.887695,0.43359376 -1.488281,0.43359376 -0.758789,0 -1.359375,-0.23437501 -1.804688,-0.70312501 -0.445312,-0.45996095 -0.667969,-1.11328125 -0.667969,-1.95703125 0,-0.8730469 0.225586,-1.5527344 0.679688,-2.0390625 0.445312,-0.4746094 1.025391,-0.7148438 1.746094,-0.7148438 0.694336,0 1.259765,0.234375 1.699218,0.703125 0.436524,0.4775391 0.65625,1.1425782 0.65625,1.9921876 0,0.055664 0,0.1347656 0,0.234375 h -3.867187 c 0.0293,0.571289 0.19043,1.0078125 0.480469,1.3125 0.287109,0.29882808 0.647461,0.44531245 1.078125,0.44531245 0.319336,0.008789 0.597656,-0.0732422 0.832031,-0.24609375 0.225586,-0.1699219 0.404297,-0.4394531 0.539062,-0.8085937 z M 24.07422,-3.0947267 h 2.894531 c -0.04687,-0.4277344 -0.1875,-0.7792969 -0.421875,-1.0546876 -0.228515,-0.28125 -0.55957,-0.4248046 -0.996094,-0.4335937 -0.407226,0.00879 -0.74707,0.1464844 -1.019531,0.4101562 -0.28125,0.2666016 -0.433594,0.6269532 -0.457031,1.0781251 z m 0,0"
         style="fill:#000000;fill-opacity:1;fill-rule:nonzero;stroke:none"
         aria-label="Scope"
         transform="matrix(1.3333333,0,0,1.3333333,593.43229,361.33333)"
         clip-path="url(#clipPath68)"
         id="path69" />
    </g>
    <path
       id="path71"
       d="M 0,0 H 45 V 50 H 0 Z"
       style="fill:#ffffff;fill-opacity:1;fill-rule:nonzero;stroke:none"
       transform="matrix(1.3333333,0,0,1.3333333,592.29687,416)"
       clip-path="url(#clipPath72)" />
    <path
       id="path80"
       d="m 1827.6777,1278.8333 h 150 v 125 h -150 z"
       style="fill:#bebebe;fill-opacity:1;fill-rule:evenodd;stroke:none"
       transform="matrix(0.32,0,0,0.32,13.44,13.440001)"
       clip-path="url(#clipPath81)" />
    <path
       id="path82"
       d="M 10,10 H 90 V 70 H 10 Z"
       style="fill:none;stroke:#000000;stroke-width:3;stroke-linecap:butt;stroke-linejoin:miter;stroke-miterlimit:4;stroke-dasharray:none;stroke-opacity:1"
       transform="matrix(0.6,0,0,0.66666667,592.29687,416)"
       clip-path="url(#clipPath83)" />
    <path
       id="path84"
       d="m 1846.4277,1383 h 112.5"
       style="fill:#000000;fill-opacity:1;fill-rule:nonzero;stroke:none"
       transform="matrix(0.32,0,0,0.32,13.44,13.440001)"
       clip-path="url(#clipPath85)" />
    <path
       id="path86"
       d="M 20,60 H 80"
       style="fill:none;stroke:#000000;stroke-width:2;stroke-linecap:butt;stroke-linejoin:miter;stroke-miterlimit:4;stroke-dasharray:none;stroke-opacity:1"
       transform="matrix(0.6,0,0,0.66666667,592.29687,416)"
       clip-path="url(#clipPath87)" />
    <path
       id="path88"
       d="M 1848.3027,1301.75 V 1383"
       style="fill:#000000;fill-opacity:1;fill-rule:nonzero;stroke:none"
       transform="matrix(0.32,0,0,0.32,13.44,13.440001)"
       clip-path="url(#clipPath89)" />
    <path
       id="path90"
       d="M 21,21 V 60"
       style="fill:none;stroke:#000000;stroke-width:2;stroke-linecap:butt;stroke-linejoin:miter;stroke-miterlimit:4;stroke-dasharray:none;stroke-opacity:1"
       transform="matrix(0.6,0,0,0.66666667,592.29687,416)"
       clip-path="url(#clipPath91)" />
    <path
       id="path92"
       d="m 1857.6777,1316.3333 -1.875,2.0834 v 62.5 h 11.25 v -62.5 l -1.875,-2.0834 z"
       style="fill:#ffff00;fill-opacity:1;fill-rule:nonzero;stroke:none"
       transform="matrix(0.32,0,0,0.32,13.44,13.440001)"
       clip-path="url(#clipPath93)" />
    <path
       id="path94"
       d="m 1868.9277,1337.1667 -1.875,2.0833 v 41.6667 h 11.25 V 1339.25 l -1.875,-2.0833 z"
       style="fill:#ffff00;fill-opacity:1;fill-rule:nonzero;stroke:none"
       transform="matrix(0.32,0,0,0.32,13.44,13.440001)"
       clip-path="url(#clipPath95)" />
    <path
       id="path96"
       d="m 1880.1777,1299.6667 -1.875,2.0833 v 79.1667 h 11.25 V 1301.75 l -1.875,-2.0833 z"
       style="fill:#ffff00;fill-opacity:1;fill-rule:nonzero;stroke:none"
       transform="matrix(0.32,0,0,0.32,13.44,13.440001)"
       clip-path="url(#clipPath97)" />
    <path
       id="path98"
       d="m 1891.4277,1322.5833 -1.875,2.0834 v 56.25 h 11.25 v -56.25 l -1.875,-2.0834 z"
       style="fill:#ffff00;fill-opacity:1;fill-rule:nonzero;stroke:none"
       transform="matrix(0.32,0,0,0.32,13.44,13.440001)"
       clip-path="url(#clipPath99)" />
    <path
       id="path100"
       d="m 1902.6777,1322.5833 -1.875,2.0834 v 56.25 h 11.25 v -56.25 l -1.875,-2.0834 z"
       style="fill:#ffff00;fill-opacity:1;fill-rule:nonzero;stroke:none"
       transform="matrix(0.32,0,0,0.32,13.44,13.440001)"
       clip-path="url(#clipPath101)" />
    <path
       id="path102"
       d="m 1913.9277,1308 -1.875,2.0833 v 70.8334 h 11.25 v -70.8334 l -1.875,-2.0833 z"
       style="fill:#ffff00;fill-opacity:1;fill-rule:nonzero;stroke:none"
       transform="matrix(0.32,0,0,0.32,13.44,13.440001)"
       clip-path="url(#clipPath103)" />
    <path
       id="path104"
       d="m 1925.1777,1355.9167 -1.875,2.0833 v 22.9167 h 11.25 V 1358 l -1.875,-2.0833 z"
       style="fill:#ffff00;fill-opacity:1;fill-rule:nonzero;stroke:none"
       transform="matrix(0.32,0,0,0.32,13.44,13.440001)"
       clip-path="url(#clipPath105)" />
    <path
       id="path109"
       d="M 0,0 H 45 V 50 H 0 Z"
       style="fill:none;stroke:#000000;stroke-width:0.565047;stroke-linecap:butt;stroke-linejoin:miter;stroke-miterlimit:2;stroke-dasharray:none;stroke-opacity:1"
       transform="matrix(1.3333333,0,0,1.3333333,592.29687,416)"
       clip-path="url(#clipPath110)" />
    <g
       id="g112"
       clip-path="url(#clipPath113)">
      <path
         d="m 0.44433639,-2.2968744 0.90234371,-0.082031 c 0.038086,0.3603515 0.1347657,0.6533203 0.2929688,0.8789062 0.1464844,0.234375 0.3867187,0.421875 0.7148437,0.56250002 0.328125,0.140625 0.694336,0.2109375 1.1015625,0.2109375 0.3574219,0 0.6796875,-0.0527344 0.9609375,-0.1640625 0.272461,-0.0996094 0.4746094,-0.24902342 0.609375,-0.44531252 0.131836,-0.1787109 0.1992188,-0.3808594 0.1992188,-0.609375 0,-0.2167969 -0.064453,-0.4130859 -0.1875,-0.5859375 C 4.9033208,-2.6953119 4.6894536,-2.8359369 4.3935551,-2.9531244 4.1972661,-3.0234369 3.7724614,-3.1406244 3.1162114,-3.3046869 2.4599614,-3.4599603 1.9970708,-3.6093744 1.7333989,-3.7499994 1.3964848,-3.9199213 1.141602,-4.1425775 0.97168014,-4.4179681 0.79882858,-4.68164 0.71679733,-4.9804681 0.72558639,-5.3085931 c 0,-0.3574219 0.0996094,-0.694336 0.30468751,-1.0078125 0.2021484,-0.3105469 0.5039062,-0.5507813 0.9023437,-0.7148438 0.3808594,-0.1640625 0.8203125,-0.2460937 1.3125,-0.2460937 0.5214844,0 0.9902344,0.087891 1.40625,0.2578125 0.3984375,0.1728515 0.7060547,0.421875 0.9257813,0.75 0.2167969,0.336914 0.3339844,0.711914 0.3515625,1.125 l -0.9023438,0.070312 C 4.9707036,-5.52539 4.8066411,-5.8652338 4.5341801,-6.0937494 4.2441411,-6.3193353 3.8251958,-6.4365228 3.2802739,-6.4453119 c -0.5800781,0 -0.9960938,0.1054688 -1.2539063,0.3164063 -0.2578125,0.2109375 -0.3867187,0.4658203 -0.3867187,0.7617187 0,0.2578125 0.087891,0.46875 0.2695312,0.6328125 0.178711,0.1728516 0.65625,0.3398438 1.4296875,0.5039063 0.7646485,0.1816406 1.3242188,0.3515625 1.6757813,0.515625 0.3515625,0.1582031 0.6269531,0.383789 0.8320312,0.6796875 0.1933594,0.2988281 0.2929688,0.6386718 0.2929688,1.0195312 0,0.375 -0.1113281,0.7324219 -0.328125,1.06640627 -0.2197266,0.34570312 -0.5273438,0.60644531 -0.9257813,0.78515625 -0.4160156,0.19335937 -0.8759765,0.28710937 -1.3828125,0.28125 -0.65625,0.005859 -1.2011718,-0.08789063 -1.6289062,-0.28125 -0.4394531,-0.1875 -0.7822266,-0.47167969 -1.03125001,-0.85546872 -0.25195312,-0.375 -0.38378906,-0.7998047 -0.3984375,-1.2773438 z M 7.3115239,1.9921881 v -7.171875 h 0.8085938 v 0.6679688 c 0.1787109,-0.2636719 0.3896484,-0.4628907 0.6328125,-0.5976563 0.2402343,-0.1230469 0.5302734,-0.1875 0.8671875,-0.1875 0.4365233,0 0.8261723,0.1142578 1.1718753,0.3398438 0.333984,0.2285156 0.588867,0.5478515 0.761718,0.9609375 0.169922,0.421875 0.257813,0.8789062 0.257813,1.3710937 0,0.5332031 -0.09375,1.0078125 -0.28125,1.4296875 -0.1875,0.42187502 -0.46582,0.74707033 -0.832031,0.97265627 -0.369141,0.22558594 -0.7500003,0.33984375 -1.1484378,0.33984375 -0.2900391,0 -0.5507813,-0.06445313 -0.7851563,-0.1875 -0.234375,-0.1171875 -0.4277344,-0.27246094 -0.5742187,-0.46875 V 1.9921881 Z m 0.796875,-4.5585937 c 0,0.6738281 0.1347656,1.1689453 0.4101563,1.4882812 0.2636718,0.31347658 0.5888671,0.46875002 0.9726562,0.46875002 0.3896484,0 0.7265626,-0.1640625 1.0078126,-0.49218752 0.28125,-0.328125 0.421875,-0.8378906 0.421875,-1.5351562 -0.0088,-0.65625 -0.146484,-1.1513672 -0.410156,-1.4882813 -0.275391,-0.3193359 -0.5976566,-0.4833984 -0.9726566,-0.4921875 -0.3837891,0.00879 -0.7148437,0.1845703 -0.9960937,0.5273438 -0.2900391,0.3515625 -0.4335938,0.8613281 -0.4335938,1.5234375 z m 8.3027341,0.9023437 0.902344,0.1054688 c -0.140625,0.5332031 -0.404297,0.94628903 -0.785156,1.24218747 -0.392578,0.29003906 -0.887696,0.43359375 -1.488281,0.43359375 -0.75879,0 -1.359375,-0.234375 -1.804688,-0.703125 -0.445312,-0.45996092 -0.667969,-1.11328122 -0.667969,-1.95703122 0,-0.8730469 0.225586,-1.5527344 0.679688,-2.0390625 0.445312,-0.4746094 1.02539,-0.7148438 1.746094,-0.7148438 0.694335,0 1.259765,0.234375 1.699218,0.703125 0.436524,0.4775391 0.65625,1.1425781 0.65625,1.9921875 0,0.055664 0,0.1347656 0,0.234375 h -3.867187 c 0.0293,0.5712891 0.190429,1.0078125 0.480469,1.3125 0.287109,0.29882814 0.64746,0.44531252 1.078125,0.44531252 0.319335,0.008789 0.597656,-0.0732422 0.832031,-0.24609375 0.225586,-0.16992187 0.404297,-0.43945317 0.539062,-0.80859377 z m -2.882812,-1.4296875 h 2.894531 c -0.04687,-0.4277344 -0.1875,-0.7792969 -0.421875,-1.0546875 -0.228516,-0.28125 -0.55957,-0.4248047 -0.996094,-0.4335937 -0.407226,0.00879 -0.74707,0.1464843 -1.019531,0.4101562 -0.28125,0.2666016 -0.433594,0.6269531 -0.457031,1.078125 z m 8.264648,1.1953125 0.867188,0.1171875 c -0.102539,0.5947266 -0.345703,1.06054689 -0.726563,1.39453127 -0.392578,0.33691406 -0.873047,0.50390625 -1.441406,0.50390625 -0.703125,0 -1.271484,-0.234375 -1.699219,-0.703125 -0.439453,-0.45996092 -0.65625,-1.11914062 -0.65625,-1.98046872 0,-0.5625 0.09375,-1.0546875 0.28125,-1.4765625 0.1875,-0.421875 0.47168,-0.7382813 0.855469,-0.9492188 0.366211,-0.2021484 0.776367,-0.3046875 1.230469,-0.3046875 0.5625,0 1.022461,0.140625 1.382812,0.421875 0.351563,0.2900391 0.580078,0.6972656 0.691406,1.21875 l -0.855468,0.1289063 c -0.08789,-0.3427735 -0.231446,-0.6035157 -0.433594,-0.7851563 -0.210938,-0.1787109 -0.500977,-0.2695312 -0.867188,-0.2695312 -0.36914,0 -0.688476,0.1611328 -0.960937,0.4804687 -0.28125,0.3222656 -0.421875,0.8203125 -0.421875,1.5 0,0.703125 0.134766,1.2128906 0.410156,1.5234375 0.263672,0.32226564 0.612305,0.47753908 1.042969,0.46875002 0.342773,0 0.626953,-0.10546875 0.855469,-0.31640625 0.234375,-0.20214847 0.380859,-0.52734377 0.445312,-0.97265627 z m 3.536133,1.11328127 0.128906,0.7734375 c -0.251953,0.05273437 -0.503906,0.08203125 -0.761718,0.08203125 -0.257813,0 -0.47461,-0.05273438 -0.644532,-0.15234375 -0.18164,-0.09960938 -0.304687,-0.234375 -0.375,-0.3984375 -0.07031,-0.1640625 -0.105468,-0.50976563 -0.105468,-1.04296877 v -2.9765625 h -0.644532 v -0.6796875 h 0.644532 v -1.2890625 l 0.878906,-0.5273437 v 1.8164062 h 0.878906 v 0.6796875 h -0.878906 v 3.0351563 c -0.0088,0.2519531 0.0029,0.4101562 0.03516,0.48046872 0.0293,0.0703125 0.08496,0.12597656 0.164063,0.1640625 0.06152,0.046875 0.158203,0.0703125 0.292968,0.0703125 0.09375,0 0.222657,-0.0117188 0.386719,-0.0351563 z M 26.161133,6.1759994e-7 V -5.1796869 h 0.796875 v 0.7851563 c 0.19336,-0.366211 0.38086,-0.609375 0.5625,-0.7265625 0.164063,-0.1171875 0.369141,-0.1757813 0.621094,-0.1757813 0.249023,0 0.530273,0.09375 0.84375,0.28125 l -0.304687,0.8085938 c -0.219727,-0.1230469 -0.433594,-0.1875 -0.644532,-0.1875 -0.196289,0.00879 -0.36914,0.067383 -0.515625,0.1757812 -0.158203,0.1171875 -0.27832,0.3046875 -0.363281,0.5625 -0.0791,0.2578125 -0.117187,0.5712891 -0.117187,0.9375 V 6.1759994e-7 Z m 6.738282,0 V -0.76171813 c -0.407227,0.5859375 -0.955079,0.87890625 -1.640625,0.87890625 -0.313477,0 -0.597657,-0.05859375 -0.855469,-0.17578125 -0.275391,-0.1171875 -0.47461,-0.26367188 -0.597656,-0.4453125 -0.134766,-0.16992188 -0.222657,-0.38671875 -0.269532,-0.64453127 -0.03223,-0.1699219 -0.04687,-0.4453125 -0.04687,-0.8203125 v -3.2109375 h 0.878907 v 2.8710938 c 0,0.4628906 0.01758,0.7910156 0.05859,0.984375 0.04687,0.196289 0.158203,0.35742184 0.339844,0.48046872 0.178711,0.13476562 0.401367,0.19921875 0.667969,0.19921875 0.257812,0 0.503906,-0.0644531 0.738281,-0.19921875 0.225586,-0.13183594 0.389649,-0.31640622 0.492188,-0.55078122 0.09375,-0.225586 0.140625,-0.5625 0.140625,-1.0078125 v -2.7773438 h 0.878906 V 6.1759994e-7 Z m 2.147461,0 V -5.1796869 h 0.785156 v 0.7265625 c 0.164062,-0.2578125 0.380859,-0.4628906 0.65625,-0.6210937 0.263672,-0.1464844 0.568359,-0.2226563 0.914062,-0.2226563 0.38086,0 0.697266,0.079102 0.949219,0.234375 0.240234,0.1640625 0.413086,0.3867188 0.515625,0.6679688 0.404297,-0.600586 0.94043,-0.9023438 1.605469,-0.9023438 0.506836,0 0.902344,0.140625 1.183594,0.421875 0.28125,0.2900391 0.421875,0.7265625 0.421875,1.3125 V 6.1759994e-7 H 41.199219 V -3.2695306 c 0,-0.3515625 -0.0293,-0.6035157 -0.08203,-0.7617188 -0.06445,-0.1464844 -0.169922,-0.2695312 -0.316406,-0.3632812 -0.149414,-0.09375 -0.325196,-0.140625 -0.527344,-0.140625 -0.369141,0 -0.667969,0.1171875 -0.902344,0.3515625 -0.243164,0.2519531 -0.363281,0.6416015 -0.363281,1.171875 V 6.1759994e-7 H 38.128907 V -3.3632806 c 0,-0.3896485 -0.07031,-0.6826172 -0.210938,-0.8789063 -0.149414,-0.1933594 -0.383789,-0.2929687 -0.703125,-0.2929687 -0.251953,0 -0.480468,0.064453 -0.691406,0.1875 -0.210937,0.1347656 -0.363281,0.3251953 -0.457031,0.5742187 -0.09375,0.2519531 -0.140625,0.6152344 -0.140625,1.0898438 V 6.1759994e-7 Z m 0,0"
         style="fill:#000000;fill-opacity:1;fill-rule:nonzero;stroke:none"
         aria-label="Spectrum"
         transform="matrix(1.3333333,0,0,1.3333333,593.81771,500)"
         clip-path="url(#clipPath111)"
         id="path112" />
    </g>
    <path
       id="path114"
       d="M -0.01074173,-9.759241e-4 2.7314458,-7.1611322 H 3.750977 L 6.6806645,-9.759241e-4 H 5.6025395 L 4.7705083,-2.1689447 H 1.782227 L 0.99707077,-9.759241e-4 Z M 2.0517583,-2.9423822 h 2.4257812 l -0.75,-1.9804687 C 3.4990239,-5.5146478 3.3320317,-6.0068353 3.2236333,-6.3994134 3.1298833,-5.9453119 3.000977,-5.4912103 2.8369145,-5.0400384 Z M 7.313477,-9.759241e-4 V -5.1806634 h 0.796875 v 0.7382812 c 0.375,-0.5683594 0.9199219,-0.8554687 1.640625,-0.8554687 0.310547,0 0.600586,0.055664 0.867188,0.1640625 0.257812,0.1171875 0.451171,0.2666015 0.585937,0.4453125 0.123047,0.1816406 0.216797,0.3955078 0.28125,0.6445312 0.0293,0.1640625 0.04687,0.4511719 0.04687,0.8554688 V -9.759241e-4 H 10.653321 V -3.1533197 c 0,-0.3515625 -0.03516,-0.6210937 -0.105469,-0.8085937 -0.07031,-0.1699219 -0.193359,-0.3105469 -0.363281,-0.421875 -0.172852,-0.099609 -0.4160158,-0.1523438 -0.7265627,-0.1523438 -0.3046875,0 -0.5917969,0.1171875 -0.8554688,0.3515625 -0.2753906,0.2431641 -0.4101562,0.6914063 -0.4101562,1.3476563 V -9.759241e-4 Z M 16.246094,-0.64550718 c -0.328125,0.28125001 -0.641601,0.47753907 -0.9375,0.58593751 -0.304687,0.1171875 -0.629883,0.17578125 -0.972656,0.17578125 -0.571289,0 -1.007813,-0.140625 -1.3125,-0.421875 -0.313477,-0.27246094 -0.46582,-0.62695313 -0.457031,-1.06640628 0,-0.2490234 0.05859,-0.4804687 0.175781,-0.6914062 0.108398,-0.2109375 0.260742,-0.3779297 0.457031,-0.5039063 0.178711,-0.1230469 0.386719,-0.2226562 0.621094,-0.2929687 0.169922,-0.038086 0.433594,-0.082031 0.785156,-0.1289063 0.703125,-0.076172 1.22461,-0.1787109 1.570313,-0.3046875 0,-0.1171875 0,-0.1904297 0,-0.2226562 0,-0.3574219 -0.09961,-0.6240235 -0.292969,-0.796875 -0.196289,-0.1699219 -0.515625,-0.2578125 -0.960938,-0.2578125 -0.416015,0 -0.714843,0.070312 -0.902343,0.2109375 -0.205078,0.149414 -0.351563,0.4072265 -0.445313,0.7734375 L 12.71875,-3.7041009 c 0.07031,-0.366211 0.199219,-0.6621094 0.386719,-0.890625 0.178711,-0.225586 0.436524,-0.4013672 0.773438,-0.5273438 0.333984,-0.1171875 0.726562,-0.1757812 1.171875,-0.1757812 0.436523,0 0.796875,0.052734 1.078125,0.1523437 0.272461,0.1025391 0.474609,0.2314453 0.609375,0.3867188 0.131836,0.1640625 0.225586,0.3691406 0.28125,0.609375 0.02344,0.149414 0.03516,0.4189453 0.03516,0.8085937 v 1.171875 c 0,0.8144531 0.01758,1.33007815 0.05859,1.54687502 0.03809,0.21972657 0.111328,0.42773438 0.222656,0.6210937559 H 16.421875 C 16.328125,-0.17968686 16.269532,-0.39355405 16.246094,-0.64550718 Z m -0.07031,-1.95703122 c -0.322266,0.1347656 -0.802735,0.243164 -1.441407,0.328125 -0.360351,0.055664 -0.615234,0.1142578 -0.761718,0.1757812 -0.158203,0.070312 -0.275391,0.1640625 -0.351563,0.28125 -0.08789,0.1347656 -0.128906,0.2988281 -0.128906,0.4921875 0,0.1875 0.09375,0.36035159 0.28125,0.51562502 0.169922,0.15820313 0.427734,0.234375 0.773437,0.234375 0.333985,0.008789 0.635743,-0.0644531 0.902344,-0.22265625 0.263672,-0.140625 0.459961,-0.34277347 0.585938,-0.60937497 0.08496,-0.1933594 0.131836,-0.4863282 0.140625,-0.8789063 z m 2.217773,2.6015624759 V -7.1611322 h 0.878906 V -9.759241e-4 Z M 20.590821,1.9912116 20.497071,1.1708991 c 0.1875,0.052734 0.363281,0.082031 0.527344,0.082031 0.169921,0 0.316406,-0.035156 0.433593,-0.1054687 0.117188,-0.064453 0.213867,-0.15234377 0.292969,-0.26953127 0.05273,-0.0878906 0.143555,-0.3046875 0.269531,-0.65625 0.01465,-0.046875 0.04102,-0.1171875 0.08203,-0.2109375 L 20.13379,-5.1806634 h 0.949218 l 1.078125,3 c 0.131836,0.383789 0.257813,0.7822265 0.375,1.19531247 0.09375,-0.39843747 0.210938,-0.79101567 0.351563,-1.18359377 l 1.113281,-3.0117187 h 0.878906 l -1.96875,5.26171873 C 22.700196,0.65820376 22.524415,1.0712897 22.38379,1.3232428 22.243165,1.5722663 22.073243,1.762696 21.879883,1.8974616 c -0.205078,0.140625 -0.445312,0.2109375 -0.726562,0.2109375 -0.172852,0 -0.360352,-0.041016 -0.5625,-0.1171875 z M 25.166993,-9.759241e-4 V -0.71581968 l 3.292968,-3.78515622 c -0.375,0.017578 -0.703125,0.023437 -0.984375,0.023437 h -2.121093 v -0.703125 h 4.242187 v 0.5742187 l -2.8125,3.2929688 -0.539062,0.59765622 c 0.389648,-0.0292969 0.761718,-0.046875 1.113281,-0.046875 h 2.390625 v 0.7617187559 z m 9.008789,-1.6640624759 0.902344,0.1054687 c -0.140625,0.5332031 -0.404297,0.94628909 -0.785157,1.24218753 -0.392578,0.29003906 -0.887695,0.43359375 -1.488281,0.43359375 -0.758789,0 -1.359375,-0.234375 -1.804687,-0.70312501 -0.445313,-0.45996097 -0.667969,-1.11328127 -0.667969,-1.95703127 0,-0.8730469 0.225586,-1.5527344 0.679687,-2.0390625 0.445313,-0.4746094 1.025391,-0.7148437 1.746094,-0.7148437 0.694336,0 1.259766,0.234375 1.699219,0.703125 0.436523,0.477539 0.65625,1.1425781 0.65625,1.9921875 0,0.055664 0,0.1347656 0,0.234375 h -3.867188 c 0.0293,0.571289 0.19043,1.0078125 0.480469,1.3125 0.287109,0.2988281 0.647461,0.44531247 1.078125,0.44531247 0.319336,0.008789 0.597656,-0.0732422 0.832031,-0.24609375 0.225586,-0.16992192 0.404297,-0.43945312 0.539063,-0.80859372 z m -2.882813,-1.4296875 h 2.894532 c -0.04687,-0.4277344 -0.1875,-0.7792969 -0.421875,-1.0546875 -0.228516,-0.28125 -0.559571,-0.4248047 -0.996094,-0.4335938 -0.407227,0.00879 -0.747071,0.1464844 -1.019531,0.4101563 -0.28125,0.2666015 -0.433594,0.6269531 -0.457032,1.078125 z M 36.15918,-9.759241e-4 V -5.1806634 h 0.796875 v 0.7851562 c 0.19336,-0.3662109 0.38086,-0.609375 0.5625,-0.7265625 0.164063,-0.1171875 0.369141,-0.1757812 0.621094,-0.1757812 0.249023,0 0.530273,0.09375 0.84375,0.28125 l -0.304688,0.8085937 c -0.219726,-0.1230469 -0.433593,-0.1875 -0.644531,-0.1875 -0.196289,0.00879 -0.36914,0.067383 -0.515625,0.1757813 -0.158203,0.1171875 -0.27832,0.3046875 -0.363281,0.5625 -0.0791,0.2578125 -0.117188,0.571289 -0.117188,0.9375 v 2.7187499759 z m 0,0"
       style="fill:#000000;fill-opacity:1;fill-rule:nonzero;stroke:none"
       aria-label="Analyzer"
       transform="matrix(1.3333333,0,0,1.3333333,596.40104,517.33333)"
       clip-path="url(#clipPath115)" />
    <path
       id="path116"
       d="m 200.09734,230.04 h 42"
       style="fill:none;stroke:#000000;stroke-width:0.24;stroke-linecap:butt;stroke-linejoin:miter;stroke-miterlimit:2;stroke-dasharray:none;stroke-opacity:1"
       transform="matrix(1.3333333,0,0,1.3333333,198.96354,16.000001)"
       clip-path="url(#clipPath117)" />
    <path
       id="path118"
       d="m 1808.9277,966.33333 -33.3333,-16.66666 V 983 Z"
       style="fill:#000000;fill-opacity:1;fill-rule:nonzero;stroke:none"
       transform="matrix(0.32,0,0,0.32,13.44,13.440001)"
       clip-path="url(#clipPath119)" />
    <path
       id="path120"
       d="m 242.09734,230.04 h 45.04"
       style="fill:none;stroke:#000000;stroke-width:0.24;stroke-linecap:butt;stroke-linejoin:miter;stroke-miterlimit:2;stroke-dasharray:none;stroke-opacity:1"
       transform="matrix(1.3333333,0,0,1.3333333,198.96354,16.000001)"
       clip-path="url(#clipPath121)" />
    <path
       id="path122"
       d="M 1808.9277,1362.1667 1775.5944,1345.5 v 33.3333 z"
       style="fill:#000000;fill-opacity:1;fill-rule:nonzero;stroke:none"
       transform="matrix(0.32,0,0,0.32,13.44,13.440001)"
       clip-path="url(#clipPath123)" />
    <path
       id="path124"
       d="m 242.09734,230.04 v 95.04 h 45.04"
       style="fill:none;stroke:#000000;stroke-width:0.24;stroke-linecap:butt;stroke-linejoin:miter;stroke-miterlimit:2;stroke-dasharray:none;stroke-opacity:1"
       transform="matrix(1.3333333,0,0,1.3333333,198.96354,16.000001)"
       clip-path="url(#clipPath125)" />
    <path
       id="path126"
       d="m 1594.75,966.5 c 0,3.45178 -2.7982,6.25 -6.25,6.25 -3.4518,0 -6.25,-2.79822 -6.25,-6.25 0,-3.45178 2.7982,-6.25 6.25,-6.25 3.4518,0 6.25,2.79822 6.25,6.25 z"
       style="fill:#000000;fill-opacity:1;fill-rule:evenodd;stroke:none"
       transform="matrix(0.32,0,0,0.32,13.44,13.440001)"
       clip-path="url(#clipPath127)" />
  </g>
</svg>
